%
M48
M72
T01C0.01378
T02C0.01575
T03C0.02165
T04C0.02756
T05C0.03150
T06C0.03543
T07C0.03937
%
T01
X46526Y89990
X34324Y95898
X38733Y116500
X36197Y128624
X47028Y128591
X47559Y144229
X42779Y146085
X55659Y144229
X34839Y161221
X26434Y150623
X43351Y177905
X38333Y190900
X49333Y213800
X56377Y223150
X53437Y232994
X56587Y245300
X67769Y248719
X67769Y253719
X67769Y263719
X62527Y266500
X80347Y248008
X80347Y232813
X67769Y233719
X67769Y228719
X67769Y218719
X77997Y214264
X62527Y205003
X71333Y191500
X80702Y197853
X93133Y183700
X120702Y197853
X125702Y197853
X133733Y193500
X141750Y185000
X157559Y220591
X138635Y223719
X126244Y223500
X119933Y224428
X119933Y228365
X119933Y232302
X119933Y236239
X115996Y236239
X115996Y232302
X115996Y228365
X115996Y224428
X112059Y224428
X112059Y228365
X112059Y232302
X112059Y236239
X108122Y236239
X108122Y232302
X108122Y228365
X108122Y224428
X104185Y224428
X104185Y228365
X104185Y232302
X104185Y236239
X100248Y236239
X100248Y232302
X100248Y228365
X100248Y224428
X96310Y228365
X96310Y232302
X96310Y236239
X125735Y250301
X133035Y243001
X133333Y238900
X138635Y258719
X138635Y263719
X60833Y188854
X38012Y222300
X26633Y224700
X22622Y234328
X26010Y236283
X16333Y234400
X17401Y245001
X28633Y248400
X32725Y250783
X39309Y250127
X203988Y170372
X208996Y160291
X224808Y150765
X224044Y131400
X242633Y103000
X256033Y110500
X287733Y176200
X243233Y203289
X239057Y200889
X242203Y196430
X235333Y195511
X225533Y218500
X339810Y164521
X336533Y136400
X336233Y97000
X342733Y79600
X332433Y72600
T02
X47602Y153839
X44059Y157383
X47602Y160926
X40515Y160926
X40515Y153839
T03
X295415Y123056
X304188Y122998
X304052Y101744
X295278Y101802
T04
X43081Y258138
X27726Y258084
T05
X22424Y254522
X48408Y254613
T06
X49550Y265641
X21204Y265542
X27865Y99141
X29126Y72399
T07
X62930Y67138
X73069Y67172
X337133Y119000
X341425Y188895
X342027Y208112
X342733Y227600
M30
