G75*
%MOIN*%
%OFA0B0*%
%FSLAX25Y25*%
%IPPOS*%
%LPD*%
%AMOC8*
5,1,8,0,0,1.08239X$1,22.5*
%
%ADD10C,0.00600*%
%ADD11C,0.01200*%
%ADD12C,0.00500*%
%ADD13C,0.00591*%
%ADD14R,0.06706X0.04343*%
%ADD15R,0.04343X0.06706*%
%ADD16R,0.24422X0.24422*%
%ADD17R,0.05131X0.04737*%
%ADD18C,0.01351*%
%ADD19R,0.10643X0.10643*%
%ADD20C,0.01969*%
%ADD21C,0.04737*%
%ADD22C,0.00000*%
%ADD23R,0.01969X0.05709*%
%ADD24R,0.08674X0.04737*%
%ADD25C,0.05950*%
%ADD26R,0.10300X0.10300*%
%ADD27C,0.03556*%
%ADD28R,0.04737X0.05131*%
%ADD29R,0.06312X0.04737*%
%ADD30R,0.11036X0.06312*%
%ADD31R,0.05918X0.06706*%
%ADD32OC8,0.06737*%
%ADD33R,0.04737X0.04737*%
%ADD34R,0.03950X0.03950*%
%ADD35R,0.10839X0.10643*%
%ADD36R,0.11430X0.11430*%
%ADD37C,0.02178*%
%ADD38C,0.04375*%
%ADD39R,0.20485X0.08674*%
%ADD40R,0.07099X0.11430*%
%ADD41C,0.04965*%
%ADD42R,0.04737X0.07099*%
%ADD43C,0.04343*%
%ADD44R,0.04737X0.06312*%
%ADD45R,0.08674X0.08674*%
%ADD46R,0.06706X0.05918*%
%ADD47R,0.03162X0.02375*%
%ADD48C,0.03778*%
D10*
X0018536Y0053992D02*
X0059875Y0052417D01*
X0116174Y0051236D01*
X0168930Y0050449D01*
X0239009Y0050449D01*
X0315781Y0050843D01*
X0349639Y0051236D01*
X0350033Y0056354D01*
X0350426Y0061079D01*
X0350820Y0065409D01*
X0352001Y0078008D01*
X0352788Y0091000D01*
X0353576Y0103598D01*
X0353970Y0112654D01*
X0354363Y0118953D01*
X0354757Y0127220D01*
X0355151Y0132732D01*
X0355544Y0138638D01*
X0355938Y0148480D01*
X0356725Y0163835D01*
X0357119Y0170528D01*
X0357907Y0187063D01*
X0358300Y0192575D01*
X0358694Y0202024D01*
X0359088Y0211079D01*
X0359481Y0221709D01*
X0360269Y0242181D01*
X0361056Y0263441D01*
X0361056Y0272102D01*
X0342552Y0272890D01*
X0302395Y0273677D01*
X0279212Y0273741D01*
X0238661Y0274528D01*
X0283041Y0234773D02*
X0283047Y0235256D01*
X0283065Y0235739D01*
X0283094Y0236221D01*
X0283136Y0236702D01*
X0283189Y0237183D01*
X0283254Y0237661D01*
X0283331Y0238138D01*
X0283419Y0238613D01*
X0283519Y0239086D01*
X0283631Y0239556D01*
X0283754Y0240023D01*
X0283889Y0240487D01*
X0284035Y0240948D01*
X0284192Y0241405D01*
X0284360Y0241858D01*
X0284539Y0242306D01*
X0284730Y0242750D01*
X0284931Y0243189D01*
X0285143Y0243624D01*
X0285365Y0244052D01*
X0285598Y0244476D01*
X0285842Y0244893D01*
X0286095Y0245304D01*
X0286359Y0245709D01*
X0286632Y0246108D01*
X0286915Y0246499D01*
X0287207Y0246884D01*
X0287509Y0247261D01*
X0287820Y0247631D01*
X0288140Y0247993D01*
X0288469Y0248347D01*
X0288807Y0248692D01*
X0289152Y0249030D01*
X0289506Y0249359D01*
X0289868Y0249679D01*
X0290238Y0249990D01*
X0290615Y0250292D01*
X0291000Y0250584D01*
X0291391Y0250867D01*
X0291790Y0251140D01*
X0292195Y0251404D01*
X0292606Y0251657D01*
X0293023Y0251901D01*
X0293447Y0252134D01*
X0293875Y0252356D01*
X0294310Y0252568D01*
X0294749Y0252769D01*
X0295193Y0252960D01*
X0295641Y0253139D01*
X0296094Y0253307D01*
X0296551Y0253464D01*
X0297012Y0253610D01*
X0297476Y0253745D01*
X0297943Y0253868D01*
X0298413Y0253980D01*
X0298886Y0254080D01*
X0299361Y0254168D01*
X0299838Y0254245D01*
X0300316Y0254310D01*
X0300797Y0254363D01*
X0301278Y0254405D01*
X0301760Y0254434D01*
X0302243Y0254452D01*
X0302726Y0254458D01*
X0303209Y0254452D01*
X0303692Y0254434D01*
X0304174Y0254405D01*
X0304655Y0254363D01*
X0305136Y0254310D01*
X0305614Y0254245D01*
X0306091Y0254168D01*
X0306566Y0254080D01*
X0307039Y0253980D01*
X0307509Y0253868D01*
X0307976Y0253745D01*
X0308440Y0253610D01*
X0308901Y0253464D01*
X0309358Y0253307D01*
X0309811Y0253139D01*
X0310259Y0252960D01*
X0310703Y0252769D01*
X0311142Y0252568D01*
X0311577Y0252356D01*
X0312005Y0252134D01*
X0312429Y0251901D01*
X0312846Y0251657D01*
X0313257Y0251404D01*
X0313662Y0251140D01*
X0314061Y0250867D01*
X0314452Y0250584D01*
X0314837Y0250292D01*
X0315214Y0249990D01*
X0315584Y0249679D01*
X0315946Y0249359D01*
X0316300Y0249030D01*
X0316645Y0248692D01*
X0316983Y0248347D01*
X0317312Y0247993D01*
X0317632Y0247631D01*
X0317943Y0247261D01*
X0318245Y0246884D01*
X0318537Y0246499D01*
X0318820Y0246108D01*
X0319093Y0245709D01*
X0319357Y0245304D01*
X0319610Y0244893D01*
X0319854Y0244476D01*
X0320087Y0244052D01*
X0320309Y0243624D01*
X0320521Y0243189D01*
X0320722Y0242750D01*
X0320913Y0242306D01*
X0321092Y0241858D01*
X0321260Y0241405D01*
X0321417Y0240948D01*
X0321563Y0240487D01*
X0321698Y0240023D01*
X0321821Y0239556D01*
X0321933Y0239086D01*
X0322033Y0238613D01*
X0322121Y0238138D01*
X0322198Y0237661D01*
X0322263Y0237183D01*
X0322316Y0236702D01*
X0322358Y0236221D01*
X0322387Y0235739D01*
X0322405Y0235256D01*
X0322411Y0234773D01*
X0322405Y0234290D01*
X0322387Y0233807D01*
X0322358Y0233325D01*
X0322316Y0232844D01*
X0322263Y0232363D01*
X0322198Y0231885D01*
X0322121Y0231408D01*
X0322033Y0230933D01*
X0321933Y0230460D01*
X0321821Y0229990D01*
X0321698Y0229523D01*
X0321563Y0229059D01*
X0321417Y0228598D01*
X0321260Y0228141D01*
X0321092Y0227688D01*
X0320913Y0227240D01*
X0320722Y0226796D01*
X0320521Y0226357D01*
X0320309Y0225922D01*
X0320087Y0225494D01*
X0319854Y0225070D01*
X0319610Y0224653D01*
X0319357Y0224242D01*
X0319093Y0223837D01*
X0318820Y0223438D01*
X0318537Y0223047D01*
X0318245Y0222662D01*
X0317943Y0222285D01*
X0317632Y0221915D01*
X0317312Y0221553D01*
X0316983Y0221199D01*
X0316645Y0220854D01*
X0316300Y0220516D01*
X0315946Y0220187D01*
X0315584Y0219867D01*
X0315214Y0219556D01*
X0314837Y0219254D01*
X0314452Y0218962D01*
X0314061Y0218679D01*
X0313662Y0218406D01*
X0313257Y0218142D01*
X0312846Y0217889D01*
X0312429Y0217645D01*
X0312005Y0217412D01*
X0311577Y0217190D01*
X0311142Y0216978D01*
X0310703Y0216777D01*
X0310259Y0216586D01*
X0309811Y0216407D01*
X0309358Y0216239D01*
X0308901Y0216082D01*
X0308440Y0215936D01*
X0307976Y0215801D01*
X0307509Y0215678D01*
X0307039Y0215566D01*
X0306566Y0215466D01*
X0306091Y0215378D01*
X0305614Y0215301D01*
X0305136Y0215236D01*
X0304655Y0215183D01*
X0304174Y0215141D01*
X0303692Y0215112D01*
X0303209Y0215094D01*
X0302726Y0215088D01*
X0302243Y0215094D01*
X0301760Y0215112D01*
X0301278Y0215141D01*
X0300797Y0215183D01*
X0300316Y0215236D01*
X0299838Y0215301D01*
X0299361Y0215378D01*
X0298886Y0215466D01*
X0298413Y0215566D01*
X0297943Y0215678D01*
X0297476Y0215801D01*
X0297012Y0215936D01*
X0296551Y0216082D01*
X0296094Y0216239D01*
X0295641Y0216407D01*
X0295193Y0216586D01*
X0294749Y0216777D01*
X0294310Y0216978D01*
X0293875Y0217190D01*
X0293447Y0217412D01*
X0293023Y0217645D01*
X0292606Y0217889D01*
X0292195Y0218142D01*
X0291790Y0218406D01*
X0291391Y0218679D01*
X0291000Y0218962D01*
X0290615Y0219254D01*
X0290238Y0219556D01*
X0289868Y0219867D01*
X0289506Y0220187D01*
X0289152Y0220516D01*
X0288807Y0220854D01*
X0288469Y0221199D01*
X0288140Y0221553D01*
X0287820Y0221915D01*
X0287509Y0222285D01*
X0287207Y0222662D01*
X0286915Y0223047D01*
X0286632Y0223438D01*
X0286359Y0223837D01*
X0286095Y0224242D01*
X0285842Y0224653D01*
X0285598Y0225070D01*
X0285365Y0225494D01*
X0285143Y0225922D01*
X0284931Y0226357D01*
X0284730Y0226796D01*
X0284539Y0227240D01*
X0284360Y0227688D01*
X0284192Y0228141D01*
X0284035Y0228598D01*
X0283889Y0229059D01*
X0283754Y0229523D01*
X0283631Y0229990D01*
X0283519Y0230460D01*
X0283419Y0230933D01*
X0283331Y0231408D01*
X0283254Y0231885D01*
X0283189Y0232363D01*
X0283136Y0232844D01*
X0283094Y0233325D01*
X0283065Y0233807D01*
X0283047Y0234290D01*
X0283041Y0234773D01*
X0024881Y0274725D02*
X0009875Y0274465D01*
X0010269Y0258717D01*
X0010662Y0241000D01*
X0011056Y0224858D01*
X0011450Y0211079D01*
X0011844Y0197693D01*
X0012237Y0185488D01*
X0012631Y0174465D01*
X0013025Y0161866D01*
X0013418Y0151630D01*
X0014206Y0129583D01*
X0014599Y0120134D01*
X0014993Y0113047D01*
X0015387Y0104780D01*
X0015781Y0096118D01*
X0016174Y0088638D01*
X0016568Y0080764D01*
X0016962Y0075252D01*
X0017355Y0068559D01*
X0017749Y0063047D01*
X0018143Y0058323D01*
X0018536Y0053992D01*
D11*
X0276892Y0074092D02*
X0277680Y0073305D01*
X0278861Y0072911D01*
X0280436Y0072517D01*
X0285948Y0072517D01*
X0287522Y0072911D01*
X0289097Y0074092D01*
X0288703Y0074880D01*
X0287522Y0075667D01*
X0285554Y0076061D01*
X0283192Y0076454D01*
X0279255Y0076061D01*
X0278073Y0075667D01*
X0277286Y0075273D01*
X0276892Y0074880D01*
X0276892Y0074092D01*
X0276913Y0074072D02*
X0289070Y0074072D01*
X0288117Y0075270D02*
X0277283Y0075270D01*
X0279012Y0072873D02*
X0287371Y0072873D01*
X0291359Y0074086D02*
X0292147Y0073298D01*
X0293328Y0072905D01*
X0294903Y0072511D01*
X0300414Y0072511D01*
X0301989Y0072905D01*
X0303564Y0074086D01*
X0303170Y0074873D01*
X0301989Y0075661D01*
X0300021Y0076054D01*
X0297659Y0076448D01*
X0293722Y0076054D01*
X0292540Y0075661D01*
X0291753Y0075267D01*
X0291359Y0074873D01*
X0291359Y0074086D01*
X0291373Y0074072D02*
X0303545Y0074072D01*
X0302575Y0075270D02*
X0291760Y0075270D01*
X0293454Y0072873D02*
X0301863Y0072873D01*
X0305926Y0074086D02*
X0306714Y0073298D01*
X0307895Y0072905D01*
X0309470Y0072511D01*
X0314981Y0072511D01*
X0316556Y0072905D01*
X0318131Y0074086D01*
X0317737Y0074873D01*
X0316556Y0075661D01*
X0314588Y0076054D01*
X0312225Y0076448D01*
X0308288Y0076054D01*
X0307107Y0075661D01*
X0306320Y0075267D01*
X0305926Y0074873D01*
X0305926Y0074086D01*
X0305940Y0074072D02*
X0318112Y0074072D01*
X0317142Y0075270D02*
X0306327Y0075270D01*
X0308021Y0072873D02*
X0316430Y0072873D01*
D12*
X0214421Y0259861D02*
X0167177Y0259861D01*
X0167053Y0259863D01*
X0166930Y0259869D01*
X0166806Y0259878D01*
X0166684Y0259892D01*
X0166561Y0259909D01*
X0166439Y0259931D01*
X0166318Y0259956D01*
X0166198Y0259985D01*
X0166079Y0260017D01*
X0165960Y0260054D01*
X0165843Y0260094D01*
X0165728Y0260137D01*
X0165613Y0260185D01*
X0165501Y0260236D01*
X0165390Y0260290D01*
X0165280Y0260348D01*
X0165173Y0260409D01*
X0165067Y0260474D01*
X0164964Y0260542D01*
X0164863Y0260613D01*
X0164764Y0260687D01*
X0164667Y0260764D01*
X0164573Y0260845D01*
X0164482Y0260928D01*
X0164393Y0261014D01*
X0164307Y0261103D01*
X0164224Y0261194D01*
X0164143Y0261288D01*
X0164066Y0261385D01*
X0163992Y0261484D01*
X0163921Y0261585D01*
X0163853Y0261688D01*
X0163788Y0261794D01*
X0163727Y0261901D01*
X0163669Y0262011D01*
X0163615Y0262122D01*
X0163564Y0262234D01*
X0163516Y0262349D01*
X0163473Y0262464D01*
X0163433Y0262581D01*
X0163396Y0262700D01*
X0163364Y0262819D01*
X0163335Y0262939D01*
X0163310Y0263060D01*
X0163288Y0263182D01*
X0163271Y0263305D01*
X0163257Y0263427D01*
X0163248Y0263551D01*
X0163242Y0263674D01*
X0163240Y0263798D01*
X0163242Y0263922D01*
X0163248Y0264045D01*
X0163257Y0264169D01*
X0163271Y0264291D01*
X0163288Y0264414D01*
X0163310Y0264536D01*
X0163335Y0264657D01*
X0163364Y0264777D01*
X0163396Y0264896D01*
X0163433Y0265015D01*
X0163473Y0265132D01*
X0163516Y0265247D01*
X0163564Y0265362D01*
X0163615Y0265474D01*
X0163669Y0265585D01*
X0163727Y0265695D01*
X0163788Y0265802D01*
X0163853Y0265908D01*
X0163921Y0266011D01*
X0163992Y0266112D01*
X0164066Y0266211D01*
X0164143Y0266308D01*
X0164224Y0266402D01*
X0164307Y0266493D01*
X0164393Y0266582D01*
X0164482Y0266668D01*
X0164573Y0266751D01*
X0164667Y0266832D01*
X0164764Y0266909D01*
X0164863Y0266983D01*
X0164964Y0267054D01*
X0165067Y0267122D01*
X0165173Y0267187D01*
X0165280Y0267248D01*
X0165390Y0267306D01*
X0165501Y0267360D01*
X0165613Y0267411D01*
X0165728Y0267459D01*
X0165843Y0267502D01*
X0165960Y0267542D01*
X0166079Y0267579D01*
X0166198Y0267611D01*
X0166318Y0267640D01*
X0166439Y0267665D01*
X0166561Y0267687D01*
X0166684Y0267704D01*
X0166806Y0267718D01*
X0166930Y0267727D01*
X0167053Y0267733D01*
X0167177Y0267735D01*
X0214421Y0267735D01*
X0214545Y0267733D01*
X0214668Y0267727D01*
X0214792Y0267718D01*
X0214914Y0267704D01*
X0215037Y0267687D01*
X0215159Y0267665D01*
X0215280Y0267640D01*
X0215400Y0267611D01*
X0215519Y0267579D01*
X0215638Y0267542D01*
X0215755Y0267502D01*
X0215870Y0267459D01*
X0215985Y0267411D01*
X0216097Y0267360D01*
X0216208Y0267306D01*
X0216318Y0267248D01*
X0216425Y0267187D01*
X0216531Y0267122D01*
X0216634Y0267054D01*
X0216735Y0266983D01*
X0216834Y0266909D01*
X0216931Y0266832D01*
X0217025Y0266751D01*
X0217116Y0266668D01*
X0217205Y0266582D01*
X0217291Y0266493D01*
X0217374Y0266402D01*
X0217455Y0266308D01*
X0217532Y0266211D01*
X0217606Y0266112D01*
X0217677Y0266011D01*
X0217745Y0265908D01*
X0217810Y0265802D01*
X0217871Y0265695D01*
X0217929Y0265585D01*
X0217983Y0265474D01*
X0218034Y0265362D01*
X0218082Y0265247D01*
X0218125Y0265132D01*
X0218165Y0265015D01*
X0218202Y0264896D01*
X0218234Y0264777D01*
X0218263Y0264657D01*
X0218288Y0264536D01*
X0218310Y0264414D01*
X0218327Y0264291D01*
X0218341Y0264169D01*
X0218350Y0264045D01*
X0218356Y0263922D01*
X0218358Y0263798D01*
X0218356Y0263674D01*
X0218350Y0263551D01*
X0218341Y0263427D01*
X0218327Y0263305D01*
X0218310Y0263182D01*
X0218288Y0263060D01*
X0218263Y0262939D01*
X0218234Y0262819D01*
X0218202Y0262700D01*
X0218165Y0262581D01*
X0218125Y0262464D01*
X0218082Y0262349D01*
X0218034Y0262234D01*
X0217983Y0262122D01*
X0217929Y0262011D01*
X0217871Y0261901D01*
X0217810Y0261794D01*
X0217745Y0261688D01*
X0217677Y0261585D01*
X0217606Y0261484D01*
X0217532Y0261385D01*
X0217455Y0261288D01*
X0217374Y0261194D01*
X0217291Y0261103D01*
X0217205Y0261014D01*
X0217116Y0260928D01*
X0217025Y0260845D01*
X0216931Y0260764D01*
X0216834Y0260687D01*
X0216735Y0260613D01*
X0216634Y0260542D01*
X0216531Y0260474D01*
X0216425Y0260409D01*
X0216318Y0260348D01*
X0216208Y0260290D01*
X0216097Y0260236D01*
X0215985Y0260185D01*
X0215870Y0260137D01*
X0215755Y0260094D01*
X0215638Y0260054D01*
X0215519Y0260017D01*
X0215400Y0259985D01*
X0215280Y0259956D01*
X0215159Y0259931D01*
X0215037Y0259909D01*
X0214914Y0259892D01*
X0214792Y0259878D01*
X0214668Y0259869D01*
X0214545Y0259863D01*
X0214421Y0259861D01*
D13*
X0220157Y0274922D02*
X0247322Y0378072D01*
X0247322Y0378071D02*
X0247347Y0378169D01*
X0247375Y0378266D01*
X0247407Y0378361D01*
X0247442Y0378455D01*
X0247481Y0378548D01*
X0247524Y0378639D01*
X0247570Y0378728D01*
X0247620Y0378816D01*
X0247672Y0378902D01*
X0247728Y0378985D01*
X0247788Y0379067D01*
X0247850Y0379146D01*
X0247915Y0379222D01*
X0247983Y0379296D01*
X0248054Y0379367D01*
X0248128Y0379436D01*
X0248204Y0379502D01*
X0248283Y0379565D01*
X0248364Y0379624D01*
X0248447Y0379681D01*
X0248532Y0379734D01*
X0248619Y0379784D01*
X0248709Y0379831D01*
X0248799Y0379874D01*
X0248892Y0379914D01*
X0248986Y0379950D01*
X0249081Y0379982D01*
X0249177Y0380011D01*
X0249275Y0380036D01*
X0249373Y0380057D01*
X0249472Y0380075D01*
X0249572Y0380089D01*
X0249672Y0380099D01*
X0249772Y0380105D01*
X0249873Y0380107D01*
X0249974Y0380105D01*
X0250074Y0380100D01*
X0250174Y0380091D01*
X0250274Y0380077D01*
X0250373Y0380060D01*
X0250471Y0380040D01*
X0250472Y0380040D02*
X0260314Y0378072D01*
X0260315Y0378071D02*
X0260430Y0378056D01*
X0260546Y0378038D01*
X0260660Y0378016D01*
X0260774Y0377989D01*
X0260887Y0377960D01*
X0260998Y0377926D01*
X0261109Y0377889D01*
X0261218Y0377849D01*
X0261326Y0377804D01*
X0261433Y0377757D01*
X0261538Y0377705D01*
X0261641Y0377651D01*
X0261742Y0377593D01*
X0261841Y0377532D01*
X0261938Y0377467D01*
X0262034Y0377400D01*
X0262126Y0377329D01*
X0262217Y0377255D01*
X0262305Y0377179D01*
X0262390Y0377099D01*
X0262473Y0377017D01*
X0262553Y0376932D01*
X0262630Y0376845D01*
X0262705Y0376755D01*
X0262776Y0376663D01*
X0262844Y0376568D01*
X0262910Y0376471D01*
X0262972Y0376373D01*
X0263030Y0376272D01*
X0263086Y0376169D01*
X0263138Y0376065D01*
X0263186Y0375959D01*
X0263231Y0375851D01*
X0263273Y0375742D01*
X0263311Y0375632D01*
X0263345Y0375520D01*
X0263376Y0375408D01*
X0263403Y0375294D01*
X0263426Y0375180D01*
X0263445Y0375065D01*
X0263461Y0374949D01*
X0263473Y0374833D01*
X0263481Y0374717D01*
X0263485Y0374600D01*
X0263486Y0374484D01*
X0263482Y0374367D01*
X0263475Y0374250D01*
X0263464Y0374134D01*
X0263464Y0374135D02*
X0238661Y0274528D01*
X0220157Y0274922D02*
X0161496Y0274922D01*
X0130787Y0373741D01*
X0130770Y0373843D01*
X0130750Y0373946D01*
X0130726Y0374047D01*
X0130698Y0374147D01*
X0130666Y0374246D01*
X0130630Y0374344D01*
X0130591Y0374441D01*
X0130549Y0374536D01*
X0130502Y0374629D01*
X0130453Y0374720D01*
X0130400Y0374810D01*
X0130343Y0374898D01*
X0130284Y0374983D01*
X0130221Y0375066D01*
X0130155Y0375147D01*
X0130086Y0375225D01*
X0130015Y0375300D01*
X0129940Y0375373D01*
X0129863Y0375443D01*
X0129784Y0375510D01*
X0129701Y0375574D01*
X0129617Y0375635D01*
X0129530Y0375693D01*
X0129442Y0375747D01*
X0129351Y0375798D01*
X0129258Y0375846D01*
X0129164Y0375890D01*
X0129068Y0375931D01*
X0128971Y0375968D01*
X0128872Y0376001D01*
X0128772Y0376031D01*
X0128671Y0376056D01*
X0128570Y0376078D01*
X0128467Y0376097D01*
X0128364Y0376111D01*
X0128260Y0376122D01*
X0128157Y0376128D01*
X0128052Y0376131D01*
X0127948Y0376130D01*
X0127844Y0376125D01*
X0127741Y0376116D01*
X0127637Y0376103D01*
X0117007Y0371772D01*
X0116922Y0371753D01*
X0116837Y0371730D01*
X0116754Y0371704D01*
X0116672Y0371674D01*
X0116591Y0371640D01*
X0116511Y0371603D01*
X0116434Y0371563D01*
X0116358Y0371519D01*
X0116284Y0371472D01*
X0116213Y0371421D01*
X0116143Y0371368D01*
X0116076Y0371312D01*
X0116012Y0371252D01*
X0115950Y0371190D01*
X0115891Y0371126D01*
X0115834Y0371059D01*
X0115781Y0370989D01*
X0115731Y0370917D01*
X0115684Y0370843D01*
X0115640Y0370768D01*
X0115600Y0370690D01*
X0115563Y0370610D01*
X0115530Y0370529D01*
X0115500Y0370447D01*
X0115474Y0370364D01*
X0115451Y0370279D01*
X0115432Y0370193D01*
X0115417Y0370107D01*
X0115406Y0370020D01*
X0115398Y0369933D01*
X0115394Y0369846D01*
X0115395Y0369758D01*
X0115398Y0369671D01*
X0115406Y0369583D01*
X0115418Y0369497D01*
X0115433Y0369410D01*
X0142992Y0274922D01*
X0024881Y0274725D01*
D14*
X0067769Y0268719D03*
X0067769Y0263719D03*
X0067769Y0258719D03*
X0067769Y0253719D03*
X0067769Y0248719D03*
X0067769Y0243719D03*
X0067769Y0238719D03*
X0067769Y0233719D03*
X0067769Y0228719D03*
X0067769Y0223719D03*
X0067769Y0218719D03*
X0067769Y0213719D03*
X0067769Y0208719D03*
X0067769Y0203719D03*
X0138635Y0203719D03*
X0138635Y0208719D03*
X0138635Y0213719D03*
X0138635Y0218719D03*
X0138635Y0223719D03*
X0138635Y0228719D03*
X0138635Y0233719D03*
X0138635Y0238719D03*
X0138635Y0243719D03*
X0138635Y0248719D03*
X0138635Y0253719D03*
X0138635Y0258719D03*
X0138635Y0263719D03*
X0138635Y0268719D03*
D15*
X0125702Y0197853D03*
X0120702Y0197853D03*
X0115702Y0197853D03*
X0110702Y0197853D03*
X0105702Y0197853D03*
X0100702Y0197853D03*
X0095702Y0197853D03*
X0090702Y0197853D03*
X0085702Y0197853D03*
X0080702Y0197853D03*
D16*
X0108320Y0238404D03*
D17*
X0147718Y0263920D03*
X0154411Y0263920D03*
X0060833Y0195546D03*
X0060833Y0188854D03*
X0052733Y0188854D03*
X0052733Y0195546D03*
X0033518Y0216335D03*
X0033518Y0223028D03*
X0020018Y0225828D03*
X0020018Y0219135D03*
X0028369Y0200342D03*
X0028369Y0193649D03*
X0047559Y0144229D03*
X0047559Y0137536D03*
X0055659Y0137536D03*
X0055659Y0144229D03*
X0046526Y0096683D03*
X0046526Y0089990D03*
X0046314Y0079335D03*
X0046314Y0072642D03*
X0202303Y0160291D03*
X0208996Y0160291D03*
X0309836Y0123540D03*
X0316529Y0123540D03*
X0340733Y0110046D03*
X0340733Y0103354D03*
X0340833Y0093746D03*
X0340833Y0087054D03*
X0338733Y0073346D03*
X0338733Y0066654D03*
D18*
X0046922Y0231374D02*
X0044322Y0231374D01*
X0046922Y0231374D02*
X0046922Y0230822D01*
X0044322Y0230822D01*
X0044322Y0231374D01*
X0044322Y0233342D02*
X0046922Y0233342D01*
X0046922Y0232790D01*
X0044322Y0232790D01*
X0044322Y0233342D01*
X0044322Y0235311D02*
X0046922Y0235311D01*
X0046922Y0234759D01*
X0044322Y0234759D01*
X0044322Y0235311D01*
X0044322Y0237279D02*
X0046922Y0237279D01*
X0046922Y0236727D01*
X0044322Y0236727D01*
X0044322Y0237279D01*
X0044322Y0239248D02*
X0046922Y0239248D01*
X0046922Y0238696D01*
X0044322Y0238696D01*
X0044322Y0239248D01*
X0044322Y0241216D02*
X0046922Y0241216D01*
X0046922Y0240664D01*
X0044322Y0240664D01*
X0044322Y0241216D01*
X0042946Y0242593D02*
X0042946Y0245193D01*
X0042946Y0242593D02*
X0042394Y0242593D01*
X0042394Y0245193D01*
X0042946Y0245193D01*
X0042946Y0243876D02*
X0042394Y0243876D01*
X0042394Y0245159D02*
X0042946Y0245159D01*
X0040977Y0245193D02*
X0040977Y0242593D01*
X0040425Y0242593D01*
X0040425Y0245193D01*
X0040977Y0245193D01*
X0040977Y0243876D02*
X0040425Y0243876D01*
X0040425Y0245159D02*
X0040977Y0245159D01*
X0039009Y0245193D02*
X0039009Y0242593D01*
X0038457Y0242593D01*
X0038457Y0245193D01*
X0039009Y0245193D01*
X0039009Y0243876D02*
X0038457Y0243876D01*
X0038457Y0245159D02*
X0039009Y0245159D01*
X0037040Y0245193D02*
X0037040Y0242593D01*
X0036488Y0242593D01*
X0036488Y0245193D01*
X0037040Y0245193D01*
X0037040Y0243876D02*
X0036488Y0243876D01*
X0036488Y0245159D02*
X0037040Y0245159D01*
X0035072Y0245193D02*
X0035072Y0242593D01*
X0034520Y0242593D01*
X0034520Y0245193D01*
X0035072Y0245193D01*
X0035072Y0243876D02*
X0034520Y0243876D01*
X0034520Y0245159D02*
X0035072Y0245159D01*
X0033103Y0245193D02*
X0033103Y0242593D01*
X0032551Y0242593D01*
X0032551Y0245193D01*
X0033103Y0245193D01*
X0033103Y0243876D02*
X0032551Y0243876D01*
X0032551Y0245159D02*
X0033103Y0245159D01*
X0031174Y0240664D02*
X0028574Y0240664D01*
X0028574Y0241216D01*
X0031174Y0241216D01*
X0031174Y0240664D01*
X0031174Y0238696D02*
X0028574Y0238696D01*
X0028574Y0239248D01*
X0031174Y0239248D01*
X0031174Y0238696D01*
X0031174Y0236727D02*
X0028574Y0236727D01*
X0028574Y0237279D01*
X0031174Y0237279D01*
X0031174Y0236727D01*
X0031174Y0234759D02*
X0028574Y0234759D01*
X0028574Y0235311D01*
X0031174Y0235311D01*
X0031174Y0234759D01*
X0031174Y0232790D02*
X0028574Y0232790D01*
X0028574Y0233342D01*
X0031174Y0233342D01*
X0031174Y0232790D01*
X0031174Y0230822D02*
X0028574Y0230822D01*
X0028574Y0231374D01*
X0031174Y0231374D01*
X0031174Y0230822D01*
X0032551Y0229445D02*
X0032551Y0226845D01*
X0032551Y0229445D02*
X0033103Y0229445D01*
X0033103Y0226845D01*
X0032551Y0226845D01*
X0032551Y0228128D02*
X0033103Y0228128D01*
X0033103Y0229411D02*
X0032551Y0229411D01*
X0034520Y0229445D02*
X0034520Y0226845D01*
X0034520Y0229445D02*
X0035072Y0229445D01*
X0035072Y0226845D01*
X0034520Y0226845D01*
X0034520Y0228128D02*
X0035072Y0228128D01*
X0035072Y0229411D02*
X0034520Y0229411D01*
X0036488Y0229445D02*
X0036488Y0226845D01*
X0036488Y0229445D02*
X0037040Y0229445D01*
X0037040Y0226845D01*
X0036488Y0226845D01*
X0036488Y0228128D02*
X0037040Y0228128D01*
X0037040Y0229411D02*
X0036488Y0229411D01*
X0038457Y0229445D02*
X0038457Y0226845D01*
X0038457Y0229445D02*
X0039009Y0229445D01*
X0039009Y0226845D01*
X0038457Y0226845D01*
X0038457Y0228128D02*
X0039009Y0228128D01*
X0039009Y0229411D02*
X0038457Y0229411D01*
X0040425Y0229445D02*
X0040425Y0226845D01*
X0040425Y0229445D02*
X0040977Y0229445D01*
X0040977Y0226845D01*
X0040425Y0226845D01*
X0040425Y0228128D02*
X0040977Y0228128D01*
X0040977Y0229411D02*
X0040425Y0229411D01*
X0042394Y0229445D02*
X0042394Y0226845D01*
X0042394Y0229445D02*
X0042946Y0229445D01*
X0042946Y0226845D01*
X0042394Y0226845D01*
X0042394Y0228128D02*
X0042946Y0228128D01*
X0042946Y0229411D02*
X0042394Y0229411D01*
D19*
X0037748Y0236019D03*
D20*
X0027340Y0114805D02*
X0027232Y0114803D01*
X0027124Y0114797D01*
X0027017Y0114787D01*
X0026910Y0114774D01*
X0026804Y0114756D01*
X0026698Y0114734D01*
X0026593Y0114709D01*
X0026489Y0114680D01*
X0026387Y0114647D01*
X0026285Y0114610D01*
X0026185Y0114570D01*
X0026087Y0114526D01*
X0025990Y0114478D01*
X0025895Y0114427D01*
X0025802Y0114373D01*
X0025711Y0114315D01*
X0025622Y0114254D01*
X0025535Y0114189D01*
X0025451Y0114122D01*
X0025369Y0114051D01*
X0025290Y0113978D01*
X0025214Y0113902D01*
X0025141Y0113823D01*
X0025070Y0113741D01*
X0025003Y0113657D01*
X0024938Y0113570D01*
X0024877Y0113481D01*
X0024819Y0113390D01*
X0024765Y0113297D01*
X0024714Y0113202D01*
X0024666Y0113105D01*
X0024622Y0113007D01*
X0024582Y0112907D01*
X0024545Y0112805D01*
X0024512Y0112703D01*
X0024483Y0112599D01*
X0024458Y0112494D01*
X0024436Y0112388D01*
X0024418Y0112282D01*
X0024405Y0112175D01*
X0024395Y0112068D01*
X0024389Y0111960D01*
X0024387Y0111852D01*
X0027340Y0114805D02*
X0027448Y0114803D01*
X0027556Y0114797D01*
X0027663Y0114787D01*
X0027770Y0114774D01*
X0027876Y0114756D01*
X0027982Y0114734D01*
X0028087Y0114709D01*
X0028191Y0114680D01*
X0028293Y0114647D01*
X0028395Y0114610D01*
X0028495Y0114570D01*
X0028593Y0114526D01*
X0028690Y0114478D01*
X0028785Y0114427D01*
X0028878Y0114373D01*
X0028969Y0114315D01*
X0029058Y0114254D01*
X0029145Y0114189D01*
X0029229Y0114122D01*
X0029311Y0114051D01*
X0029390Y0113978D01*
X0029466Y0113902D01*
X0029539Y0113823D01*
X0029610Y0113741D01*
X0029677Y0113657D01*
X0029742Y0113570D01*
X0029803Y0113481D01*
X0029861Y0113390D01*
X0029915Y0113297D01*
X0029966Y0113202D01*
X0030014Y0113105D01*
X0030058Y0113007D01*
X0030098Y0112907D01*
X0030135Y0112805D01*
X0030168Y0112703D01*
X0030197Y0112599D01*
X0030222Y0112494D01*
X0030244Y0112388D01*
X0030262Y0112282D01*
X0030275Y0112175D01*
X0030285Y0112068D01*
X0030291Y0111960D01*
X0030293Y0111852D01*
X0030291Y0111744D01*
X0030285Y0111636D01*
X0030275Y0111529D01*
X0030262Y0111422D01*
X0030244Y0111316D01*
X0030222Y0111210D01*
X0030197Y0111105D01*
X0030168Y0111001D01*
X0030135Y0110899D01*
X0030098Y0110797D01*
X0030058Y0110697D01*
X0030014Y0110599D01*
X0029966Y0110502D01*
X0029915Y0110407D01*
X0029861Y0110314D01*
X0029803Y0110223D01*
X0029742Y0110134D01*
X0029677Y0110047D01*
X0029610Y0109963D01*
X0029539Y0109881D01*
X0029466Y0109802D01*
X0029390Y0109726D01*
X0029311Y0109653D01*
X0029229Y0109582D01*
X0029145Y0109515D01*
X0029058Y0109450D01*
X0028969Y0109389D01*
X0028878Y0109331D01*
X0028785Y0109277D01*
X0028690Y0109226D01*
X0028593Y0109178D01*
X0028495Y0109134D01*
X0028395Y0109094D01*
X0028293Y0109057D01*
X0028191Y0109024D01*
X0028087Y0108995D01*
X0027982Y0108970D01*
X0027876Y0108948D01*
X0027770Y0108930D01*
X0027663Y0108917D01*
X0027556Y0108907D01*
X0027448Y0108901D01*
X0027340Y0108899D01*
X0027232Y0108901D01*
X0027124Y0108907D01*
X0027017Y0108917D01*
X0026910Y0108930D01*
X0026804Y0108948D01*
X0026698Y0108970D01*
X0026593Y0108995D01*
X0026489Y0109024D01*
X0026387Y0109057D01*
X0026285Y0109094D01*
X0026185Y0109134D01*
X0026087Y0109178D01*
X0025990Y0109226D01*
X0025895Y0109277D01*
X0025802Y0109331D01*
X0025711Y0109389D01*
X0025622Y0109450D01*
X0025535Y0109515D01*
X0025451Y0109582D01*
X0025369Y0109653D01*
X0025290Y0109726D01*
X0025214Y0109802D01*
X0025141Y0109881D01*
X0025070Y0109963D01*
X0025003Y0110047D01*
X0024938Y0110134D01*
X0024877Y0110223D01*
X0024819Y0110314D01*
X0024765Y0110407D01*
X0024714Y0110502D01*
X0024666Y0110599D01*
X0024622Y0110697D01*
X0024582Y0110797D01*
X0024545Y0110899D01*
X0024512Y0111001D01*
X0024483Y0111105D01*
X0024458Y0111210D01*
X0024436Y0111316D01*
X0024418Y0111422D01*
X0024405Y0111529D01*
X0024395Y0111636D01*
X0024389Y0111744D01*
X0024387Y0111852D01*
X0026414Y0064668D02*
X0026306Y0064666D01*
X0026198Y0064660D01*
X0026091Y0064650D01*
X0025984Y0064637D01*
X0025878Y0064619D01*
X0025772Y0064597D01*
X0025667Y0064572D01*
X0025563Y0064543D01*
X0025461Y0064510D01*
X0025359Y0064473D01*
X0025259Y0064433D01*
X0025161Y0064389D01*
X0025064Y0064341D01*
X0024969Y0064290D01*
X0024876Y0064236D01*
X0024785Y0064178D01*
X0024696Y0064117D01*
X0024609Y0064052D01*
X0024525Y0063985D01*
X0024443Y0063914D01*
X0024364Y0063841D01*
X0024288Y0063765D01*
X0024215Y0063686D01*
X0024144Y0063604D01*
X0024077Y0063520D01*
X0024012Y0063433D01*
X0023951Y0063344D01*
X0023893Y0063253D01*
X0023839Y0063160D01*
X0023788Y0063065D01*
X0023740Y0062968D01*
X0023696Y0062870D01*
X0023656Y0062770D01*
X0023619Y0062668D01*
X0023586Y0062566D01*
X0023557Y0062462D01*
X0023532Y0062357D01*
X0023510Y0062251D01*
X0023492Y0062145D01*
X0023479Y0062038D01*
X0023469Y0061931D01*
X0023463Y0061823D01*
X0023461Y0061715D01*
X0026414Y0064668D02*
X0026522Y0064666D01*
X0026630Y0064660D01*
X0026737Y0064650D01*
X0026844Y0064637D01*
X0026950Y0064619D01*
X0027056Y0064597D01*
X0027161Y0064572D01*
X0027265Y0064543D01*
X0027367Y0064510D01*
X0027469Y0064473D01*
X0027569Y0064433D01*
X0027667Y0064389D01*
X0027764Y0064341D01*
X0027859Y0064290D01*
X0027952Y0064236D01*
X0028043Y0064178D01*
X0028132Y0064117D01*
X0028219Y0064052D01*
X0028303Y0063985D01*
X0028385Y0063914D01*
X0028464Y0063841D01*
X0028540Y0063765D01*
X0028613Y0063686D01*
X0028684Y0063604D01*
X0028751Y0063520D01*
X0028816Y0063433D01*
X0028877Y0063344D01*
X0028935Y0063253D01*
X0028989Y0063160D01*
X0029040Y0063065D01*
X0029088Y0062968D01*
X0029132Y0062870D01*
X0029172Y0062770D01*
X0029209Y0062668D01*
X0029242Y0062566D01*
X0029271Y0062462D01*
X0029296Y0062357D01*
X0029318Y0062251D01*
X0029336Y0062145D01*
X0029349Y0062038D01*
X0029359Y0061931D01*
X0029365Y0061823D01*
X0029367Y0061715D01*
X0029365Y0061607D01*
X0029359Y0061499D01*
X0029349Y0061392D01*
X0029336Y0061285D01*
X0029318Y0061179D01*
X0029296Y0061073D01*
X0029271Y0060968D01*
X0029242Y0060864D01*
X0029209Y0060762D01*
X0029172Y0060660D01*
X0029132Y0060560D01*
X0029088Y0060462D01*
X0029040Y0060365D01*
X0028989Y0060270D01*
X0028935Y0060177D01*
X0028877Y0060086D01*
X0028816Y0059997D01*
X0028751Y0059910D01*
X0028684Y0059826D01*
X0028613Y0059744D01*
X0028540Y0059665D01*
X0028464Y0059589D01*
X0028385Y0059516D01*
X0028303Y0059445D01*
X0028219Y0059378D01*
X0028132Y0059313D01*
X0028043Y0059252D01*
X0027952Y0059194D01*
X0027859Y0059140D01*
X0027764Y0059089D01*
X0027667Y0059041D01*
X0027569Y0058997D01*
X0027469Y0058957D01*
X0027367Y0058920D01*
X0027265Y0058887D01*
X0027161Y0058858D01*
X0027056Y0058833D01*
X0026950Y0058811D01*
X0026844Y0058793D01*
X0026737Y0058780D01*
X0026630Y0058770D01*
X0026522Y0058764D01*
X0026414Y0058762D01*
X0026306Y0058764D01*
X0026198Y0058770D01*
X0026091Y0058780D01*
X0025984Y0058793D01*
X0025878Y0058811D01*
X0025772Y0058833D01*
X0025667Y0058858D01*
X0025563Y0058887D01*
X0025461Y0058920D01*
X0025359Y0058957D01*
X0025259Y0058997D01*
X0025161Y0059041D01*
X0025064Y0059089D01*
X0024969Y0059140D01*
X0024876Y0059194D01*
X0024785Y0059252D01*
X0024696Y0059313D01*
X0024609Y0059378D01*
X0024525Y0059445D01*
X0024443Y0059516D01*
X0024364Y0059589D01*
X0024288Y0059665D01*
X0024215Y0059744D01*
X0024144Y0059826D01*
X0024077Y0059910D01*
X0024012Y0059997D01*
X0023951Y0060086D01*
X0023893Y0060177D01*
X0023839Y0060270D01*
X0023788Y0060365D01*
X0023740Y0060462D01*
X0023696Y0060560D01*
X0023656Y0060660D01*
X0023619Y0060762D01*
X0023586Y0060864D01*
X0023557Y0060968D01*
X0023532Y0061073D01*
X0023510Y0061179D01*
X0023492Y0061285D01*
X0023479Y0061392D01*
X0023469Y0061499D01*
X0023463Y0061607D01*
X0023461Y0061715D01*
X0337661Y0058715D02*
X0337663Y0058823D01*
X0337669Y0058931D01*
X0337679Y0059038D01*
X0337692Y0059145D01*
X0337710Y0059251D01*
X0337732Y0059357D01*
X0337757Y0059462D01*
X0337786Y0059566D01*
X0337819Y0059668D01*
X0337856Y0059770D01*
X0337896Y0059870D01*
X0337940Y0059968D01*
X0337988Y0060065D01*
X0338039Y0060160D01*
X0338093Y0060253D01*
X0338151Y0060344D01*
X0338212Y0060433D01*
X0338277Y0060520D01*
X0338344Y0060604D01*
X0338415Y0060686D01*
X0338488Y0060765D01*
X0338564Y0060841D01*
X0338643Y0060914D01*
X0338725Y0060985D01*
X0338809Y0061052D01*
X0338896Y0061117D01*
X0338985Y0061178D01*
X0339076Y0061236D01*
X0339169Y0061290D01*
X0339264Y0061341D01*
X0339361Y0061389D01*
X0339459Y0061433D01*
X0339559Y0061473D01*
X0339661Y0061510D01*
X0339763Y0061543D01*
X0339867Y0061572D01*
X0339972Y0061597D01*
X0340078Y0061619D01*
X0340184Y0061637D01*
X0340291Y0061650D01*
X0340398Y0061660D01*
X0340506Y0061666D01*
X0340614Y0061668D01*
X0340722Y0061666D01*
X0340830Y0061660D01*
X0340937Y0061650D01*
X0341044Y0061637D01*
X0341150Y0061619D01*
X0341256Y0061597D01*
X0341361Y0061572D01*
X0341465Y0061543D01*
X0341567Y0061510D01*
X0341669Y0061473D01*
X0341769Y0061433D01*
X0341867Y0061389D01*
X0341964Y0061341D01*
X0342059Y0061290D01*
X0342152Y0061236D01*
X0342243Y0061178D01*
X0342332Y0061117D01*
X0342419Y0061052D01*
X0342503Y0060985D01*
X0342585Y0060914D01*
X0342664Y0060841D01*
X0342740Y0060765D01*
X0342813Y0060686D01*
X0342884Y0060604D01*
X0342951Y0060520D01*
X0343016Y0060433D01*
X0343077Y0060344D01*
X0343135Y0060253D01*
X0343189Y0060160D01*
X0343240Y0060065D01*
X0343288Y0059968D01*
X0343332Y0059870D01*
X0343372Y0059770D01*
X0343409Y0059668D01*
X0343442Y0059566D01*
X0343471Y0059462D01*
X0343496Y0059357D01*
X0343518Y0059251D01*
X0343536Y0059145D01*
X0343549Y0059038D01*
X0343559Y0058931D01*
X0343565Y0058823D01*
X0343567Y0058715D01*
X0343565Y0058607D01*
X0343559Y0058499D01*
X0343549Y0058392D01*
X0343536Y0058285D01*
X0343518Y0058179D01*
X0343496Y0058073D01*
X0343471Y0057968D01*
X0343442Y0057864D01*
X0343409Y0057762D01*
X0343372Y0057660D01*
X0343332Y0057560D01*
X0343288Y0057462D01*
X0343240Y0057365D01*
X0343189Y0057270D01*
X0343135Y0057177D01*
X0343077Y0057086D01*
X0343016Y0056997D01*
X0342951Y0056910D01*
X0342884Y0056826D01*
X0342813Y0056744D01*
X0342740Y0056665D01*
X0342664Y0056589D01*
X0342585Y0056516D01*
X0342503Y0056445D01*
X0342419Y0056378D01*
X0342332Y0056313D01*
X0342243Y0056252D01*
X0342152Y0056194D01*
X0342059Y0056140D01*
X0341964Y0056089D01*
X0341867Y0056041D01*
X0341769Y0055997D01*
X0341669Y0055957D01*
X0341567Y0055920D01*
X0341465Y0055887D01*
X0341361Y0055858D01*
X0341256Y0055833D01*
X0341150Y0055811D01*
X0341044Y0055793D01*
X0340937Y0055780D01*
X0340830Y0055770D01*
X0340722Y0055764D01*
X0340614Y0055762D01*
X0340506Y0055764D01*
X0340398Y0055770D01*
X0340291Y0055780D01*
X0340184Y0055793D01*
X0340078Y0055811D01*
X0339972Y0055833D01*
X0339867Y0055858D01*
X0339763Y0055887D01*
X0339661Y0055920D01*
X0339559Y0055957D01*
X0339459Y0055997D01*
X0339361Y0056041D01*
X0339264Y0056089D01*
X0339169Y0056140D01*
X0339076Y0056194D01*
X0338985Y0056252D01*
X0338896Y0056313D01*
X0338809Y0056378D01*
X0338725Y0056445D01*
X0338643Y0056516D01*
X0338564Y0056589D01*
X0338488Y0056665D01*
X0338415Y0056744D01*
X0338344Y0056826D01*
X0338277Y0056910D01*
X0338212Y0056997D01*
X0338151Y0057086D01*
X0338093Y0057177D01*
X0338039Y0057270D01*
X0337988Y0057365D01*
X0337940Y0057462D01*
X0337896Y0057560D01*
X0337856Y0057660D01*
X0337819Y0057762D01*
X0337786Y0057864D01*
X0337757Y0057968D01*
X0337732Y0058073D01*
X0337710Y0058179D01*
X0337692Y0058285D01*
X0337679Y0058392D01*
X0337669Y0058499D01*
X0337663Y0058607D01*
X0337661Y0058715D01*
X0348261Y0263615D02*
X0348263Y0263723D01*
X0348269Y0263831D01*
X0348279Y0263938D01*
X0348292Y0264045D01*
X0348310Y0264151D01*
X0348332Y0264257D01*
X0348357Y0264362D01*
X0348386Y0264466D01*
X0348419Y0264568D01*
X0348456Y0264670D01*
X0348496Y0264770D01*
X0348540Y0264868D01*
X0348588Y0264965D01*
X0348639Y0265060D01*
X0348693Y0265153D01*
X0348751Y0265244D01*
X0348812Y0265333D01*
X0348877Y0265420D01*
X0348944Y0265504D01*
X0349015Y0265586D01*
X0349088Y0265665D01*
X0349164Y0265741D01*
X0349243Y0265814D01*
X0349325Y0265885D01*
X0349409Y0265952D01*
X0349496Y0266017D01*
X0349585Y0266078D01*
X0349676Y0266136D01*
X0349769Y0266190D01*
X0349864Y0266241D01*
X0349961Y0266289D01*
X0350059Y0266333D01*
X0350159Y0266373D01*
X0350261Y0266410D01*
X0350363Y0266443D01*
X0350467Y0266472D01*
X0350572Y0266497D01*
X0350678Y0266519D01*
X0350784Y0266537D01*
X0350891Y0266550D01*
X0350998Y0266560D01*
X0351106Y0266566D01*
X0351214Y0266568D01*
X0351322Y0266566D01*
X0351430Y0266560D01*
X0351537Y0266550D01*
X0351644Y0266537D01*
X0351750Y0266519D01*
X0351856Y0266497D01*
X0351961Y0266472D01*
X0352065Y0266443D01*
X0352167Y0266410D01*
X0352269Y0266373D01*
X0352369Y0266333D01*
X0352467Y0266289D01*
X0352564Y0266241D01*
X0352659Y0266190D01*
X0352752Y0266136D01*
X0352843Y0266078D01*
X0352932Y0266017D01*
X0353019Y0265952D01*
X0353103Y0265885D01*
X0353185Y0265814D01*
X0353264Y0265741D01*
X0353340Y0265665D01*
X0353413Y0265586D01*
X0353484Y0265504D01*
X0353551Y0265420D01*
X0353616Y0265333D01*
X0353677Y0265244D01*
X0353735Y0265153D01*
X0353789Y0265060D01*
X0353840Y0264965D01*
X0353888Y0264868D01*
X0353932Y0264770D01*
X0353972Y0264670D01*
X0354009Y0264568D01*
X0354042Y0264466D01*
X0354071Y0264362D01*
X0354096Y0264257D01*
X0354118Y0264151D01*
X0354136Y0264045D01*
X0354149Y0263938D01*
X0354159Y0263831D01*
X0354165Y0263723D01*
X0354167Y0263615D01*
X0354165Y0263507D01*
X0354159Y0263399D01*
X0354149Y0263292D01*
X0354136Y0263185D01*
X0354118Y0263079D01*
X0354096Y0262973D01*
X0354071Y0262868D01*
X0354042Y0262764D01*
X0354009Y0262662D01*
X0353972Y0262560D01*
X0353932Y0262460D01*
X0353888Y0262362D01*
X0353840Y0262265D01*
X0353789Y0262170D01*
X0353735Y0262077D01*
X0353677Y0261986D01*
X0353616Y0261897D01*
X0353551Y0261810D01*
X0353484Y0261726D01*
X0353413Y0261644D01*
X0353340Y0261565D01*
X0353264Y0261489D01*
X0353185Y0261416D01*
X0353103Y0261345D01*
X0353019Y0261278D01*
X0352932Y0261213D01*
X0352843Y0261152D01*
X0352752Y0261094D01*
X0352659Y0261040D01*
X0352564Y0260989D01*
X0352467Y0260941D01*
X0352369Y0260897D01*
X0352269Y0260857D01*
X0352167Y0260820D01*
X0352065Y0260787D01*
X0351961Y0260758D01*
X0351856Y0260733D01*
X0351750Y0260711D01*
X0351644Y0260693D01*
X0351537Y0260680D01*
X0351430Y0260670D01*
X0351322Y0260664D01*
X0351214Y0260662D01*
X0351106Y0260664D01*
X0350998Y0260670D01*
X0350891Y0260680D01*
X0350784Y0260693D01*
X0350678Y0260711D01*
X0350572Y0260733D01*
X0350467Y0260758D01*
X0350363Y0260787D01*
X0350261Y0260820D01*
X0350159Y0260857D01*
X0350059Y0260897D01*
X0349961Y0260941D01*
X0349864Y0260989D01*
X0349769Y0261040D01*
X0349676Y0261094D01*
X0349585Y0261152D01*
X0349496Y0261213D01*
X0349409Y0261278D01*
X0349325Y0261345D01*
X0349243Y0261416D01*
X0349164Y0261489D01*
X0349088Y0261565D01*
X0349015Y0261644D01*
X0348944Y0261726D01*
X0348877Y0261810D01*
X0348812Y0261897D01*
X0348751Y0261986D01*
X0348693Y0262077D01*
X0348639Y0262170D01*
X0348588Y0262265D01*
X0348540Y0262362D01*
X0348496Y0262460D01*
X0348456Y0262560D01*
X0348419Y0262662D01*
X0348386Y0262764D01*
X0348357Y0262868D01*
X0348332Y0262973D01*
X0348310Y0263079D01*
X0348292Y0263185D01*
X0348279Y0263292D01*
X0348269Y0263399D01*
X0348263Y0263507D01*
X0348261Y0263615D01*
D21*
X0351214Y0263615D03*
X0340614Y0058715D03*
X0026414Y0061715D03*
X0027340Y0111852D03*
D22*
X0026093Y0099141D02*
X0026095Y0099225D01*
X0026101Y0099308D01*
X0026111Y0099391D01*
X0026125Y0099474D01*
X0026142Y0099556D01*
X0026164Y0099637D01*
X0026189Y0099716D01*
X0026218Y0099795D01*
X0026251Y0099872D01*
X0026287Y0099947D01*
X0026327Y0100021D01*
X0026370Y0100093D01*
X0026417Y0100162D01*
X0026467Y0100229D01*
X0026520Y0100294D01*
X0026576Y0100356D01*
X0026634Y0100416D01*
X0026696Y0100473D01*
X0026760Y0100526D01*
X0026827Y0100577D01*
X0026896Y0100624D01*
X0026967Y0100669D01*
X0027040Y0100709D01*
X0027115Y0100746D01*
X0027192Y0100780D01*
X0027270Y0100810D01*
X0027349Y0100836D01*
X0027430Y0100859D01*
X0027512Y0100877D01*
X0027594Y0100892D01*
X0027677Y0100903D01*
X0027760Y0100910D01*
X0027844Y0100913D01*
X0027928Y0100912D01*
X0028011Y0100907D01*
X0028095Y0100898D01*
X0028177Y0100885D01*
X0028259Y0100869D01*
X0028340Y0100848D01*
X0028421Y0100824D01*
X0028499Y0100796D01*
X0028577Y0100764D01*
X0028653Y0100728D01*
X0028727Y0100689D01*
X0028799Y0100647D01*
X0028869Y0100601D01*
X0028937Y0100552D01*
X0029002Y0100500D01*
X0029065Y0100445D01*
X0029125Y0100387D01*
X0029183Y0100326D01*
X0029237Y0100262D01*
X0029289Y0100196D01*
X0029337Y0100128D01*
X0029382Y0100057D01*
X0029423Y0099984D01*
X0029462Y0099910D01*
X0029496Y0099834D01*
X0029527Y0099756D01*
X0029554Y0099677D01*
X0029578Y0099596D01*
X0029597Y0099515D01*
X0029613Y0099433D01*
X0029625Y0099350D01*
X0029633Y0099266D01*
X0029637Y0099183D01*
X0029637Y0099099D01*
X0029633Y0099016D01*
X0029625Y0098932D01*
X0029613Y0098849D01*
X0029597Y0098767D01*
X0029578Y0098686D01*
X0029554Y0098605D01*
X0029527Y0098526D01*
X0029496Y0098448D01*
X0029462Y0098372D01*
X0029423Y0098298D01*
X0029382Y0098225D01*
X0029337Y0098154D01*
X0029289Y0098086D01*
X0029237Y0098020D01*
X0029183Y0097956D01*
X0029125Y0097895D01*
X0029065Y0097837D01*
X0029002Y0097782D01*
X0028937Y0097730D01*
X0028869Y0097681D01*
X0028799Y0097635D01*
X0028727Y0097593D01*
X0028653Y0097554D01*
X0028577Y0097518D01*
X0028499Y0097486D01*
X0028421Y0097458D01*
X0028340Y0097434D01*
X0028259Y0097413D01*
X0028177Y0097397D01*
X0028095Y0097384D01*
X0028011Y0097375D01*
X0027928Y0097370D01*
X0027844Y0097369D01*
X0027760Y0097372D01*
X0027677Y0097379D01*
X0027594Y0097390D01*
X0027512Y0097405D01*
X0027430Y0097423D01*
X0027349Y0097446D01*
X0027270Y0097472D01*
X0027192Y0097502D01*
X0027115Y0097536D01*
X0027040Y0097573D01*
X0026967Y0097613D01*
X0026896Y0097658D01*
X0026827Y0097705D01*
X0026760Y0097756D01*
X0026696Y0097809D01*
X0026634Y0097866D01*
X0026576Y0097926D01*
X0026520Y0097988D01*
X0026467Y0098053D01*
X0026417Y0098120D01*
X0026370Y0098189D01*
X0026327Y0098261D01*
X0026287Y0098335D01*
X0026251Y0098410D01*
X0026218Y0098487D01*
X0026189Y0098566D01*
X0026164Y0098645D01*
X0026142Y0098726D01*
X0026125Y0098808D01*
X0026111Y0098891D01*
X0026101Y0098974D01*
X0026095Y0099057D01*
X0026093Y0099141D01*
X0027354Y0072399D02*
X0027356Y0072483D01*
X0027362Y0072566D01*
X0027372Y0072649D01*
X0027386Y0072732D01*
X0027403Y0072814D01*
X0027425Y0072895D01*
X0027450Y0072974D01*
X0027479Y0073053D01*
X0027512Y0073130D01*
X0027548Y0073205D01*
X0027588Y0073279D01*
X0027631Y0073351D01*
X0027678Y0073420D01*
X0027728Y0073487D01*
X0027781Y0073552D01*
X0027837Y0073614D01*
X0027895Y0073674D01*
X0027957Y0073731D01*
X0028021Y0073784D01*
X0028088Y0073835D01*
X0028157Y0073882D01*
X0028228Y0073927D01*
X0028301Y0073967D01*
X0028376Y0074004D01*
X0028453Y0074038D01*
X0028531Y0074068D01*
X0028610Y0074094D01*
X0028691Y0074117D01*
X0028773Y0074135D01*
X0028855Y0074150D01*
X0028938Y0074161D01*
X0029021Y0074168D01*
X0029105Y0074171D01*
X0029189Y0074170D01*
X0029272Y0074165D01*
X0029356Y0074156D01*
X0029438Y0074143D01*
X0029520Y0074127D01*
X0029601Y0074106D01*
X0029682Y0074082D01*
X0029760Y0074054D01*
X0029838Y0074022D01*
X0029914Y0073986D01*
X0029988Y0073947D01*
X0030060Y0073905D01*
X0030130Y0073859D01*
X0030198Y0073810D01*
X0030263Y0073758D01*
X0030326Y0073703D01*
X0030386Y0073645D01*
X0030444Y0073584D01*
X0030498Y0073520D01*
X0030550Y0073454D01*
X0030598Y0073386D01*
X0030643Y0073315D01*
X0030684Y0073242D01*
X0030723Y0073168D01*
X0030757Y0073092D01*
X0030788Y0073014D01*
X0030815Y0072935D01*
X0030839Y0072854D01*
X0030858Y0072773D01*
X0030874Y0072691D01*
X0030886Y0072608D01*
X0030894Y0072524D01*
X0030898Y0072441D01*
X0030898Y0072357D01*
X0030894Y0072274D01*
X0030886Y0072190D01*
X0030874Y0072107D01*
X0030858Y0072025D01*
X0030839Y0071944D01*
X0030815Y0071863D01*
X0030788Y0071784D01*
X0030757Y0071706D01*
X0030723Y0071630D01*
X0030684Y0071556D01*
X0030643Y0071483D01*
X0030598Y0071412D01*
X0030550Y0071344D01*
X0030498Y0071278D01*
X0030444Y0071214D01*
X0030386Y0071153D01*
X0030326Y0071095D01*
X0030263Y0071040D01*
X0030198Y0070988D01*
X0030130Y0070939D01*
X0030060Y0070893D01*
X0029988Y0070851D01*
X0029914Y0070812D01*
X0029838Y0070776D01*
X0029760Y0070744D01*
X0029682Y0070716D01*
X0029601Y0070692D01*
X0029520Y0070671D01*
X0029438Y0070655D01*
X0029356Y0070642D01*
X0029272Y0070633D01*
X0029189Y0070628D01*
X0029105Y0070627D01*
X0029021Y0070630D01*
X0028938Y0070637D01*
X0028855Y0070648D01*
X0028773Y0070663D01*
X0028691Y0070681D01*
X0028610Y0070704D01*
X0028531Y0070730D01*
X0028453Y0070760D01*
X0028376Y0070794D01*
X0028301Y0070831D01*
X0028228Y0070871D01*
X0028157Y0070916D01*
X0028088Y0070963D01*
X0028021Y0071014D01*
X0027957Y0071067D01*
X0027895Y0071124D01*
X0027837Y0071184D01*
X0027781Y0071246D01*
X0027728Y0071311D01*
X0027678Y0071378D01*
X0027631Y0071447D01*
X0027588Y0071519D01*
X0027548Y0071593D01*
X0027512Y0071668D01*
X0027479Y0071745D01*
X0027450Y0071824D01*
X0027425Y0071903D01*
X0027403Y0071984D01*
X0027386Y0072066D01*
X0027372Y0072149D01*
X0027362Y0072232D01*
X0027356Y0072315D01*
X0027354Y0072399D01*
X0026348Y0258084D02*
X0026350Y0258158D01*
X0026356Y0258232D01*
X0026366Y0258305D01*
X0026380Y0258378D01*
X0026397Y0258450D01*
X0026419Y0258520D01*
X0026444Y0258590D01*
X0026473Y0258658D01*
X0026506Y0258724D01*
X0026542Y0258789D01*
X0026582Y0258851D01*
X0026624Y0258912D01*
X0026670Y0258970D01*
X0026719Y0259025D01*
X0026771Y0259078D01*
X0026826Y0259128D01*
X0026883Y0259174D01*
X0026943Y0259218D01*
X0027005Y0259258D01*
X0027069Y0259295D01*
X0027135Y0259329D01*
X0027203Y0259359D01*
X0027272Y0259385D01*
X0027343Y0259408D01*
X0027414Y0259426D01*
X0027487Y0259441D01*
X0027560Y0259452D01*
X0027634Y0259459D01*
X0027708Y0259462D01*
X0027781Y0259461D01*
X0027855Y0259456D01*
X0027929Y0259447D01*
X0028002Y0259434D01*
X0028074Y0259417D01*
X0028145Y0259397D01*
X0028215Y0259372D01*
X0028283Y0259344D01*
X0028350Y0259313D01*
X0028415Y0259277D01*
X0028478Y0259239D01*
X0028539Y0259197D01*
X0028598Y0259151D01*
X0028654Y0259103D01*
X0028707Y0259052D01*
X0028757Y0258998D01*
X0028805Y0258941D01*
X0028849Y0258882D01*
X0028891Y0258820D01*
X0028929Y0258757D01*
X0028963Y0258691D01*
X0028994Y0258624D01*
X0029021Y0258555D01*
X0029044Y0258485D01*
X0029064Y0258414D01*
X0029080Y0258341D01*
X0029092Y0258268D01*
X0029100Y0258195D01*
X0029104Y0258121D01*
X0029104Y0258047D01*
X0029100Y0257973D01*
X0029092Y0257900D01*
X0029080Y0257827D01*
X0029064Y0257754D01*
X0029044Y0257683D01*
X0029021Y0257613D01*
X0028994Y0257544D01*
X0028963Y0257477D01*
X0028929Y0257411D01*
X0028891Y0257348D01*
X0028849Y0257286D01*
X0028805Y0257227D01*
X0028757Y0257170D01*
X0028707Y0257116D01*
X0028654Y0257065D01*
X0028598Y0257017D01*
X0028539Y0256971D01*
X0028478Y0256929D01*
X0028415Y0256891D01*
X0028350Y0256855D01*
X0028283Y0256824D01*
X0028215Y0256796D01*
X0028145Y0256771D01*
X0028074Y0256751D01*
X0028002Y0256734D01*
X0027929Y0256721D01*
X0027855Y0256712D01*
X0027781Y0256707D01*
X0027708Y0256706D01*
X0027634Y0256709D01*
X0027560Y0256716D01*
X0027487Y0256727D01*
X0027414Y0256742D01*
X0027343Y0256760D01*
X0027272Y0256783D01*
X0027203Y0256809D01*
X0027135Y0256839D01*
X0027069Y0256873D01*
X0027005Y0256910D01*
X0026943Y0256950D01*
X0026883Y0256994D01*
X0026826Y0257040D01*
X0026771Y0257090D01*
X0026719Y0257143D01*
X0026670Y0257198D01*
X0026624Y0257256D01*
X0026582Y0257317D01*
X0026542Y0257379D01*
X0026506Y0257444D01*
X0026473Y0257510D01*
X0026444Y0257578D01*
X0026419Y0257648D01*
X0026397Y0257718D01*
X0026380Y0257790D01*
X0026366Y0257863D01*
X0026356Y0257936D01*
X0026350Y0258010D01*
X0026348Y0258084D01*
X0022980Y0264367D02*
X0022972Y0266532D01*
X0022973Y0266533D02*
X0022976Y0266608D01*
X0022975Y0266683D01*
X0022970Y0266757D01*
X0022962Y0266832D01*
X0022949Y0266906D01*
X0022933Y0266979D01*
X0022914Y0267052D01*
X0022890Y0267123D01*
X0022863Y0267193D01*
X0022833Y0267261D01*
X0022799Y0267328D01*
X0022762Y0267393D01*
X0022721Y0267456D01*
X0022677Y0267517D01*
X0022631Y0267576D01*
X0022581Y0267632D01*
X0022529Y0267686D01*
X0022474Y0267737D01*
X0022416Y0267785D01*
X0022356Y0267830D01*
X0022294Y0267872D01*
X0022230Y0267911D01*
X0022164Y0267947D01*
X0022096Y0267979D01*
X0022027Y0268007D01*
X0021957Y0268033D01*
X0021885Y0268054D01*
X0021812Y0268072D01*
X0021738Y0268086D01*
X0021664Y0268096D01*
X0021589Y0268103D01*
X0021589Y0268102D02*
X0020802Y0268099D01*
X0020801Y0268099D02*
X0020727Y0268092D01*
X0020653Y0268081D01*
X0020579Y0268067D01*
X0020506Y0268048D01*
X0020435Y0268026D01*
X0020364Y0268001D01*
X0020295Y0267971D01*
X0020228Y0267939D01*
X0020162Y0267903D01*
X0020098Y0267864D01*
X0020036Y0267821D01*
X0019977Y0267776D01*
X0019919Y0267727D01*
X0019865Y0267676D01*
X0019813Y0267622D01*
X0019764Y0267565D01*
X0019717Y0267506D01*
X0019674Y0267445D01*
X0019634Y0267381D01*
X0019597Y0267316D01*
X0019564Y0267249D01*
X0019534Y0267180D01*
X0019507Y0267110D01*
X0019485Y0267039D01*
X0019465Y0266966D01*
X0019450Y0266893D01*
X0019438Y0266819D01*
X0019430Y0266744D01*
X0019426Y0266669D01*
X0019425Y0266594D01*
X0019429Y0266519D01*
X0019429Y0266520D02*
X0019437Y0264355D01*
X0019437Y0264354D02*
X0019439Y0264282D01*
X0019445Y0264210D01*
X0019455Y0264139D01*
X0019468Y0264068D01*
X0019485Y0263998D01*
X0019506Y0263929D01*
X0019530Y0263861D01*
X0019558Y0263794D01*
X0019589Y0263729D01*
X0019624Y0263666D01*
X0019662Y0263604D01*
X0019703Y0263545D01*
X0019747Y0263488D01*
X0019794Y0263433D01*
X0019844Y0263381D01*
X0019897Y0263332D01*
X0019952Y0263285D01*
X0020009Y0263241D01*
X0020069Y0263201D01*
X0020130Y0263163D01*
X0020194Y0263129D01*
X0020259Y0263098D01*
X0020326Y0263071D01*
X0020394Y0263047D01*
X0020463Y0263027D01*
X0020533Y0263010D01*
X0020604Y0262997D01*
X0020676Y0262988D01*
X0020748Y0262983D01*
X0020820Y0262981D01*
X0020819Y0262981D02*
X0021607Y0262984D01*
X0021679Y0262986D01*
X0021751Y0262992D01*
X0021822Y0263002D01*
X0021893Y0263015D01*
X0021963Y0263032D01*
X0022032Y0263053D01*
X0022100Y0263077D01*
X0022167Y0263105D01*
X0022232Y0263136D01*
X0022295Y0263171D01*
X0022357Y0263209D01*
X0022416Y0263250D01*
X0022473Y0263294D01*
X0022528Y0263341D01*
X0022580Y0263391D01*
X0022629Y0263444D01*
X0022676Y0263499D01*
X0022720Y0263556D01*
X0022760Y0263616D01*
X0022798Y0263677D01*
X0022832Y0263741D01*
X0022863Y0263806D01*
X0022890Y0263873D01*
X0022914Y0263941D01*
X0022934Y0264010D01*
X0022951Y0264080D01*
X0022964Y0264151D01*
X0022973Y0264223D01*
X0022978Y0264295D01*
X0022980Y0264367D01*
X0041703Y0258138D02*
X0041705Y0258212D01*
X0041711Y0258286D01*
X0041721Y0258359D01*
X0041735Y0258432D01*
X0041752Y0258504D01*
X0041774Y0258574D01*
X0041799Y0258644D01*
X0041828Y0258712D01*
X0041861Y0258778D01*
X0041897Y0258843D01*
X0041937Y0258905D01*
X0041979Y0258966D01*
X0042025Y0259024D01*
X0042074Y0259079D01*
X0042126Y0259132D01*
X0042181Y0259182D01*
X0042238Y0259228D01*
X0042298Y0259272D01*
X0042360Y0259312D01*
X0042424Y0259349D01*
X0042490Y0259383D01*
X0042558Y0259413D01*
X0042627Y0259439D01*
X0042698Y0259462D01*
X0042769Y0259480D01*
X0042842Y0259495D01*
X0042915Y0259506D01*
X0042989Y0259513D01*
X0043063Y0259516D01*
X0043136Y0259515D01*
X0043210Y0259510D01*
X0043284Y0259501D01*
X0043357Y0259488D01*
X0043429Y0259471D01*
X0043500Y0259451D01*
X0043570Y0259426D01*
X0043638Y0259398D01*
X0043705Y0259367D01*
X0043770Y0259331D01*
X0043833Y0259293D01*
X0043894Y0259251D01*
X0043953Y0259205D01*
X0044009Y0259157D01*
X0044062Y0259106D01*
X0044112Y0259052D01*
X0044160Y0258995D01*
X0044204Y0258936D01*
X0044246Y0258874D01*
X0044284Y0258811D01*
X0044318Y0258745D01*
X0044349Y0258678D01*
X0044376Y0258609D01*
X0044399Y0258539D01*
X0044419Y0258468D01*
X0044435Y0258395D01*
X0044447Y0258322D01*
X0044455Y0258249D01*
X0044459Y0258175D01*
X0044459Y0258101D01*
X0044455Y0258027D01*
X0044447Y0257954D01*
X0044435Y0257881D01*
X0044419Y0257808D01*
X0044399Y0257737D01*
X0044376Y0257667D01*
X0044349Y0257598D01*
X0044318Y0257531D01*
X0044284Y0257465D01*
X0044246Y0257402D01*
X0044204Y0257340D01*
X0044160Y0257281D01*
X0044112Y0257224D01*
X0044062Y0257170D01*
X0044009Y0257119D01*
X0043953Y0257071D01*
X0043894Y0257025D01*
X0043833Y0256983D01*
X0043770Y0256945D01*
X0043705Y0256909D01*
X0043638Y0256878D01*
X0043570Y0256850D01*
X0043500Y0256825D01*
X0043429Y0256805D01*
X0043357Y0256788D01*
X0043284Y0256775D01*
X0043210Y0256766D01*
X0043136Y0256761D01*
X0043063Y0256760D01*
X0042989Y0256763D01*
X0042915Y0256770D01*
X0042842Y0256781D01*
X0042769Y0256796D01*
X0042698Y0256814D01*
X0042627Y0256837D01*
X0042558Y0256863D01*
X0042490Y0256893D01*
X0042424Y0256927D01*
X0042360Y0256964D01*
X0042298Y0257004D01*
X0042238Y0257048D01*
X0042181Y0257094D01*
X0042126Y0257144D01*
X0042074Y0257197D01*
X0042025Y0257252D01*
X0041979Y0257310D01*
X0041937Y0257371D01*
X0041897Y0257433D01*
X0041861Y0257498D01*
X0041828Y0257564D01*
X0041799Y0257632D01*
X0041774Y0257702D01*
X0041752Y0257772D01*
X0041735Y0257844D01*
X0041721Y0257917D01*
X0041711Y0257990D01*
X0041705Y0258064D01*
X0041703Y0258138D01*
X0047783Y0264453D02*
X0047775Y0266816D01*
X0047775Y0266815D02*
X0047786Y0266892D01*
X0047801Y0266969D01*
X0047820Y0267044D01*
X0047842Y0267119D01*
X0047868Y0267192D01*
X0047898Y0267264D01*
X0047931Y0267335D01*
X0047968Y0267404D01*
X0048008Y0267471D01*
X0048051Y0267535D01*
X0048097Y0267598D01*
X0048146Y0267658D01*
X0048199Y0267716D01*
X0048254Y0267771D01*
X0048311Y0267824D01*
X0048371Y0267873D01*
X0048434Y0267920D01*
X0048498Y0267963D01*
X0048565Y0268003D01*
X0048634Y0268040D01*
X0048704Y0268074D01*
X0048776Y0268104D01*
X0048849Y0268130D01*
X0048924Y0268153D01*
X0048999Y0268172D01*
X0049076Y0268187D01*
X0049153Y0268199D01*
X0049230Y0268206D01*
X0049308Y0268210D01*
X0049386Y0268211D01*
X0049464Y0268207D01*
X0049541Y0268199D01*
X0049542Y0268200D02*
X0049619Y0268208D01*
X0049697Y0268212D01*
X0049775Y0268213D01*
X0049853Y0268209D01*
X0049930Y0268202D01*
X0050007Y0268191D01*
X0050084Y0268176D01*
X0050159Y0268158D01*
X0050234Y0268135D01*
X0050308Y0268110D01*
X0050380Y0268080D01*
X0050450Y0268047D01*
X0050519Y0268011D01*
X0050586Y0267971D01*
X0050651Y0267928D01*
X0050714Y0267882D01*
X0050774Y0267833D01*
X0050832Y0267781D01*
X0050888Y0267726D01*
X0050940Y0267669D01*
X0050990Y0267609D01*
X0051037Y0267546D01*
X0051080Y0267482D01*
X0051121Y0267415D01*
X0051158Y0267347D01*
X0051192Y0267277D01*
X0051222Y0267205D01*
X0051248Y0267132D01*
X0051271Y0267057D01*
X0051291Y0266982D01*
X0051306Y0266905D01*
X0051318Y0266828D01*
X0051326Y0264466D01*
X0051315Y0264389D01*
X0051300Y0264312D01*
X0051281Y0264237D01*
X0051259Y0264162D01*
X0051233Y0264089D01*
X0051203Y0264017D01*
X0051170Y0263946D01*
X0051133Y0263877D01*
X0051093Y0263810D01*
X0051050Y0263746D01*
X0051004Y0263683D01*
X0050955Y0263623D01*
X0050902Y0263565D01*
X0050847Y0263510D01*
X0050790Y0263457D01*
X0050730Y0263408D01*
X0050667Y0263361D01*
X0050603Y0263318D01*
X0050536Y0263278D01*
X0050467Y0263241D01*
X0050397Y0263207D01*
X0050325Y0263177D01*
X0050252Y0263151D01*
X0050177Y0263128D01*
X0050102Y0263109D01*
X0050025Y0263094D01*
X0049948Y0263082D01*
X0049871Y0263075D01*
X0049793Y0263071D01*
X0049715Y0263070D01*
X0049637Y0263074D01*
X0049560Y0263082D01*
X0049559Y0263082D02*
X0049482Y0263074D01*
X0049404Y0263070D01*
X0049326Y0263069D01*
X0049248Y0263073D01*
X0049171Y0263080D01*
X0049094Y0263091D01*
X0049017Y0263106D01*
X0048942Y0263124D01*
X0048867Y0263147D01*
X0048793Y0263172D01*
X0048721Y0263202D01*
X0048651Y0263235D01*
X0048582Y0263271D01*
X0048515Y0263311D01*
X0048450Y0263354D01*
X0048387Y0263400D01*
X0048327Y0263449D01*
X0048269Y0263501D01*
X0048213Y0263556D01*
X0048161Y0263613D01*
X0048111Y0263673D01*
X0048064Y0263736D01*
X0048021Y0263800D01*
X0047980Y0263867D01*
X0047943Y0263935D01*
X0047909Y0264005D01*
X0047879Y0264077D01*
X0047853Y0264150D01*
X0047830Y0264225D01*
X0047810Y0264300D01*
X0047795Y0264377D01*
X0047783Y0264454D01*
D23*
G36*
X0041525Y0252228D02*
X0039558Y0252221D01*
X0039539Y0257928D01*
X0041506Y0257935D01*
X0041525Y0252228D01*
G37*
G36*
X0038966Y0252219D02*
X0036999Y0252212D01*
X0036980Y0257919D01*
X0038947Y0257926D01*
X0038966Y0252219D01*
G37*
G36*
X0036407Y0252210D02*
X0034440Y0252203D01*
X0034421Y0257910D01*
X0036388Y0257917D01*
X0036407Y0252210D01*
G37*
G36*
X0033848Y0252201D02*
X0031881Y0252194D01*
X0031862Y0257901D01*
X0033829Y0257908D01*
X0033848Y0252201D01*
G37*
G36*
X0031289Y0252192D02*
X0029322Y0252185D01*
X0029303Y0257892D01*
X0031270Y0257899D01*
X0031289Y0252192D01*
G37*
D24*
G36*
X0030071Y0261630D02*
X0030040Y0270303D01*
X0034775Y0270320D01*
X0034806Y0261647D01*
X0030071Y0261630D01*
G37*
G36*
X0035977Y0261650D02*
X0035946Y0270323D01*
X0040681Y0270340D01*
X0040712Y0261667D01*
X0035977Y0261650D01*
G37*
D25*
X0048408Y0254613D02*
X0053557Y0254631D01*
X0022424Y0254522D02*
X0017274Y0254504D01*
D26*
G36*
X0016073Y0260375D02*
X0016037Y0270673D01*
X0026335Y0270709D01*
X0026371Y0260411D01*
X0016073Y0260375D01*
G37*
G36*
X0044419Y0260474D02*
X0044383Y0270772D01*
X0054681Y0270808D01*
X0054717Y0260510D01*
X0044419Y0260474D01*
G37*
D27*
X0043081Y0258138D03*
X0027726Y0258084D03*
D28*
X0053433Y0239916D03*
X0053433Y0233223D03*
X0019488Y0197148D03*
X0019488Y0190455D03*
X0022712Y0164183D03*
X0029405Y0164183D03*
X0029405Y0156183D03*
X0022712Y0156183D03*
X0034112Y0138783D03*
X0040805Y0138783D03*
X0282005Y0102149D03*
X0288698Y0102149D03*
X0312624Y0102089D03*
X0319317Y0102089D03*
D29*
X0044179Y0197579D03*
X0044179Y0205059D03*
X0035518Y0201319D03*
X0028849Y0209381D03*
X0020188Y0205641D03*
X0020188Y0213121D03*
X0026434Y0150623D03*
X0026434Y0143143D03*
X0035883Y0146883D03*
D30*
X0283133Y0084936D03*
X0297633Y0084936D03*
X0312133Y0084936D03*
X0312133Y0064464D03*
X0297633Y0064464D03*
X0283133Y0064464D03*
D31*
X0286673Y0091900D03*
X0279193Y0091900D03*
X0294993Y0091900D03*
X0302473Y0091900D03*
X0310793Y0091900D03*
X0318273Y0091900D03*
X0318862Y0131712D03*
X0311382Y0131712D03*
D32*
X0337133Y0119000D03*
X0341425Y0188895D03*
X0342027Y0208112D03*
X0342733Y0227600D03*
X0073069Y0067172D03*
X0062930Y0067138D03*
D33*
X0157559Y0204843D03*
X0163858Y0204843D03*
X0163858Y0220591D03*
X0157559Y0220591D03*
X0157559Y0236339D03*
X0163858Y0236339D03*
X0163858Y0252087D03*
X0157559Y0252087D03*
D34*
X0058433Y0206153D03*
X0053133Y0206053D03*
X0053133Y0200147D03*
X0058433Y0200247D03*
X0020259Y0145935D03*
X0020259Y0140030D03*
D35*
X0023470Y0177905D03*
X0043351Y0177905D03*
X0204926Y0150765D03*
X0224808Y0150765D03*
D36*
X0044059Y0157383D03*
D37*
X0045338Y0164272D02*
X0045338Y0167028D01*
X0042779Y0167028D02*
X0042779Y0164272D01*
X0040220Y0164272D02*
X0040220Y0167028D01*
X0037169Y0161221D02*
X0034413Y0161221D01*
X0034413Y0158662D02*
X0037169Y0158662D01*
X0037169Y0156103D02*
X0034413Y0156103D01*
X0034413Y0153544D02*
X0037169Y0153544D01*
X0040220Y0150493D02*
X0040220Y0147737D01*
X0042779Y0147737D02*
X0042779Y0150493D01*
X0045338Y0150493D02*
X0045338Y0147737D01*
X0047897Y0147737D02*
X0047897Y0150493D01*
X0050948Y0153544D02*
X0053704Y0153544D01*
X0053704Y0156103D02*
X0050948Y0156103D01*
X0050948Y0158662D02*
X0053704Y0158662D01*
X0053704Y0161221D02*
X0050948Y0161221D01*
X0047897Y0164272D02*
X0047897Y0167028D01*
D38*
X0047602Y0160926D03*
X0044059Y0157383D03*
X0047602Y0153839D03*
X0040515Y0153839D03*
X0040515Y0160926D03*
D39*
X0067632Y0164239D03*
X0067632Y0176838D03*
D40*
X0046924Y0128624D03*
X0035900Y0128624D03*
X0203988Y0170372D03*
X0215012Y0170372D03*
D41*
X0295415Y0123056D03*
X0304188Y0122998D03*
X0304052Y0101744D03*
X0295278Y0101802D03*
D42*
G36*
X0031355Y0083535D02*
X0031132Y0088265D01*
X0038221Y0088599D01*
X0038444Y0083869D01*
X0031355Y0083535D01*
G37*
G36*
X0031818Y0073703D02*
X0031595Y0078433D01*
X0038684Y0078767D01*
X0038907Y0074037D01*
X0031818Y0073703D01*
G37*
G36*
X0019234Y0073110D02*
X0019011Y0077840D01*
X0026100Y0078174D01*
X0026323Y0073444D01*
X0019234Y0073110D01*
G37*
G36*
X0018770Y0082941D02*
X0018547Y0087671D01*
X0025636Y0088005D01*
X0025859Y0083275D01*
X0018770Y0082941D01*
G37*
G36*
X0018307Y0092773D02*
X0018084Y0097503D01*
X0025173Y0097837D01*
X0025396Y0093107D01*
X0018307Y0092773D01*
G37*
G36*
X0030891Y0093366D02*
X0030668Y0098096D01*
X0037757Y0098430D01*
X0037980Y0093700D01*
X0030891Y0093366D01*
G37*
D43*
X0027865Y0099141D03*
X0029126Y0072399D03*
D44*
X0324693Y0072731D03*
X0332173Y0072731D03*
X0328433Y0064069D03*
X0330433Y0084469D03*
X0326693Y0093131D03*
X0334173Y0093131D03*
X0330433Y0100769D03*
X0326693Y0109431D03*
X0334173Y0109431D03*
D45*
X0283936Y0131221D03*
X0259133Y0131615D03*
X0148897Y0152087D03*
X0129999Y0152875D03*
X0129606Y0138308D03*
X0068807Y0132946D03*
X0069007Y0121382D03*
X0017401Y0245001D03*
D46*
X0056377Y0223150D03*
X0056377Y0215670D03*
D47*
X0058799Y0103759D03*
X0058799Y0098641D03*
X0067067Y0101200D03*
D48*
X0046526Y0089990D03*
X0034324Y0095898D03*
X0038733Y0116500D03*
X0036197Y0128624D03*
X0047028Y0128591D03*
X0047559Y0144229D03*
X0042779Y0146085D03*
X0055659Y0144229D03*
X0034839Y0161221D03*
X0026434Y0150623D03*
X0043351Y0177905D03*
X0038333Y0190900D03*
X0049333Y0213800D03*
X0056377Y0223150D03*
X0053437Y0232994D03*
X0056587Y0245300D03*
X0067769Y0248719D03*
X0067769Y0253719D03*
X0067769Y0263719D03*
X0062527Y0266500D03*
X0080347Y0248008D03*
X0080347Y0232813D03*
X0067769Y0233719D03*
X0067769Y0228719D03*
X0067769Y0218719D03*
X0077997Y0214264D03*
X0062527Y0205003D03*
X0071333Y0191500D03*
X0080702Y0197853D03*
X0093133Y0183700D03*
X0120702Y0197853D03*
X0125702Y0197853D03*
X0133733Y0193500D03*
X0141750Y0185000D03*
X0157559Y0220591D03*
X0138635Y0223719D03*
X0126244Y0223500D03*
X0119933Y0224428D03*
X0119933Y0228365D03*
X0119933Y0232302D03*
X0119933Y0236239D03*
X0115996Y0236239D03*
X0115996Y0232302D03*
X0115996Y0228365D03*
X0115996Y0224428D03*
X0112059Y0224428D03*
X0112059Y0228365D03*
X0112059Y0232302D03*
X0112059Y0236239D03*
X0108122Y0236239D03*
X0108122Y0232302D03*
X0108122Y0228365D03*
X0108122Y0224428D03*
X0104185Y0224428D03*
X0104185Y0228365D03*
X0104185Y0232302D03*
X0104185Y0236239D03*
X0100248Y0236239D03*
X0100248Y0232302D03*
X0100248Y0228365D03*
X0100248Y0224428D03*
X0096310Y0228365D03*
X0096310Y0232302D03*
X0096310Y0236239D03*
X0125735Y0250301D03*
X0133035Y0243001D03*
X0133333Y0238900D03*
X0138635Y0258719D03*
X0138635Y0263719D03*
X0060833Y0188854D03*
X0038012Y0222300D03*
X0026633Y0224700D03*
X0022622Y0234328D03*
X0026010Y0236283D03*
X0016333Y0234400D03*
X0017401Y0245001D03*
X0028633Y0248400D03*
X0032725Y0250783D03*
X0039309Y0250127D03*
X0203988Y0170372D03*
X0208996Y0160291D03*
X0224808Y0150765D03*
X0224044Y0131400D03*
X0242633Y0103000D03*
X0256033Y0110500D03*
X0287733Y0176200D03*
X0243233Y0203289D03*
X0239057Y0200889D03*
X0242203Y0196430D03*
X0235333Y0195511D03*
X0225533Y0218500D03*
X0339810Y0164521D03*
X0336533Y0136400D03*
X0336233Y0097000D03*
X0342733Y0079600D03*
X0332433Y0072600D03*
M02*
