G75*
%MOIN*%
%OFA0B0*%
%FSLAX25Y25*%
%IPPOS*%
%LPD*%
%AMOC8*
5,1,8,0,0,1.08239X$1,22.5*
%
%ADD10C,0.00600*%
%ADD11C,0.00500*%
%ADD12R,0.02600X0.00100*%
%ADD13R,0.04400X0.00100*%
%ADD14R,0.05600X0.00100*%
%ADD15R,0.06600X0.00100*%
%ADD16R,0.07600X0.00100*%
%ADD17R,0.08400X0.00100*%
%ADD18R,0.09000X0.00100*%
%ADD19R,0.09600X0.00100*%
%ADD20R,0.10300X0.00100*%
%ADD21R,0.10900X0.00100*%
%ADD22R,0.11400X0.00100*%
%ADD23R,0.12000X0.00100*%
%ADD24R,0.12400X0.00100*%
%ADD25R,0.13000X0.00100*%
%ADD26R,0.13400X0.00100*%
%ADD27R,0.13800X0.00100*%
%ADD28R,0.14200X0.00100*%
%ADD29R,0.14600X0.00100*%
%ADD30R,0.15000X0.00100*%
%ADD31R,0.15400X0.00100*%
%ADD32R,0.15800X0.00100*%
%ADD33R,0.16100X0.00100*%
%ADD34R,0.16400X0.00100*%
%ADD35R,0.16800X0.00100*%
%ADD36R,0.17000X0.00100*%
%ADD37R,0.17400X0.00100*%
%ADD38R,0.17700X0.00100*%
%ADD39R,0.18000X0.00100*%
%ADD40R,0.18300X0.00100*%
%ADD41R,0.18600X0.00100*%
%ADD42R,0.18800X0.00100*%
%ADD43R,0.19200X0.00100*%
%ADD44R,0.19400X0.00100*%
%ADD45R,0.19600X0.00100*%
%ADD46R,0.20000X0.00100*%
%ADD47R,0.20200X0.00100*%
%ADD48R,0.20400X0.00100*%
%ADD49R,0.20600X0.00100*%
%ADD50R,0.20800X0.00100*%
%ADD51R,0.21200X0.00100*%
%ADD52R,0.21400X0.00100*%
%ADD53R,0.21600X0.00100*%
%ADD54R,0.21800X0.00100*%
%ADD55R,0.22000X0.00100*%
%ADD56R,0.22200X0.00100*%
%ADD57R,0.22400X0.00100*%
%ADD58R,0.22600X0.00100*%
%ADD59R,0.22800X0.00100*%
%ADD60R,0.23000X0.00100*%
%ADD61R,0.23200X0.00100*%
%ADD62R,0.23400X0.00100*%
%ADD63R,0.23600X0.00100*%
%ADD64R,0.23800X0.00100*%
%ADD65R,0.24000X0.00100*%
%ADD66R,0.24200X0.00100*%
%ADD67R,0.24400X0.00100*%
%ADD68R,0.24600X0.00100*%
%ADD69R,0.24800X0.00100*%
%ADD70R,0.25000X0.00100*%
%ADD71R,0.25200X0.00100*%
%ADD72R,0.25400X0.00100*%
%ADD73R,0.13700X0.00100*%
%ADD74R,0.13500X0.00100*%
%ADD75R,0.08900X0.00100*%
%ADD76R,0.08800X0.00100*%
%ADD77R,0.09100X0.00100*%
%ADD78R,0.09200X0.00100*%
%ADD79R,0.13300X0.00100*%
%ADD80R,0.09300X0.00100*%
%ADD81R,0.09400X0.00100*%
%ADD82R,0.09500X0.00100*%
%ADD83R,0.09700X0.00100*%
%ADD84R,0.09900X0.00100*%
%ADD85R,0.13200X0.00100*%
%ADD86R,0.10000X0.00100*%
%ADD87R,0.10200X0.00100*%
%ADD88R,0.10400X0.00100*%
%ADD89R,0.10500X0.00100*%
%ADD90R,0.13100X0.00100*%
%ADD91R,0.10700X0.00100*%
%ADD92R,0.10800X0.00100*%
%ADD93R,0.11000X0.00100*%
%ADD94R,0.03500X0.00100*%
%ADD95R,0.02000X0.00100*%
%ADD96R,0.03400X0.00100*%
%ADD97R,0.03300X0.00100*%
%ADD98R,0.12900X0.00100*%
%ADD99R,0.01900X0.00100*%
%ADD100R,0.12800X0.00100*%
%ADD101R,0.12700X0.00100*%
%ADD102R,0.03600X0.00100*%
%ADD103R,0.12600X0.00100*%
%ADD104R,0.03800X0.00100*%
%ADD105R,0.12500X0.00100*%
%ADD106R,0.04000X0.00100*%
%ADD107R,0.04100X0.00100*%
%ADD108R,0.12300X0.00100*%
%ADD109R,0.04300X0.00100*%
%ADD110R,0.04500X0.00100*%
%ADD111R,0.12200X0.00100*%
%ADD112R,0.04700X0.00100*%
%ADD113R,0.04800X0.00100*%
%ADD114R,0.12100X0.00100*%
%ADD115R,0.04900X0.00100*%
%ADD116R,0.05100X0.00100*%
%ADD117R,0.05200X0.00100*%
%ADD118R,0.05300X0.00100*%
%ADD119R,0.11900X0.00100*%
%ADD120R,0.05500X0.00100*%
%ADD121R,0.11800X0.00100*%
%ADD122R,0.05700X0.00100*%
%ADD123R,0.11700X0.00100*%
%ADD124R,0.05800X0.00100*%
%ADD125R,0.11600X0.00100*%
%ADD126R,0.06000X0.00100*%
%ADD127R,0.06100X0.00100*%
%ADD128R,0.06200X0.00100*%
%ADD129R,0.11500X0.00100*%
%ADD130R,0.06300X0.00100*%
%ADD131R,0.06400X0.00100*%
%ADD132R,0.11300X0.00100*%
%ADD133R,0.02100X0.00100*%
%ADD134R,0.06700X0.00100*%
%ADD135R,0.11200X0.00100*%
%ADD136R,0.06800X0.00100*%
%ADD137R,0.11100X0.00100*%
%ADD138R,0.06900X0.00100*%
%ADD139R,0.07000X0.00100*%
%ADD140R,0.07200X0.00100*%
%ADD141R,0.07300X0.00100*%
%ADD142R,0.07400X0.00100*%
%ADD143R,0.07500X0.00100*%
%ADD144R,0.05900X0.00100*%
%ADD145R,0.10600X0.00100*%
%ADD146R,0.07700X0.00100*%
%ADD147R,0.07800X0.00100*%
%ADD148R,0.08000X0.00100*%
%ADD149R,0.08100X0.00100*%
%ADD150R,0.08200X0.00100*%
%ADD151R,0.08300X0.00100*%
%ADD152R,0.10100X0.00100*%
%ADD153R,0.08500X0.00100*%
%ADD154R,0.08600X0.00100*%
%ADD155R,0.08700X0.00100*%
%ADD156R,0.09800X0.00100*%
%ADD157R,0.01100X0.00100*%
%ADD158R,0.07900X0.00100*%
%ADD159R,0.13600X0.00100*%
%ADD160R,0.13900X0.00100*%
%ADD161R,0.14000X0.00100*%
%ADD162R,0.07100X0.00100*%
%ADD163R,0.14100X0.00100*%
%ADD164R,0.14300X0.00100*%
%ADD165R,0.14400X0.00100*%
%ADD166R,0.14500X0.00100*%
%ADD167R,0.04600X0.00100*%
%ADD168R,0.14700X0.00100*%
%ADD169R,0.14800X0.00100*%
%ADD170R,0.04200X0.00100*%
%ADD171R,0.14900X0.00100*%
%ADD172R,0.01800X0.00100*%
%ADD173R,0.01700X0.00100*%
%ADD174R,0.01600X0.00100*%
%ADD175R,0.02700X0.00100*%
%ADD176R,0.05400X0.00100*%
%ADD177R,0.03900X0.00100*%
%ADD178R,0.02500X0.00100*%
%ADD179R,0.03100X0.00100*%
%ADD180R,0.02400X0.00100*%
%ADD181R,0.02300X0.00100*%
%ADD182R,0.26000X0.00100*%
%ADD183R,0.25800X0.00100*%
%ADD184R,0.25600X0.00100*%
%ADD185R,0.21300X0.00100*%
%ADD186R,0.21100X0.00100*%
%ADD187R,0.20100X0.00100*%
%ADD188R,0.19900X0.00100*%
%ADD189R,0.19100X0.00100*%
%ADD190R,0.16200X0.00100*%
%ADD191R,0.02900X0.00100*%
%ADD192C,0.00591*%
%ADD193R,0.03900X0.07300*%
%ADD194C,0.00000*%
%ADD195C,0.05150*%
%ADD196R,0.09500X0.09500*%
%ADD197OC8,0.05937*%
%ADD198R,0.06693X0.01575*%
%ADD199R,0.00100X0.00100*%
%ADD200C,0.03575*%
%ADD201C,0.04165*%
%ADD202R,0.03937X0.03937*%
%ADD203C,0.02978*%
%ADD204C,0.01400*%
%ADD205C,0.00800*%
%ADD206C,0.01200*%
%ADD207C,0.01600*%
D10*
X0018536Y0053992D02*
X0059875Y0052417D01*
X0116174Y0051236D01*
X0168930Y0050449D01*
X0239009Y0050449D01*
X0315781Y0050843D01*
X0349639Y0051236D01*
X0350033Y0056354D01*
X0350426Y0061079D01*
X0350820Y0065409D01*
X0352001Y0078008D01*
X0352788Y0091000D01*
X0353576Y0103598D01*
X0353970Y0112654D01*
X0354363Y0118953D01*
X0354757Y0127220D01*
X0355151Y0132732D01*
X0355544Y0138638D01*
X0355938Y0148480D01*
X0356725Y0163835D01*
X0357119Y0170528D01*
X0357907Y0187063D01*
X0358300Y0192575D01*
X0358694Y0202024D01*
X0359088Y0211079D01*
X0359481Y0221709D01*
X0360269Y0242181D01*
X0361056Y0263441D01*
X0361056Y0272102D01*
X0342552Y0272890D01*
X0302395Y0273677D01*
X0279212Y0273741D01*
X0238661Y0274528D01*
X0283041Y0234773D02*
X0283047Y0235256D01*
X0283065Y0235739D01*
X0283094Y0236221D01*
X0283136Y0236702D01*
X0283189Y0237183D01*
X0283254Y0237661D01*
X0283331Y0238138D01*
X0283419Y0238613D01*
X0283519Y0239086D01*
X0283631Y0239556D01*
X0283754Y0240023D01*
X0283889Y0240487D01*
X0284035Y0240948D01*
X0284192Y0241405D01*
X0284360Y0241858D01*
X0284539Y0242306D01*
X0284730Y0242750D01*
X0284931Y0243189D01*
X0285143Y0243624D01*
X0285365Y0244052D01*
X0285598Y0244476D01*
X0285842Y0244893D01*
X0286095Y0245304D01*
X0286359Y0245709D01*
X0286632Y0246108D01*
X0286915Y0246499D01*
X0287207Y0246884D01*
X0287509Y0247261D01*
X0287820Y0247631D01*
X0288140Y0247993D01*
X0288469Y0248347D01*
X0288807Y0248692D01*
X0289152Y0249030D01*
X0289506Y0249359D01*
X0289868Y0249679D01*
X0290238Y0249990D01*
X0290615Y0250292D01*
X0291000Y0250584D01*
X0291391Y0250867D01*
X0291790Y0251140D01*
X0292195Y0251404D01*
X0292606Y0251657D01*
X0293023Y0251901D01*
X0293447Y0252134D01*
X0293875Y0252356D01*
X0294310Y0252568D01*
X0294749Y0252769D01*
X0295193Y0252960D01*
X0295641Y0253139D01*
X0296094Y0253307D01*
X0296551Y0253464D01*
X0297012Y0253610D01*
X0297476Y0253745D01*
X0297943Y0253868D01*
X0298413Y0253980D01*
X0298886Y0254080D01*
X0299361Y0254168D01*
X0299838Y0254245D01*
X0300316Y0254310D01*
X0300797Y0254363D01*
X0301278Y0254405D01*
X0301760Y0254434D01*
X0302243Y0254452D01*
X0302726Y0254458D01*
X0303209Y0254452D01*
X0303692Y0254434D01*
X0304174Y0254405D01*
X0304655Y0254363D01*
X0305136Y0254310D01*
X0305614Y0254245D01*
X0306091Y0254168D01*
X0306566Y0254080D01*
X0307039Y0253980D01*
X0307509Y0253868D01*
X0307976Y0253745D01*
X0308440Y0253610D01*
X0308901Y0253464D01*
X0309358Y0253307D01*
X0309811Y0253139D01*
X0310259Y0252960D01*
X0310703Y0252769D01*
X0311142Y0252568D01*
X0311577Y0252356D01*
X0312005Y0252134D01*
X0312429Y0251901D01*
X0312846Y0251657D01*
X0313257Y0251404D01*
X0313662Y0251140D01*
X0314061Y0250867D01*
X0314452Y0250584D01*
X0314837Y0250292D01*
X0315214Y0249990D01*
X0315584Y0249679D01*
X0315946Y0249359D01*
X0316300Y0249030D01*
X0316645Y0248692D01*
X0316983Y0248347D01*
X0317312Y0247993D01*
X0317632Y0247631D01*
X0317943Y0247261D01*
X0318245Y0246884D01*
X0318537Y0246499D01*
X0318820Y0246108D01*
X0319093Y0245709D01*
X0319357Y0245304D01*
X0319610Y0244893D01*
X0319854Y0244476D01*
X0320087Y0244052D01*
X0320309Y0243624D01*
X0320521Y0243189D01*
X0320722Y0242750D01*
X0320913Y0242306D01*
X0321092Y0241858D01*
X0321260Y0241405D01*
X0321417Y0240948D01*
X0321563Y0240487D01*
X0321698Y0240023D01*
X0321821Y0239556D01*
X0321933Y0239086D01*
X0322033Y0238613D01*
X0322121Y0238138D01*
X0322198Y0237661D01*
X0322263Y0237183D01*
X0322316Y0236702D01*
X0322358Y0236221D01*
X0322387Y0235739D01*
X0322405Y0235256D01*
X0322411Y0234773D01*
X0322405Y0234290D01*
X0322387Y0233807D01*
X0322358Y0233325D01*
X0322316Y0232844D01*
X0322263Y0232363D01*
X0322198Y0231885D01*
X0322121Y0231408D01*
X0322033Y0230933D01*
X0321933Y0230460D01*
X0321821Y0229990D01*
X0321698Y0229523D01*
X0321563Y0229059D01*
X0321417Y0228598D01*
X0321260Y0228141D01*
X0321092Y0227688D01*
X0320913Y0227240D01*
X0320722Y0226796D01*
X0320521Y0226357D01*
X0320309Y0225922D01*
X0320087Y0225494D01*
X0319854Y0225070D01*
X0319610Y0224653D01*
X0319357Y0224242D01*
X0319093Y0223837D01*
X0318820Y0223438D01*
X0318537Y0223047D01*
X0318245Y0222662D01*
X0317943Y0222285D01*
X0317632Y0221915D01*
X0317312Y0221553D01*
X0316983Y0221199D01*
X0316645Y0220854D01*
X0316300Y0220516D01*
X0315946Y0220187D01*
X0315584Y0219867D01*
X0315214Y0219556D01*
X0314837Y0219254D01*
X0314452Y0218962D01*
X0314061Y0218679D01*
X0313662Y0218406D01*
X0313257Y0218142D01*
X0312846Y0217889D01*
X0312429Y0217645D01*
X0312005Y0217412D01*
X0311577Y0217190D01*
X0311142Y0216978D01*
X0310703Y0216777D01*
X0310259Y0216586D01*
X0309811Y0216407D01*
X0309358Y0216239D01*
X0308901Y0216082D01*
X0308440Y0215936D01*
X0307976Y0215801D01*
X0307509Y0215678D01*
X0307039Y0215566D01*
X0306566Y0215466D01*
X0306091Y0215378D01*
X0305614Y0215301D01*
X0305136Y0215236D01*
X0304655Y0215183D01*
X0304174Y0215141D01*
X0303692Y0215112D01*
X0303209Y0215094D01*
X0302726Y0215088D01*
X0302243Y0215094D01*
X0301760Y0215112D01*
X0301278Y0215141D01*
X0300797Y0215183D01*
X0300316Y0215236D01*
X0299838Y0215301D01*
X0299361Y0215378D01*
X0298886Y0215466D01*
X0298413Y0215566D01*
X0297943Y0215678D01*
X0297476Y0215801D01*
X0297012Y0215936D01*
X0296551Y0216082D01*
X0296094Y0216239D01*
X0295641Y0216407D01*
X0295193Y0216586D01*
X0294749Y0216777D01*
X0294310Y0216978D01*
X0293875Y0217190D01*
X0293447Y0217412D01*
X0293023Y0217645D01*
X0292606Y0217889D01*
X0292195Y0218142D01*
X0291790Y0218406D01*
X0291391Y0218679D01*
X0291000Y0218962D01*
X0290615Y0219254D01*
X0290238Y0219556D01*
X0289868Y0219867D01*
X0289506Y0220187D01*
X0289152Y0220516D01*
X0288807Y0220854D01*
X0288469Y0221199D01*
X0288140Y0221553D01*
X0287820Y0221915D01*
X0287509Y0222285D01*
X0287207Y0222662D01*
X0286915Y0223047D01*
X0286632Y0223438D01*
X0286359Y0223837D01*
X0286095Y0224242D01*
X0285842Y0224653D01*
X0285598Y0225070D01*
X0285365Y0225494D01*
X0285143Y0225922D01*
X0284931Y0226357D01*
X0284730Y0226796D01*
X0284539Y0227240D01*
X0284360Y0227688D01*
X0284192Y0228141D01*
X0284035Y0228598D01*
X0283889Y0229059D01*
X0283754Y0229523D01*
X0283631Y0229990D01*
X0283519Y0230460D01*
X0283419Y0230933D01*
X0283331Y0231408D01*
X0283254Y0231885D01*
X0283189Y0232363D01*
X0283136Y0232844D01*
X0283094Y0233325D01*
X0283065Y0233807D01*
X0283047Y0234290D01*
X0283041Y0234773D01*
X0024881Y0274725D02*
X0009875Y0274465D01*
X0010269Y0258717D01*
X0010662Y0241000D01*
X0011056Y0224858D01*
X0011450Y0211079D01*
X0011844Y0197693D01*
X0012237Y0185488D01*
X0012631Y0174465D01*
X0013025Y0161866D01*
X0013418Y0151630D01*
X0014206Y0129583D01*
X0014599Y0120134D01*
X0014993Y0113047D01*
X0015387Y0104780D01*
X0015781Y0096118D01*
X0016174Y0088638D01*
X0016568Y0080764D01*
X0016962Y0075252D01*
X0017355Y0068559D01*
X0017749Y0063047D01*
X0018143Y0058323D01*
X0018536Y0053992D01*
D11*
X0167177Y0259861D02*
X0214421Y0259861D01*
X0218358Y0263798D02*
X0218356Y0263922D01*
X0218350Y0264045D01*
X0218341Y0264169D01*
X0218327Y0264291D01*
X0218310Y0264414D01*
X0218288Y0264536D01*
X0218263Y0264657D01*
X0218234Y0264777D01*
X0218202Y0264896D01*
X0218165Y0265015D01*
X0218125Y0265132D01*
X0218082Y0265247D01*
X0218034Y0265362D01*
X0217983Y0265474D01*
X0217929Y0265585D01*
X0217871Y0265695D01*
X0217810Y0265802D01*
X0217745Y0265908D01*
X0217677Y0266011D01*
X0217606Y0266112D01*
X0217532Y0266211D01*
X0217455Y0266308D01*
X0217374Y0266402D01*
X0217291Y0266493D01*
X0217205Y0266582D01*
X0217116Y0266668D01*
X0217025Y0266751D01*
X0216931Y0266832D01*
X0216834Y0266909D01*
X0216735Y0266983D01*
X0216634Y0267054D01*
X0216531Y0267122D01*
X0216425Y0267187D01*
X0216318Y0267248D01*
X0216208Y0267306D01*
X0216097Y0267360D01*
X0215985Y0267411D01*
X0215870Y0267459D01*
X0215755Y0267502D01*
X0215638Y0267542D01*
X0215519Y0267579D01*
X0215400Y0267611D01*
X0215280Y0267640D01*
X0215159Y0267665D01*
X0215037Y0267687D01*
X0214914Y0267704D01*
X0214792Y0267718D01*
X0214668Y0267727D01*
X0214545Y0267733D01*
X0214421Y0267735D01*
X0167177Y0267735D01*
X0163240Y0263798D02*
X0163242Y0263674D01*
X0163248Y0263551D01*
X0163257Y0263427D01*
X0163271Y0263305D01*
X0163288Y0263182D01*
X0163310Y0263060D01*
X0163335Y0262939D01*
X0163364Y0262819D01*
X0163396Y0262700D01*
X0163433Y0262581D01*
X0163473Y0262464D01*
X0163516Y0262349D01*
X0163564Y0262234D01*
X0163615Y0262122D01*
X0163669Y0262011D01*
X0163727Y0261901D01*
X0163788Y0261794D01*
X0163853Y0261688D01*
X0163921Y0261585D01*
X0163992Y0261484D01*
X0164066Y0261385D01*
X0164143Y0261288D01*
X0164224Y0261194D01*
X0164307Y0261103D01*
X0164393Y0261014D01*
X0164482Y0260928D01*
X0164573Y0260845D01*
X0164667Y0260764D01*
X0164764Y0260687D01*
X0164863Y0260613D01*
X0164964Y0260542D01*
X0165067Y0260474D01*
X0165173Y0260409D01*
X0165280Y0260348D01*
X0165390Y0260290D01*
X0165501Y0260236D01*
X0165613Y0260185D01*
X0165728Y0260137D01*
X0165843Y0260094D01*
X0165960Y0260054D01*
X0166079Y0260017D01*
X0166198Y0259985D01*
X0166318Y0259956D01*
X0166439Y0259931D01*
X0166561Y0259909D01*
X0166684Y0259892D01*
X0166806Y0259878D01*
X0166930Y0259869D01*
X0167053Y0259863D01*
X0167177Y0259861D01*
X0163240Y0263798D02*
X0163242Y0263922D01*
X0163248Y0264045D01*
X0163257Y0264169D01*
X0163271Y0264291D01*
X0163288Y0264414D01*
X0163310Y0264536D01*
X0163335Y0264657D01*
X0163364Y0264777D01*
X0163396Y0264896D01*
X0163433Y0265015D01*
X0163473Y0265132D01*
X0163516Y0265247D01*
X0163564Y0265362D01*
X0163615Y0265474D01*
X0163669Y0265585D01*
X0163727Y0265695D01*
X0163788Y0265802D01*
X0163853Y0265908D01*
X0163921Y0266011D01*
X0163992Y0266112D01*
X0164066Y0266211D01*
X0164143Y0266308D01*
X0164224Y0266402D01*
X0164307Y0266493D01*
X0164393Y0266582D01*
X0164482Y0266668D01*
X0164573Y0266751D01*
X0164667Y0266832D01*
X0164764Y0266909D01*
X0164863Y0266983D01*
X0164964Y0267054D01*
X0165067Y0267122D01*
X0165173Y0267187D01*
X0165280Y0267248D01*
X0165390Y0267306D01*
X0165501Y0267360D01*
X0165613Y0267411D01*
X0165728Y0267459D01*
X0165843Y0267502D01*
X0165960Y0267542D01*
X0166079Y0267579D01*
X0166198Y0267611D01*
X0166318Y0267640D01*
X0166439Y0267665D01*
X0166561Y0267687D01*
X0166684Y0267704D01*
X0166806Y0267718D01*
X0166930Y0267727D01*
X0167053Y0267733D01*
X0167177Y0267735D01*
X0214421Y0259861D02*
X0214545Y0259863D01*
X0214668Y0259869D01*
X0214792Y0259878D01*
X0214914Y0259892D01*
X0215037Y0259909D01*
X0215159Y0259931D01*
X0215280Y0259956D01*
X0215400Y0259985D01*
X0215519Y0260017D01*
X0215638Y0260054D01*
X0215755Y0260094D01*
X0215870Y0260137D01*
X0215985Y0260185D01*
X0216097Y0260236D01*
X0216208Y0260290D01*
X0216318Y0260348D01*
X0216425Y0260409D01*
X0216531Y0260474D01*
X0216634Y0260542D01*
X0216735Y0260613D01*
X0216834Y0260687D01*
X0216931Y0260764D01*
X0217025Y0260845D01*
X0217116Y0260928D01*
X0217205Y0261014D01*
X0217291Y0261103D01*
X0217374Y0261194D01*
X0217455Y0261288D01*
X0217532Y0261385D01*
X0217606Y0261484D01*
X0217677Y0261585D01*
X0217745Y0261688D01*
X0217810Y0261794D01*
X0217871Y0261901D01*
X0217929Y0262011D01*
X0217983Y0262122D01*
X0218034Y0262234D01*
X0218082Y0262349D01*
X0218125Y0262464D01*
X0218165Y0262581D01*
X0218202Y0262700D01*
X0218234Y0262819D01*
X0218263Y0262939D01*
X0218288Y0263060D01*
X0218310Y0263182D01*
X0218327Y0263305D01*
X0218341Y0263427D01*
X0218350Y0263551D01*
X0218356Y0263674D01*
X0218358Y0263798D01*
D12*
X0300354Y0182713D03*
X0300454Y0182813D03*
X0300554Y0182913D03*
X0299854Y0182113D03*
X0299754Y0182013D03*
X0299354Y0181513D03*
X0300554Y0160513D03*
D13*
X0300554Y0160613D03*
X0287454Y0171713D03*
X0304954Y0180413D03*
X0313454Y0181913D03*
D14*
X0313154Y0180713D03*
X0298054Y0174113D03*
X0287754Y0172713D03*
X0300554Y0160713D03*
D15*
X0300554Y0160813D03*
X0288054Y0173613D03*
X0288054Y0173713D03*
X0312954Y0179813D03*
D16*
X0312654Y0178713D03*
X0301154Y0176813D03*
X0301054Y0176713D03*
X0300954Y0176613D03*
X0300854Y0176513D03*
X0300854Y0176413D03*
X0300754Y0176313D03*
X0300654Y0176213D03*
X0288454Y0174713D03*
X0300554Y0160913D03*
D17*
X0300554Y0161013D03*
X0288754Y0175513D03*
X0300554Y0191913D03*
X0310154Y0184613D03*
X0312354Y0177813D03*
D18*
X0312054Y0177013D03*
X0300554Y0161113D03*
X0292254Y0166813D03*
X0292154Y0166913D03*
X0291754Y0167513D03*
X0289054Y0176113D03*
X0289054Y0176213D03*
D19*
X0289354Y0176813D03*
X0300554Y0161213D03*
X0311754Y0176213D03*
X0310054Y0183613D03*
X0310054Y0183713D03*
D20*
X0311404Y0175313D03*
X0311404Y0175213D03*
X0300604Y0161313D03*
X0291604Y0168913D03*
X0289704Y0177613D03*
X0290504Y0181513D03*
X0290604Y0181713D03*
D21*
X0291304Y0182913D03*
X0291404Y0183013D03*
X0291504Y0183213D03*
X0290104Y0178413D03*
X0300604Y0161413D03*
X0311004Y0174313D03*
D22*
X0310654Y0173613D03*
X0310554Y0173413D03*
X0300554Y0161513D03*
X0290454Y0178713D03*
X0292354Y0184513D03*
X0292454Y0184613D03*
X0292554Y0184713D03*
D23*
X0300554Y0191313D03*
X0310054Y0172413D03*
X0310054Y0172313D03*
X0309954Y0172213D03*
X0300554Y0161613D03*
D24*
X0300554Y0161713D03*
X0309554Y0171413D03*
X0309654Y0171613D03*
X0293554Y0185613D03*
D25*
X0300554Y0191113D03*
X0308754Y0170013D03*
X0308654Y0169813D03*
X0308554Y0169713D03*
X0308454Y0169513D03*
X0300554Y0161813D03*
D26*
X0300554Y0161913D03*
X0306854Y0167113D03*
X0306954Y0167313D03*
X0307054Y0167413D03*
X0307154Y0167513D03*
X0307154Y0167613D03*
X0307254Y0167713D03*
X0307354Y0167813D03*
X0307454Y0168013D03*
X0307554Y0168113D03*
X0300554Y0191013D03*
D27*
X0300554Y0190913D03*
X0291654Y0179013D03*
X0300554Y0162013D03*
D28*
X0300554Y0162113D03*
X0291954Y0179613D03*
X0300554Y0190813D03*
D29*
X0300554Y0190713D03*
X0292354Y0180313D03*
X0292254Y0180213D03*
X0292254Y0180113D03*
X0300554Y0162213D03*
D30*
X0300554Y0162313D03*
X0292654Y0180913D03*
X0300554Y0190613D03*
D31*
X0300554Y0190513D03*
X0300554Y0162413D03*
D32*
X0300554Y0162513D03*
X0300554Y0190413D03*
D33*
X0300504Y0162613D03*
D34*
X0300554Y0162713D03*
X0300554Y0190213D03*
D35*
X0300554Y0190113D03*
X0300554Y0162813D03*
D36*
X0300554Y0162913D03*
X0300554Y0190013D03*
D37*
X0300554Y0189913D03*
X0300554Y0163013D03*
D38*
X0300504Y0163113D03*
X0300604Y0189813D03*
D39*
X0300554Y0189713D03*
X0300554Y0163213D03*
D40*
X0300504Y0163313D03*
X0300604Y0189613D03*
D41*
X0300554Y0189513D03*
X0300554Y0163413D03*
D42*
X0300554Y0163513D03*
X0300554Y0189413D03*
D43*
X0300554Y0163613D03*
D44*
X0300554Y0163713D03*
X0300554Y0189213D03*
D45*
X0300554Y0189113D03*
X0300554Y0163813D03*
D46*
X0300554Y0163913D03*
D47*
X0300554Y0164013D03*
D48*
X0300554Y0164113D03*
X0300554Y0188813D03*
D49*
X0300554Y0188713D03*
X0300554Y0164213D03*
D50*
X0300554Y0164313D03*
X0300554Y0188613D03*
D51*
X0300554Y0164413D03*
D52*
X0300554Y0164513D03*
D53*
X0300554Y0164613D03*
X0300554Y0188313D03*
D54*
X0300554Y0188213D03*
X0300554Y0164713D03*
D55*
X0300554Y0164813D03*
X0300554Y0188113D03*
D56*
X0300554Y0188013D03*
X0300554Y0164913D03*
D57*
X0300554Y0165013D03*
X0300554Y0187913D03*
D58*
X0300554Y0187813D03*
X0300554Y0165113D03*
D59*
X0300554Y0165213D03*
X0300554Y0187713D03*
D60*
X0300554Y0187613D03*
X0300554Y0165313D03*
D61*
X0300554Y0165413D03*
X0300554Y0187513D03*
D62*
X0300554Y0187413D03*
X0300554Y0165513D03*
D63*
X0300554Y0165613D03*
X0300554Y0187313D03*
D64*
X0300554Y0187213D03*
X0300554Y0165713D03*
D65*
X0300554Y0165813D03*
X0300554Y0187113D03*
D66*
X0300554Y0187013D03*
X0300554Y0186913D03*
X0300554Y0166013D03*
X0300554Y0165913D03*
D67*
X0300554Y0166113D03*
X0300554Y0186813D03*
D68*
X0300554Y0186713D03*
X0300554Y0166213D03*
D69*
X0300554Y0166313D03*
X0300554Y0186613D03*
D70*
X0300554Y0186513D03*
X0300554Y0166513D03*
X0300554Y0166413D03*
D71*
X0300554Y0166613D03*
X0300554Y0186313D03*
X0300554Y0186413D03*
D72*
X0300554Y0186213D03*
X0300554Y0166713D03*
D73*
X0306504Y0166813D03*
X0291604Y0178913D03*
D74*
X0306604Y0166913D03*
X0306704Y0167013D03*
X0306904Y0167213D03*
D75*
X0312104Y0177113D03*
X0310104Y0184213D03*
X0291804Y0167413D03*
X0291904Y0167213D03*
X0292104Y0167013D03*
X0289004Y0176013D03*
D76*
X0288954Y0175913D03*
X0291854Y0167313D03*
X0291954Y0167113D03*
X0312154Y0177213D03*
X0312154Y0177313D03*
X0310154Y0184313D03*
D77*
X0310104Y0184113D03*
X0310104Y0184013D03*
X0312004Y0176913D03*
X0312004Y0176813D03*
X0291704Y0167713D03*
X0291704Y0167613D03*
X0289104Y0176313D03*
D78*
X0289154Y0176413D03*
X0291654Y0167913D03*
X0291654Y0167813D03*
X0311954Y0176713D03*
X0300554Y0191813D03*
D79*
X0308004Y0168813D03*
X0307804Y0168513D03*
X0307704Y0168413D03*
X0307704Y0168313D03*
X0307604Y0168213D03*
X0307404Y0167913D03*
D80*
X0311904Y0176613D03*
X0310104Y0183913D03*
X0291604Y0168013D03*
X0289204Y0176513D03*
D81*
X0289254Y0176613D03*
X0291554Y0168213D03*
X0291554Y0168113D03*
X0310054Y0183813D03*
X0311854Y0176513D03*
X0311854Y0176413D03*
D82*
X0311804Y0176313D03*
X0291504Y0168313D03*
X0289304Y0176713D03*
D83*
X0289404Y0176913D03*
X0291504Y0168513D03*
X0291504Y0168413D03*
X0311704Y0176013D03*
X0311704Y0176113D03*
D84*
X0311604Y0175813D03*
X0310004Y0183413D03*
X0291504Y0168613D03*
X0289504Y0177113D03*
X0289504Y0177213D03*
D85*
X0307854Y0168613D03*
X0307954Y0168713D03*
X0308054Y0168913D03*
X0308154Y0169013D03*
X0308254Y0169213D03*
D86*
X0311554Y0175613D03*
X0311554Y0175713D03*
X0291554Y0168713D03*
X0289554Y0177313D03*
X0290254Y0181013D03*
X0290254Y0181113D03*
D87*
X0290454Y0181413D03*
X0290554Y0181613D03*
X0289654Y0177513D03*
X0291554Y0168813D03*
X0309954Y0183213D03*
X0311454Y0175413D03*
D88*
X0311354Y0175113D03*
X0308454Y0185713D03*
X0300554Y0191613D03*
X0290754Y0181913D03*
X0290654Y0181813D03*
X0289854Y0177813D03*
X0289754Y0177713D03*
X0291554Y0169013D03*
D89*
X0291604Y0169113D03*
X0289904Y0177913D03*
X0289904Y0178013D03*
X0290804Y0182013D03*
X0290804Y0182113D03*
X0290904Y0182213D03*
X0311204Y0174913D03*
X0311204Y0174813D03*
X0311304Y0175013D03*
D90*
X0308504Y0169613D03*
X0308404Y0169413D03*
X0308304Y0169313D03*
X0308204Y0169113D03*
D91*
X0311104Y0174613D03*
X0291604Y0169213D03*
X0290004Y0178213D03*
X0291004Y0182413D03*
X0291104Y0182513D03*
X0291104Y0182613D03*
X0291204Y0182713D03*
D92*
X0291254Y0182813D03*
X0290054Y0178313D03*
X0291654Y0169313D03*
X0311054Y0174413D03*
X0311054Y0174513D03*
D93*
X0310954Y0174213D03*
X0310854Y0174113D03*
X0310854Y0174013D03*
X0291654Y0169513D03*
X0291654Y0169413D03*
X0290154Y0178513D03*
X0291454Y0183113D03*
X0291554Y0183313D03*
X0291654Y0183413D03*
X0300554Y0191513D03*
D94*
X0313604Y0182713D03*
X0287804Y0169613D03*
X0287404Y0170513D03*
X0287404Y0170613D03*
D95*
X0296254Y0169613D03*
X0296354Y0169713D03*
X0296454Y0169813D03*
X0296554Y0169913D03*
X0296654Y0170113D03*
X0296754Y0170213D03*
X0296854Y0170313D03*
X0296954Y0170413D03*
X0297054Y0170613D03*
X0297154Y0170713D03*
X0297254Y0170813D03*
X0297454Y0171113D03*
X0297554Y0171213D03*
X0297654Y0171313D03*
X0297754Y0171413D03*
X0297854Y0171613D03*
X0297954Y0171713D03*
X0298054Y0171813D03*
X0298154Y0171913D03*
X0298354Y0172213D03*
X0298454Y0172313D03*
X0298554Y0172413D03*
X0298754Y0172713D03*
X0298854Y0172813D03*
X0298954Y0172913D03*
X0299054Y0173113D03*
X0299154Y0173213D03*
X0299254Y0173313D03*
X0299354Y0173513D03*
X0299454Y0173613D03*
D96*
X0287754Y0169713D03*
X0287654Y0169813D03*
X0287554Y0170013D03*
X0287454Y0170213D03*
D97*
X0287504Y0170113D03*
X0287604Y0169913D03*
X0287404Y0170313D03*
X0287404Y0170413D03*
X0313604Y0182813D03*
X0313604Y0182913D03*
D98*
X0308804Y0170113D03*
X0308704Y0169913D03*
D99*
X0299304Y0173413D03*
X0299004Y0173013D03*
X0298704Y0172613D03*
X0298604Y0172513D03*
X0298304Y0172113D03*
X0298204Y0172013D03*
X0297804Y0171513D03*
X0297404Y0171013D03*
X0297304Y0170913D03*
X0297004Y0170513D03*
X0296604Y0170013D03*
X0300804Y0183513D03*
D100*
X0309054Y0170513D03*
X0308954Y0170413D03*
X0308954Y0170313D03*
X0308854Y0170213D03*
D101*
X0309104Y0170613D03*
X0309204Y0170713D03*
X0309204Y0170813D03*
D102*
X0313554Y0182513D03*
X0313554Y0182613D03*
X0287354Y0170913D03*
X0287354Y0170813D03*
X0287354Y0170713D03*
D103*
X0293754Y0185713D03*
X0309254Y0170913D03*
X0309354Y0171013D03*
D104*
X0313554Y0182413D03*
X0287354Y0171213D03*
X0287354Y0171113D03*
X0287354Y0171013D03*
D105*
X0300504Y0191213D03*
X0309504Y0171313D03*
X0309404Y0171213D03*
X0309404Y0171113D03*
D106*
X0287354Y0171313D03*
D107*
X0287404Y0171413D03*
X0287404Y0171513D03*
X0313504Y0182113D03*
X0313504Y0182213D03*
D108*
X0309704Y0171713D03*
X0309604Y0171513D03*
D109*
X0287404Y0171613D03*
D110*
X0287504Y0171813D03*
X0304904Y0180313D03*
X0313404Y0181813D03*
D111*
X0309854Y0172013D03*
X0309854Y0171913D03*
X0309754Y0171813D03*
D112*
X0304004Y0178913D03*
X0304304Y0179313D03*
X0304604Y0179713D03*
X0304804Y0180013D03*
X0313404Y0181613D03*
X0287504Y0172013D03*
X0287504Y0171913D03*
D113*
X0287554Y0172113D03*
X0303054Y0177613D03*
X0303254Y0177913D03*
X0303354Y0178013D03*
X0303554Y0178313D03*
X0303654Y0178413D03*
X0303754Y0178613D03*
X0303854Y0178713D03*
X0303954Y0178813D03*
X0304054Y0179013D03*
X0304154Y0179113D03*
X0304254Y0179213D03*
X0304354Y0179413D03*
X0304454Y0179513D03*
X0304554Y0179613D03*
X0304654Y0179813D03*
X0304754Y0179913D03*
X0313354Y0181513D03*
D114*
X0309904Y0172113D03*
X0293404Y0185513D03*
D115*
X0303404Y0178113D03*
X0303504Y0178213D03*
X0303704Y0178513D03*
X0303204Y0177813D03*
X0303104Y0177713D03*
X0303004Y0177513D03*
X0302904Y0177413D03*
X0302804Y0177313D03*
X0302704Y0177213D03*
X0313304Y0181413D03*
X0287604Y0172213D03*
D116*
X0287604Y0172313D03*
X0298104Y0173813D03*
X0313304Y0181213D03*
X0313304Y0181313D03*
D117*
X0313254Y0181113D03*
X0287654Y0172413D03*
D118*
X0287704Y0172513D03*
X0298004Y0173913D03*
D119*
X0293104Y0185313D03*
X0293204Y0185413D03*
X0310104Y0172513D03*
D120*
X0313204Y0180813D03*
X0313204Y0180913D03*
X0298004Y0174013D03*
X0287704Y0172613D03*
D121*
X0310154Y0172613D03*
X0310254Y0172713D03*
X0310254Y0172813D03*
D122*
X0299004Y0175413D03*
X0298904Y0175313D03*
X0298104Y0174213D03*
X0287804Y0172913D03*
X0287804Y0172813D03*
D123*
X0292904Y0185113D03*
X0293004Y0185213D03*
X0310304Y0172913D03*
D124*
X0313154Y0180613D03*
X0299654Y0176113D03*
X0299554Y0176013D03*
X0299454Y0175913D03*
X0299354Y0175813D03*
X0299254Y0175713D03*
X0299154Y0175613D03*
X0299054Y0175513D03*
X0298854Y0175213D03*
X0298754Y0175113D03*
X0298654Y0175013D03*
X0298554Y0174913D03*
X0298354Y0174613D03*
X0298254Y0174513D03*
X0298154Y0174413D03*
X0298154Y0174313D03*
X0287854Y0173013D03*
X0300554Y0192213D03*
D125*
X0292854Y0185013D03*
X0310454Y0173213D03*
X0310454Y0173113D03*
X0310354Y0173013D03*
D126*
X0313054Y0180313D03*
X0287854Y0173113D03*
D127*
X0287904Y0173213D03*
D128*
X0287954Y0173313D03*
X0313054Y0180113D03*
X0313054Y0180213D03*
D129*
X0310504Y0173313D03*
X0300504Y0191413D03*
X0292704Y0184913D03*
X0292604Y0184813D03*
D130*
X0288004Y0173413D03*
X0313004Y0180013D03*
D131*
X0312954Y0179913D03*
X0288054Y0173513D03*
D132*
X0292104Y0184113D03*
X0292204Y0184313D03*
X0292304Y0184413D03*
X0310704Y0173713D03*
X0310604Y0173513D03*
D133*
X0299504Y0173713D03*
X0300804Y0183413D03*
D134*
X0312904Y0179713D03*
X0312904Y0179613D03*
X0288104Y0173813D03*
D135*
X0290254Y0178613D03*
X0291954Y0183913D03*
X0292054Y0184013D03*
X0292154Y0184213D03*
X0310754Y0173813D03*
D136*
X0312854Y0179513D03*
X0300554Y0192113D03*
X0288154Y0173913D03*
D137*
X0291704Y0183513D03*
X0291804Y0183613D03*
X0291804Y0183713D03*
X0291904Y0183813D03*
X0310804Y0173913D03*
D138*
X0312804Y0179413D03*
X0288204Y0174013D03*
D139*
X0288254Y0174113D03*
D140*
X0288254Y0174213D03*
X0312754Y0179113D03*
D141*
X0312704Y0179013D03*
X0288304Y0174313D03*
D142*
X0288354Y0174413D03*
X0312654Y0178813D03*
X0312654Y0178913D03*
D143*
X0301404Y0177113D03*
X0301304Y0177013D03*
X0301204Y0176913D03*
X0288404Y0174613D03*
X0288404Y0174513D03*
D144*
X0298404Y0174713D03*
X0298504Y0174813D03*
X0313104Y0180413D03*
X0313104Y0180513D03*
D145*
X0311154Y0174713D03*
X0289954Y0178113D03*
X0290954Y0182313D03*
D146*
X0288504Y0174813D03*
X0312604Y0178613D03*
D147*
X0312554Y0178513D03*
X0312554Y0178413D03*
X0300554Y0192013D03*
X0288554Y0174913D03*
D148*
X0288554Y0175013D03*
X0309754Y0185613D03*
X0310054Y0185113D03*
X0310054Y0185013D03*
X0312454Y0178213D03*
D149*
X0312404Y0178113D03*
X0312404Y0178013D03*
X0310104Y0184913D03*
X0288604Y0175113D03*
D150*
X0288654Y0175213D03*
X0310154Y0184813D03*
D151*
X0310104Y0184713D03*
X0312404Y0177913D03*
X0288704Y0175413D03*
X0288704Y0175313D03*
D152*
X0289604Y0177413D03*
X0290304Y0181213D03*
X0290404Y0181313D03*
X0310004Y0183313D03*
X0311504Y0175513D03*
D153*
X0312304Y0177613D03*
X0312304Y0177713D03*
X0288804Y0175613D03*
D154*
X0288854Y0175713D03*
X0310154Y0184513D03*
X0312254Y0177513D03*
D155*
X0312204Y0177413D03*
X0310104Y0184413D03*
X0288904Y0175813D03*
D156*
X0289454Y0177013D03*
X0300554Y0191713D03*
X0310054Y0183513D03*
X0311654Y0175913D03*
D157*
X0303704Y0176113D03*
D158*
X0312504Y0178313D03*
X0310004Y0185213D03*
X0310004Y0185313D03*
X0309904Y0185413D03*
X0309804Y0185513D03*
D159*
X0291554Y0178813D03*
D160*
X0291704Y0179113D03*
D161*
X0291754Y0179213D03*
X0291854Y0179313D03*
D162*
X0312804Y0179313D03*
X0312804Y0179213D03*
D163*
X0291904Y0179413D03*
X0291904Y0179513D03*
D164*
X0292004Y0179713D03*
X0292104Y0179813D03*
D165*
X0292154Y0179913D03*
D166*
X0292204Y0180013D03*
D167*
X0304854Y0180113D03*
X0304854Y0180213D03*
X0313354Y0181713D03*
X0300554Y0192313D03*
D168*
X0292404Y0180413D03*
D169*
X0292454Y0180513D03*
D170*
X0304954Y0180513D03*
X0313454Y0182013D03*
D171*
X0292604Y0180813D03*
X0292604Y0180713D03*
X0292504Y0180613D03*
D172*
X0303754Y0180613D03*
X0304754Y0181913D03*
X0305154Y0182413D03*
X0305454Y0182813D03*
X0305554Y0182913D03*
X0305654Y0183013D03*
D173*
X0305704Y0183113D03*
X0305404Y0182713D03*
X0305304Y0182613D03*
X0305204Y0182513D03*
X0305104Y0182313D03*
X0305004Y0182213D03*
X0304904Y0182113D03*
X0304804Y0182013D03*
X0304704Y0181813D03*
X0304604Y0181713D03*
X0304504Y0181613D03*
X0304404Y0181513D03*
X0304404Y0181413D03*
X0304304Y0181313D03*
X0304204Y0181213D03*
X0304104Y0181113D03*
X0303804Y0180713D03*
D174*
X0303854Y0180813D03*
X0303954Y0180913D03*
X0304054Y0181013D03*
D175*
X0300304Y0182613D03*
X0300204Y0182513D03*
X0300104Y0182413D03*
X0300004Y0182313D03*
X0299904Y0182213D03*
X0299704Y0181913D03*
X0299604Y0181813D03*
X0299504Y0181713D03*
X0299404Y0181613D03*
X0299304Y0181413D03*
X0299204Y0181313D03*
X0299104Y0181213D03*
X0299004Y0181113D03*
X0298904Y0181013D03*
D176*
X0313254Y0181013D03*
D177*
X0313504Y0182313D03*
D178*
X0300704Y0183113D03*
X0300604Y0183013D03*
D179*
X0313604Y0183013D03*
X0313604Y0183113D03*
D180*
X0300754Y0183213D03*
D181*
X0300804Y0183313D03*
D182*
X0300554Y0185813D03*
D183*
X0300554Y0185913D03*
X0300554Y0186013D03*
D184*
X0300554Y0186113D03*
D185*
X0300604Y0188413D03*
D186*
X0300604Y0188513D03*
D187*
X0300604Y0188913D03*
D188*
X0300604Y0189013D03*
D189*
X0300604Y0189313D03*
D190*
X0300554Y0190313D03*
D191*
X0300604Y0192413D03*
D192*
X0238661Y0274528D02*
X0263464Y0374135D01*
X0263464Y0374134D02*
X0263475Y0374250D01*
X0263482Y0374367D01*
X0263486Y0374484D01*
X0263485Y0374600D01*
X0263481Y0374717D01*
X0263473Y0374833D01*
X0263461Y0374949D01*
X0263445Y0375065D01*
X0263426Y0375180D01*
X0263403Y0375294D01*
X0263376Y0375408D01*
X0263345Y0375520D01*
X0263311Y0375632D01*
X0263273Y0375742D01*
X0263231Y0375851D01*
X0263186Y0375959D01*
X0263138Y0376065D01*
X0263086Y0376169D01*
X0263030Y0376272D01*
X0262972Y0376373D01*
X0262910Y0376471D01*
X0262844Y0376568D01*
X0262776Y0376663D01*
X0262705Y0376755D01*
X0262630Y0376845D01*
X0262553Y0376932D01*
X0262473Y0377017D01*
X0262390Y0377099D01*
X0262305Y0377179D01*
X0262217Y0377255D01*
X0262126Y0377329D01*
X0262034Y0377400D01*
X0261938Y0377467D01*
X0261841Y0377532D01*
X0261742Y0377593D01*
X0261641Y0377651D01*
X0261538Y0377705D01*
X0261433Y0377757D01*
X0261326Y0377804D01*
X0261218Y0377849D01*
X0261109Y0377889D01*
X0260998Y0377926D01*
X0260887Y0377960D01*
X0260774Y0377989D01*
X0260660Y0378016D01*
X0260546Y0378038D01*
X0260430Y0378056D01*
X0260315Y0378071D01*
X0260314Y0378072D02*
X0250472Y0380040D01*
X0250471Y0380040D02*
X0250373Y0380060D01*
X0250274Y0380077D01*
X0250174Y0380091D01*
X0250074Y0380100D01*
X0249974Y0380105D01*
X0249873Y0380107D01*
X0249772Y0380105D01*
X0249672Y0380099D01*
X0249572Y0380089D01*
X0249472Y0380075D01*
X0249373Y0380057D01*
X0249275Y0380036D01*
X0249177Y0380011D01*
X0249081Y0379982D01*
X0248986Y0379950D01*
X0248892Y0379914D01*
X0248799Y0379874D01*
X0248709Y0379831D01*
X0248619Y0379784D01*
X0248532Y0379734D01*
X0248447Y0379681D01*
X0248364Y0379624D01*
X0248283Y0379565D01*
X0248204Y0379502D01*
X0248128Y0379436D01*
X0248054Y0379367D01*
X0247983Y0379296D01*
X0247915Y0379222D01*
X0247850Y0379146D01*
X0247788Y0379067D01*
X0247728Y0378985D01*
X0247672Y0378902D01*
X0247620Y0378816D01*
X0247570Y0378728D01*
X0247524Y0378639D01*
X0247481Y0378548D01*
X0247442Y0378455D01*
X0247407Y0378361D01*
X0247375Y0378266D01*
X0247347Y0378169D01*
X0247322Y0378071D01*
X0247322Y0378072D02*
X0220157Y0274922D01*
X0161496Y0274922D01*
X0130787Y0373741D01*
X0130770Y0373843D01*
X0130750Y0373946D01*
X0130726Y0374047D01*
X0130698Y0374147D01*
X0130666Y0374246D01*
X0130630Y0374344D01*
X0130591Y0374441D01*
X0130549Y0374536D01*
X0130502Y0374629D01*
X0130453Y0374720D01*
X0130400Y0374810D01*
X0130343Y0374898D01*
X0130284Y0374983D01*
X0130221Y0375066D01*
X0130155Y0375147D01*
X0130086Y0375225D01*
X0130015Y0375300D01*
X0129940Y0375373D01*
X0129863Y0375443D01*
X0129784Y0375510D01*
X0129701Y0375574D01*
X0129617Y0375635D01*
X0129530Y0375693D01*
X0129442Y0375747D01*
X0129351Y0375798D01*
X0129258Y0375846D01*
X0129164Y0375890D01*
X0129068Y0375931D01*
X0128971Y0375968D01*
X0128872Y0376001D01*
X0128772Y0376031D01*
X0128671Y0376056D01*
X0128570Y0376078D01*
X0128467Y0376097D01*
X0128364Y0376111D01*
X0128260Y0376122D01*
X0128157Y0376128D01*
X0128052Y0376131D01*
X0127948Y0376130D01*
X0127844Y0376125D01*
X0127741Y0376116D01*
X0127637Y0376103D01*
X0117007Y0371772D01*
X0116922Y0371753D01*
X0116837Y0371730D01*
X0116754Y0371704D01*
X0116672Y0371674D01*
X0116591Y0371640D01*
X0116511Y0371603D01*
X0116434Y0371563D01*
X0116358Y0371519D01*
X0116284Y0371472D01*
X0116213Y0371421D01*
X0116143Y0371368D01*
X0116076Y0371312D01*
X0116012Y0371252D01*
X0115950Y0371190D01*
X0115891Y0371126D01*
X0115834Y0371059D01*
X0115781Y0370989D01*
X0115731Y0370917D01*
X0115684Y0370843D01*
X0115640Y0370768D01*
X0115600Y0370690D01*
X0115563Y0370610D01*
X0115530Y0370529D01*
X0115500Y0370447D01*
X0115474Y0370364D01*
X0115451Y0370279D01*
X0115432Y0370193D01*
X0115417Y0370107D01*
X0115406Y0370020D01*
X0115398Y0369933D01*
X0115394Y0369846D01*
X0115395Y0369758D01*
X0115398Y0369671D01*
X0115406Y0369583D01*
X0115418Y0369497D01*
X0115433Y0369410D01*
X0142992Y0274922D01*
X0024881Y0274725D01*
D193*
X0333083Y0106450D03*
X0339383Y0106450D03*
X0339383Y0087350D03*
X0333083Y0087350D03*
D194*
X0051326Y0264466D02*
X0051318Y0266828D01*
X0051306Y0266905D01*
X0051291Y0266982D01*
X0051271Y0267057D01*
X0051248Y0267132D01*
X0051222Y0267205D01*
X0051192Y0267277D01*
X0051158Y0267347D01*
X0051121Y0267415D01*
X0051080Y0267482D01*
X0051037Y0267546D01*
X0050990Y0267609D01*
X0050940Y0267669D01*
X0050888Y0267726D01*
X0050832Y0267781D01*
X0050774Y0267833D01*
X0050714Y0267882D01*
X0050651Y0267928D01*
X0050586Y0267971D01*
X0050519Y0268011D01*
X0050450Y0268047D01*
X0050380Y0268080D01*
X0050308Y0268110D01*
X0050234Y0268135D01*
X0050159Y0268158D01*
X0050084Y0268176D01*
X0050007Y0268191D01*
X0049930Y0268202D01*
X0049853Y0268209D01*
X0049775Y0268213D01*
X0049697Y0268212D01*
X0049619Y0268208D01*
X0049542Y0268200D01*
X0049541Y0268199D02*
X0049464Y0268207D01*
X0049386Y0268211D01*
X0049308Y0268210D01*
X0049230Y0268206D01*
X0049153Y0268199D01*
X0049076Y0268187D01*
X0048999Y0268172D01*
X0048924Y0268153D01*
X0048849Y0268130D01*
X0048776Y0268104D01*
X0048704Y0268074D01*
X0048634Y0268040D01*
X0048565Y0268003D01*
X0048498Y0267963D01*
X0048434Y0267920D01*
X0048371Y0267873D01*
X0048311Y0267824D01*
X0048254Y0267771D01*
X0048199Y0267716D01*
X0048146Y0267658D01*
X0048097Y0267598D01*
X0048051Y0267535D01*
X0048008Y0267471D01*
X0047968Y0267404D01*
X0047931Y0267335D01*
X0047898Y0267264D01*
X0047868Y0267192D01*
X0047842Y0267119D01*
X0047820Y0267044D01*
X0047801Y0266969D01*
X0047786Y0266892D01*
X0047775Y0266815D01*
X0047775Y0266816D02*
X0047783Y0264453D01*
X0047783Y0264454D02*
X0047795Y0264377D01*
X0047810Y0264300D01*
X0047830Y0264225D01*
X0047853Y0264150D01*
X0047879Y0264077D01*
X0047909Y0264005D01*
X0047943Y0263935D01*
X0047980Y0263867D01*
X0048021Y0263800D01*
X0048064Y0263736D01*
X0048111Y0263673D01*
X0048161Y0263613D01*
X0048213Y0263556D01*
X0048269Y0263501D01*
X0048327Y0263449D01*
X0048387Y0263400D01*
X0048450Y0263354D01*
X0048515Y0263311D01*
X0048582Y0263271D01*
X0048651Y0263235D01*
X0048721Y0263202D01*
X0048793Y0263172D01*
X0048867Y0263147D01*
X0048942Y0263124D01*
X0049017Y0263106D01*
X0049094Y0263091D01*
X0049171Y0263080D01*
X0049248Y0263073D01*
X0049326Y0263069D01*
X0049404Y0263070D01*
X0049482Y0263074D01*
X0049559Y0263082D01*
X0049560Y0263082D02*
X0049637Y0263074D01*
X0049715Y0263070D01*
X0049793Y0263071D01*
X0049871Y0263075D01*
X0049948Y0263082D01*
X0050025Y0263094D01*
X0050102Y0263109D01*
X0050177Y0263128D01*
X0050252Y0263151D01*
X0050325Y0263177D01*
X0050397Y0263207D01*
X0050467Y0263241D01*
X0050536Y0263278D01*
X0050603Y0263318D01*
X0050667Y0263361D01*
X0050730Y0263408D01*
X0050790Y0263457D01*
X0050847Y0263510D01*
X0050902Y0263565D01*
X0050955Y0263623D01*
X0051004Y0263683D01*
X0051050Y0263746D01*
X0051093Y0263810D01*
X0051133Y0263877D01*
X0051170Y0263946D01*
X0051203Y0264017D01*
X0051233Y0264089D01*
X0051259Y0264162D01*
X0051281Y0264237D01*
X0051300Y0264312D01*
X0051315Y0264389D01*
X0051326Y0264466D01*
X0041703Y0258138D02*
X0041705Y0258212D01*
X0041711Y0258286D01*
X0041721Y0258359D01*
X0041735Y0258432D01*
X0041752Y0258504D01*
X0041774Y0258574D01*
X0041799Y0258644D01*
X0041828Y0258712D01*
X0041861Y0258778D01*
X0041897Y0258843D01*
X0041937Y0258905D01*
X0041979Y0258966D01*
X0042025Y0259024D01*
X0042074Y0259079D01*
X0042126Y0259132D01*
X0042181Y0259182D01*
X0042238Y0259228D01*
X0042298Y0259272D01*
X0042360Y0259312D01*
X0042424Y0259349D01*
X0042490Y0259383D01*
X0042558Y0259413D01*
X0042627Y0259439D01*
X0042698Y0259462D01*
X0042769Y0259480D01*
X0042842Y0259495D01*
X0042915Y0259506D01*
X0042989Y0259513D01*
X0043063Y0259516D01*
X0043136Y0259515D01*
X0043210Y0259510D01*
X0043284Y0259501D01*
X0043357Y0259488D01*
X0043429Y0259471D01*
X0043500Y0259451D01*
X0043570Y0259426D01*
X0043638Y0259398D01*
X0043705Y0259367D01*
X0043770Y0259331D01*
X0043833Y0259293D01*
X0043894Y0259251D01*
X0043953Y0259205D01*
X0044009Y0259157D01*
X0044062Y0259106D01*
X0044112Y0259052D01*
X0044160Y0258995D01*
X0044204Y0258936D01*
X0044246Y0258874D01*
X0044284Y0258811D01*
X0044318Y0258745D01*
X0044349Y0258678D01*
X0044376Y0258609D01*
X0044399Y0258539D01*
X0044419Y0258468D01*
X0044435Y0258395D01*
X0044447Y0258322D01*
X0044455Y0258249D01*
X0044459Y0258175D01*
X0044459Y0258101D01*
X0044455Y0258027D01*
X0044447Y0257954D01*
X0044435Y0257881D01*
X0044419Y0257808D01*
X0044399Y0257737D01*
X0044376Y0257667D01*
X0044349Y0257598D01*
X0044318Y0257531D01*
X0044284Y0257465D01*
X0044246Y0257402D01*
X0044204Y0257340D01*
X0044160Y0257281D01*
X0044112Y0257224D01*
X0044062Y0257170D01*
X0044009Y0257119D01*
X0043953Y0257071D01*
X0043894Y0257025D01*
X0043833Y0256983D01*
X0043770Y0256945D01*
X0043705Y0256909D01*
X0043638Y0256878D01*
X0043570Y0256850D01*
X0043500Y0256825D01*
X0043429Y0256805D01*
X0043357Y0256788D01*
X0043284Y0256775D01*
X0043210Y0256766D01*
X0043136Y0256761D01*
X0043063Y0256760D01*
X0042989Y0256763D01*
X0042915Y0256770D01*
X0042842Y0256781D01*
X0042769Y0256796D01*
X0042698Y0256814D01*
X0042627Y0256837D01*
X0042558Y0256863D01*
X0042490Y0256893D01*
X0042424Y0256927D01*
X0042360Y0256964D01*
X0042298Y0257004D01*
X0042238Y0257048D01*
X0042181Y0257094D01*
X0042126Y0257144D01*
X0042074Y0257197D01*
X0042025Y0257252D01*
X0041979Y0257310D01*
X0041937Y0257371D01*
X0041897Y0257433D01*
X0041861Y0257498D01*
X0041828Y0257564D01*
X0041799Y0257632D01*
X0041774Y0257702D01*
X0041752Y0257772D01*
X0041735Y0257844D01*
X0041721Y0257917D01*
X0041711Y0257990D01*
X0041705Y0258064D01*
X0041703Y0258138D01*
X0026348Y0258084D02*
X0026350Y0258158D01*
X0026356Y0258232D01*
X0026366Y0258305D01*
X0026380Y0258378D01*
X0026397Y0258450D01*
X0026419Y0258520D01*
X0026444Y0258590D01*
X0026473Y0258658D01*
X0026506Y0258724D01*
X0026542Y0258789D01*
X0026582Y0258851D01*
X0026624Y0258912D01*
X0026670Y0258970D01*
X0026719Y0259025D01*
X0026771Y0259078D01*
X0026826Y0259128D01*
X0026883Y0259174D01*
X0026943Y0259218D01*
X0027005Y0259258D01*
X0027069Y0259295D01*
X0027135Y0259329D01*
X0027203Y0259359D01*
X0027272Y0259385D01*
X0027343Y0259408D01*
X0027414Y0259426D01*
X0027487Y0259441D01*
X0027560Y0259452D01*
X0027634Y0259459D01*
X0027708Y0259462D01*
X0027781Y0259461D01*
X0027855Y0259456D01*
X0027929Y0259447D01*
X0028002Y0259434D01*
X0028074Y0259417D01*
X0028145Y0259397D01*
X0028215Y0259372D01*
X0028283Y0259344D01*
X0028350Y0259313D01*
X0028415Y0259277D01*
X0028478Y0259239D01*
X0028539Y0259197D01*
X0028598Y0259151D01*
X0028654Y0259103D01*
X0028707Y0259052D01*
X0028757Y0258998D01*
X0028805Y0258941D01*
X0028849Y0258882D01*
X0028891Y0258820D01*
X0028929Y0258757D01*
X0028963Y0258691D01*
X0028994Y0258624D01*
X0029021Y0258555D01*
X0029044Y0258485D01*
X0029064Y0258414D01*
X0029080Y0258341D01*
X0029092Y0258268D01*
X0029100Y0258195D01*
X0029104Y0258121D01*
X0029104Y0258047D01*
X0029100Y0257973D01*
X0029092Y0257900D01*
X0029080Y0257827D01*
X0029064Y0257754D01*
X0029044Y0257683D01*
X0029021Y0257613D01*
X0028994Y0257544D01*
X0028963Y0257477D01*
X0028929Y0257411D01*
X0028891Y0257348D01*
X0028849Y0257286D01*
X0028805Y0257227D01*
X0028757Y0257170D01*
X0028707Y0257116D01*
X0028654Y0257065D01*
X0028598Y0257017D01*
X0028539Y0256971D01*
X0028478Y0256929D01*
X0028415Y0256891D01*
X0028350Y0256855D01*
X0028283Y0256824D01*
X0028215Y0256796D01*
X0028145Y0256771D01*
X0028074Y0256751D01*
X0028002Y0256734D01*
X0027929Y0256721D01*
X0027855Y0256712D01*
X0027781Y0256707D01*
X0027708Y0256706D01*
X0027634Y0256709D01*
X0027560Y0256716D01*
X0027487Y0256727D01*
X0027414Y0256742D01*
X0027343Y0256760D01*
X0027272Y0256783D01*
X0027203Y0256809D01*
X0027135Y0256839D01*
X0027069Y0256873D01*
X0027005Y0256910D01*
X0026943Y0256950D01*
X0026883Y0256994D01*
X0026826Y0257040D01*
X0026771Y0257090D01*
X0026719Y0257143D01*
X0026670Y0257198D01*
X0026624Y0257256D01*
X0026582Y0257317D01*
X0026542Y0257379D01*
X0026506Y0257444D01*
X0026473Y0257510D01*
X0026444Y0257578D01*
X0026419Y0257648D01*
X0026397Y0257718D01*
X0026380Y0257790D01*
X0026366Y0257863D01*
X0026356Y0257936D01*
X0026350Y0258010D01*
X0026348Y0258084D01*
X0022980Y0264367D02*
X0022972Y0266532D01*
X0022973Y0266533D02*
X0022976Y0266608D01*
X0022975Y0266683D01*
X0022970Y0266757D01*
X0022962Y0266832D01*
X0022949Y0266906D01*
X0022933Y0266979D01*
X0022914Y0267052D01*
X0022890Y0267123D01*
X0022863Y0267193D01*
X0022833Y0267261D01*
X0022799Y0267328D01*
X0022762Y0267393D01*
X0022721Y0267456D01*
X0022677Y0267517D01*
X0022631Y0267576D01*
X0022581Y0267632D01*
X0022529Y0267686D01*
X0022474Y0267737D01*
X0022416Y0267785D01*
X0022356Y0267830D01*
X0022294Y0267872D01*
X0022230Y0267911D01*
X0022164Y0267947D01*
X0022096Y0267979D01*
X0022027Y0268007D01*
X0021957Y0268033D01*
X0021885Y0268054D01*
X0021812Y0268072D01*
X0021738Y0268086D01*
X0021664Y0268096D01*
X0021589Y0268103D01*
X0021589Y0268102D02*
X0020802Y0268099D01*
X0020801Y0268099D02*
X0020727Y0268092D01*
X0020653Y0268081D01*
X0020579Y0268067D01*
X0020506Y0268048D01*
X0020435Y0268026D01*
X0020364Y0268001D01*
X0020295Y0267971D01*
X0020228Y0267939D01*
X0020162Y0267903D01*
X0020098Y0267864D01*
X0020036Y0267821D01*
X0019977Y0267776D01*
X0019919Y0267727D01*
X0019865Y0267676D01*
X0019813Y0267622D01*
X0019764Y0267565D01*
X0019717Y0267506D01*
X0019674Y0267445D01*
X0019634Y0267381D01*
X0019597Y0267316D01*
X0019564Y0267249D01*
X0019534Y0267180D01*
X0019507Y0267110D01*
X0019485Y0267039D01*
X0019465Y0266966D01*
X0019450Y0266893D01*
X0019438Y0266819D01*
X0019430Y0266744D01*
X0019426Y0266669D01*
X0019425Y0266594D01*
X0019429Y0266519D01*
X0019429Y0266520D02*
X0019437Y0264355D01*
X0019437Y0264354D02*
X0019439Y0264282D01*
X0019445Y0264210D01*
X0019455Y0264139D01*
X0019468Y0264068D01*
X0019485Y0263998D01*
X0019506Y0263929D01*
X0019530Y0263861D01*
X0019558Y0263794D01*
X0019589Y0263729D01*
X0019624Y0263666D01*
X0019662Y0263604D01*
X0019703Y0263545D01*
X0019747Y0263488D01*
X0019794Y0263433D01*
X0019844Y0263381D01*
X0019897Y0263332D01*
X0019952Y0263285D01*
X0020009Y0263241D01*
X0020069Y0263201D01*
X0020130Y0263163D01*
X0020194Y0263129D01*
X0020259Y0263098D01*
X0020326Y0263071D01*
X0020394Y0263047D01*
X0020463Y0263027D01*
X0020533Y0263010D01*
X0020604Y0262997D01*
X0020676Y0262988D01*
X0020748Y0262983D01*
X0020820Y0262981D01*
X0020819Y0262981D02*
X0021607Y0262984D01*
X0021679Y0262986D01*
X0021751Y0262992D01*
X0021822Y0263002D01*
X0021893Y0263015D01*
X0021963Y0263032D01*
X0022032Y0263053D01*
X0022100Y0263077D01*
X0022167Y0263105D01*
X0022232Y0263136D01*
X0022295Y0263171D01*
X0022357Y0263209D01*
X0022416Y0263250D01*
X0022473Y0263294D01*
X0022528Y0263341D01*
X0022580Y0263391D01*
X0022629Y0263444D01*
X0022676Y0263499D01*
X0022720Y0263556D01*
X0022760Y0263616D01*
X0022798Y0263677D01*
X0022832Y0263741D01*
X0022863Y0263806D01*
X0022890Y0263873D01*
X0022914Y0263941D01*
X0022934Y0264010D01*
X0022951Y0264080D01*
X0022964Y0264151D01*
X0022973Y0264223D01*
X0022978Y0264295D01*
X0022980Y0264367D01*
X0026093Y0099141D02*
X0026095Y0099225D01*
X0026101Y0099308D01*
X0026111Y0099391D01*
X0026125Y0099474D01*
X0026142Y0099556D01*
X0026164Y0099637D01*
X0026189Y0099716D01*
X0026218Y0099795D01*
X0026251Y0099872D01*
X0026287Y0099947D01*
X0026327Y0100021D01*
X0026370Y0100093D01*
X0026417Y0100162D01*
X0026467Y0100229D01*
X0026520Y0100294D01*
X0026576Y0100356D01*
X0026634Y0100416D01*
X0026696Y0100473D01*
X0026760Y0100526D01*
X0026827Y0100577D01*
X0026896Y0100624D01*
X0026967Y0100669D01*
X0027040Y0100709D01*
X0027115Y0100746D01*
X0027192Y0100780D01*
X0027270Y0100810D01*
X0027349Y0100836D01*
X0027430Y0100859D01*
X0027512Y0100877D01*
X0027594Y0100892D01*
X0027677Y0100903D01*
X0027760Y0100910D01*
X0027844Y0100913D01*
X0027928Y0100912D01*
X0028011Y0100907D01*
X0028095Y0100898D01*
X0028177Y0100885D01*
X0028259Y0100869D01*
X0028340Y0100848D01*
X0028421Y0100824D01*
X0028499Y0100796D01*
X0028577Y0100764D01*
X0028653Y0100728D01*
X0028727Y0100689D01*
X0028799Y0100647D01*
X0028869Y0100601D01*
X0028937Y0100552D01*
X0029002Y0100500D01*
X0029065Y0100445D01*
X0029125Y0100387D01*
X0029183Y0100326D01*
X0029237Y0100262D01*
X0029289Y0100196D01*
X0029337Y0100128D01*
X0029382Y0100057D01*
X0029423Y0099984D01*
X0029462Y0099910D01*
X0029496Y0099834D01*
X0029527Y0099756D01*
X0029554Y0099677D01*
X0029578Y0099596D01*
X0029597Y0099515D01*
X0029613Y0099433D01*
X0029625Y0099350D01*
X0029633Y0099266D01*
X0029637Y0099183D01*
X0029637Y0099099D01*
X0029633Y0099016D01*
X0029625Y0098932D01*
X0029613Y0098849D01*
X0029597Y0098767D01*
X0029578Y0098686D01*
X0029554Y0098605D01*
X0029527Y0098526D01*
X0029496Y0098448D01*
X0029462Y0098372D01*
X0029423Y0098298D01*
X0029382Y0098225D01*
X0029337Y0098154D01*
X0029289Y0098086D01*
X0029237Y0098020D01*
X0029183Y0097956D01*
X0029125Y0097895D01*
X0029065Y0097837D01*
X0029002Y0097782D01*
X0028937Y0097730D01*
X0028869Y0097681D01*
X0028799Y0097635D01*
X0028727Y0097593D01*
X0028653Y0097554D01*
X0028577Y0097518D01*
X0028499Y0097486D01*
X0028421Y0097458D01*
X0028340Y0097434D01*
X0028259Y0097413D01*
X0028177Y0097397D01*
X0028095Y0097384D01*
X0028011Y0097375D01*
X0027928Y0097370D01*
X0027844Y0097369D01*
X0027760Y0097372D01*
X0027677Y0097379D01*
X0027594Y0097390D01*
X0027512Y0097405D01*
X0027430Y0097423D01*
X0027349Y0097446D01*
X0027270Y0097472D01*
X0027192Y0097502D01*
X0027115Y0097536D01*
X0027040Y0097573D01*
X0026967Y0097613D01*
X0026896Y0097658D01*
X0026827Y0097705D01*
X0026760Y0097756D01*
X0026696Y0097809D01*
X0026634Y0097866D01*
X0026576Y0097926D01*
X0026520Y0097988D01*
X0026467Y0098053D01*
X0026417Y0098120D01*
X0026370Y0098189D01*
X0026327Y0098261D01*
X0026287Y0098335D01*
X0026251Y0098410D01*
X0026218Y0098487D01*
X0026189Y0098566D01*
X0026164Y0098645D01*
X0026142Y0098726D01*
X0026125Y0098808D01*
X0026111Y0098891D01*
X0026101Y0098974D01*
X0026095Y0099057D01*
X0026093Y0099141D01*
X0027354Y0072399D02*
X0027356Y0072483D01*
X0027362Y0072566D01*
X0027372Y0072649D01*
X0027386Y0072732D01*
X0027403Y0072814D01*
X0027425Y0072895D01*
X0027450Y0072974D01*
X0027479Y0073053D01*
X0027512Y0073130D01*
X0027548Y0073205D01*
X0027588Y0073279D01*
X0027631Y0073351D01*
X0027678Y0073420D01*
X0027728Y0073487D01*
X0027781Y0073552D01*
X0027837Y0073614D01*
X0027895Y0073674D01*
X0027957Y0073731D01*
X0028021Y0073784D01*
X0028088Y0073835D01*
X0028157Y0073882D01*
X0028228Y0073927D01*
X0028301Y0073967D01*
X0028376Y0074004D01*
X0028453Y0074038D01*
X0028531Y0074068D01*
X0028610Y0074094D01*
X0028691Y0074117D01*
X0028773Y0074135D01*
X0028855Y0074150D01*
X0028938Y0074161D01*
X0029021Y0074168D01*
X0029105Y0074171D01*
X0029189Y0074170D01*
X0029272Y0074165D01*
X0029356Y0074156D01*
X0029438Y0074143D01*
X0029520Y0074127D01*
X0029601Y0074106D01*
X0029682Y0074082D01*
X0029760Y0074054D01*
X0029838Y0074022D01*
X0029914Y0073986D01*
X0029988Y0073947D01*
X0030060Y0073905D01*
X0030130Y0073859D01*
X0030198Y0073810D01*
X0030263Y0073758D01*
X0030326Y0073703D01*
X0030386Y0073645D01*
X0030444Y0073584D01*
X0030498Y0073520D01*
X0030550Y0073454D01*
X0030598Y0073386D01*
X0030643Y0073315D01*
X0030684Y0073242D01*
X0030723Y0073168D01*
X0030757Y0073092D01*
X0030788Y0073014D01*
X0030815Y0072935D01*
X0030839Y0072854D01*
X0030858Y0072773D01*
X0030874Y0072691D01*
X0030886Y0072608D01*
X0030894Y0072524D01*
X0030898Y0072441D01*
X0030898Y0072357D01*
X0030894Y0072274D01*
X0030886Y0072190D01*
X0030874Y0072107D01*
X0030858Y0072025D01*
X0030839Y0071944D01*
X0030815Y0071863D01*
X0030788Y0071784D01*
X0030757Y0071706D01*
X0030723Y0071630D01*
X0030684Y0071556D01*
X0030643Y0071483D01*
X0030598Y0071412D01*
X0030550Y0071344D01*
X0030498Y0071278D01*
X0030444Y0071214D01*
X0030386Y0071153D01*
X0030326Y0071095D01*
X0030263Y0071040D01*
X0030198Y0070988D01*
X0030130Y0070939D01*
X0030060Y0070893D01*
X0029988Y0070851D01*
X0029914Y0070812D01*
X0029838Y0070776D01*
X0029760Y0070744D01*
X0029682Y0070716D01*
X0029601Y0070692D01*
X0029520Y0070671D01*
X0029438Y0070655D01*
X0029356Y0070642D01*
X0029272Y0070633D01*
X0029189Y0070628D01*
X0029105Y0070627D01*
X0029021Y0070630D01*
X0028938Y0070637D01*
X0028855Y0070648D01*
X0028773Y0070663D01*
X0028691Y0070681D01*
X0028610Y0070704D01*
X0028531Y0070730D01*
X0028453Y0070760D01*
X0028376Y0070794D01*
X0028301Y0070831D01*
X0028228Y0070871D01*
X0028157Y0070916D01*
X0028088Y0070963D01*
X0028021Y0071014D01*
X0027957Y0071067D01*
X0027895Y0071124D01*
X0027837Y0071184D01*
X0027781Y0071246D01*
X0027728Y0071311D01*
X0027678Y0071378D01*
X0027631Y0071447D01*
X0027588Y0071519D01*
X0027548Y0071593D01*
X0027512Y0071668D01*
X0027479Y0071745D01*
X0027450Y0071824D01*
X0027425Y0071903D01*
X0027403Y0071984D01*
X0027386Y0072066D01*
X0027372Y0072149D01*
X0027362Y0072232D01*
X0027356Y0072315D01*
X0027354Y0072399D01*
D195*
X0022424Y0254522D02*
X0017274Y0254504D01*
X0048408Y0254613D02*
X0053557Y0254631D01*
D196*
G36*
X0044817Y0260875D02*
X0044784Y0270374D01*
X0054283Y0270407D01*
X0054316Y0260908D01*
X0044817Y0260875D01*
G37*
G36*
X0016471Y0260776D02*
X0016438Y0270275D01*
X0025937Y0270308D01*
X0025970Y0260809D01*
X0016471Y0260776D01*
G37*
D197*
X0062930Y0067138D03*
X0073069Y0067172D03*
X0337133Y0119000D03*
X0341425Y0188895D03*
X0342027Y0208112D03*
X0342733Y0227600D03*
D198*
X0195070Y0189672D03*
X0195070Y0186522D03*
X0195070Y0183372D03*
X0195070Y0180223D03*
X0195070Y0177073D03*
X0195070Y0173924D03*
X0195070Y0170774D03*
X0195070Y0167624D03*
X0195070Y0164475D03*
X0195070Y0161325D03*
X0195070Y0158176D03*
X0195070Y0155026D03*
X0195070Y0151876D03*
X0195070Y0148727D03*
X0195070Y0145577D03*
X0195070Y0142428D03*
X0195070Y0139278D03*
X0195070Y0136128D03*
D199*
X0285430Y0176152D03*
D200*
X0047602Y0160926D03*
X0044059Y0157383D03*
X0047602Y0153839D03*
X0040515Y0153839D03*
X0040515Y0160926D03*
D201*
X0295415Y0123056D03*
X0304188Y0122998D03*
X0304052Y0101744D03*
X0295278Y0101802D03*
D202*
X0333084Y0104774D03*
X0339383Y0104774D03*
X0339383Y0089026D03*
X0333084Y0089026D03*
D203*
X0336233Y0097000D03*
X0342733Y0079600D03*
X0332433Y0072600D03*
X0336533Y0136400D03*
X0339810Y0164521D03*
X0287733Y0176200D03*
X0243233Y0203289D03*
X0239057Y0200889D03*
X0242203Y0196430D03*
X0235333Y0195511D03*
X0225533Y0218500D03*
X0203988Y0170372D03*
X0208996Y0160291D03*
X0224808Y0150765D03*
X0224044Y0131400D03*
X0242633Y0103000D03*
X0256033Y0110500D03*
X0157559Y0220591D03*
X0138635Y0223719D03*
X0126244Y0223500D03*
X0119933Y0224428D03*
X0119933Y0228365D03*
X0119933Y0232302D03*
X0119933Y0236239D03*
X0115996Y0236239D03*
X0115996Y0232302D03*
X0115996Y0228365D03*
X0115996Y0224428D03*
X0112059Y0224428D03*
X0112059Y0228365D03*
X0112059Y0232302D03*
X0112059Y0236239D03*
X0108122Y0236239D03*
X0108122Y0232302D03*
X0108122Y0228365D03*
X0108122Y0224428D03*
X0104185Y0224428D03*
X0104185Y0228365D03*
X0104185Y0232302D03*
X0104185Y0236239D03*
X0100248Y0236239D03*
X0100248Y0232302D03*
X0100248Y0228365D03*
X0100248Y0224428D03*
X0096310Y0228365D03*
X0096310Y0232302D03*
X0096310Y0236239D03*
X0080347Y0232813D03*
X0067769Y0233719D03*
X0067769Y0228719D03*
X0067769Y0218719D03*
X0077997Y0214264D03*
X0062527Y0205003D03*
X0049333Y0213800D03*
X0056377Y0223150D03*
X0053437Y0232994D03*
X0056587Y0245300D03*
X0067769Y0248719D03*
X0067769Y0253719D03*
X0067769Y0263719D03*
X0062527Y0266500D03*
X0080347Y0248008D03*
X0039309Y0250127D03*
X0032725Y0250783D03*
X0028633Y0248400D03*
X0017401Y0245001D03*
X0016333Y0234400D03*
X0022622Y0234328D03*
X0026010Y0236283D03*
X0026633Y0224700D03*
X0038012Y0222300D03*
X0038333Y0190900D03*
X0043351Y0177905D03*
X0034839Y0161221D03*
X0026434Y0150623D03*
X0042779Y0146085D03*
X0047559Y0144229D03*
X0055659Y0144229D03*
X0047028Y0128591D03*
X0036197Y0128624D03*
X0038733Y0116500D03*
X0034324Y0095898D03*
X0046526Y0089990D03*
X0093133Y0183700D03*
X0080702Y0197853D03*
X0071333Y0191500D03*
X0060833Y0188854D03*
X0120702Y0197853D03*
X0125702Y0197853D03*
X0133733Y0193500D03*
X0141750Y0185000D03*
X0133333Y0238900D03*
X0133035Y0243001D03*
X0125735Y0250301D03*
X0138635Y0258719D03*
X0138635Y0263719D03*
D204*
X0141355Y0262475D02*
X0160290Y0262475D01*
X0160290Y0262429D02*
X0161338Y0259897D01*
X0163275Y0257960D01*
X0163275Y0257960D01*
X0165807Y0256911D01*
X0215791Y0256911D01*
X0218322Y0257960D01*
X0220259Y0259897D01*
X0220259Y0259897D01*
X0221308Y0262429D01*
X0221308Y0265168D01*
X0220259Y0267700D01*
X0218322Y0269637D01*
X0218322Y0269637D01*
X0215791Y0270685D01*
X0167763Y0270685D01*
X0165807Y0270685D01*
X0163275Y0269637D01*
X0161338Y0267700D01*
X0161338Y0267700D01*
X0161338Y0267700D01*
X0160290Y0265168D01*
X0160290Y0262429D01*
X0160290Y0263874D02*
X0141624Y0263874D01*
X0141624Y0264313D02*
X0141169Y0265412D01*
X0140328Y0266253D01*
X0139229Y0266708D01*
X0138899Y0266708D01*
X0135854Y0269753D01*
X0134506Y0271100D01*
X0063874Y0271100D01*
X0062527Y0269753D01*
X0062263Y0269489D01*
X0061932Y0269489D01*
X0060834Y0269034D01*
X0059993Y0268193D01*
X0059538Y0267095D01*
X0059538Y0265905D01*
X0059993Y0264807D01*
X0060834Y0263966D01*
X0061932Y0263511D01*
X0063122Y0263511D01*
X0064220Y0263966D01*
X0064930Y0264676D01*
X0064780Y0264313D01*
X0064780Y0263124D01*
X0065235Y0262026D01*
X0066076Y0261185D01*
X0067174Y0260730D01*
X0067646Y0260730D01*
X0075158Y0253219D01*
X0075158Y0236780D01*
X0070829Y0241108D01*
X0064708Y0241108D01*
X0063419Y0239819D01*
X0060380Y0236780D01*
X0060380Y0225658D01*
X0061669Y0224370D01*
X0065430Y0220608D01*
X0065235Y0220412D01*
X0064780Y0219313D01*
X0064780Y0218124D01*
X0065235Y0217026D01*
X0066076Y0216185D01*
X0067174Y0215730D01*
X0068363Y0215730D01*
X0069462Y0216185D01*
X0070303Y0217026D01*
X0070758Y0218124D01*
X0070758Y0218392D01*
X0075008Y0214141D01*
X0075008Y0213669D01*
X0075463Y0212571D01*
X0076304Y0211730D01*
X0077402Y0211275D01*
X0078591Y0211275D01*
X0079690Y0211730D01*
X0080531Y0212571D01*
X0080611Y0212765D01*
X0156298Y0137078D01*
X0190024Y0137078D01*
X0190024Y0136128D01*
X0190024Y0135117D01*
X0190140Y0134685D01*
X0190364Y0134297D01*
X0190680Y0133981D01*
X0191068Y0133757D01*
X0191500Y0133641D01*
X0195070Y0133641D01*
X0195070Y0136128D01*
X0195070Y0136128D01*
X0190024Y0136128D01*
X0195070Y0136128D01*
X0195070Y0136128D01*
X0195070Y0133641D01*
X0198641Y0133641D01*
X0199073Y0133757D01*
X0199461Y0133981D01*
X0199777Y0134297D01*
X0200001Y0134685D01*
X0200117Y0135117D01*
X0200117Y0136128D01*
X0195070Y0136128D01*
X0195070Y0136128D01*
X0200117Y0136128D01*
X0200117Y0137140D01*
X0200001Y0137572D01*
X0199861Y0137814D01*
X0199917Y0137869D01*
X0199917Y0140687D01*
X0199751Y0140853D01*
X0199917Y0141019D01*
X0199917Y0143836D01*
X0199751Y0144002D01*
X0199917Y0144168D01*
X0199917Y0146986D01*
X0199751Y0147152D01*
X0199917Y0147318D01*
X0199917Y0150135D01*
X0199751Y0150302D01*
X0199917Y0150468D01*
X0199917Y0153285D01*
X0199751Y0153451D01*
X0199917Y0153617D01*
X0199917Y0156435D01*
X0199861Y0156490D01*
X0200001Y0156732D01*
X0200117Y0157164D01*
X0200117Y0158176D01*
X0200117Y0159025D01*
X0206284Y0159025D01*
X0206462Y0158597D01*
X0207302Y0157757D01*
X0208401Y0157302D01*
X0209590Y0157302D01*
X0210689Y0157757D01*
X0210923Y0157991D01*
X0214329Y0157991D01*
X0221819Y0150501D01*
X0221819Y0150170D01*
X0222274Y0149071D01*
X0223115Y0148231D01*
X0224214Y0147776D01*
X0224544Y0147776D01*
X0226733Y0145587D01*
X0226733Y0132719D01*
X0226578Y0133093D01*
X0225737Y0133934D01*
X0224639Y0134389D01*
X0223450Y0134389D01*
X0222351Y0133934D01*
X0221510Y0133093D01*
X0221055Y0131995D01*
X0221055Y0131300D01*
X0105203Y0131300D01*
X0082602Y0153901D01*
X0082602Y0195526D01*
X0083236Y0196160D01*
X0083691Y0197258D01*
X0083691Y0198447D01*
X0083236Y0199546D01*
X0082395Y0200387D01*
X0081296Y0200842D01*
X0080107Y0200842D01*
X0079009Y0200387D01*
X0078168Y0199546D01*
X0077713Y0198447D01*
X0077713Y0197258D01*
X0078168Y0196160D01*
X0078802Y0195526D01*
X0078802Y0155439D01*
X0063133Y0171107D01*
X0063133Y0186927D01*
X0063367Y0187160D01*
X0063822Y0188259D01*
X0063822Y0189448D01*
X0063367Y0190547D01*
X0063133Y0190781D01*
X0063133Y0202019D01*
X0064220Y0202469D01*
X0065061Y0203310D01*
X0065516Y0204408D01*
X0065516Y0205598D01*
X0065061Y0206696D01*
X0064220Y0207537D01*
X0063122Y0207992D01*
X0061932Y0207992D01*
X0060834Y0207537D01*
X0059993Y0206696D01*
X0059538Y0205598D01*
X0059538Y0205267D01*
X0058533Y0204262D01*
X0058533Y0190781D01*
X0058299Y0190547D01*
X0057844Y0189448D01*
X0057844Y0188259D01*
X0058299Y0187160D01*
X0058533Y0186927D01*
X0058533Y0172454D01*
X0045651Y0172454D01*
X0045651Y0175978D01*
X0045885Y0176212D01*
X0046340Y0177310D01*
X0046340Y0178499D01*
X0045885Y0179598D01*
X0045045Y0180439D01*
X0043946Y0180894D01*
X0042757Y0180894D01*
X0041658Y0180439D01*
X0040818Y0179598D01*
X0040362Y0178499D01*
X0040362Y0177310D01*
X0040818Y0176212D01*
X0041051Y0175978D01*
X0041051Y0170687D01*
X0034575Y0164210D01*
X0034244Y0164210D01*
X0033146Y0163755D01*
X0032305Y0162914D01*
X0031850Y0161816D01*
X0031850Y0160627D01*
X0032305Y0159528D01*
X0033146Y0158687D01*
X0034244Y0158232D01*
X0035433Y0158232D01*
X0036532Y0158687D01*
X0037373Y0159528D01*
X0037828Y0160627D01*
X0037828Y0160958D01*
X0044304Y0167434D01*
X0044725Y0167854D01*
X0059881Y0167854D01*
X0087161Y0140575D01*
X0087161Y0140530D01*
X0088391Y0139300D01*
X0088435Y0139300D01*
X0102635Y0125100D01*
X0217281Y0125100D01*
X0228081Y0114300D01*
X0239644Y0102736D01*
X0239644Y0102405D01*
X0240099Y0101307D01*
X0240940Y0100466D01*
X0242039Y0100011D01*
X0243228Y0100011D01*
X0244326Y0100466D01*
X0245167Y0101307D01*
X0245622Y0102405D01*
X0245622Y0103595D01*
X0245167Y0104693D01*
X0244326Y0105534D01*
X0243228Y0105989D01*
X0242897Y0105989D01*
X0231333Y0117553D01*
X0231333Y0147492D01*
X0227797Y0151028D01*
X0227797Y0151359D01*
X0227342Y0152458D01*
X0226501Y0153298D01*
X0225403Y0153754D01*
X0225072Y0153754D01*
X0217582Y0161243D01*
X0216235Y0162591D01*
X0210923Y0162591D01*
X0210689Y0162824D01*
X0209590Y0163280D01*
X0209259Y0163280D01*
X0208914Y0163625D01*
X0204511Y0163625D01*
X0206288Y0165402D01*
X0206288Y0168445D01*
X0206522Y0168679D01*
X0206977Y0169778D01*
X0206977Y0170967D01*
X0206522Y0172066D01*
X0205682Y0172906D01*
X0204583Y0173361D01*
X0203394Y0173361D01*
X0202295Y0172906D01*
X0201455Y0172066D01*
X0200999Y0170967D01*
X0200999Y0169778D01*
X0201455Y0168679D01*
X0201688Y0168445D01*
X0201688Y0167308D01*
X0201155Y0166775D01*
X0200117Y0166775D01*
X0200117Y0167624D01*
X0195070Y0167624D01*
X0190024Y0167624D01*
X0190024Y0166613D01*
X0190140Y0166181D01*
X0190279Y0165939D01*
X0190224Y0165884D01*
X0190224Y0163066D01*
X0190390Y0162900D01*
X0190224Y0162734D01*
X0190224Y0159916D01*
X0190279Y0159861D01*
X0190140Y0159619D01*
X0190024Y0159187D01*
X0190024Y0158176D01*
X0195070Y0158176D01*
X0195070Y0158176D01*
X0190024Y0158176D01*
X0190024Y0157226D01*
X0157929Y0157226D01*
X0151489Y0163667D01*
X0151489Y0213976D01*
X0141624Y0223841D01*
X0141624Y0224313D01*
X0141169Y0225412D01*
X0140328Y0226253D01*
X0139229Y0226708D01*
X0138040Y0226708D01*
X0136942Y0226253D01*
X0136101Y0225412D01*
X0135646Y0224313D01*
X0135646Y0223124D01*
X0136101Y0222026D01*
X0136942Y0221185D01*
X0138040Y0220730D01*
X0138513Y0220730D01*
X0147089Y0212154D01*
X0147089Y0164955D01*
X0081845Y0230199D01*
X0082040Y0230279D01*
X0082881Y0231120D01*
X0083336Y0232219D01*
X0083336Y0233408D01*
X0082881Y0234506D01*
X0082247Y0235140D01*
X0082247Y0245681D01*
X0082881Y0246315D01*
X0083336Y0247413D01*
X0083336Y0248602D01*
X0082881Y0249701D01*
X0082040Y0250542D01*
X0080941Y0250997D01*
X0079752Y0250997D01*
X0079558Y0250916D01*
X0079558Y0255041D01*
X0078269Y0256330D01*
X0070758Y0263841D01*
X0070758Y0264313D01*
X0070303Y0265412D01*
X0069462Y0266253D01*
X0068865Y0266500D01*
X0132601Y0266500D01*
X0135646Y0263455D01*
X0135646Y0263124D01*
X0136101Y0262026D01*
X0136908Y0261219D01*
X0136101Y0260412D01*
X0135646Y0259313D01*
X0135646Y0258417D01*
X0128548Y0251319D01*
X0128269Y0251995D01*
X0127428Y0252835D01*
X0126329Y0253290D01*
X0125140Y0253290D01*
X0124042Y0252835D01*
X0123201Y0251995D01*
X0122746Y0250896D01*
X0122746Y0249707D01*
X0123201Y0248608D01*
X0123835Y0247974D01*
X0123835Y0225317D01*
X0123710Y0225193D01*
X0123255Y0224095D01*
X0123255Y0222905D01*
X0123710Y0221807D01*
X0124551Y0220966D01*
X0125650Y0220511D01*
X0126839Y0220511D01*
X0127033Y0220592D01*
X0127033Y0197513D01*
X0128146Y0196400D01*
X0130744Y0193802D01*
X0130744Y0192905D01*
X0131199Y0191807D01*
X0132040Y0190966D01*
X0133139Y0190511D01*
X0134328Y0190511D01*
X0135426Y0190966D01*
X0136267Y0191807D01*
X0136722Y0192905D01*
X0136722Y0194095D01*
X0136267Y0195193D01*
X0135426Y0196034D01*
X0134328Y0196489D01*
X0133431Y0196489D01*
X0130833Y0199087D01*
X0130833Y0226800D01*
X0148663Y0226800D01*
X0154570Y0220893D01*
X0154570Y0219997D01*
X0155025Y0218898D01*
X0155865Y0218057D01*
X0156964Y0217602D01*
X0158153Y0217602D01*
X0159252Y0218057D01*
X0160092Y0218898D01*
X0160547Y0219997D01*
X0160547Y0221186D01*
X0160092Y0222284D01*
X0159252Y0223125D01*
X0158153Y0223580D01*
X0157257Y0223580D01*
X0150237Y0230600D01*
X0130833Y0230600D01*
X0130833Y0237173D01*
X0131640Y0236366D01*
X0132739Y0235911D01*
X0133928Y0235911D01*
X0135026Y0236366D01*
X0135867Y0237207D01*
X0136322Y0238305D01*
X0136322Y0239202D01*
X0136720Y0239600D01*
X0137833Y0240713D01*
X0137833Y0243250D01*
X0143283Y0248700D01*
X0161846Y0248700D01*
X0259046Y0151500D01*
X0299546Y0151500D01*
X0331065Y0119982D01*
X0331065Y0111600D01*
X0330512Y0111600D01*
X0329633Y0110721D01*
X0329633Y0107382D01*
X0329615Y0107364D01*
X0329615Y0102184D01*
X0330494Y0101306D01*
X0330506Y0101306D01*
X0330512Y0101300D01*
X0331184Y0101300D01*
X0331184Y0092500D01*
X0330512Y0092500D01*
X0330506Y0092494D01*
X0330494Y0092494D01*
X0329615Y0091616D01*
X0329615Y0086436D01*
X0329633Y0086418D01*
X0329633Y0083079D01*
X0330512Y0082200D01*
X0335655Y0082200D01*
X0336233Y0082779D01*
X0336812Y0082200D01*
X0341955Y0082200D01*
X0342833Y0083079D01*
X0342833Y0086224D01*
X0342936Y0086401D01*
X0343051Y0086834D01*
X0343051Y0088742D01*
X0342833Y0088742D01*
X0342833Y0089310D01*
X0343051Y0089310D01*
X0343051Y0091218D01*
X0342936Y0091651D01*
X0342712Y0092038D01*
X0342395Y0092355D01*
X0342008Y0092579D01*
X0341575Y0092694D01*
X0339667Y0092694D01*
X0339667Y0092500D01*
X0339099Y0092500D01*
X0339099Y0092694D01*
X0337191Y0092694D01*
X0336758Y0092579D01*
X0336371Y0092355D01*
X0336092Y0092076D01*
X0335674Y0092494D01*
X0335660Y0092494D01*
X0335655Y0092500D01*
X0334984Y0092500D01*
X0334984Y0101300D01*
X0335655Y0101300D01*
X0335660Y0101306D01*
X0335674Y0101306D01*
X0336092Y0101724D01*
X0336371Y0101445D01*
X0336758Y0101221D01*
X0337191Y0101106D01*
X0339099Y0101106D01*
X0339099Y0101300D01*
X0339667Y0101300D01*
X0339667Y0101106D01*
X0341575Y0101106D01*
X0342008Y0101221D01*
X0342395Y0101445D01*
X0342712Y0101762D01*
X0342936Y0102149D01*
X0343051Y0102582D01*
X0343051Y0104490D01*
X0342833Y0104490D01*
X0342833Y0105058D01*
X0343051Y0105058D01*
X0343051Y0106966D01*
X0342936Y0107399D01*
X0342833Y0107576D01*
X0342833Y0110721D01*
X0341955Y0111600D01*
X0336812Y0111600D01*
X0336233Y0111021D01*
X0335655Y0111600D01*
X0334865Y0111600D01*
X0334865Y0114949D01*
X0335282Y0114531D01*
X0338984Y0114531D01*
X0341602Y0117149D01*
X0341602Y0120851D01*
X0338984Y0123468D01*
X0335352Y0123468D01*
X0301920Y0156900D01*
X0261283Y0156900D01*
X0165196Y0252987D01*
X0164083Y0254100D01*
X0141046Y0254100D01*
X0139933Y0252987D01*
X0132937Y0245990D01*
X0132440Y0245990D01*
X0131342Y0245535D01*
X0130833Y0245027D01*
X0130833Y0248230D01*
X0138333Y0255730D01*
X0139229Y0255730D01*
X0140328Y0256185D01*
X0141169Y0257026D01*
X0141624Y0258124D01*
X0141624Y0259313D01*
X0141169Y0260412D01*
X0140362Y0261219D01*
X0141169Y0262026D01*
X0141624Y0263124D01*
X0141624Y0264313D01*
X0141227Y0265272D02*
X0160333Y0265272D01*
X0160912Y0266671D02*
X0139319Y0266671D01*
X0137537Y0268069D02*
X0161708Y0268069D01*
X0163106Y0269468D02*
X0136139Y0269468D01*
X0134740Y0270866D02*
X0272729Y0270866D01*
X0278583Y0270753D02*
X0278607Y0270743D01*
X0279179Y0270741D01*
X0279750Y0270730D01*
X0279775Y0270739D01*
X0302362Y0270677D01*
X0342459Y0269891D01*
X0358056Y0269227D01*
X0358056Y0263497D01*
X0357271Y0242297D01*
X0356506Y0222418D01*
X0356505Y0222416D01*
X0356483Y0221820D01*
X0356461Y0221228D01*
X0356461Y0221226D01*
X0356090Y0211200D01*
X0355723Y0202747D01*
X0355721Y0202745D01*
X0355697Y0202156D01*
X0355671Y0201558D01*
X0355672Y0201555D01*
X0355305Y0192744D01*
X0354954Y0187835D01*
X0354938Y0187802D01*
X0354912Y0187241D01*
X0354872Y0186681D01*
X0354883Y0186646D01*
X0354123Y0170687D01*
X0353765Y0164595D01*
X0353760Y0164584D01*
X0353730Y0163999D01*
X0353696Y0163415D01*
X0353699Y0163404D01*
X0352972Y0149212D01*
X0352964Y0149196D01*
X0309625Y0149196D01*
X0311023Y0147797D02*
X0352908Y0147797D01*
X0352917Y0148021D02*
X0352548Y0138797D01*
X0352158Y0132940D01*
X0351804Y0127993D01*
X0351789Y0127959D01*
X0351762Y0127399D01*
X0351722Y0126839D01*
X0351734Y0126804D01*
X0351368Y0119118D01*
X0351011Y0113407D01*
X0350998Y0113380D01*
X0350974Y0112812D01*
X0350938Y0112245D01*
X0350948Y0112217D01*
X0350580Y0103757D01*
X0349831Y0091780D01*
X0349830Y0091777D01*
X0349794Y0091188D01*
X0349757Y0090592D01*
X0349758Y0090589D01*
X0349010Y0078238D01*
X0347888Y0066279D01*
X0347886Y0066275D01*
X0347833Y0065687D01*
X0347777Y0065095D01*
X0347779Y0065091D01*
X0347492Y0061933D01*
X0347486Y0061923D01*
X0347438Y0061339D01*
X0347385Y0060756D01*
X0347388Y0060745D01*
X0347092Y0057188D01*
X0347087Y0057179D01*
X0347042Y0056594D01*
X0346993Y0056009D01*
X0346996Y0055999D01*
X0346858Y0054204D01*
X0315756Y0053842D01*
X0239001Y0053449D01*
X0168953Y0053449D01*
X0116227Y0054236D01*
X0059963Y0055416D01*
X0021285Y0056890D01*
X0021132Y0058582D01*
X0020740Y0063279D01*
X0020349Y0068755D01*
X0019990Y0074852D01*
X0019997Y0074870D01*
X0019955Y0075447D01*
X0019921Y0076024D01*
X0019913Y0076041D01*
X0019563Y0080946D01*
X0019200Y0088196D01*
X0019201Y0088200D01*
X0019170Y0088789D01*
X0019141Y0089384D01*
X0019139Y0089387D01*
X0018777Y0096265D01*
X0018411Y0104323D01*
X0018412Y0104326D01*
X0018384Y0104919D01*
X0018357Y0105512D01*
X0018355Y0105515D01*
X0018018Y0112606D01*
X0018022Y0112618D01*
X0017989Y0113202D01*
X0017961Y0113786D01*
X0017956Y0113797D01*
X0017596Y0120279D01*
X0017204Y0129697D01*
X0016438Y0151145D01*
X0016439Y0151149D01*
X0016416Y0151739D01*
X0016395Y0152333D01*
X0016393Y0152337D01*
X0016023Y0161971D01*
X0015648Y0173969D01*
X0015650Y0173975D01*
X0015629Y0174566D01*
X0015611Y0175155D01*
X0015608Y0175161D01*
X0015235Y0185592D01*
X0014842Y0197781D01*
X0014449Y0211167D01*
X0014055Y0224937D01*
X0013662Y0241073D01*
X0013404Y0252684D01*
X0013626Y0252251D01*
X0014023Y0251708D01*
X0014501Y0251234D01*
X0015046Y0250840D01*
X0015647Y0250537D01*
X0016288Y0250331D01*
X0016953Y0250228D01*
X0022351Y0250247D01*
X0022337Y0254435D01*
X0022511Y0254435D01*
X0022526Y0250248D01*
X0022775Y0250249D01*
X0023439Y0250356D01*
X0024078Y0250567D01*
X0024677Y0250874D01*
X0025220Y0251271D01*
X0025694Y0251749D01*
X0026088Y0252295D01*
X0026391Y0252895D01*
X0026597Y0253536D01*
X0026684Y0254102D01*
X0026915Y0254006D01*
X0028537Y0254006D01*
X0030036Y0254627D01*
X0031183Y0255774D01*
X0031804Y0257273D01*
X0031804Y0258895D01*
X0031183Y0260394D01*
X0030036Y0261541D01*
X0028537Y0262162D01*
X0027666Y0262162D01*
X0027655Y0265378D01*
X0025676Y0265372D01*
X0025675Y0265743D01*
X0027653Y0265750D01*
X0027637Y0270538D01*
X0027519Y0270970D01*
X0027294Y0271357D01*
X0026977Y0271672D01*
X0026870Y0271733D01*
X0043788Y0271761D01*
X0043735Y0271731D01*
X0043420Y0271413D01*
X0043197Y0271025D01*
X0043083Y0270592D01*
X0043100Y0265804D01*
X0045078Y0265811D01*
X0045079Y0265439D01*
X0043101Y0265432D01*
X0043112Y0262216D01*
X0042269Y0262216D01*
X0040771Y0261595D01*
X0039623Y0260448D01*
X0039003Y0258949D01*
X0039003Y0257327D01*
X0039623Y0255828D01*
X0040771Y0254681D01*
X0042269Y0254060D01*
X0043892Y0254060D01*
X0044150Y0254167D01*
X0044242Y0253598D01*
X0044452Y0252958D01*
X0044760Y0252360D01*
X0045157Y0251817D01*
X0045634Y0251343D01*
X0046180Y0250949D01*
X0046781Y0250646D01*
X0047421Y0250440D01*
X0048086Y0250337D01*
X0048335Y0250338D01*
X0048321Y0254525D01*
X0048496Y0254526D01*
X0048495Y0254701D01*
X0048320Y0254700D01*
X0048305Y0258888D01*
X0048056Y0258887D01*
X0047392Y0258779D01*
X0047158Y0258702D01*
X0047158Y0258949D01*
X0047062Y0259182D01*
X0049387Y0259190D01*
X0049383Y0260337D01*
X0049569Y0260361D01*
X0049755Y0260338D01*
X0049759Y0259191D01*
X0054547Y0259208D01*
X0054979Y0259326D01*
X0055366Y0259551D01*
X0055681Y0259868D01*
X0055903Y0260257D01*
X0056018Y0260689D01*
X0056001Y0265477D01*
X0054023Y0265471D01*
X0054021Y0265842D01*
X0056000Y0265849D01*
X0055983Y0270637D01*
X0055866Y0271069D01*
X0055641Y0271456D01*
X0055323Y0271771D01*
X0055307Y0271781D01*
X0142831Y0271927D01*
X0143258Y0271880D01*
X0143422Y0271927D01*
X0143592Y0271928D01*
X0143989Y0272093D01*
X0144402Y0272213D01*
X0144535Y0272320D01*
X0144693Y0272386D01*
X0144996Y0272690D01*
X0145331Y0272959D01*
X0145413Y0273109D01*
X0145534Y0273230D01*
X0145698Y0273627D01*
X0145904Y0274004D01*
X0145923Y0274174D01*
X0145988Y0274331D01*
X0145987Y0274761D01*
X0146034Y0275189D01*
X0145986Y0275352D01*
X0145986Y0275523D01*
X0145821Y0275920D01*
X0118616Y0369193D01*
X0127872Y0372965D01*
X0127906Y0372728D01*
X0128031Y0372517D01*
X0158500Y0274467D01*
X0158500Y0274326D01*
X0158676Y0273902D01*
X0158812Y0273464D01*
X0158902Y0273356D01*
X0158956Y0273225D01*
X0159281Y0272901D01*
X0159574Y0272548D01*
X0159699Y0272483D01*
X0159799Y0272383D01*
X0160223Y0272207D01*
X0160629Y0271994D01*
X0160769Y0271981D01*
X0160900Y0271927D01*
X0161358Y0271927D01*
X0161815Y0271885D01*
X0161950Y0271927D01*
X0219769Y0271927D01*
X0219970Y0271874D01*
X0220360Y0271927D01*
X0220753Y0271927D01*
X0220945Y0272006D01*
X0221151Y0272034D01*
X0221491Y0272232D01*
X0221854Y0272383D01*
X0222001Y0272530D01*
X0222180Y0272635D01*
X0222418Y0272948D01*
X0222696Y0273225D01*
X0222776Y0273417D01*
X0222902Y0273583D01*
X0223002Y0273963D01*
X0223152Y0274326D01*
X0223152Y0274534D01*
X0250079Y0376779D01*
X0250107Y0376818D01*
X0250158Y0377039D01*
X0250379Y0376988D01*
X0250424Y0376995D01*
X0259274Y0375225D01*
X0259391Y0375160D01*
X0259855Y0375109D01*
X0260122Y0375056D01*
X0260288Y0374964D01*
X0260427Y0374791D01*
X0260488Y0374579D01*
X0235822Y0275524D01*
X0235673Y0275183D01*
X0235668Y0274904D01*
X0235610Y0274674D01*
X0235657Y0274362D01*
X0235650Y0273990D01*
X0235752Y0273730D01*
X0235787Y0273495D01*
X0235949Y0273225D01*
X0236085Y0272879D01*
X0236279Y0272677D01*
X0236401Y0272474D01*
X0236654Y0272287D01*
X0236912Y0272019D01*
X0237169Y0271907D01*
X0237359Y0271766D01*
X0237665Y0271690D01*
X0238006Y0271541D01*
X0238286Y0271535D01*
X0238515Y0271478D01*
X0238827Y0271525D01*
X0278583Y0270753D01*
X0291384Y0254419D02*
X0286686Y0250814D01*
X0286685Y0250814D01*
X0283080Y0246116D01*
X0283080Y0246116D01*
X0280814Y0240645D01*
X0280814Y0240645D01*
X0280041Y0234773D01*
X0280814Y0228902D01*
X0283080Y0223431D01*
X0283080Y0223431D01*
X0286685Y0218732D01*
X0286686Y0218732D01*
X0291384Y0215127D01*
X0296855Y0212861D01*
X0302726Y0212088D01*
X0302726Y0212088D01*
X0308598Y0212861D01*
X0314069Y0215127D01*
X0318767Y0218732D01*
X0318767Y0218732D01*
X0318767Y0218732D01*
X0322372Y0223431D01*
X0324638Y0228902D01*
X0325411Y0234773D01*
X0324638Y0240645D01*
X0322372Y0246116D01*
X0318767Y0250814D01*
X0318767Y0250814D01*
X0314069Y0254419D01*
X0308598Y0256685D01*
X0302726Y0257458D01*
X0296855Y0256685D01*
X0296855Y0256685D01*
X0291384Y0254419D01*
X0291384Y0254419D01*
X0290947Y0254084D02*
X0164099Y0254084D01*
X0165196Y0252987D02*
X0165196Y0252987D01*
X0165497Y0252686D02*
X0289125Y0252686D01*
X0287302Y0251287D02*
X0166896Y0251287D01*
X0168294Y0249889D02*
X0285975Y0249889D01*
X0286685Y0250814D02*
X0286685Y0250814D01*
X0284902Y0248490D02*
X0169693Y0248490D01*
X0171091Y0247092D02*
X0283829Y0247092D01*
X0282905Y0245693D02*
X0172490Y0245693D01*
X0173888Y0244295D02*
X0282326Y0244295D01*
X0281747Y0242896D02*
X0175287Y0242896D01*
X0176686Y0241498D02*
X0281168Y0241498D01*
X0280742Y0240099D02*
X0178084Y0240099D01*
X0179483Y0238701D02*
X0280558Y0238701D01*
X0280374Y0237302D02*
X0180881Y0237302D01*
X0182280Y0235903D02*
X0280190Y0235903D01*
X0280041Y0234773D02*
X0280041Y0234773D01*
X0280077Y0234505D02*
X0183678Y0234505D01*
X0185077Y0233106D02*
X0280261Y0233106D01*
X0280445Y0231708D02*
X0186475Y0231708D01*
X0187874Y0230309D02*
X0280629Y0230309D01*
X0280813Y0228911D02*
X0189272Y0228911D01*
X0190671Y0227512D02*
X0281390Y0227512D01*
X0280814Y0228902D02*
X0280814Y0228902D01*
X0281969Y0226114D02*
X0192069Y0226114D01*
X0193468Y0224715D02*
X0282548Y0224715D01*
X0283168Y0223317D02*
X0194866Y0223317D01*
X0196265Y0221918D02*
X0284241Y0221918D01*
X0285314Y0220520D02*
X0197663Y0220520D01*
X0199062Y0219121D02*
X0286387Y0219121D01*
X0286685Y0218732D02*
X0286685Y0218732D01*
X0288001Y0217723D02*
X0200460Y0217723D01*
X0201859Y0216324D02*
X0289824Y0216324D01*
X0291384Y0215127D02*
X0291384Y0215127D01*
X0291870Y0214926D02*
X0203257Y0214926D01*
X0204656Y0213527D02*
X0295247Y0213527D01*
X0296855Y0212861D02*
X0296855Y0212861D01*
X0302418Y0212129D02*
X0206054Y0212129D01*
X0207453Y0210730D02*
X0338326Y0210730D01*
X0337559Y0209963D02*
X0337559Y0206261D01*
X0340176Y0203643D01*
X0343878Y0203643D01*
X0346496Y0206261D01*
X0346496Y0209963D01*
X0343878Y0212580D01*
X0340176Y0212580D01*
X0337559Y0209963D01*
X0337559Y0209332D02*
X0208851Y0209332D01*
X0210250Y0207933D02*
X0337559Y0207933D01*
X0337559Y0206535D02*
X0211648Y0206535D01*
X0213047Y0205136D02*
X0236814Y0205136D01*
X0237156Y0205478D02*
X0235581Y0203903D01*
X0234468Y0202790D01*
X0234468Y0198388D01*
X0233640Y0198045D01*
X0232799Y0197204D01*
X0232344Y0196106D01*
X0232344Y0194916D01*
X0232799Y0193818D01*
X0233640Y0192977D01*
X0234739Y0192522D01*
X0235928Y0192522D01*
X0237026Y0192977D01*
X0237867Y0193818D01*
X0238322Y0194916D01*
X0238322Y0196106D01*
X0238268Y0196237D01*
X0238268Y0197679D01*
X0238270Y0197677D01*
X0239214Y0196732D01*
X0239214Y0195835D01*
X0239669Y0194737D01*
X0240510Y0193896D01*
X0241609Y0193441D01*
X0242798Y0193441D01*
X0243896Y0193896D01*
X0244737Y0194737D01*
X0245192Y0195835D01*
X0245192Y0197025D01*
X0244737Y0198123D01*
X0243896Y0198964D01*
X0242798Y0199419D01*
X0241901Y0199419D01*
X0241747Y0199573D01*
X0242046Y0200294D01*
X0242046Y0200546D01*
X0242639Y0200300D01*
X0243828Y0200300D01*
X0244926Y0200755D01*
X0245767Y0201596D01*
X0246222Y0202694D01*
X0246222Y0203884D01*
X0245767Y0204982D01*
X0244926Y0205823D01*
X0243828Y0206278D01*
X0242639Y0206278D01*
X0241540Y0205823D01*
X0241076Y0205359D01*
X0240958Y0205478D01*
X0237156Y0205478D01*
X0235416Y0203738D02*
X0214445Y0203738D01*
X0215844Y0202339D02*
X0234468Y0202339D01*
X0234468Y0200941D02*
X0217242Y0200941D01*
X0218641Y0199542D02*
X0234468Y0199542D01*
X0233879Y0198144D02*
X0220039Y0198144D01*
X0221438Y0196745D02*
X0232609Y0196745D01*
X0232344Y0195347D02*
X0222836Y0195347D01*
X0224235Y0193948D02*
X0232745Y0193948D01*
X0234672Y0192550D02*
X0225633Y0192550D01*
X0227032Y0191151D02*
X0290821Y0191151D01*
X0290733Y0191063D02*
X0290633Y0191063D01*
X0290333Y0190763D01*
X0290233Y0190763D01*
X0289833Y0190363D01*
X0289733Y0190363D01*
X0289233Y0189863D01*
X0289133Y0189863D01*
X0288254Y0188985D01*
X0288154Y0188885D01*
X0288054Y0188785D01*
X0287954Y0188685D01*
X0287854Y0188585D01*
X0287833Y0188563D01*
X0286954Y0187685D01*
X0286954Y0187585D01*
X0286854Y0187485D01*
X0286754Y0187385D01*
X0286654Y0187285D01*
X0286554Y0187185D01*
X0286454Y0187085D01*
X0286454Y0186985D01*
X0286354Y0186885D01*
X0286254Y0186785D01*
X0286154Y0186685D01*
X0286154Y0186585D01*
X0286054Y0186485D01*
X0285954Y0186385D01*
X0285854Y0186285D01*
X0285854Y0186185D01*
X0285754Y0186085D01*
X0285654Y0185985D01*
X0285654Y0185885D01*
X0285554Y0185785D01*
X0285554Y0185685D01*
X0285454Y0185585D01*
X0285454Y0185585D01*
X0285354Y0185485D01*
X0285354Y0185385D01*
X0285254Y0185285D01*
X0285154Y0185185D01*
X0285154Y0185085D01*
X0285054Y0184985D01*
X0285054Y0184885D01*
X0284954Y0184785D01*
X0284954Y0184685D01*
X0284854Y0184585D01*
X0284854Y0184485D01*
X0284754Y0184385D01*
X0284754Y0184285D01*
X0284654Y0184185D01*
X0284654Y0184085D01*
X0284554Y0183985D01*
X0284554Y0183885D01*
X0284454Y0183785D01*
X0284454Y0183685D01*
X0284354Y0183585D01*
X0284354Y0183385D01*
X0284254Y0183285D01*
X0284254Y0183185D01*
X0284154Y0183085D01*
X0284154Y0182885D01*
X0284054Y0182785D01*
X0284054Y0182585D01*
X0283954Y0182485D01*
X0283954Y0182285D01*
X0283854Y0182185D01*
X0283854Y0181985D01*
X0283754Y0181885D01*
X0283754Y0181685D01*
X0283654Y0181585D01*
X0283654Y0181385D01*
X0283554Y0181285D01*
X0283554Y0180985D01*
X0283454Y0180885D01*
X0283454Y0180485D01*
X0283354Y0180385D01*
X0283354Y0179985D01*
X0283254Y0179885D01*
X0283254Y0179385D01*
X0283154Y0179285D01*
X0283154Y0178485D01*
X0283054Y0178385D01*
X0283054Y0174342D01*
X0283154Y0174242D01*
X0283154Y0173542D01*
X0283254Y0173442D01*
X0283254Y0172942D01*
X0283354Y0172842D01*
X0283354Y0172442D01*
X0283454Y0172342D01*
X0283454Y0171942D01*
X0283554Y0171842D01*
X0283554Y0171642D01*
X0283654Y0171542D01*
X0283654Y0171242D01*
X0283754Y0171142D01*
X0283754Y0170942D01*
X0283854Y0170842D01*
X0283854Y0170642D01*
X0283954Y0170542D01*
X0283954Y0170342D01*
X0284054Y0170242D01*
X0284054Y0170042D01*
X0284154Y0169942D01*
X0284154Y0169842D01*
X0284254Y0169742D01*
X0284254Y0169542D01*
X0284354Y0169442D01*
X0284354Y0169342D01*
X0284454Y0169242D01*
X0284454Y0169142D01*
X0284554Y0169042D01*
X0284554Y0168942D01*
X0284654Y0168842D01*
X0284654Y0168742D01*
X0284754Y0168642D01*
X0284754Y0168542D01*
X0284854Y0168442D01*
X0284854Y0168342D01*
X0284954Y0168242D01*
X0284954Y0168142D01*
X0285054Y0168042D01*
X0285054Y0167942D01*
X0285154Y0167842D01*
X0285154Y0167742D01*
X0285354Y0167542D01*
X0285354Y0167442D01*
X0285554Y0167242D01*
X0285554Y0167142D01*
X0285654Y0167042D01*
X0285654Y0166942D01*
X0285754Y0166842D01*
X0285954Y0166642D01*
X0285954Y0166542D01*
X0286154Y0166342D01*
X0286154Y0166242D01*
X0286554Y0165842D01*
X0286554Y0165742D01*
X0286954Y0165342D01*
X0286954Y0165242D01*
X0287833Y0164363D01*
X0287933Y0164263D01*
X0288033Y0164163D01*
X0288133Y0164063D01*
X0288154Y0164042D01*
X0289033Y0163163D01*
X0289133Y0163063D01*
X0289233Y0162963D01*
X0289333Y0162863D01*
X0289433Y0162863D01*
X0289533Y0162763D01*
X0289633Y0162663D01*
X0289733Y0162563D01*
X0289833Y0162463D01*
X0289933Y0162363D01*
X0290033Y0162363D01*
X0290133Y0162263D01*
X0290233Y0162163D01*
X0290333Y0162063D01*
X0290433Y0162063D01*
X0290533Y0161963D01*
X0290633Y0161863D01*
X0290733Y0161763D01*
X0290833Y0161763D01*
X0290933Y0161663D01*
X0291033Y0161563D01*
X0291133Y0161563D01*
X0291233Y0161463D01*
X0291333Y0161463D01*
X0291433Y0161363D01*
X0291533Y0161263D01*
X0291633Y0161263D01*
X0291733Y0161163D01*
X0291833Y0161063D01*
X0291933Y0161063D01*
X0292033Y0160963D01*
X0292133Y0160963D01*
X0292233Y0160863D01*
X0292333Y0160863D01*
X0292433Y0160763D01*
X0292533Y0160763D01*
X0292633Y0160663D01*
X0292733Y0160663D01*
X0292833Y0160563D01*
X0292933Y0160563D01*
X0293033Y0160463D01*
X0293133Y0160463D01*
X0293233Y0160363D01*
X0293333Y0160363D01*
X0293433Y0160263D01*
X0293633Y0160263D01*
X0293733Y0160163D01*
X0293833Y0160163D01*
X0293933Y0160063D01*
X0294133Y0160063D01*
X0294233Y0159963D01*
X0294433Y0159963D01*
X0294533Y0159863D01*
X0294733Y0159863D01*
X0294833Y0159763D01*
X0295033Y0159763D01*
X0295133Y0159663D01*
X0295333Y0159663D01*
X0295433Y0159563D01*
X0295633Y0159563D01*
X0295733Y0159463D01*
X0296033Y0159463D01*
X0296133Y0159363D01*
X0296533Y0159363D01*
X0296633Y0159263D01*
X0297033Y0159263D01*
X0297133Y0159163D01*
X0297633Y0159163D01*
X0297733Y0159063D01*
X0298533Y0159063D01*
X0298633Y0158963D01*
X0302476Y0158963D01*
X0302576Y0159063D01*
X0303376Y0159063D01*
X0303476Y0159163D01*
X0303976Y0159163D01*
X0304076Y0159263D01*
X0304476Y0159263D01*
X0304576Y0159363D01*
X0304976Y0159363D01*
X0305076Y0159463D01*
X0305376Y0159463D01*
X0305476Y0159563D01*
X0305676Y0159563D01*
X0305776Y0159663D01*
X0305976Y0159663D01*
X0306076Y0159763D01*
X0306376Y0159763D01*
X0306476Y0159863D01*
X0306676Y0159863D01*
X0306776Y0159963D01*
X0306876Y0159963D01*
X0306976Y0160063D01*
X0307176Y0160063D01*
X0307276Y0160163D01*
X0307376Y0160163D01*
X0307476Y0160263D01*
X0307676Y0160263D01*
X0307776Y0160363D01*
X0307876Y0160363D01*
X0307976Y0160463D01*
X0308076Y0160463D01*
X0308176Y0160563D01*
X0308276Y0160563D01*
X0308376Y0160663D01*
X0308476Y0160663D01*
X0308576Y0160763D01*
X0308676Y0160763D01*
X0308776Y0160863D01*
X0308876Y0160863D01*
X0308976Y0160963D01*
X0309076Y0160963D01*
X0309176Y0161063D01*
X0309276Y0161163D01*
X0309376Y0161163D01*
X0309476Y0161263D01*
X0309576Y0161263D01*
X0309676Y0161363D01*
X0309776Y0161463D01*
X0309876Y0161463D01*
X0309976Y0161563D01*
X0310076Y0161663D01*
X0310176Y0161663D01*
X0310276Y0161763D01*
X0310376Y0161863D01*
X0310476Y0161863D01*
X0310576Y0161963D01*
X0310676Y0162063D01*
X0310776Y0162063D01*
X0310876Y0162163D01*
X0310976Y0162263D01*
X0311076Y0162363D01*
X0311176Y0162363D01*
X0311276Y0162463D01*
X0311376Y0162563D01*
X0311476Y0162663D01*
X0311576Y0162763D01*
X0311676Y0162863D01*
X0311776Y0162863D01*
X0311876Y0162963D01*
X0311976Y0163063D01*
X0312076Y0163163D01*
X0312954Y0164042D01*
X0312976Y0164063D01*
X0313076Y0164163D01*
X0313176Y0164263D01*
X0313276Y0164363D01*
X0314154Y0165242D01*
X0314154Y0165342D01*
X0314554Y0165742D01*
X0314554Y0165842D01*
X0314854Y0166142D01*
X0314854Y0166242D01*
X0315154Y0166542D01*
X0315154Y0166642D01*
X0315354Y0166842D01*
X0315354Y0166942D01*
X0315554Y0167142D01*
X0315554Y0167242D01*
X0315754Y0167442D01*
X0315754Y0167542D01*
X0315854Y0167642D01*
X0315854Y0167742D01*
X0315954Y0167842D01*
X0315954Y0167942D01*
X0316154Y0168142D01*
X0316154Y0168242D01*
X0316254Y0168342D01*
X0316254Y0168442D01*
X0316354Y0168542D01*
X0316354Y0168642D01*
X0316454Y0168742D01*
X0316454Y0168842D01*
X0316554Y0168942D01*
X0316554Y0169042D01*
X0316654Y0169142D01*
X0316654Y0169242D01*
X0316754Y0169342D01*
X0316754Y0169542D01*
X0316854Y0169642D01*
X0316854Y0169742D01*
X0316954Y0169842D01*
X0316954Y0169942D01*
X0317054Y0170042D01*
X0317054Y0170242D01*
X0317154Y0170342D01*
X0317154Y0170542D01*
X0317254Y0170642D01*
X0317254Y0170842D01*
X0317354Y0170942D01*
X0317354Y0171142D01*
X0317454Y0171242D01*
X0317454Y0171542D01*
X0317554Y0171642D01*
X0317554Y0171942D01*
X0317654Y0172042D01*
X0317654Y0172342D01*
X0317754Y0172442D01*
X0317754Y0172842D01*
X0317854Y0172942D01*
X0317854Y0173442D01*
X0317954Y0173542D01*
X0317954Y0174242D01*
X0318054Y0174342D01*
X0318054Y0178585D01*
X0317954Y0178685D01*
X0317954Y0179385D01*
X0317854Y0179485D01*
X0317854Y0179985D01*
X0317754Y0180085D01*
X0317754Y0180485D01*
X0317654Y0180585D01*
X0317654Y0180885D01*
X0317554Y0180985D01*
X0317554Y0181285D01*
X0317454Y0181385D01*
X0317454Y0181685D01*
X0317354Y0181785D01*
X0317354Y0181985D01*
X0317254Y0182085D01*
X0317254Y0182285D01*
X0317154Y0182385D01*
X0317154Y0182585D01*
X0317054Y0182685D01*
X0317054Y0182885D01*
X0316954Y0182985D01*
X0316954Y0183085D01*
X0316854Y0183185D01*
X0316854Y0183385D01*
X0316754Y0183485D01*
X0316754Y0183585D01*
X0316654Y0183685D01*
X0316654Y0183785D01*
X0316554Y0183885D01*
X0316554Y0183985D01*
X0316454Y0184085D01*
X0316454Y0184185D01*
X0316354Y0184285D01*
X0316354Y0184385D01*
X0316254Y0184485D01*
X0316254Y0184585D01*
X0316154Y0184685D01*
X0316154Y0184785D01*
X0316054Y0184885D01*
X0316054Y0184985D01*
X0315954Y0185085D01*
X0315954Y0185185D01*
X0315754Y0185385D01*
X0315754Y0185485D01*
X0315654Y0185585D01*
X0315554Y0185685D01*
X0315554Y0185785D01*
X0315454Y0185885D01*
X0315454Y0185985D01*
X0315354Y0186085D01*
X0315254Y0186185D01*
X0315254Y0186285D01*
X0315154Y0186385D01*
X0315054Y0186485D01*
X0314954Y0186585D01*
X0314954Y0186685D01*
X0314854Y0186785D01*
X0314754Y0186885D01*
X0314654Y0186985D01*
X0314654Y0187085D01*
X0314554Y0187185D01*
X0314454Y0187285D01*
X0314354Y0187385D01*
X0314254Y0187485D01*
X0314154Y0187585D01*
X0314154Y0187685D01*
X0313276Y0188563D01*
X0313276Y0188563D01*
X0313254Y0188585D01*
X0313154Y0188685D01*
X0313054Y0188785D01*
X0312954Y0188885D01*
X0312854Y0188985D01*
X0312754Y0189085D01*
X0312654Y0189185D01*
X0311776Y0190063D01*
X0311676Y0190063D01*
X0311176Y0190563D01*
X0311076Y0190563D01*
X0310776Y0190863D01*
X0310676Y0190863D01*
X0310376Y0191163D01*
X0310276Y0191163D01*
X0310076Y0191363D01*
X0309976Y0191363D01*
X0309876Y0191463D01*
X0309776Y0191463D01*
X0309576Y0191663D01*
X0309476Y0191663D01*
X0309276Y0191863D01*
X0309176Y0191863D01*
X0309076Y0191963D01*
X0308976Y0191963D01*
X0308876Y0192063D01*
X0308776Y0192063D01*
X0308676Y0192163D01*
X0308576Y0192163D01*
X0308476Y0192263D01*
X0308376Y0192263D01*
X0308276Y0192363D01*
X0308176Y0192363D01*
X0308076Y0192463D01*
X0307976Y0192463D01*
X0307876Y0192563D01*
X0307776Y0192563D01*
X0307676Y0192663D01*
X0307476Y0192663D01*
X0307376Y0192763D01*
X0307276Y0192763D01*
X0307176Y0192863D01*
X0306976Y0192863D01*
X0306876Y0192963D01*
X0306776Y0192963D01*
X0306676Y0193063D01*
X0306476Y0193063D01*
X0306376Y0193163D01*
X0306176Y0193163D01*
X0306076Y0193263D01*
X0305876Y0193263D01*
X0305776Y0193363D01*
X0305476Y0193363D01*
X0305376Y0193463D01*
X0305176Y0193463D01*
X0305076Y0193563D01*
X0304676Y0193563D01*
X0304576Y0193663D01*
X0304176Y0193663D01*
X0304076Y0193763D01*
X0303576Y0193763D01*
X0303476Y0193863D01*
X0302776Y0193863D01*
X0302676Y0193963D01*
X0298533Y0193963D01*
X0298433Y0193863D01*
X0297633Y0193863D01*
X0297533Y0193763D01*
X0297033Y0193763D01*
X0296933Y0193663D01*
X0296533Y0193663D01*
X0296433Y0193563D01*
X0296033Y0193563D01*
X0295933Y0193463D01*
X0295733Y0193463D01*
X0295633Y0193363D01*
X0295333Y0193363D01*
X0295233Y0193263D01*
X0295033Y0193263D01*
X0294933Y0193163D01*
X0294733Y0193163D01*
X0294633Y0193063D01*
X0294433Y0193063D01*
X0294333Y0192963D01*
X0294133Y0192963D01*
X0294033Y0192863D01*
X0293933Y0192863D01*
X0293833Y0192763D01*
X0293633Y0192763D01*
X0293533Y0192663D01*
X0293433Y0192663D01*
X0293333Y0192563D01*
X0293233Y0192563D01*
X0293133Y0192463D01*
X0293033Y0192463D01*
X0292933Y0192363D01*
X0292833Y0192363D01*
X0292733Y0192263D01*
X0292633Y0192263D01*
X0292533Y0192163D01*
X0292433Y0192163D01*
X0292333Y0192063D01*
X0292233Y0192063D01*
X0292133Y0191963D01*
X0292033Y0191963D01*
X0291933Y0191863D01*
X0291833Y0191863D01*
X0291633Y0191663D01*
X0291533Y0191663D01*
X0291333Y0191463D01*
X0291233Y0191463D01*
X0291033Y0191263D01*
X0290933Y0191263D01*
X0290733Y0191063D01*
X0289022Y0189753D02*
X0228430Y0189753D01*
X0229829Y0188354D02*
X0287624Y0188354D01*
X0287833Y0188563D02*
X0287833Y0188563D01*
X0286425Y0186956D02*
X0231227Y0186956D01*
X0232626Y0185557D02*
X0285427Y0185557D01*
X0284654Y0184159D02*
X0234024Y0184159D01*
X0235423Y0182760D02*
X0284054Y0182760D01*
X0283631Y0181362D02*
X0236822Y0181362D01*
X0238220Y0179963D02*
X0283333Y0179963D01*
X0283154Y0178565D02*
X0239619Y0178565D01*
X0241017Y0177166D02*
X0283054Y0177166D01*
X0283054Y0175768D02*
X0242416Y0175768D01*
X0243814Y0174369D02*
X0283054Y0174369D01*
X0283254Y0172970D02*
X0245213Y0172970D01*
X0246611Y0171572D02*
X0283624Y0171572D01*
X0284054Y0170173D02*
X0248010Y0170173D01*
X0249408Y0168775D02*
X0284654Y0168775D01*
X0285420Y0167376D02*
X0250807Y0167376D01*
X0252205Y0165978D02*
X0286418Y0165978D01*
X0285754Y0166842D02*
X0285754Y0166842D01*
X0287617Y0164579D02*
X0253604Y0164579D01*
X0255002Y0163181D02*
X0289015Y0163181D01*
X0288154Y0164042D02*
X0288154Y0164042D01*
X0290714Y0161782D02*
X0256401Y0161782D01*
X0257799Y0160384D02*
X0293212Y0160384D01*
X0298611Y0158985D02*
X0259198Y0158985D01*
X0260596Y0157587D02*
X0353401Y0157587D01*
X0353473Y0158985D02*
X0302498Y0158985D01*
X0302632Y0156188D02*
X0353329Y0156188D01*
X0353258Y0154790D02*
X0304030Y0154790D01*
X0305429Y0153391D02*
X0353186Y0153391D01*
X0353114Y0151993D02*
X0306827Y0151993D01*
X0308226Y0150594D02*
X0353043Y0150594D01*
X0352964Y0149196D02*
X0352941Y0148617D01*
X0352911Y0148038D01*
X0352917Y0148021D01*
X0352852Y0146399D02*
X0312422Y0146399D01*
X0313820Y0145000D02*
X0352796Y0145000D01*
X0352741Y0143602D02*
X0315219Y0143602D01*
X0316617Y0142203D02*
X0352685Y0142203D01*
X0352629Y0140805D02*
X0318016Y0140805D01*
X0319414Y0139406D02*
X0352573Y0139406D01*
X0352496Y0138008D02*
X0320813Y0138008D01*
X0322211Y0136609D02*
X0352402Y0136609D01*
X0352309Y0135211D02*
X0323610Y0135211D01*
X0325008Y0133812D02*
X0352216Y0133812D01*
X0352120Y0132414D02*
X0326407Y0132414D01*
X0327805Y0131015D02*
X0352020Y0131015D01*
X0351920Y0129617D02*
X0329204Y0129617D01*
X0330602Y0128218D02*
X0351821Y0128218D01*
X0351729Y0126820D02*
X0332001Y0126820D01*
X0333399Y0125421D02*
X0351668Y0125421D01*
X0351601Y0124023D02*
X0334798Y0124023D01*
X0339829Y0122624D02*
X0351535Y0122624D01*
X0351468Y0121226D02*
X0341227Y0121226D01*
X0341602Y0119827D02*
X0351402Y0119827D01*
X0351325Y0118429D02*
X0341602Y0118429D01*
X0341483Y0117030D02*
X0351237Y0117030D01*
X0351150Y0115632D02*
X0340084Y0115632D01*
X0342119Y0111436D02*
X0350914Y0111436D01*
X0350975Y0112834D02*
X0334865Y0112834D01*
X0334865Y0114233D02*
X0351062Y0114233D01*
X0350853Y0110037D02*
X0342833Y0110037D01*
X0342833Y0108639D02*
X0350792Y0108639D01*
X0350731Y0107240D02*
X0342978Y0107240D01*
X0343051Y0105842D02*
X0350671Y0105842D01*
X0350610Y0104443D02*
X0343051Y0104443D01*
X0343051Y0103045D02*
X0350535Y0103045D01*
X0350448Y0101646D02*
X0342596Y0101646D01*
X0336169Y0101646D02*
X0336014Y0101646D01*
X0334984Y0100248D02*
X0350361Y0100248D01*
X0350273Y0098849D02*
X0334984Y0098849D01*
X0334984Y0097451D02*
X0350186Y0097451D01*
X0350098Y0096052D02*
X0334984Y0096052D01*
X0334984Y0094654D02*
X0350011Y0094654D01*
X0349924Y0093255D02*
X0334984Y0093255D01*
X0331184Y0093255D02*
X0039654Y0093255D01*
X0041020Y0091890D02*
X0037313Y0095596D01*
X0037313Y0096493D01*
X0036858Y0097592D01*
X0036017Y0098432D01*
X0034919Y0098887D01*
X0033730Y0098887D01*
X0032631Y0098432D01*
X0032256Y0098058D01*
X0032337Y0098252D01*
X0032337Y0100031D01*
X0031656Y0101674D01*
X0030398Y0102932D01*
X0028754Y0103613D01*
X0026976Y0103613D01*
X0025332Y0102932D01*
X0024074Y0101674D01*
X0023393Y0100031D01*
X0023393Y0098252D01*
X0024074Y0096608D01*
X0025332Y0095350D01*
X0026976Y0094669D01*
X0028754Y0094669D01*
X0030398Y0095350D01*
X0031335Y0096287D01*
X0031335Y0095304D01*
X0031790Y0094205D01*
X0032631Y0093364D01*
X0033730Y0092909D01*
X0034626Y0092909D01*
X0039446Y0088090D01*
X0044199Y0088090D01*
X0044833Y0087456D01*
X0045932Y0087001D01*
X0047121Y0087001D01*
X0048219Y0087456D01*
X0049060Y0088297D01*
X0049515Y0089395D01*
X0049515Y0090584D01*
X0049060Y0091683D01*
X0048219Y0092524D01*
X0047121Y0092979D01*
X0045932Y0092979D01*
X0044833Y0092524D01*
X0044199Y0091890D01*
X0041020Y0091890D01*
X0038476Y0089060D02*
X0019157Y0089060D01*
X0019083Y0090458D02*
X0037077Y0090458D01*
X0035679Y0091857D02*
X0019009Y0091857D01*
X0018935Y0093255D02*
X0032894Y0093255D01*
X0031604Y0094654D02*
X0018862Y0094654D01*
X0018788Y0096052D02*
X0024630Y0096052D01*
X0023725Y0097451D02*
X0018723Y0097451D01*
X0018660Y0098849D02*
X0023393Y0098849D01*
X0023483Y0100248D02*
X0018596Y0100248D01*
X0018532Y0101646D02*
X0024063Y0101646D01*
X0025605Y0103045D02*
X0018469Y0103045D01*
X0018406Y0104443D02*
X0237937Y0104443D01*
X0239336Y0103045D02*
X0030125Y0103045D01*
X0031667Y0101646D02*
X0239959Y0101646D01*
X0241467Y0100248D02*
X0032247Y0100248D01*
X0032337Y0098849D02*
X0033638Y0098849D01*
X0035010Y0098849D02*
X0293165Y0098849D01*
X0293249Y0098765D02*
X0294566Y0098220D01*
X0295991Y0098220D01*
X0297308Y0098765D01*
X0298316Y0099773D01*
X0298861Y0101090D01*
X0298861Y0102515D01*
X0298316Y0103832D01*
X0297308Y0104839D01*
X0295991Y0105385D01*
X0294566Y0105385D01*
X0293249Y0104839D01*
X0292241Y0103832D01*
X0291696Y0102515D01*
X0291696Y0101090D01*
X0292241Y0099773D01*
X0293249Y0098765D01*
X0292044Y0100248D02*
X0243800Y0100248D01*
X0245308Y0101646D02*
X0291696Y0101646D01*
X0291915Y0103045D02*
X0245622Y0103045D01*
X0245271Y0104443D02*
X0292853Y0104443D01*
X0295869Y0107240D02*
X0241646Y0107240D01*
X0240247Y0108639D02*
X0253667Y0108639D01*
X0253499Y0108807D02*
X0254340Y0107966D01*
X0255439Y0107511D01*
X0256628Y0107511D01*
X0257726Y0107966D01*
X0258360Y0108600D01*
X0294509Y0108600D01*
X0300523Y0102586D01*
X0300469Y0102457D01*
X0300469Y0101032D01*
X0301014Y0099715D01*
X0302022Y0098707D01*
X0303339Y0098162D01*
X0304764Y0098162D01*
X0306081Y0098707D01*
X0307089Y0099715D01*
X0307634Y0101032D01*
X0307634Y0102457D01*
X0307089Y0103774D01*
X0306081Y0104782D01*
X0304764Y0105327D01*
X0303339Y0105327D01*
X0303210Y0105273D01*
X0296083Y0112400D01*
X0258360Y0112400D01*
X0257726Y0113034D01*
X0256628Y0113489D01*
X0255439Y0113489D01*
X0254340Y0113034D01*
X0253499Y0112193D01*
X0253044Y0111095D01*
X0253044Y0109905D01*
X0253499Y0108807D01*
X0253044Y0110037D02*
X0238849Y0110037D01*
X0237450Y0111436D02*
X0253186Y0111436D01*
X0254141Y0112834D02*
X0236052Y0112834D01*
X0234653Y0114233D02*
X0331065Y0114233D01*
X0331065Y0112834D02*
X0257926Y0112834D01*
X0243583Y0105842D02*
X0297267Y0105842D01*
X0297704Y0104443D02*
X0298666Y0104443D01*
X0298642Y0103045D02*
X0300064Y0103045D01*
X0300469Y0101646D02*
X0298861Y0101646D01*
X0298512Y0100248D02*
X0300794Y0100248D01*
X0301880Y0098849D02*
X0297392Y0098849D01*
X0302641Y0105842D02*
X0329615Y0105842D01*
X0329615Y0107240D02*
X0301243Y0107240D01*
X0299844Y0108639D02*
X0329633Y0108639D01*
X0329633Y0110037D02*
X0298446Y0110037D01*
X0297047Y0111436D02*
X0330348Y0111436D01*
X0331065Y0115632D02*
X0233254Y0115632D01*
X0231856Y0117030D02*
X0331065Y0117030D01*
X0331065Y0118429D02*
X0231333Y0118429D01*
X0231333Y0119827D02*
X0293438Y0119827D01*
X0293623Y0119703D02*
X0293949Y0119569D01*
X0295415Y0123056D01*
X0296881Y0126543D01*
X0295415Y0123056D01*
X0295415Y0123056D01*
X0295415Y0123056D01*
X0291928Y0124522D01*
X0292063Y0124847D01*
X0292477Y0125467D01*
X0293004Y0125994D01*
X0293623Y0126408D01*
X0294312Y0126693D01*
X0295042Y0126838D01*
X0295787Y0126838D01*
X0296518Y0126693D01*
X0296881Y0126543D01*
X0297207Y0126408D01*
X0297826Y0125994D01*
X0298353Y0125467D01*
X0298767Y0124847D01*
X0299052Y0124159D01*
X0299198Y0123428D01*
X0299198Y0122683D01*
X0299052Y0121952D01*
X0298902Y0121590D01*
X0295415Y0123056D01*
X0295415Y0123056D01*
X0291928Y0124521D01*
X0291778Y0124159D01*
X0291632Y0123428D01*
X0291632Y0122683D01*
X0291778Y0121952D01*
X0292063Y0121264D01*
X0292477Y0120644D01*
X0293004Y0120117D01*
X0293623Y0119703D01*
X0293949Y0119568D02*
X0294312Y0119418D01*
X0295042Y0119273D01*
X0295787Y0119273D01*
X0296518Y0119418D01*
X0297207Y0119703D01*
X0297826Y0120117D01*
X0298353Y0120644D01*
X0298767Y0121264D01*
X0298902Y0121590D01*
X0295415Y0123056D01*
X0295415Y0123056D01*
X0293949Y0119568D01*
X0294058Y0119827D02*
X0294058Y0119827D01*
X0294646Y0121226D02*
X0294646Y0121226D01*
X0295233Y0122624D02*
X0295234Y0122624D01*
X0296441Y0122624D02*
X0296442Y0122624D01*
X0295821Y0124023D02*
X0295821Y0124023D01*
X0296409Y0125421D02*
X0296409Y0125421D01*
X0295882Y0126820D02*
X0324227Y0126820D01*
X0322828Y0128218D02*
X0231333Y0128218D01*
X0231333Y0126820D02*
X0294948Y0126820D01*
X0292446Y0125421D02*
X0231333Y0125421D01*
X0231333Y0124023D02*
X0291750Y0124023D01*
X0293114Y0124023D02*
X0293115Y0124023D01*
X0291644Y0122624D02*
X0231333Y0122624D01*
X0231333Y0121226D02*
X0292088Y0121226D01*
X0297392Y0119827D02*
X0302481Y0119827D01*
X0302159Y0119961D02*
X0303476Y0119415D01*
X0304901Y0119415D01*
X0306218Y0119961D01*
X0307225Y0120968D01*
X0307771Y0122285D01*
X0307771Y0123710D01*
X0307225Y0125027D01*
X0306218Y0126035D01*
X0304901Y0126580D01*
X0303476Y0126580D01*
X0302159Y0126035D01*
X0301151Y0125027D01*
X0300606Y0123710D01*
X0300606Y0122285D01*
X0301151Y0120968D01*
X0302159Y0119961D01*
X0301044Y0121226D02*
X0298741Y0121226D01*
X0299186Y0122624D02*
X0300606Y0122624D01*
X0300735Y0124023D02*
X0299079Y0124023D01*
X0298384Y0125421D02*
X0301545Y0125421D01*
X0305895Y0119827D02*
X0331065Y0119827D01*
X0329821Y0121226D02*
X0307332Y0121226D01*
X0307771Y0122624D02*
X0328422Y0122624D01*
X0327024Y0124023D02*
X0307642Y0124023D01*
X0306832Y0125421D02*
X0325625Y0125421D01*
X0321430Y0129617D02*
X0231333Y0129617D01*
X0231333Y0131015D02*
X0320031Y0131015D01*
X0318633Y0132414D02*
X0231333Y0132414D01*
X0231333Y0133812D02*
X0317234Y0133812D01*
X0315836Y0135211D02*
X0231333Y0135211D01*
X0231333Y0136609D02*
X0314437Y0136609D01*
X0313039Y0138008D02*
X0231333Y0138008D01*
X0231333Y0139406D02*
X0311640Y0139406D01*
X0310242Y0140805D02*
X0231333Y0140805D01*
X0231333Y0142203D02*
X0308843Y0142203D01*
X0307445Y0143602D02*
X0231333Y0143602D01*
X0231333Y0145000D02*
X0306046Y0145000D01*
X0304648Y0146399D02*
X0231333Y0146399D01*
X0231028Y0147797D02*
X0303249Y0147797D01*
X0301851Y0149196D02*
X0229630Y0149196D01*
X0228231Y0150594D02*
X0300452Y0150594D01*
X0307896Y0160384D02*
X0353545Y0160384D01*
X0353616Y0161782D02*
X0341009Y0161782D01*
X0341503Y0161987D02*
X0342344Y0162828D01*
X0342799Y0163926D01*
X0342799Y0164823D01*
X0343325Y0165349D01*
X0343325Y0184476D01*
X0345893Y0187044D01*
X0345893Y0190746D01*
X0343276Y0193364D01*
X0339574Y0193364D01*
X0336956Y0190746D01*
X0336956Y0187044D01*
X0339525Y0184476D01*
X0339525Y0167510D01*
X0339215Y0167510D01*
X0338117Y0167055D01*
X0337276Y0166214D01*
X0336821Y0165115D01*
X0336821Y0163926D01*
X0337276Y0162828D01*
X0338117Y0161987D01*
X0339215Y0161532D01*
X0340404Y0161532D01*
X0341503Y0161987D01*
X0342490Y0163181D02*
X0353688Y0163181D01*
X0353760Y0164579D02*
X0342799Y0164579D01*
X0343325Y0165978D02*
X0353846Y0165978D01*
X0353929Y0167376D02*
X0343325Y0167376D01*
X0343325Y0168775D02*
X0354011Y0168775D01*
X0354093Y0170173D02*
X0343325Y0170173D01*
X0343325Y0171572D02*
X0354166Y0171572D01*
X0354232Y0172970D02*
X0343325Y0172970D01*
X0343325Y0174369D02*
X0354299Y0174369D01*
X0354365Y0175768D02*
X0343325Y0175768D01*
X0343325Y0177166D02*
X0354432Y0177166D01*
X0354498Y0178565D02*
X0343325Y0178565D01*
X0343325Y0179963D02*
X0354565Y0179963D01*
X0354632Y0181362D02*
X0343325Y0181362D01*
X0343325Y0182760D02*
X0354698Y0182760D01*
X0354765Y0184159D02*
X0343325Y0184159D01*
X0344406Y0185557D02*
X0354831Y0185557D01*
X0354891Y0186956D02*
X0345804Y0186956D01*
X0345893Y0188354D02*
X0354991Y0188354D01*
X0355091Y0189753D02*
X0345893Y0189753D01*
X0345488Y0191151D02*
X0355191Y0191151D01*
X0355291Y0192550D02*
X0344090Y0192550D01*
X0338760Y0192550D02*
X0307889Y0192550D01*
X0310388Y0191151D02*
X0337361Y0191151D01*
X0336956Y0189753D02*
X0312086Y0189753D01*
X0313485Y0188354D02*
X0336956Y0188354D01*
X0337045Y0186956D02*
X0314683Y0186956D01*
X0315682Y0185557D02*
X0338443Y0185557D01*
X0339525Y0184159D02*
X0316454Y0184159D01*
X0317054Y0182760D02*
X0339525Y0182760D01*
X0339525Y0181362D02*
X0317477Y0181362D01*
X0317854Y0179963D02*
X0339525Y0179963D01*
X0339525Y0178565D02*
X0318054Y0178565D01*
X0318054Y0177166D02*
X0339525Y0177166D01*
X0339525Y0175768D02*
X0318054Y0175768D01*
X0318054Y0174369D02*
X0339525Y0174369D01*
X0339525Y0172970D02*
X0317854Y0172970D01*
X0317484Y0171572D02*
X0339525Y0171572D01*
X0339525Y0170173D02*
X0317054Y0170173D01*
X0316454Y0168775D02*
X0339525Y0168775D01*
X0338893Y0167376D02*
X0315689Y0167376D01*
X0314690Y0165978D02*
X0337178Y0165978D01*
X0336821Y0164579D02*
X0313492Y0164579D01*
X0312954Y0164042D02*
X0312954Y0164042D01*
X0312093Y0163181D02*
X0337129Y0163181D01*
X0338610Y0161782D02*
X0310295Y0161782D01*
X0302691Y0193948D02*
X0355355Y0193948D01*
X0355413Y0195347D02*
X0244990Y0195347D01*
X0245192Y0196745D02*
X0355471Y0196745D01*
X0355530Y0198144D02*
X0244717Y0198144D01*
X0245112Y0200941D02*
X0355646Y0200941D01*
X0355705Y0202339D02*
X0246075Y0202339D01*
X0246222Y0203738D02*
X0340082Y0203738D01*
X0338683Y0205136D02*
X0245613Y0205136D01*
X0241778Y0199542D02*
X0355588Y0199542D01*
X0355766Y0203738D02*
X0343972Y0203738D01*
X0345371Y0205136D02*
X0355826Y0205136D01*
X0355887Y0206535D02*
X0346496Y0206535D01*
X0346496Y0207933D02*
X0355948Y0207933D01*
X0356009Y0209332D02*
X0346496Y0209332D01*
X0345728Y0210730D02*
X0356070Y0210730D01*
X0356125Y0212129D02*
X0344329Y0212129D01*
X0339725Y0212129D02*
X0303035Y0212129D01*
X0308598Y0212861D02*
X0308598Y0212861D01*
X0310206Y0213527D02*
X0356176Y0213527D01*
X0356228Y0214926D02*
X0313582Y0214926D01*
X0314069Y0215127D02*
X0314069Y0215127D01*
X0315629Y0216324D02*
X0356280Y0216324D01*
X0356332Y0217723D02*
X0317451Y0217723D01*
X0319065Y0219121D02*
X0356383Y0219121D01*
X0356435Y0220520D02*
X0320138Y0220520D01*
X0321212Y0221918D02*
X0356487Y0221918D01*
X0356541Y0223317D02*
X0345052Y0223317D01*
X0344667Y0222931D02*
X0347402Y0225666D01*
X0347402Y0227316D01*
X0343018Y0227316D01*
X0343018Y0227884D01*
X0347402Y0227884D01*
X0347402Y0229534D01*
X0344667Y0232268D01*
X0343018Y0232268D01*
X0343018Y0227884D01*
X0342449Y0227884D01*
X0342449Y0227316D01*
X0338065Y0227316D01*
X0338065Y0225666D01*
X0340800Y0222931D01*
X0342449Y0222931D01*
X0342449Y0227316D01*
X0343018Y0227316D01*
X0343018Y0222931D01*
X0344667Y0222931D01*
X0343018Y0223317D02*
X0342449Y0223317D01*
X0342449Y0224715D02*
X0343018Y0224715D01*
X0343018Y0226114D02*
X0342449Y0226114D01*
X0342449Y0227512D02*
X0324063Y0227512D01*
X0324638Y0228902D02*
X0324638Y0228902D01*
X0324639Y0228911D02*
X0338065Y0228911D01*
X0338065Y0229534D02*
X0338065Y0227884D01*
X0342449Y0227884D01*
X0342449Y0232268D01*
X0340800Y0232268D01*
X0338065Y0229534D01*
X0338841Y0230309D02*
X0324824Y0230309D01*
X0325008Y0231708D02*
X0340239Y0231708D01*
X0342449Y0231708D02*
X0343018Y0231708D01*
X0343018Y0230309D02*
X0342449Y0230309D01*
X0342449Y0228911D02*
X0343018Y0228911D01*
X0343018Y0227512D02*
X0356702Y0227512D01*
X0356649Y0226114D02*
X0347402Y0226114D01*
X0346451Y0224715D02*
X0356595Y0224715D01*
X0356756Y0228911D02*
X0347402Y0228911D01*
X0346626Y0230309D02*
X0356810Y0230309D01*
X0356864Y0231708D02*
X0345228Y0231708D01*
X0338065Y0226114D02*
X0323483Y0226114D01*
X0322904Y0224715D02*
X0339016Y0224715D01*
X0340414Y0223317D02*
X0322285Y0223317D01*
X0322372Y0223431D02*
X0322372Y0223431D01*
X0325192Y0233106D02*
X0356918Y0233106D01*
X0356971Y0234505D02*
X0325376Y0234505D01*
X0325262Y0235903D02*
X0357025Y0235903D01*
X0357079Y0237302D02*
X0325078Y0237302D01*
X0324894Y0238701D02*
X0357133Y0238701D01*
X0357186Y0240099D02*
X0324710Y0240099D01*
X0324638Y0240645D02*
X0324638Y0240645D01*
X0324285Y0241498D02*
X0357240Y0241498D01*
X0357293Y0242896D02*
X0323706Y0242896D01*
X0323126Y0244295D02*
X0357345Y0244295D01*
X0357397Y0245693D02*
X0322547Y0245693D01*
X0321623Y0247092D02*
X0357449Y0247092D01*
X0357500Y0248490D02*
X0320550Y0248490D01*
X0319477Y0249889D02*
X0357552Y0249889D01*
X0357604Y0251287D02*
X0318150Y0251287D01*
X0316328Y0252686D02*
X0357656Y0252686D01*
X0357708Y0254084D02*
X0314505Y0254084D01*
X0311501Y0255483D02*
X0357759Y0255483D01*
X0357811Y0256881D02*
X0307110Y0256881D01*
X0308598Y0256685D02*
X0308598Y0256685D01*
X0302726Y0257458D02*
X0302726Y0257458D01*
X0298343Y0256881D02*
X0141024Y0256881D01*
X0141624Y0258280D02*
X0162956Y0258280D01*
X0161557Y0259678D02*
X0141473Y0259678D01*
X0140504Y0261077D02*
X0160850Y0261077D01*
X0161338Y0259897D02*
X0161338Y0259897D01*
X0162056Y0248490D02*
X0143073Y0248490D01*
X0141675Y0247092D02*
X0163455Y0247092D01*
X0164853Y0245693D02*
X0140276Y0245693D01*
X0138878Y0244295D02*
X0166252Y0244295D01*
X0167650Y0242896D02*
X0137833Y0242896D01*
X0137833Y0241498D02*
X0169049Y0241498D01*
X0170447Y0240099D02*
X0137219Y0240099D01*
X0136322Y0238701D02*
X0171846Y0238701D01*
X0173244Y0237302D02*
X0135907Y0237302D01*
X0130833Y0235903D02*
X0174643Y0235903D01*
X0176041Y0234505D02*
X0130833Y0234505D01*
X0130833Y0233106D02*
X0177440Y0233106D01*
X0178838Y0231708D02*
X0130833Y0231708D01*
X0130833Y0226114D02*
X0136803Y0226114D01*
X0135812Y0224715D02*
X0130833Y0224715D01*
X0130833Y0223317D02*
X0135646Y0223317D01*
X0136208Y0221918D02*
X0130833Y0221918D01*
X0130833Y0220520D02*
X0138723Y0220520D01*
X0140121Y0219121D02*
X0130833Y0219121D01*
X0130833Y0217723D02*
X0141520Y0217723D01*
X0142918Y0216324D02*
X0130833Y0216324D01*
X0130833Y0214926D02*
X0144317Y0214926D01*
X0145715Y0213527D02*
X0130833Y0213527D01*
X0130833Y0212129D02*
X0147089Y0212129D01*
X0147089Y0210730D02*
X0130833Y0210730D01*
X0130833Y0209332D02*
X0147089Y0209332D01*
X0147089Y0207933D02*
X0130833Y0207933D01*
X0130833Y0206535D02*
X0147089Y0206535D01*
X0147089Y0205136D02*
X0130833Y0205136D01*
X0130833Y0203738D02*
X0147089Y0203738D01*
X0147089Y0202339D02*
X0130833Y0202339D01*
X0130833Y0200941D02*
X0147089Y0200941D01*
X0147089Y0199542D02*
X0130833Y0199542D01*
X0131777Y0198144D02*
X0147089Y0198144D01*
X0147089Y0196745D02*
X0133175Y0196745D01*
X0136114Y0195347D02*
X0147089Y0195347D01*
X0147089Y0193948D02*
X0136722Y0193948D01*
X0136575Y0192550D02*
X0147089Y0192550D01*
X0147089Y0191151D02*
X0135612Y0191151D01*
X0131855Y0191151D02*
X0130090Y0191151D01*
X0130892Y0192550D02*
X0128692Y0192550D01*
X0127293Y0193948D02*
X0130598Y0193948D01*
X0129200Y0195347D02*
X0125895Y0195347D01*
X0124496Y0196745D02*
X0127801Y0196745D01*
X0127033Y0198144D02*
X0123691Y0198144D01*
X0123691Y0198447D02*
X0123691Y0197551D01*
X0134342Y0186900D01*
X0139423Y0186900D01*
X0140057Y0187534D01*
X0141155Y0187989D01*
X0142344Y0187989D01*
X0143443Y0187534D01*
X0144284Y0186693D01*
X0144739Y0185595D01*
X0144739Y0184405D01*
X0144284Y0183307D01*
X0143443Y0182466D01*
X0142344Y0182011D01*
X0141155Y0182011D01*
X0140057Y0182466D01*
X0139423Y0183100D01*
X0132768Y0183100D01*
X0131655Y0184213D01*
X0121004Y0194864D01*
X0120107Y0194864D01*
X0119009Y0195319D01*
X0118168Y0196160D01*
X0117713Y0197258D01*
X0117713Y0198447D01*
X0118168Y0199546D01*
X0119009Y0200387D01*
X0120107Y0200842D01*
X0121296Y0200842D01*
X0122395Y0200387D01*
X0123236Y0199546D01*
X0123691Y0198447D01*
X0123237Y0199542D02*
X0127033Y0199542D01*
X0127033Y0200941D02*
X0111103Y0200941D01*
X0109705Y0202339D02*
X0127033Y0202339D01*
X0127033Y0203738D02*
X0108306Y0203738D01*
X0106908Y0205136D02*
X0127033Y0205136D01*
X0127033Y0206535D02*
X0105509Y0206535D01*
X0104111Y0207933D02*
X0127033Y0207933D01*
X0127033Y0209332D02*
X0102712Y0209332D01*
X0101314Y0210730D02*
X0127033Y0210730D01*
X0127033Y0212129D02*
X0099915Y0212129D01*
X0098517Y0213527D02*
X0127033Y0213527D01*
X0127033Y0214926D02*
X0097118Y0214926D01*
X0095720Y0216324D02*
X0127033Y0216324D01*
X0127033Y0217723D02*
X0094321Y0217723D01*
X0092923Y0219121D02*
X0127033Y0219121D01*
X0127033Y0220520D02*
X0126860Y0220520D01*
X0125628Y0220520D02*
X0091524Y0220520D01*
X0090126Y0221918D02*
X0123664Y0221918D01*
X0123255Y0223317D02*
X0088727Y0223317D01*
X0087329Y0224715D02*
X0123513Y0224715D01*
X0123835Y0226114D02*
X0085930Y0226114D01*
X0084532Y0227512D02*
X0123835Y0227512D01*
X0123835Y0228911D02*
X0083133Y0228911D01*
X0082070Y0230309D02*
X0123835Y0230309D01*
X0123835Y0231708D02*
X0083124Y0231708D01*
X0083336Y0233106D02*
X0123835Y0233106D01*
X0123835Y0234505D02*
X0082881Y0234505D01*
X0082247Y0235903D02*
X0123835Y0235903D01*
X0123835Y0237302D02*
X0082247Y0237302D01*
X0082247Y0238701D02*
X0123835Y0238701D01*
X0123835Y0240099D02*
X0082247Y0240099D01*
X0082247Y0241498D02*
X0123835Y0241498D01*
X0123835Y0242896D02*
X0082247Y0242896D01*
X0082247Y0244295D02*
X0123835Y0244295D01*
X0123835Y0245693D02*
X0082259Y0245693D01*
X0083202Y0247092D02*
X0123835Y0247092D01*
X0123319Y0248490D02*
X0083336Y0248490D01*
X0082693Y0249889D02*
X0122746Y0249889D01*
X0122908Y0251287D02*
X0079558Y0251287D01*
X0079558Y0252686D02*
X0123892Y0252686D01*
X0127578Y0252686D02*
X0129915Y0252686D01*
X0131313Y0254084D02*
X0079558Y0254084D01*
X0079116Y0255483D02*
X0132712Y0255483D01*
X0134110Y0256881D02*
X0077718Y0256881D01*
X0076319Y0258280D02*
X0135509Y0258280D01*
X0135797Y0259678D02*
X0074921Y0259678D01*
X0073522Y0261077D02*
X0136766Y0261077D01*
X0135915Y0262475D02*
X0072124Y0262475D01*
X0070758Y0263874D02*
X0135227Y0263874D01*
X0133829Y0265272D02*
X0070361Y0265272D01*
X0067769Y0263719D02*
X0077358Y0254130D01*
X0077358Y0231575D01*
X0157056Y0151876D01*
X0195070Y0151876D01*
X0195070Y0148727D02*
X0157095Y0148727D01*
X0075158Y0230664D01*
X0075158Y0233668D01*
X0069918Y0238908D01*
X0065619Y0238908D01*
X0062580Y0235868D01*
X0062580Y0226570D01*
X0067769Y0221381D01*
X0067769Y0218719D01*
X0070591Y0217723D02*
X0071426Y0217723D01*
X0072825Y0216324D02*
X0069601Y0216324D01*
X0065936Y0216324D02*
X0014301Y0216324D01*
X0014341Y0214926D02*
X0074223Y0214926D01*
X0075067Y0213527D02*
X0014381Y0213527D01*
X0014421Y0212129D02*
X0075905Y0212129D01*
X0077997Y0214264D02*
X0064780Y0227481D01*
X0064780Y0234957D01*
X0066531Y0236708D01*
X0069007Y0236708D01*
X0072958Y0232757D01*
X0072958Y0229753D01*
X0157133Y0145577D01*
X0195070Y0145577D01*
X0195070Y0142428D02*
X0157171Y0142428D01*
X0070758Y0228841D01*
X0070758Y0229957D01*
X0067769Y0232946D01*
X0067769Y0233719D01*
X0067769Y0228719D02*
X0157210Y0139278D01*
X0195070Y0139278D01*
X0195070Y0135211D02*
X0195070Y0135211D01*
X0195070Y0133812D02*
X0195070Y0133812D01*
X0190972Y0133812D02*
X0102691Y0133812D01*
X0104090Y0132414D02*
X0221229Y0132414D01*
X0222229Y0133812D02*
X0199169Y0133812D01*
X0200117Y0135211D02*
X0226733Y0135211D01*
X0226733Y0136609D02*
X0200117Y0136609D01*
X0199917Y0138008D02*
X0226733Y0138008D01*
X0226733Y0139406D02*
X0199917Y0139406D01*
X0199799Y0140805D02*
X0226733Y0140805D01*
X0226733Y0142203D02*
X0199917Y0142203D01*
X0199917Y0143602D02*
X0226733Y0143602D01*
X0226733Y0145000D02*
X0199917Y0145000D01*
X0199917Y0146399D02*
X0225921Y0146399D01*
X0224161Y0147797D02*
X0199917Y0147797D01*
X0199917Y0149196D02*
X0222223Y0149196D01*
X0221726Y0150594D02*
X0199917Y0150594D01*
X0199917Y0151993D02*
X0220327Y0151993D01*
X0218929Y0153391D02*
X0199811Y0153391D01*
X0199917Y0154790D02*
X0217530Y0154790D01*
X0216132Y0156188D02*
X0199917Y0156188D01*
X0200117Y0157587D02*
X0207712Y0157587D01*
X0206301Y0158985D02*
X0200117Y0158985D01*
X0200117Y0158176D02*
X0195070Y0158176D01*
X0195070Y0158176D01*
X0200117Y0158176D01*
X0195070Y0155026D02*
X0157018Y0155026D01*
X0149289Y0162755D01*
X0149289Y0213065D01*
X0138635Y0223719D01*
X0141457Y0224715D02*
X0150747Y0224715D01*
X0149349Y0226114D02*
X0140467Y0226114D01*
X0142148Y0223317D02*
X0152146Y0223317D01*
X0153544Y0221918D02*
X0143547Y0221918D01*
X0144945Y0220520D02*
X0154570Y0220520D01*
X0154932Y0219121D02*
X0146344Y0219121D01*
X0147742Y0217723D02*
X0156673Y0217723D01*
X0158444Y0217723D02*
X0192823Y0217723D01*
X0191425Y0219121D02*
X0160185Y0219121D01*
X0160547Y0220520D02*
X0190026Y0220520D01*
X0188628Y0221918D02*
X0160244Y0221918D01*
X0158789Y0223317D02*
X0187229Y0223317D01*
X0185831Y0224715D02*
X0156121Y0224715D01*
X0154723Y0226114D02*
X0184432Y0226114D01*
X0183034Y0227512D02*
X0153324Y0227512D01*
X0151926Y0228911D02*
X0181635Y0228911D01*
X0180237Y0230309D02*
X0150527Y0230309D01*
X0149141Y0216324D02*
X0194222Y0216324D01*
X0195620Y0214926D02*
X0150539Y0214926D01*
X0151489Y0213527D02*
X0197019Y0213527D01*
X0198418Y0212129D02*
X0151489Y0212129D01*
X0151489Y0210730D02*
X0199816Y0210730D01*
X0201215Y0209332D02*
X0151489Y0209332D01*
X0151489Y0207933D02*
X0202613Y0207933D01*
X0204012Y0206535D02*
X0151489Y0206535D01*
X0151489Y0205136D02*
X0205410Y0205136D01*
X0206809Y0203738D02*
X0151489Y0203738D01*
X0151489Y0202339D02*
X0208207Y0202339D01*
X0209606Y0200941D02*
X0151489Y0200941D01*
X0151489Y0199542D02*
X0211004Y0199542D01*
X0212403Y0198144D02*
X0151489Y0198144D01*
X0151489Y0196745D02*
X0213801Y0196745D01*
X0215200Y0195347D02*
X0151489Y0195347D01*
X0151489Y0193948D02*
X0216598Y0193948D01*
X0217997Y0192550D02*
X0151489Y0192550D01*
X0151489Y0191151D02*
X0190295Y0191151D01*
X0190224Y0191080D02*
X0190224Y0188263D01*
X0190390Y0188097D01*
X0190224Y0187931D01*
X0190224Y0185113D01*
X0190390Y0184947D01*
X0190224Y0184781D01*
X0190224Y0181964D01*
X0190390Y0181798D01*
X0190224Y0181632D01*
X0190224Y0178814D01*
X0190279Y0178759D01*
X0190140Y0178517D01*
X0190024Y0178084D01*
X0190024Y0177073D01*
X0190024Y0176062D01*
X0190140Y0175630D01*
X0190216Y0175498D01*
X0190140Y0175367D01*
X0190024Y0174935D01*
X0190024Y0173924D01*
X0195070Y0173924D01*
X0195070Y0177073D01*
X0190024Y0177073D01*
X0195070Y0177073D01*
X0195070Y0177073D01*
X0195070Y0177073D01*
X0195070Y0174586D01*
X0195070Y0173924D01*
X0195070Y0173924D01*
X0195070Y0173924D01*
X0190024Y0173924D01*
X0190024Y0172912D01*
X0190140Y0172480D01*
X0190216Y0172349D01*
X0190140Y0172218D01*
X0190024Y0171785D01*
X0190024Y0170774D01*
X0190024Y0169763D01*
X0190140Y0169330D01*
X0190215Y0169199D01*
X0190140Y0169068D01*
X0190024Y0168636D01*
X0190024Y0167624D01*
X0195070Y0167624D01*
X0195070Y0167624D01*
X0195070Y0167624D01*
X0195070Y0167625D02*
X0195070Y0170774D01*
X0190024Y0170774D01*
X0195070Y0170774D01*
X0195070Y0170774D01*
X0195070Y0173923D01*
X0195070Y0173923D01*
X0195070Y0171436D01*
X0195070Y0170774D01*
X0195070Y0170774D01*
X0195070Y0170774D01*
X0195070Y0168287D01*
X0195070Y0167625D01*
X0195070Y0167625D01*
X0195070Y0167624D02*
X0200117Y0167624D01*
X0200117Y0168636D01*
X0200001Y0169068D01*
X0199925Y0169199D01*
X0200001Y0169330D01*
X0200117Y0169763D01*
X0200117Y0170774D01*
X0200117Y0171785D01*
X0200001Y0172218D01*
X0199925Y0172349D01*
X0200001Y0172480D01*
X0200117Y0172912D01*
X0200117Y0173924D01*
X0200117Y0174935D01*
X0200001Y0175367D01*
X0199925Y0175498D01*
X0200001Y0175630D01*
X0200117Y0176062D01*
X0200117Y0177073D01*
X0195070Y0177073D01*
X0195070Y0177073D01*
X0200117Y0177073D01*
X0200117Y0178084D01*
X0200001Y0178517D01*
X0199861Y0178759D01*
X0199917Y0178814D01*
X0199917Y0181632D01*
X0199751Y0181798D01*
X0199917Y0181964D01*
X0199917Y0184781D01*
X0199751Y0184947D01*
X0199917Y0185113D01*
X0199917Y0187931D01*
X0199751Y0188097D01*
X0199917Y0188263D01*
X0199917Y0191080D01*
X0199038Y0191959D01*
X0191103Y0191959D01*
X0190224Y0191080D01*
X0190224Y0189753D02*
X0151489Y0189753D01*
X0151489Y0188354D02*
X0190224Y0188354D01*
X0190224Y0186956D02*
X0151489Y0186956D01*
X0151489Y0185557D02*
X0190224Y0185557D01*
X0190224Y0184159D02*
X0151489Y0184159D01*
X0151489Y0182760D02*
X0190224Y0182760D01*
X0190224Y0181362D02*
X0151489Y0181362D01*
X0151489Y0179963D02*
X0190224Y0179963D01*
X0190167Y0178565D02*
X0151489Y0178565D01*
X0151489Y0177166D02*
X0190024Y0177166D01*
X0190103Y0175768D02*
X0151489Y0175768D01*
X0151489Y0174369D02*
X0190024Y0174369D01*
X0190024Y0172970D02*
X0151489Y0172970D01*
X0151489Y0171572D02*
X0190024Y0171572D01*
X0190024Y0170173D02*
X0151489Y0170173D01*
X0151489Y0168775D02*
X0190061Y0168775D01*
X0190024Y0167376D02*
X0151489Y0167376D01*
X0151489Y0165978D02*
X0190257Y0165978D01*
X0190224Y0164579D02*
X0151489Y0164579D01*
X0151974Y0163181D02*
X0190224Y0163181D01*
X0190224Y0161782D02*
X0153373Y0161782D01*
X0154772Y0160384D02*
X0190224Y0160384D01*
X0190024Y0158985D02*
X0156170Y0158985D01*
X0157569Y0157587D02*
X0190024Y0157587D01*
X0195070Y0168775D02*
X0195070Y0168775D01*
X0195070Y0170173D02*
X0195070Y0170173D01*
X0195070Y0170774D02*
X0195070Y0170774D01*
X0200117Y0170774D01*
X0195070Y0170774D01*
X0195070Y0171572D02*
X0195070Y0171572D01*
X0195070Y0172970D02*
X0195070Y0172970D01*
X0195070Y0173924D02*
X0195070Y0173924D01*
X0200117Y0173924D01*
X0195070Y0173924D01*
X0195070Y0174369D02*
X0195070Y0174369D01*
X0195070Y0175768D02*
X0195070Y0175768D01*
X0200038Y0175768D02*
X0234779Y0175768D01*
X0233380Y0177166D02*
X0200117Y0177166D01*
X0199973Y0178565D02*
X0231982Y0178565D01*
X0230583Y0179963D02*
X0199917Y0179963D01*
X0199917Y0181362D02*
X0229185Y0181362D01*
X0227786Y0182760D02*
X0199917Y0182760D01*
X0199917Y0184159D02*
X0226388Y0184159D01*
X0224989Y0185557D02*
X0199917Y0185557D01*
X0199917Y0186956D02*
X0223591Y0186956D01*
X0222192Y0188354D02*
X0199917Y0188354D01*
X0199917Y0189753D02*
X0220794Y0189753D01*
X0219395Y0191151D02*
X0199846Y0191151D01*
X0200117Y0174369D02*
X0236177Y0174369D01*
X0237576Y0172970D02*
X0205527Y0172970D01*
X0206727Y0171572D02*
X0238974Y0171572D01*
X0240373Y0170173D02*
X0206977Y0170173D01*
X0206562Y0168775D02*
X0241771Y0168775D01*
X0243170Y0167376D02*
X0206288Y0167376D01*
X0206288Y0165978D02*
X0244568Y0165978D01*
X0245967Y0164579D02*
X0205465Y0164579D01*
X0201688Y0167376D02*
X0200117Y0167376D01*
X0200079Y0168775D02*
X0201415Y0168775D01*
X0200999Y0170173D02*
X0200117Y0170173D01*
X0200117Y0171572D02*
X0201250Y0171572D01*
X0200117Y0172970D02*
X0202450Y0172970D01*
X0209828Y0163181D02*
X0247365Y0163181D01*
X0248764Y0161782D02*
X0217043Y0161782D01*
X0218441Y0160384D02*
X0250162Y0160384D01*
X0251561Y0158985D02*
X0219840Y0158985D01*
X0221239Y0157587D02*
X0252959Y0157587D01*
X0254358Y0156188D02*
X0222637Y0156188D01*
X0224036Y0154790D02*
X0255756Y0154790D01*
X0257155Y0153391D02*
X0226277Y0153391D01*
X0227535Y0151993D02*
X0258554Y0151993D01*
X0226733Y0133812D02*
X0225859Y0133812D01*
X0218358Y0124023D02*
X0044679Y0124023D01*
X0044679Y0125421D02*
X0102314Y0125421D01*
X0100915Y0126820D02*
X0044679Y0126820D01*
X0044679Y0128218D02*
X0099517Y0128218D01*
X0098118Y0129617D02*
X0044679Y0129617D01*
X0044679Y0131015D02*
X0096720Y0131015D01*
X0095321Y0132414D02*
X0044679Y0132414D01*
X0044679Y0133812D02*
X0093923Y0133812D01*
X0092524Y0135211D02*
X0044679Y0135211D01*
X0044679Y0136609D02*
X0091126Y0136609D01*
X0089727Y0138008D02*
X0044679Y0138008D01*
X0044679Y0139406D02*
X0088284Y0139406D01*
X0086930Y0140805D02*
X0044679Y0140805D01*
X0044679Y0142203D02*
X0045357Y0142203D01*
X0045025Y0142536D02*
X0045865Y0141695D01*
X0046964Y0141240D01*
X0048153Y0141240D01*
X0049252Y0141695D01*
X0049886Y0142329D01*
X0053331Y0142329D01*
X0053965Y0141695D01*
X0055064Y0141240D01*
X0056253Y0141240D01*
X0057352Y0141695D01*
X0058192Y0142536D01*
X0058647Y0143635D01*
X0058647Y0144824D01*
X0058192Y0145922D01*
X0057352Y0146763D01*
X0056253Y0147218D01*
X0055064Y0147218D01*
X0053965Y0146763D01*
X0053331Y0146129D01*
X0049886Y0146129D01*
X0049252Y0146763D01*
X0048153Y0147218D01*
X0046964Y0147218D01*
X0045865Y0146763D01*
X0045768Y0146666D01*
X0045768Y0146679D01*
X0045313Y0147778D01*
X0044472Y0148619D01*
X0043374Y0149074D01*
X0042184Y0149074D01*
X0041086Y0148619D01*
X0040245Y0147778D01*
X0039790Y0146679D01*
X0039790Y0145490D01*
X0040245Y0144391D01*
X0040879Y0143758D01*
X0040879Y0121333D01*
X0039035Y0119489D01*
X0038139Y0119489D01*
X0037040Y0119034D01*
X0036199Y0118193D01*
X0035744Y0117095D01*
X0035744Y0115905D01*
X0036199Y0114807D01*
X0037040Y0113966D01*
X0038139Y0113511D01*
X0039328Y0113511D01*
X0040426Y0113966D01*
X0041267Y0114807D01*
X0041722Y0115905D01*
X0041722Y0116802D01*
X0044679Y0119759D01*
X0044679Y0143370D01*
X0045025Y0142536D01*
X0049760Y0142203D02*
X0053457Y0142203D01*
X0053601Y0146399D02*
X0049616Y0146399D01*
X0045293Y0147797D02*
X0079938Y0147797D01*
X0081336Y0146399D02*
X0057716Y0146399D01*
X0058574Y0145000D02*
X0082735Y0145000D01*
X0084133Y0143602D02*
X0058634Y0143602D01*
X0057860Y0142203D02*
X0085532Y0142203D01*
X0090104Y0146399D02*
X0146978Y0146399D01*
X0148376Y0145000D02*
X0091503Y0145000D01*
X0092901Y0143602D02*
X0149775Y0143602D01*
X0151173Y0142203D02*
X0094300Y0142203D01*
X0095698Y0140805D02*
X0152572Y0140805D01*
X0153970Y0139406D02*
X0097097Y0139406D01*
X0098495Y0138008D02*
X0155369Y0138008D01*
X0145579Y0147797D02*
X0088706Y0147797D01*
X0087307Y0149196D02*
X0144181Y0149196D01*
X0142782Y0150594D02*
X0085909Y0150594D01*
X0084510Y0151993D02*
X0141384Y0151993D01*
X0139985Y0153391D02*
X0083112Y0153391D01*
X0082602Y0154790D02*
X0138587Y0154790D01*
X0137188Y0156188D02*
X0082602Y0156188D01*
X0082602Y0157587D02*
X0135790Y0157587D01*
X0134391Y0158985D02*
X0082602Y0158985D01*
X0082602Y0160384D02*
X0132992Y0160384D01*
X0131594Y0161782D02*
X0082602Y0161782D01*
X0082602Y0163181D02*
X0130195Y0163181D01*
X0128797Y0164579D02*
X0082602Y0164579D01*
X0082602Y0165978D02*
X0127398Y0165978D01*
X0126000Y0167376D02*
X0082602Y0167376D01*
X0082602Y0168775D02*
X0124601Y0168775D01*
X0123203Y0170173D02*
X0082602Y0170173D01*
X0082602Y0171572D02*
X0121804Y0171572D01*
X0120406Y0172970D02*
X0082602Y0172970D01*
X0082602Y0174369D02*
X0119007Y0174369D01*
X0117609Y0175768D02*
X0082602Y0175768D01*
X0082602Y0177166D02*
X0116210Y0177166D01*
X0114812Y0178565D02*
X0082602Y0178565D01*
X0082602Y0179963D02*
X0113413Y0179963D01*
X0112015Y0181362D02*
X0082602Y0181362D01*
X0082602Y0182760D02*
X0110616Y0182760D01*
X0109218Y0184159D02*
X0082602Y0184159D01*
X0082602Y0185557D02*
X0107819Y0185557D01*
X0106421Y0186956D02*
X0082602Y0186956D01*
X0082602Y0188354D02*
X0105022Y0188354D01*
X0103624Y0189753D02*
X0082602Y0189753D01*
X0082602Y0191151D02*
X0102225Y0191151D01*
X0100827Y0192550D02*
X0082602Y0192550D01*
X0082602Y0193948D02*
X0099428Y0193948D01*
X0098030Y0195347D02*
X0082602Y0195347D01*
X0083478Y0196745D02*
X0096631Y0196745D01*
X0095233Y0198144D02*
X0083691Y0198144D01*
X0083237Y0199542D02*
X0093834Y0199542D01*
X0092436Y0200941D02*
X0063133Y0200941D01*
X0063133Y0199542D02*
X0078166Y0199542D01*
X0077713Y0198144D02*
X0063133Y0198144D01*
X0063133Y0196745D02*
X0077925Y0196745D01*
X0078802Y0195347D02*
X0063133Y0195347D01*
X0063133Y0193948D02*
X0078802Y0193948D01*
X0078802Y0192550D02*
X0063133Y0192550D01*
X0063133Y0191151D02*
X0078802Y0191151D01*
X0078802Y0189753D02*
X0063696Y0189753D01*
X0063822Y0188354D02*
X0078802Y0188354D01*
X0078802Y0186956D02*
X0063162Y0186956D01*
X0063133Y0185557D02*
X0078802Y0185557D01*
X0078802Y0184159D02*
X0063133Y0184159D01*
X0063133Y0182760D02*
X0078802Y0182760D01*
X0078802Y0181362D02*
X0063133Y0181362D01*
X0063133Y0179963D02*
X0078802Y0179963D01*
X0078802Y0178565D02*
X0063133Y0178565D01*
X0063133Y0177166D02*
X0078802Y0177166D01*
X0078802Y0175768D02*
X0063133Y0175768D01*
X0063133Y0174369D02*
X0078802Y0174369D01*
X0078802Y0172970D02*
X0063133Y0172970D01*
X0063133Y0171572D02*
X0078802Y0171572D01*
X0078802Y0170173D02*
X0064067Y0170173D01*
X0065465Y0168775D02*
X0078802Y0168775D01*
X0078802Y0167376D02*
X0066864Y0167376D01*
X0068262Y0165978D02*
X0078802Y0165978D01*
X0078802Y0164579D02*
X0069661Y0164579D01*
X0071059Y0163181D02*
X0078802Y0163181D01*
X0078802Y0161782D02*
X0072458Y0161782D01*
X0073857Y0160384D02*
X0078802Y0160384D01*
X0078802Y0158985D02*
X0075255Y0158985D01*
X0076654Y0157587D02*
X0078802Y0157587D01*
X0078802Y0156188D02*
X0078052Y0156188D01*
X0074344Y0153391D02*
X0027561Y0153391D01*
X0027029Y0153612D02*
X0025840Y0153612D01*
X0024741Y0153157D01*
X0023900Y0152316D01*
X0023445Y0151217D01*
X0023445Y0150028D01*
X0023900Y0148930D01*
X0024534Y0148296D01*
X0024534Y0137600D01*
X0033208Y0128926D01*
X0033208Y0128030D01*
X0033663Y0126931D01*
X0034503Y0126090D01*
X0035602Y0125635D01*
X0036791Y0125635D01*
X0037890Y0126090D01*
X0038730Y0126931D01*
X0039186Y0128030D01*
X0039186Y0129219D01*
X0038730Y0130318D01*
X0037890Y0131158D01*
X0036791Y0131613D01*
X0035895Y0131613D01*
X0028334Y0139174D01*
X0028334Y0148296D01*
X0028968Y0148930D01*
X0029423Y0150028D01*
X0029423Y0151217D01*
X0028968Y0152316D01*
X0028127Y0153157D01*
X0027029Y0153612D01*
X0025307Y0153391D02*
X0016353Y0153391D01*
X0016407Y0151993D02*
X0023766Y0151993D01*
X0023445Y0150594D02*
X0016457Y0150594D01*
X0016507Y0149196D02*
X0023790Y0149196D01*
X0024534Y0147797D02*
X0016557Y0147797D01*
X0016607Y0146399D02*
X0024534Y0146399D01*
X0024534Y0145000D02*
X0016657Y0145000D01*
X0016707Y0143602D02*
X0024534Y0143602D01*
X0024534Y0142203D02*
X0016757Y0142203D01*
X0016807Y0140805D02*
X0024534Y0140805D01*
X0024534Y0139406D02*
X0016857Y0139406D01*
X0016907Y0138008D02*
X0024534Y0138008D01*
X0025525Y0136609D02*
X0016957Y0136609D01*
X0017007Y0135211D02*
X0026923Y0135211D01*
X0028322Y0133812D02*
X0017057Y0133812D01*
X0017107Y0132414D02*
X0029720Y0132414D01*
X0031119Y0131015D02*
X0017157Y0131015D01*
X0017207Y0129617D02*
X0032517Y0129617D01*
X0033208Y0128218D02*
X0017265Y0128218D01*
X0017323Y0126820D02*
X0033774Y0126820D01*
X0038619Y0126820D02*
X0040879Y0126820D01*
X0040879Y0128218D02*
X0039186Y0128218D01*
X0039021Y0129617D02*
X0040879Y0129617D01*
X0040879Y0131015D02*
X0038033Y0131015D01*
X0040879Y0132414D02*
X0035094Y0132414D01*
X0033696Y0133812D02*
X0040879Y0133812D01*
X0040879Y0135211D02*
X0032297Y0135211D01*
X0030899Y0136609D02*
X0040879Y0136609D01*
X0040879Y0138008D02*
X0029500Y0138008D01*
X0028334Y0139406D02*
X0040879Y0139406D01*
X0040879Y0140805D02*
X0028334Y0140805D01*
X0028334Y0142203D02*
X0040879Y0142203D01*
X0040879Y0143602D02*
X0028334Y0143602D01*
X0028334Y0145000D02*
X0039993Y0145000D01*
X0039790Y0146399D02*
X0028334Y0146399D01*
X0028334Y0147797D02*
X0040265Y0147797D01*
X0029423Y0150594D02*
X0077141Y0150594D01*
X0078539Y0149196D02*
X0029078Y0149196D01*
X0029102Y0151993D02*
X0075742Y0151993D01*
X0072945Y0154790D02*
X0016299Y0154790D01*
X0016245Y0156188D02*
X0071547Y0156188D01*
X0070148Y0157587D02*
X0016191Y0157587D01*
X0016138Y0158985D02*
X0032848Y0158985D01*
X0031950Y0160384D02*
X0016084Y0160384D01*
X0016030Y0161782D02*
X0031850Y0161782D01*
X0032571Y0163181D02*
X0015985Y0163181D01*
X0015941Y0164579D02*
X0034944Y0164579D01*
X0036343Y0165978D02*
X0015898Y0165978D01*
X0015854Y0167376D02*
X0037741Y0167376D01*
X0039140Y0168775D02*
X0015810Y0168775D01*
X0015767Y0170173D02*
X0040538Y0170173D01*
X0041051Y0171572D02*
X0015723Y0171572D01*
X0015679Y0172970D02*
X0041051Y0172970D01*
X0041051Y0174369D02*
X0015636Y0174369D01*
X0015586Y0175768D02*
X0041051Y0175768D01*
X0040422Y0177166D02*
X0015536Y0177166D01*
X0015486Y0178565D02*
X0040390Y0178565D01*
X0041183Y0179963D02*
X0015437Y0179963D01*
X0015387Y0181362D02*
X0058533Y0181362D01*
X0058533Y0182760D02*
X0015337Y0182760D01*
X0015287Y0184159D02*
X0058533Y0184159D01*
X0058533Y0185557D02*
X0015237Y0185557D01*
X0015191Y0186956D02*
X0058504Y0186956D01*
X0057844Y0188354D02*
X0015146Y0188354D01*
X0015101Y0189753D02*
X0057971Y0189753D01*
X0058533Y0191151D02*
X0015056Y0191151D01*
X0015011Y0192550D02*
X0058533Y0192550D01*
X0058533Y0193948D02*
X0014966Y0193948D01*
X0014921Y0195347D02*
X0058533Y0195347D01*
X0058533Y0196745D02*
X0014876Y0196745D01*
X0014832Y0198144D02*
X0058533Y0198144D01*
X0058533Y0199542D02*
X0014790Y0199542D01*
X0014749Y0200941D02*
X0058533Y0200941D01*
X0058533Y0202339D02*
X0014708Y0202339D01*
X0014667Y0203738D02*
X0058533Y0203738D01*
X0059408Y0205136D02*
X0014626Y0205136D01*
X0014585Y0206535D02*
X0059926Y0206535D01*
X0061791Y0207933D02*
X0014544Y0207933D01*
X0014503Y0209332D02*
X0084045Y0209332D01*
X0085443Y0207933D02*
X0063263Y0207933D01*
X0065128Y0206535D02*
X0086842Y0206535D01*
X0088240Y0205136D02*
X0065516Y0205136D01*
X0065238Y0203738D02*
X0089639Y0203738D01*
X0091037Y0202339D02*
X0063907Y0202339D01*
X0064946Y0217723D02*
X0014261Y0217723D01*
X0014221Y0219121D02*
X0064780Y0219121D01*
X0065343Y0220520D02*
X0057837Y0220520D01*
X0058071Y0220616D02*
X0058911Y0221457D01*
X0059366Y0222556D01*
X0059366Y0223745D01*
X0058911Y0224844D01*
X0058071Y0225684D01*
X0056972Y0226139D01*
X0055783Y0226139D01*
X0054684Y0225684D01*
X0053843Y0224844D01*
X0053577Y0224200D01*
X0040339Y0224200D01*
X0039705Y0224834D01*
X0038607Y0225289D01*
X0037418Y0225289D01*
X0036319Y0224834D01*
X0035478Y0223993D01*
X0035023Y0222895D01*
X0035023Y0221705D01*
X0035478Y0220607D01*
X0036319Y0219766D01*
X0037418Y0219311D01*
X0038607Y0219311D01*
X0039705Y0219766D01*
X0040339Y0220400D01*
X0055207Y0220400D01*
X0055783Y0220161D01*
X0056972Y0220161D01*
X0058071Y0220616D01*
X0059102Y0221918D02*
X0064120Y0221918D01*
X0062721Y0223317D02*
X0059366Y0223317D01*
X0058964Y0224715D02*
X0061323Y0224715D01*
X0061669Y0224370D02*
X0061669Y0224370D01*
X0060380Y0226114D02*
X0057033Y0226114D01*
X0055721Y0226114D02*
X0014026Y0226114D01*
X0013992Y0227512D02*
X0060380Y0227512D01*
X0060380Y0228911D02*
X0013958Y0228911D01*
X0013924Y0230309D02*
X0060380Y0230309D01*
X0060380Y0231708D02*
X0024107Y0231708D01*
X0024315Y0231794D02*
X0025156Y0232635D01*
X0025429Y0233294D01*
X0026605Y0233294D01*
X0027704Y0233749D01*
X0028544Y0234590D01*
X0028999Y0235688D01*
X0028999Y0236877D01*
X0028634Y0237759D01*
X0029679Y0238804D01*
X0060541Y0238804D01*
X0061654Y0239917D01*
X0067467Y0245730D01*
X0068363Y0245730D01*
X0069462Y0246185D01*
X0070303Y0247026D01*
X0070758Y0248124D01*
X0070758Y0249313D01*
X0070303Y0250412D01*
X0069496Y0251219D01*
X0070303Y0252026D01*
X0070758Y0253124D01*
X0070758Y0254313D01*
X0070303Y0255412D01*
X0069462Y0256253D01*
X0068363Y0256708D01*
X0067174Y0256708D01*
X0066076Y0256253D01*
X0065235Y0255412D01*
X0064780Y0254313D01*
X0064780Y0253124D01*
X0065045Y0252485D01*
X0064293Y0251733D01*
X0064293Y0251733D01*
X0063180Y0250620D01*
X0063180Y0249080D01*
X0059576Y0245476D01*
X0059576Y0245895D01*
X0059121Y0246993D01*
X0058280Y0247834D01*
X0057182Y0248289D01*
X0055993Y0248289D01*
X0054894Y0247834D01*
X0054260Y0247200D01*
X0040053Y0247200D01*
X0041002Y0247593D01*
X0041843Y0248434D01*
X0042298Y0249532D01*
X0042298Y0250722D01*
X0041843Y0251820D01*
X0041002Y0252661D01*
X0039904Y0253116D01*
X0038715Y0253116D01*
X0037616Y0252661D01*
X0036982Y0252027D01*
X0035445Y0252027D01*
X0035259Y0252476D01*
X0034418Y0253317D01*
X0033320Y0253772D01*
X0032131Y0253772D01*
X0031032Y0253317D01*
X0030191Y0252476D01*
X0029736Y0251377D01*
X0029736Y0251178D01*
X0029228Y0251389D01*
X0028039Y0251389D01*
X0026940Y0250934D01*
X0026099Y0250093D01*
X0025644Y0248995D01*
X0025644Y0248098D01*
X0024447Y0246901D01*
X0019728Y0246901D01*
X0019094Y0247535D01*
X0017996Y0247990D01*
X0016806Y0247990D01*
X0015708Y0247535D01*
X0014867Y0246694D01*
X0014412Y0245595D01*
X0014412Y0244406D01*
X0014867Y0243308D01*
X0015708Y0242467D01*
X0016806Y0242012D01*
X0017996Y0242012D01*
X0019094Y0242467D01*
X0019728Y0243101D01*
X0026021Y0243101D01*
X0027134Y0244214D01*
X0028331Y0245411D01*
X0028935Y0245411D01*
X0029833Y0244513D01*
X0030142Y0244204D01*
X0027442Y0244204D01*
X0026329Y0243091D01*
X0022535Y0239296D01*
X0022535Y0239296D01*
X0021422Y0238184D01*
X0021422Y0237066D01*
X0020929Y0236862D01*
X0020088Y0236021D01*
X0019633Y0234923D01*
X0019633Y0233733D01*
X0020088Y0232635D01*
X0020929Y0231794D01*
X0022028Y0231339D01*
X0023217Y0231339D01*
X0024315Y0231794D01*
X0025352Y0233106D02*
X0060380Y0233106D01*
X0060380Y0234505D02*
X0028460Y0234505D01*
X0028999Y0235903D02*
X0060380Y0235903D01*
X0060902Y0237302D02*
X0028824Y0237302D01*
X0029575Y0238701D02*
X0062301Y0238701D01*
X0061836Y0240099D02*
X0063699Y0240099D01*
X0063234Y0241498D02*
X0075158Y0241498D01*
X0075158Y0242896D02*
X0064633Y0242896D01*
X0066031Y0244295D02*
X0075158Y0244295D01*
X0075158Y0245693D02*
X0067430Y0245693D01*
X0070330Y0247092D02*
X0075158Y0247092D01*
X0075158Y0248490D02*
X0070758Y0248490D01*
X0070519Y0249889D02*
X0075158Y0249889D01*
X0075158Y0251287D02*
X0069564Y0251287D01*
X0070576Y0252686D02*
X0075158Y0252686D01*
X0074292Y0254084D02*
X0070758Y0254084D01*
X0070232Y0255483D02*
X0072894Y0255483D01*
X0071495Y0256881D02*
X0057207Y0256881D01*
X0057206Y0256884D02*
X0056808Y0257427D01*
X0056331Y0257901D01*
X0055785Y0258295D01*
X0055184Y0258598D01*
X0054544Y0258804D01*
X0053879Y0258907D01*
X0048480Y0258888D01*
X0048495Y0254701D01*
X0057832Y0254733D01*
X0057831Y0254982D01*
X0057723Y0255647D01*
X0057513Y0256286D01*
X0057206Y0256884D01*
X0057750Y0255483D02*
X0065305Y0255483D01*
X0064780Y0254084D02*
X0057798Y0254084D01*
X0057833Y0254310D02*
X0057730Y0253645D01*
X0057525Y0253004D01*
X0057221Y0252403D01*
X0056828Y0251858D01*
X0056354Y0251380D01*
X0055811Y0250983D01*
X0055212Y0250675D01*
X0054573Y0250465D01*
X0053909Y0250357D01*
X0048510Y0250339D01*
X0048496Y0254526D01*
X0057832Y0254559D01*
X0057833Y0254310D01*
X0057364Y0252686D02*
X0064962Y0252686D01*
X0063847Y0251287D02*
X0056226Y0251287D01*
X0059023Y0247092D02*
X0061192Y0247092D01*
X0062590Y0248490D02*
X0041866Y0248490D01*
X0042298Y0249889D02*
X0063180Y0249889D01*
X0059793Y0245693D02*
X0059576Y0245693D01*
X0048507Y0251287D02*
X0048332Y0251287D01*
X0048327Y0252686D02*
X0048502Y0252686D01*
X0048497Y0254084D02*
X0048322Y0254084D01*
X0048408Y0254613D02*
X0049550Y0255756D01*
X0049550Y0265641D01*
X0049452Y0265542D01*
X0021204Y0265542D01*
X0016732Y0265712D02*
X0016733Y0265340D01*
X0014755Y0265333D01*
X0014772Y0260546D01*
X0014889Y0260114D01*
X0015114Y0259727D01*
X0015432Y0259411D01*
X0015820Y0259189D01*
X0016253Y0259074D01*
X0021041Y0259091D01*
X0021037Y0260282D01*
X0021366Y0260283D01*
X0021408Y0260283D01*
X0021412Y0259093D01*
X0023733Y0259101D01*
X0023648Y0258895D01*
X0023648Y0258619D01*
X0023410Y0258695D01*
X0022745Y0258798D01*
X0022496Y0258797D01*
X0022511Y0254610D01*
X0022336Y0254610D01*
X0022321Y0258797D01*
X0016923Y0258778D01*
X0016259Y0258670D01*
X0015619Y0258460D01*
X0015021Y0258153D01*
X0014478Y0257755D01*
X0014004Y0257278D01*
X0013610Y0256732D01*
X0013326Y0256170D01*
X0013281Y0258191D01*
X0013283Y0258195D01*
X0013268Y0258788D01*
X0013255Y0259380D01*
X0013253Y0259384D01*
X0012950Y0271518D01*
X0015316Y0271559D01*
X0015074Y0271314D01*
X0014851Y0270926D01*
X0014737Y0270493D01*
X0014754Y0265705D01*
X0016732Y0265712D01*
X0014755Y0265272D02*
X0013106Y0265272D01*
X0013141Y0263874D02*
X0014760Y0263874D01*
X0014765Y0262475D02*
X0013176Y0262475D01*
X0013211Y0261077D02*
X0014770Y0261077D01*
X0015163Y0259678D02*
X0013246Y0259678D01*
X0013281Y0258280D02*
X0015268Y0258280D01*
X0013718Y0256881D02*
X0013310Y0256881D01*
X0013435Y0251287D02*
X0014447Y0251287D01*
X0013466Y0249889D02*
X0026015Y0249889D01*
X0025644Y0248490D02*
X0013497Y0248490D01*
X0013528Y0247092D02*
X0015265Y0247092D01*
X0014453Y0245693D02*
X0013559Y0245693D01*
X0013590Y0244295D02*
X0014458Y0244295D01*
X0015279Y0242896D02*
X0013621Y0242896D01*
X0013652Y0241498D02*
X0024736Y0241498D01*
X0026134Y0242896D02*
X0019523Y0242896D01*
X0019537Y0247092D02*
X0024638Y0247092D01*
X0027215Y0244295D02*
X0030052Y0244295D01*
X0026329Y0243091D02*
X0026329Y0243091D01*
X0023337Y0240099D02*
X0013685Y0240099D01*
X0013719Y0238701D02*
X0021939Y0238701D01*
X0021422Y0237302D02*
X0013754Y0237302D01*
X0013788Y0235903D02*
X0020040Y0235903D01*
X0019633Y0234505D02*
X0013822Y0234505D01*
X0013856Y0233106D02*
X0019893Y0233106D01*
X0021137Y0231708D02*
X0013890Y0231708D01*
X0014061Y0224715D02*
X0036200Y0224715D01*
X0035198Y0223317D02*
X0014101Y0223317D01*
X0014141Y0221918D02*
X0035023Y0221918D01*
X0035565Y0220520D02*
X0014181Y0220520D01*
X0014461Y0210730D02*
X0082646Y0210730D01*
X0081248Y0212129D02*
X0080089Y0212129D01*
X0075158Y0237302D02*
X0074635Y0237302D01*
X0075158Y0238701D02*
X0073237Y0238701D01*
X0071838Y0240099D02*
X0075158Y0240099D01*
X0070097Y0258280D02*
X0055806Y0258280D01*
X0055492Y0259678D02*
X0068698Y0259678D01*
X0066337Y0261077D02*
X0056016Y0261077D01*
X0056012Y0262475D02*
X0065049Y0262475D01*
X0064780Y0263874D02*
X0063997Y0263874D01*
X0061057Y0263874D02*
X0056007Y0263874D01*
X0056002Y0265272D02*
X0059800Y0265272D01*
X0059538Y0266671D02*
X0055997Y0266671D01*
X0055992Y0268069D02*
X0059942Y0268069D01*
X0061881Y0269468D02*
X0055987Y0269468D01*
X0055921Y0270866D02*
X0063641Y0270866D01*
X0049757Y0259678D02*
X0049385Y0259678D01*
X0048482Y0258280D02*
X0048308Y0258280D01*
X0048312Y0256881D02*
X0048487Y0256881D01*
X0048492Y0255483D02*
X0048317Y0255483D01*
X0044163Y0254084D02*
X0043950Y0254084D01*
X0044592Y0252686D02*
X0040943Y0252686D01*
X0042064Y0251287D02*
X0045711Y0251287D01*
X0042211Y0254084D02*
X0028725Y0254084D01*
X0026727Y0254084D02*
X0026682Y0254084D01*
X0026285Y0252686D02*
X0030401Y0252686D01*
X0029736Y0251287D02*
X0029474Y0251287D01*
X0027793Y0251287D02*
X0025235Y0251287D01*
X0022522Y0251287D02*
X0022348Y0251287D01*
X0022343Y0252686D02*
X0022518Y0252686D01*
X0022513Y0254084D02*
X0022338Y0254084D01*
X0022333Y0255483D02*
X0022508Y0255483D01*
X0022503Y0256881D02*
X0022328Y0256881D01*
X0022323Y0258280D02*
X0022498Y0258280D01*
X0021410Y0259678D02*
X0021039Y0259678D01*
X0021366Y0260283D02*
X0021366Y0260283D01*
X0027665Y0262475D02*
X0043111Y0262475D01*
X0043107Y0263874D02*
X0027660Y0263874D01*
X0027655Y0265272D02*
X0043102Y0265272D01*
X0043097Y0266671D02*
X0027650Y0266671D01*
X0027645Y0268069D02*
X0043092Y0268069D01*
X0043087Y0269468D02*
X0027640Y0269468D01*
X0027548Y0270866D02*
X0043156Y0270866D01*
X0040252Y0261077D02*
X0030501Y0261077D01*
X0031480Y0259678D02*
X0039305Y0259678D01*
X0039003Y0258280D02*
X0031804Y0258280D01*
X0031642Y0256881D02*
X0039187Y0256881D01*
X0039969Y0255483D02*
X0030892Y0255483D01*
X0035049Y0252686D02*
X0037676Y0252686D01*
X0014750Y0266671D02*
X0013071Y0266671D01*
X0013036Y0268069D02*
X0014745Y0268069D01*
X0014740Y0269468D02*
X0013001Y0269468D01*
X0012966Y0270866D02*
X0014835Y0270866D01*
X0039824Y0224715D02*
X0053790Y0224715D01*
X0058533Y0179963D02*
X0045520Y0179963D01*
X0046313Y0178565D02*
X0058533Y0178565D01*
X0058533Y0177166D02*
X0046281Y0177166D01*
X0045651Y0175768D02*
X0058533Y0175768D01*
X0058533Y0174369D02*
X0045651Y0174369D01*
X0045651Y0172970D02*
X0058533Y0172970D01*
X0060359Y0167376D02*
X0044247Y0167376D01*
X0042848Y0165978D02*
X0061757Y0165978D01*
X0063156Y0164579D02*
X0041450Y0164579D01*
X0040051Y0163181D02*
X0064554Y0163181D01*
X0065953Y0161782D02*
X0038653Y0161782D01*
X0037727Y0160384D02*
X0067351Y0160384D01*
X0068750Y0158985D02*
X0036830Y0158985D01*
X0040879Y0125421D02*
X0017382Y0125421D01*
X0017440Y0124023D02*
X0040879Y0124023D01*
X0040879Y0122624D02*
X0017498Y0122624D01*
X0017557Y0121226D02*
X0040772Y0121226D01*
X0039373Y0119827D02*
X0017621Y0119827D01*
X0017699Y0118429D02*
X0036435Y0118429D01*
X0035744Y0117030D02*
X0017777Y0117030D01*
X0017854Y0115632D02*
X0035858Y0115632D01*
X0036773Y0114233D02*
X0017932Y0114233D01*
X0018010Y0112834D02*
X0229546Y0112834D01*
X0230945Y0111436D02*
X0018073Y0111436D01*
X0018140Y0110037D02*
X0232343Y0110037D01*
X0233742Y0108639D02*
X0018206Y0108639D01*
X0018273Y0107240D02*
X0235140Y0107240D01*
X0236539Y0105842D02*
X0018340Y0105842D01*
X0031100Y0096052D02*
X0031335Y0096052D01*
X0036916Y0097451D02*
X0331184Y0097451D01*
X0331184Y0098849D02*
X0306223Y0098849D01*
X0307310Y0100248D02*
X0331184Y0100248D01*
X0330153Y0101646D02*
X0307634Y0101646D01*
X0307391Y0103045D02*
X0329615Y0103045D01*
X0329615Y0104443D02*
X0306419Y0104443D01*
X0331184Y0096052D02*
X0037313Y0096052D01*
X0038256Y0094654D02*
X0331184Y0094654D01*
X0329856Y0091857D02*
X0048886Y0091857D01*
X0049515Y0090458D02*
X0329615Y0090458D01*
X0329615Y0089060D02*
X0049376Y0089060D01*
X0048425Y0087661D02*
X0329615Y0087661D01*
X0329633Y0086263D02*
X0019297Y0086263D01*
X0019227Y0087661D02*
X0044628Y0087661D01*
X0032917Y0074932D02*
X0031659Y0076190D01*
X0030016Y0076871D01*
X0028237Y0076871D01*
X0026593Y0076190D01*
X0025335Y0074932D01*
X0024654Y0073289D01*
X0024654Y0071510D01*
X0025335Y0069866D01*
X0026593Y0068608D01*
X0028237Y0067927D01*
X0030016Y0067927D01*
X0031659Y0068608D01*
X0032917Y0069866D01*
X0033598Y0071510D01*
X0033598Y0073289D01*
X0032917Y0074932D01*
X0032774Y0075075D02*
X0275604Y0075075D01*
X0275604Y0075403D02*
X0275604Y0073539D01*
X0276623Y0072520D01*
X0276770Y0072227D01*
X0276989Y0072154D01*
X0277153Y0071990D01*
X0277481Y0071990D01*
X0278005Y0071815D01*
X0278035Y0071765D01*
X0278509Y0071647D01*
X0278972Y0071492D01*
X0279024Y0071518D01*
X0279783Y0071329D01*
X0279909Y0071202D01*
X0280287Y0071202D01*
X0280655Y0071111D01*
X0280808Y0071202D01*
X0285599Y0071202D01*
X0285752Y0071111D01*
X0286119Y0071202D01*
X0286498Y0071202D01*
X0286624Y0071329D01*
X0287602Y0071573D01*
X0287883Y0071533D01*
X0288104Y0071699D01*
X0288372Y0071765D01*
X0288518Y0072009D01*
X0289795Y0072967D01*
X0290172Y0073155D01*
X0290214Y0073281D01*
X0290276Y0073327D01*
X0291090Y0072513D01*
X0291237Y0072220D01*
X0291456Y0072147D01*
X0291620Y0071983D01*
X0291948Y0071983D01*
X0292472Y0071809D01*
X0292502Y0071759D01*
X0292976Y0071641D01*
X0293439Y0071486D01*
X0293491Y0071512D01*
X0294250Y0071322D01*
X0294376Y0071196D01*
X0294754Y0071196D01*
X0295122Y0071104D01*
X0295274Y0071196D01*
X0300066Y0071196D01*
X0300219Y0071104D01*
X0300586Y0071196D01*
X0300965Y0071196D01*
X0301091Y0071322D01*
X0302069Y0071567D01*
X0302350Y0071527D01*
X0302571Y0071692D01*
X0302839Y0071759D01*
X0302985Y0072003D01*
X0304262Y0072961D01*
X0304639Y0073149D01*
X0304681Y0073275D01*
X0304787Y0073354D01*
X0304790Y0073380D01*
X0305657Y0072513D01*
X0305804Y0072220D01*
X0306023Y0072147D01*
X0306187Y0071983D01*
X0306514Y0071983D01*
X0307039Y0071809D01*
X0307069Y0071759D01*
X0307543Y0071641D01*
X0308006Y0071486D01*
X0308058Y0071512D01*
X0308817Y0071322D01*
X0308943Y0071196D01*
X0309321Y0071196D01*
X0309688Y0071104D01*
X0309841Y0071196D01*
X0314633Y0071196D01*
X0314786Y0071104D01*
X0315153Y0071196D01*
X0315532Y0071196D01*
X0315658Y0071322D01*
X0316636Y0071567D01*
X0316917Y0071527D01*
X0317138Y0071692D01*
X0317406Y0071759D01*
X0317552Y0072003D01*
X0318829Y0072961D01*
X0319206Y0073149D01*
X0319248Y0073275D01*
X0319354Y0073354D01*
X0319413Y0073771D01*
X0319546Y0074171D01*
X0319487Y0074289D01*
X0319506Y0074420D01*
X0319253Y0074757D01*
X0318990Y0075284D01*
X0318918Y0075641D01*
X0318757Y0075748D01*
X0318671Y0075921D01*
X0318325Y0076036D01*
X0317505Y0076583D01*
X0317351Y0076815D01*
X0317075Y0076870D01*
X0316841Y0077026D01*
X0316568Y0076971D01*
X0315359Y0077213D01*
X0315344Y0077233D01*
X0314834Y0077318D01*
X0314326Y0077420D01*
X0314306Y0077406D01*
X0312792Y0077658D01*
X0312644Y0077780D01*
X0312280Y0077744D01*
X0311920Y0077804D01*
X0311763Y0077692D01*
X0308545Y0077370D01*
X0308400Y0077443D01*
X0308027Y0077318D01*
X0307635Y0077279D01*
X0307532Y0077154D01*
X0307119Y0077016D01*
X0307019Y0077049D01*
X0306620Y0076850D01*
X0306197Y0076709D01*
X0306150Y0076615D01*
X0306025Y0076552D01*
X0305793Y0076552D01*
X0305562Y0076320D01*
X0305269Y0076174D01*
X0305196Y0075954D01*
X0304638Y0075397D01*
X0304638Y0074853D01*
X0304423Y0075284D01*
X0304351Y0075641D01*
X0304191Y0075748D01*
X0304104Y0075921D01*
X0303758Y0076036D01*
X0302938Y0076583D01*
X0302784Y0076815D01*
X0302508Y0076870D01*
X0302274Y0077026D01*
X0302001Y0076971D01*
X0300792Y0077213D01*
X0300777Y0077233D01*
X0300267Y0077318D01*
X0299759Y0077420D01*
X0299739Y0077406D01*
X0298226Y0077658D01*
X0298077Y0077780D01*
X0297713Y0077744D01*
X0297353Y0077804D01*
X0297196Y0077692D01*
X0293978Y0077370D01*
X0293833Y0077443D01*
X0293460Y0077318D01*
X0293068Y0077279D01*
X0292965Y0077154D01*
X0292552Y0077016D01*
X0292452Y0077049D01*
X0292053Y0076850D01*
X0291630Y0076709D01*
X0291583Y0076615D01*
X0291458Y0076552D01*
X0291226Y0076552D01*
X0290995Y0076320D01*
X0290702Y0076174D01*
X0290629Y0075954D01*
X0290071Y0075397D01*
X0290071Y0075060D01*
X0289956Y0075290D01*
X0289884Y0075648D01*
X0289724Y0075755D01*
X0289637Y0075928D01*
X0289291Y0076043D01*
X0288472Y0076589D01*
X0288317Y0076821D01*
X0288041Y0076876D01*
X0287807Y0077032D01*
X0287534Y0076978D01*
X0286325Y0077220D01*
X0286310Y0077239D01*
X0285800Y0077324D01*
X0285293Y0077426D01*
X0285272Y0077412D01*
X0283759Y0077665D01*
X0283610Y0077786D01*
X0283246Y0077750D01*
X0282886Y0077810D01*
X0282730Y0077698D01*
X0279511Y0077377D01*
X0279366Y0077449D01*
X0278993Y0077325D01*
X0278601Y0077286D01*
X0278498Y0077160D01*
X0278085Y0077022D01*
X0277986Y0077056D01*
X0277587Y0076856D01*
X0277163Y0076715D01*
X0277116Y0076621D01*
X0276991Y0076558D01*
X0276759Y0076558D01*
X0276528Y0076327D01*
X0276235Y0076180D01*
X0276162Y0075960D01*
X0275604Y0075403D01*
X0276674Y0076473D02*
X0030975Y0076473D01*
X0027277Y0076473D02*
X0019882Y0076473D01*
X0019982Y0075075D02*
X0025478Y0075075D01*
X0024815Y0073676D02*
X0020060Y0073676D01*
X0020142Y0072278D02*
X0024654Y0072278D01*
X0024916Y0070879D02*
X0020224Y0070879D01*
X0020306Y0069481D02*
X0025721Y0069481D01*
X0027863Y0068082D02*
X0020397Y0068082D01*
X0020497Y0066684D02*
X0058462Y0066684D01*
X0058462Y0065287D02*
X0061079Y0062669D01*
X0064781Y0062669D01*
X0067399Y0065287D01*
X0067399Y0068989D01*
X0064781Y0071606D01*
X0061079Y0071606D01*
X0058462Y0068989D01*
X0058462Y0065287D01*
X0058463Y0065285D02*
X0020597Y0065285D01*
X0020697Y0063887D02*
X0059862Y0063887D01*
X0058462Y0068082D02*
X0030389Y0068082D01*
X0032532Y0069481D02*
X0058954Y0069481D01*
X0060352Y0070879D02*
X0033337Y0070879D01*
X0033598Y0072278D02*
X0276744Y0072278D01*
X0275604Y0073676D02*
X0033437Y0073676D01*
X0019782Y0077872D02*
X0348975Y0077872D01*
X0349072Y0079270D02*
X0019682Y0079270D01*
X0019582Y0080669D02*
X0349157Y0080669D01*
X0349242Y0082067D02*
X0019507Y0082067D01*
X0019437Y0083466D02*
X0329633Y0083466D01*
X0329633Y0084864D02*
X0019367Y0084864D01*
X0020806Y0062488D02*
X0347542Y0062488D01*
X0347415Y0061090D02*
X0020923Y0061090D01*
X0021039Y0059691D02*
X0347300Y0059691D01*
X0347184Y0058293D02*
X0021158Y0058293D01*
X0021285Y0056894D02*
X0347065Y0056894D01*
X0346958Y0055496D02*
X0057879Y0055496D01*
X0065998Y0063887D02*
X0070034Y0063887D01*
X0071218Y0062703D02*
X0068600Y0065321D01*
X0068600Y0069023D01*
X0071218Y0071640D01*
X0074920Y0071640D01*
X0077537Y0069023D01*
X0077537Y0065321D01*
X0074920Y0062703D01*
X0071218Y0062703D01*
X0068636Y0065285D02*
X0067397Y0065285D01*
X0067399Y0066684D02*
X0068600Y0066684D01*
X0068600Y0068082D02*
X0067399Y0068082D01*
X0066907Y0069481D02*
X0069058Y0069481D01*
X0070457Y0070879D02*
X0065508Y0070879D01*
X0075681Y0070879D02*
X0348320Y0070879D01*
X0348188Y0069481D02*
X0077079Y0069481D01*
X0077537Y0068082D02*
X0348057Y0068082D01*
X0347926Y0066684D02*
X0077537Y0066684D01*
X0077502Y0065285D02*
X0347795Y0065285D01*
X0347669Y0063887D02*
X0076103Y0063887D01*
X0040693Y0114233D02*
X0228148Y0114233D01*
X0226749Y0115632D02*
X0041609Y0115632D01*
X0041950Y0117030D02*
X0225351Y0117030D01*
X0223952Y0118429D02*
X0043349Y0118429D01*
X0044679Y0119827D02*
X0222554Y0119827D01*
X0221155Y0121226D02*
X0044679Y0121226D01*
X0044679Y0122624D02*
X0219757Y0122624D01*
X0190024Y0135211D02*
X0101292Y0135211D01*
X0099894Y0136609D02*
X0190024Y0136609D01*
X0210279Y0157587D02*
X0214733Y0157587D01*
X0235994Y0192550D02*
X0293219Y0192550D01*
X0298518Y0193948D02*
X0243949Y0193948D01*
X0240458Y0193948D02*
X0237921Y0193948D01*
X0238322Y0195347D02*
X0239417Y0195347D01*
X0239201Y0196745D02*
X0238268Y0196745D01*
X0293952Y0255483D02*
X0138086Y0255483D01*
X0136687Y0254084D02*
X0141030Y0254084D01*
X0139933Y0252987D02*
X0139933Y0252987D01*
X0139632Y0252686D02*
X0135289Y0252686D01*
X0133890Y0251287D02*
X0138233Y0251287D01*
X0136835Y0249889D02*
X0132492Y0249889D01*
X0131093Y0248490D02*
X0135436Y0248490D01*
X0134038Y0247092D02*
X0130833Y0247092D01*
X0130833Y0245693D02*
X0131722Y0245693D01*
X0144466Y0272265D02*
X0160084Y0272265D01*
X0158750Y0273663D02*
X0145717Y0273663D01*
X0146020Y0275062D02*
X0158316Y0275062D01*
X0157881Y0276460D02*
X0145663Y0276460D01*
X0145255Y0277859D02*
X0157446Y0277859D01*
X0157012Y0279257D02*
X0144847Y0279257D01*
X0144439Y0280656D02*
X0156577Y0280656D01*
X0156143Y0282054D02*
X0144031Y0282054D01*
X0143623Y0283453D02*
X0155708Y0283453D01*
X0155273Y0284851D02*
X0143216Y0284851D01*
X0142808Y0286250D02*
X0154839Y0286250D01*
X0154404Y0287648D02*
X0142400Y0287648D01*
X0141992Y0289047D02*
X0153970Y0289047D01*
X0153535Y0290445D02*
X0141584Y0290445D01*
X0141176Y0291844D02*
X0153100Y0291844D01*
X0152666Y0293242D02*
X0140768Y0293242D01*
X0140360Y0294641D02*
X0152231Y0294641D01*
X0151797Y0296039D02*
X0139952Y0296039D01*
X0139545Y0297438D02*
X0151362Y0297438D01*
X0150927Y0298837D02*
X0139137Y0298837D01*
X0138729Y0300235D02*
X0150493Y0300235D01*
X0150058Y0301634D02*
X0138321Y0301634D01*
X0137913Y0303032D02*
X0149624Y0303032D01*
X0149189Y0304431D02*
X0137505Y0304431D01*
X0137097Y0305829D02*
X0148754Y0305829D01*
X0148320Y0307228D02*
X0136689Y0307228D01*
X0136281Y0308626D02*
X0147885Y0308626D01*
X0147451Y0310025D02*
X0135873Y0310025D01*
X0135466Y0311423D02*
X0147016Y0311423D01*
X0146581Y0312822D02*
X0135058Y0312822D01*
X0134650Y0314220D02*
X0146147Y0314220D01*
X0145712Y0315619D02*
X0134242Y0315619D01*
X0133834Y0317017D02*
X0145278Y0317017D01*
X0144843Y0318416D02*
X0133426Y0318416D01*
X0133018Y0319814D02*
X0144408Y0319814D01*
X0143974Y0321213D02*
X0132610Y0321213D01*
X0132202Y0322611D02*
X0143539Y0322611D01*
X0143105Y0324010D02*
X0131794Y0324010D01*
X0131387Y0325408D02*
X0142670Y0325408D01*
X0142235Y0326807D02*
X0130979Y0326807D01*
X0130571Y0328205D02*
X0141801Y0328205D01*
X0141366Y0329604D02*
X0130163Y0329604D01*
X0129755Y0331002D02*
X0140932Y0331002D01*
X0140497Y0332401D02*
X0129347Y0332401D01*
X0128939Y0333799D02*
X0140062Y0333799D01*
X0139628Y0335198D02*
X0128531Y0335198D01*
X0128123Y0336596D02*
X0139193Y0336596D01*
X0138759Y0337995D02*
X0127715Y0337995D01*
X0127308Y0339393D02*
X0138324Y0339393D01*
X0137889Y0340792D02*
X0126900Y0340792D01*
X0126492Y0342190D02*
X0137455Y0342190D01*
X0137020Y0343589D02*
X0126084Y0343589D01*
X0125676Y0344987D02*
X0136586Y0344987D01*
X0136151Y0346386D02*
X0125268Y0346386D01*
X0124860Y0347784D02*
X0135716Y0347784D01*
X0135282Y0349183D02*
X0124452Y0349183D01*
X0124044Y0350581D02*
X0134847Y0350581D01*
X0134413Y0351980D02*
X0123636Y0351980D01*
X0123229Y0353378D02*
X0133978Y0353378D01*
X0133543Y0354777D02*
X0122821Y0354777D01*
X0122413Y0356175D02*
X0133109Y0356175D01*
X0132674Y0357574D02*
X0122005Y0357574D01*
X0121597Y0358972D02*
X0132240Y0358972D01*
X0131805Y0360371D02*
X0121189Y0360371D01*
X0120781Y0361770D02*
X0131370Y0361770D01*
X0130936Y0363168D02*
X0120373Y0363168D01*
X0119965Y0364567D02*
X0130501Y0364567D01*
X0130067Y0365965D02*
X0119557Y0365965D01*
X0119150Y0367364D02*
X0129632Y0367364D01*
X0129198Y0368762D02*
X0118742Y0368762D01*
X0120990Y0370161D02*
X0128763Y0370161D01*
X0128328Y0371559D02*
X0124422Y0371559D01*
X0127855Y0372958D02*
X0127873Y0372958D01*
X0224028Y0277859D02*
X0236403Y0277859D01*
X0236752Y0279257D02*
X0224396Y0279257D01*
X0224764Y0280656D02*
X0237100Y0280656D01*
X0237448Y0282054D02*
X0225133Y0282054D01*
X0225501Y0283453D02*
X0237796Y0283453D01*
X0238145Y0284851D02*
X0225869Y0284851D01*
X0226238Y0286250D02*
X0238493Y0286250D01*
X0238841Y0287648D02*
X0226606Y0287648D01*
X0226974Y0289047D02*
X0239189Y0289047D01*
X0239538Y0290445D02*
X0227343Y0290445D01*
X0227711Y0291844D02*
X0239886Y0291844D01*
X0240234Y0293242D02*
X0228079Y0293242D01*
X0228447Y0294641D02*
X0240582Y0294641D01*
X0240931Y0296039D02*
X0228816Y0296039D01*
X0229184Y0297438D02*
X0241279Y0297438D01*
X0241627Y0298837D02*
X0229552Y0298837D01*
X0229921Y0300235D02*
X0241975Y0300235D01*
X0242324Y0301634D02*
X0230289Y0301634D01*
X0230657Y0303032D02*
X0242672Y0303032D01*
X0243020Y0304431D02*
X0231026Y0304431D01*
X0231394Y0305829D02*
X0243368Y0305829D01*
X0243717Y0307228D02*
X0231762Y0307228D01*
X0232131Y0308626D02*
X0244065Y0308626D01*
X0244413Y0310025D02*
X0232499Y0310025D01*
X0232867Y0311423D02*
X0244761Y0311423D01*
X0245110Y0312822D02*
X0233236Y0312822D01*
X0233604Y0314220D02*
X0245458Y0314220D01*
X0245806Y0315619D02*
X0233972Y0315619D01*
X0234340Y0317017D02*
X0246154Y0317017D01*
X0246503Y0318416D02*
X0234709Y0318416D01*
X0235077Y0319814D02*
X0246851Y0319814D01*
X0247199Y0321213D02*
X0235445Y0321213D01*
X0235814Y0322611D02*
X0247547Y0322611D01*
X0247896Y0324010D02*
X0236182Y0324010D01*
X0236550Y0325408D02*
X0248244Y0325408D01*
X0248592Y0326807D02*
X0236919Y0326807D01*
X0237287Y0328205D02*
X0248940Y0328205D01*
X0249289Y0329604D02*
X0237655Y0329604D01*
X0238024Y0331002D02*
X0249637Y0331002D01*
X0249985Y0332401D02*
X0238392Y0332401D01*
X0238760Y0333799D02*
X0250333Y0333799D01*
X0250682Y0335198D02*
X0239128Y0335198D01*
X0239497Y0336596D02*
X0251030Y0336596D01*
X0251378Y0337995D02*
X0239865Y0337995D01*
X0240233Y0339393D02*
X0251726Y0339393D01*
X0252075Y0340792D02*
X0240602Y0340792D01*
X0240970Y0342190D02*
X0252423Y0342190D01*
X0252771Y0343589D02*
X0241338Y0343589D01*
X0241707Y0344987D02*
X0253119Y0344987D01*
X0253468Y0346386D02*
X0242075Y0346386D01*
X0242443Y0347784D02*
X0253816Y0347784D01*
X0254164Y0349183D02*
X0242812Y0349183D01*
X0243180Y0350581D02*
X0254512Y0350581D01*
X0254861Y0351980D02*
X0243548Y0351980D01*
X0243917Y0353378D02*
X0255209Y0353378D01*
X0255557Y0354777D02*
X0244285Y0354777D01*
X0244653Y0356175D02*
X0255905Y0356175D01*
X0256254Y0357574D02*
X0245021Y0357574D01*
X0245390Y0358972D02*
X0256602Y0358972D01*
X0256950Y0360371D02*
X0245758Y0360371D01*
X0246126Y0361770D02*
X0257298Y0361770D01*
X0257646Y0363168D02*
X0246495Y0363168D01*
X0246863Y0364567D02*
X0257995Y0364567D01*
X0258343Y0365965D02*
X0247231Y0365965D01*
X0247600Y0367364D02*
X0258691Y0367364D01*
X0259039Y0368762D02*
X0247968Y0368762D01*
X0248336Y0370161D02*
X0259388Y0370161D01*
X0259736Y0371559D02*
X0248705Y0371559D01*
X0249073Y0372958D02*
X0260084Y0372958D01*
X0260432Y0374356D02*
X0249441Y0374356D01*
X0249809Y0375755D02*
X0256627Y0375755D01*
X0236055Y0276460D02*
X0223659Y0276460D01*
X0223291Y0275062D02*
X0235671Y0275062D01*
X0235762Y0273663D02*
X0222923Y0273663D01*
X0221569Y0272265D02*
X0236676Y0272265D01*
X0221265Y0265272D02*
X0358056Y0265272D01*
X0358056Y0263874D02*
X0221308Y0263874D01*
X0221308Y0262475D02*
X0358018Y0262475D01*
X0357967Y0261077D02*
X0220748Y0261077D01*
X0220040Y0259678D02*
X0357915Y0259678D01*
X0357863Y0258280D02*
X0218642Y0258280D01*
X0218322Y0257960D02*
X0218322Y0257960D01*
X0220685Y0266671D02*
X0358056Y0266671D01*
X0358056Y0268069D02*
X0219890Y0268069D01*
X0220259Y0267700D02*
X0220259Y0267700D01*
X0218491Y0269468D02*
X0352405Y0269468D01*
X0336648Y0111436D02*
X0335819Y0111436D01*
X0342817Y0091857D02*
X0349836Y0091857D01*
X0349750Y0090458D02*
X0343051Y0090458D01*
X0342833Y0089060D02*
X0349665Y0089060D01*
X0349581Y0087661D02*
X0343051Y0087661D01*
X0342856Y0086263D02*
X0349496Y0086263D01*
X0349411Y0084864D02*
X0342833Y0084864D01*
X0342833Y0083466D02*
X0349326Y0083466D01*
X0348844Y0076473D02*
X0317670Y0076473D01*
X0319094Y0075075D02*
X0348713Y0075075D01*
X0348582Y0073676D02*
X0319400Y0073676D01*
X0317919Y0072278D02*
X0348451Y0072278D01*
X0337652Y0054097D02*
X0125522Y0054097D01*
X0146066Y0165978D02*
X0147089Y0165978D01*
X0147089Y0167376D02*
X0144668Y0167376D01*
X0143269Y0168775D02*
X0147089Y0168775D01*
X0147089Y0170173D02*
X0141871Y0170173D01*
X0140472Y0171572D02*
X0147089Y0171572D01*
X0147089Y0172970D02*
X0139074Y0172970D01*
X0137675Y0174369D02*
X0147089Y0174369D01*
X0147089Y0175768D02*
X0136277Y0175768D01*
X0134878Y0177166D02*
X0147089Y0177166D01*
X0147089Y0178565D02*
X0133480Y0178565D01*
X0132081Y0179963D02*
X0147089Y0179963D01*
X0147089Y0181362D02*
X0130683Y0181362D01*
X0129284Y0182760D02*
X0139763Y0182760D01*
X0143737Y0182760D02*
X0147089Y0182760D01*
X0147089Y0184159D02*
X0144637Y0184159D01*
X0144739Y0185557D02*
X0147089Y0185557D01*
X0147089Y0186956D02*
X0144021Y0186956D01*
X0147089Y0188354D02*
X0132887Y0188354D01*
X0131489Y0189753D02*
X0147089Y0189753D01*
X0139478Y0186956D02*
X0134286Y0186956D01*
X0131709Y0184159D02*
X0127886Y0184159D01*
X0126487Y0185557D02*
X0130310Y0185557D01*
X0128912Y0186956D02*
X0125088Y0186956D01*
X0123690Y0188354D02*
X0127513Y0188354D01*
X0126115Y0189753D02*
X0122291Y0189753D01*
X0120893Y0191151D02*
X0124716Y0191151D01*
X0123318Y0192550D02*
X0119494Y0192550D01*
X0118096Y0193948D02*
X0121919Y0193948D01*
X0118981Y0195347D02*
X0116697Y0195347D01*
X0117925Y0196745D02*
X0115299Y0196745D01*
X0113900Y0198144D02*
X0117713Y0198144D01*
X0118166Y0199542D02*
X0112502Y0199542D01*
X0288646Y0076473D02*
X0291148Y0076473D01*
X0290071Y0075075D02*
X0290064Y0075075D01*
X0291208Y0072278D02*
X0288876Y0072278D01*
X0303352Y0072278D02*
X0305775Y0072278D01*
X0304638Y0075075D02*
X0304527Y0075075D01*
X0305715Y0076473D02*
X0303103Y0076473D01*
D205*
X0304052Y0101744D02*
X0295296Y0110500D01*
X0256033Y0110500D01*
X0224044Y0131400D02*
X0222044Y0129400D01*
X0104416Y0129400D01*
X0080702Y0153114D01*
X0080702Y0197853D01*
X0055527Y0222300D02*
X0056377Y0223150D01*
X0055527Y0222300D02*
X0038012Y0222300D01*
X0026010Y0236283D02*
X0026010Y0237823D01*
X0028892Y0240704D01*
X0059754Y0240704D01*
X0067769Y0248719D01*
X0065080Y0248293D02*
X0059091Y0242304D01*
X0028229Y0242304D01*
X0023322Y0237397D01*
X0023322Y0235027D01*
X0022622Y0234328D01*
X0025234Y0245001D02*
X0017401Y0245001D01*
X0025234Y0245001D02*
X0028633Y0248400D01*
X0031733Y0245300D01*
X0056587Y0245300D01*
X0065080Y0248293D02*
X0065080Y0249833D01*
X0067769Y0252522D01*
X0067769Y0253719D01*
X0080347Y0248008D02*
X0080347Y0232813D01*
X0039309Y0250127D02*
X0033381Y0250127D01*
X0032725Y0250783D01*
X0120702Y0197853D02*
X0133555Y0185000D01*
X0141750Y0185000D01*
X0133733Y0193500D02*
X0128933Y0198300D01*
X0128933Y0228700D01*
X0149450Y0228700D01*
X0157559Y0220591D01*
X0135933Y0241500D02*
X0135933Y0244037D01*
X0142496Y0250600D01*
X0162633Y0250600D01*
X0259833Y0153400D01*
X0300333Y0153400D01*
X0332965Y0120769D01*
X0332965Y0104893D01*
X0333084Y0104774D01*
X0333084Y0089026D01*
X0339383Y0089026D02*
X0339383Y0092450D01*
X0339233Y0092600D01*
X0339383Y0089026D02*
X0341009Y0087400D01*
X0344933Y0087400D01*
X0339383Y0089026D02*
X0339383Y0079550D01*
X0332433Y0072600D01*
X0339133Y0100000D02*
X0339383Y0100250D01*
X0339383Y0104774D01*
X0340809Y0106200D01*
X0344033Y0106200D01*
X0339383Y0105702D02*
X0339383Y0104774D01*
X0339383Y0111850D01*
X0337133Y0119000D02*
X0301133Y0155000D01*
X0260496Y0155000D01*
X0163296Y0252200D01*
X0141833Y0252200D01*
X0133035Y0243401D01*
X0133035Y0243001D01*
X0135933Y0241500D02*
X0133333Y0238900D01*
X0128933Y0249017D02*
X0128933Y0228700D01*
X0125735Y0224010D02*
X0126244Y0223500D01*
X0125735Y0224010D02*
X0125735Y0250301D01*
X0128933Y0249017D02*
X0138635Y0258719D01*
X0235333Y0195511D02*
X0235455Y0195511D01*
X0236368Y0196423D01*
X0236368Y0202003D01*
X0237943Y0203578D01*
X0240171Y0203578D01*
X0240460Y0203289D01*
X0243233Y0203289D01*
X0239057Y0200889D02*
X0239057Y0199577D01*
X0242203Y0196430D01*
X0285430Y0176152D02*
X0287685Y0176152D01*
X0287733Y0176200D01*
X0339810Y0164521D02*
X0341425Y0166136D01*
X0341425Y0188895D01*
X0055659Y0144229D02*
X0047559Y0144229D01*
X0042779Y0146085D02*
X0042779Y0120546D01*
X0038733Y0116500D01*
X0036197Y0128624D02*
X0026434Y0138387D01*
X0026434Y0150623D01*
X0034324Y0095898D02*
X0040233Y0089990D01*
X0046526Y0089990D01*
D206*
X0089261Y0141400D02*
X0089261Y0141727D01*
X0089661Y0141327D01*
D207*
X0103588Y0127400D01*
X0218233Y0127400D01*
X0229033Y0116600D01*
X0229033Y0146539D01*
X0224808Y0150765D01*
X0215282Y0160291D01*
X0208996Y0160291D01*
X0207961Y0161325D01*
X0195070Y0161325D01*
X0195070Y0164475D02*
X0202108Y0164475D01*
X0203988Y0166355D01*
X0203988Y0170372D01*
X0229033Y0116600D02*
X0242633Y0103000D01*
X0089261Y0141727D02*
X0060833Y0170154D01*
X0043772Y0170154D01*
X0043351Y0170575D01*
X0043351Y0169734D01*
X0043772Y0170154D01*
X0043351Y0169734D02*
X0034839Y0161221D01*
X0043351Y0170575D02*
X0043351Y0177905D01*
X0060833Y0170154D02*
X0060833Y0188854D01*
X0060833Y0203309D01*
X0062527Y0205003D01*
X0062527Y0266500D02*
X0064827Y0268800D01*
X0133554Y0268800D01*
X0138635Y0263719D01*
M02*
