G75*
%MOIN*%
%OFA0B0*%
%FSLAX25Y25*%
%IPPOS*%
%LPD*%
%AMOC8*
5,1,8,0,0,1.08239X$1,22.5*
%
%ADD10C,0.00600*%
%ADD11C,0.01200*%
%ADD12C,0.00591*%
%ADD13C,0.00500*%
%ADD14C,0.00900*%
%ADD15C,0.01700*%
%ADD16C,0.00800*%
%ADD17C,0.00000*%
%ADD18C,0.01000*%
%ADD19C,0.01600*%
D10*
X0018536Y0053992D02*
X0059875Y0052417D01*
X0116174Y0051236D01*
X0168930Y0050449D01*
X0239009Y0050449D01*
X0315781Y0050843D01*
X0349639Y0051236D01*
X0350033Y0056354D01*
X0350426Y0061079D01*
X0350820Y0065409D01*
X0352001Y0078008D01*
X0352788Y0091000D01*
X0353576Y0103598D01*
X0353970Y0112654D01*
X0354363Y0118953D01*
X0354757Y0127220D01*
X0355151Y0132732D01*
X0355544Y0138638D01*
X0355938Y0148480D01*
X0356725Y0163835D01*
X0357119Y0170528D01*
X0357907Y0187063D01*
X0358300Y0192575D01*
X0358694Y0202024D01*
X0359088Y0211079D01*
X0359481Y0221709D01*
X0360269Y0242181D01*
X0361056Y0263441D01*
X0361056Y0272102D01*
X0342552Y0272890D01*
X0302395Y0273677D01*
X0279212Y0273741D01*
X0238661Y0274528D01*
X0242647Y0236357D02*
X0213907Y0238325D01*
X0199733Y0239113D01*
X0186348Y0239506D01*
X0175623Y0239819D01*
X0150426Y0240213D01*
X0134285Y0239819D01*
X0107513Y0239425D01*
X0087434Y0238638D01*
X0072867Y0238244D01*
X0066174Y0237850D01*
X0060662Y0237457D01*
X0053970Y0237063D01*
X0049245Y0236669D01*
X0046883Y0236276D01*
X0045702Y0235488D01*
X0045308Y0234701D01*
X0045308Y0212260D01*
X0044914Y0192181D01*
X0044914Y0178008D01*
X0045308Y0159504D01*
X0046096Y0145331D01*
X0046489Y0135882D01*
X0046883Y0128795D01*
X0047277Y0122496D01*
X0048064Y0091000D01*
X0048458Y0089031D01*
X0049639Y0087063D01*
X0050426Y0086669D01*
X0051607Y0086276D01*
X0053182Y0085882D01*
X0055938Y0085488D01*
X0058300Y0085094D01*
X0061450Y0084701D01*
X0064993Y0084307D01*
X0067749Y0083913D01*
X0075623Y0083126D01*
X0087828Y0081945D01*
X0091765Y0081551D01*
X0096883Y0081157D01*
X0102395Y0080764D01*
X0109088Y0080370D01*
X0117355Y0079976D01*
X0127198Y0079583D01*
X0145308Y0079189D01*
X0174442Y0079189D01*
X0186253Y0079583D01*
X0193733Y0079976D01*
X0200820Y0080370D01*
X0207119Y0080764D01*
X0213025Y0081157D01*
X0218536Y0081551D01*
X0223655Y0081945D01*
X0235072Y0083126D01*
X0241765Y0083913D01*
X0243340Y0084307D01*
X0244127Y0084701D01*
X0244521Y0085488D01*
X0244914Y0087063D01*
X0245308Y0096512D01*
X0245702Y0105567D01*
X0246883Y0128402D01*
X0247670Y0149268D01*
X0248064Y0171315D01*
X0250127Y0224546D01*
X0250127Y0232813D01*
X0249733Y0233994D01*
X0248946Y0234782D01*
X0247371Y0235569D01*
X0245796Y0235963D01*
X0242647Y0236357D01*
X0203968Y0187822D02*
X0203246Y0187822D01*
X0203246Y0185222D01*
X0203246Y0186378D02*
X0203968Y0186378D01*
X0204113Y0186378D02*
X0204691Y0185222D01*
X0203968Y0186378D02*
X0204021Y0186380D01*
X0204073Y0186386D01*
X0204125Y0186395D01*
X0204176Y0186409D01*
X0204226Y0186426D01*
X0204274Y0186446D01*
X0204321Y0186470D01*
X0204366Y0186498D01*
X0204409Y0186529D01*
X0204450Y0186562D01*
X0204488Y0186599D01*
X0204523Y0186638D01*
X0204555Y0186680D01*
X0204584Y0186724D01*
X0204610Y0186770D01*
X0204632Y0186818D01*
X0204651Y0186867D01*
X0204667Y0186917D01*
X0204678Y0186969D01*
X0204686Y0187021D01*
X0204690Y0187074D01*
X0204690Y0187126D01*
X0204686Y0187179D01*
X0204678Y0187231D01*
X0204667Y0187283D01*
X0204651Y0187333D01*
X0204632Y0187382D01*
X0204610Y0187430D01*
X0204584Y0187476D01*
X0204555Y0187520D01*
X0204523Y0187562D01*
X0204488Y0187601D01*
X0204450Y0187638D01*
X0204409Y0187671D01*
X0204366Y0187702D01*
X0204321Y0187730D01*
X0204274Y0187754D01*
X0204226Y0187774D01*
X0204176Y0187791D01*
X0204125Y0187805D01*
X0204073Y0187814D01*
X0204021Y0187820D01*
X0203968Y0187822D01*
X0201828Y0187822D02*
X0200095Y0185222D01*
X0201828Y0185222D02*
X0200095Y0187822D01*
X0200095Y0181523D02*
X0201828Y0178923D01*
X0203225Y0178923D02*
X0204380Y0178923D01*
X0203225Y0178923D02*
X0203225Y0181523D01*
X0201828Y0181523D02*
X0200095Y0178923D01*
X0200673Y0175224D02*
X0201539Y0175224D01*
X0200673Y0175224D02*
X0200625Y0175222D01*
X0200578Y0175216D01*
X0200531Y0175206D01*
X0200485Y0175193D01*
X0200441Y0175175D01*
X0200398Y0175154D01*
X0200357Y0175130D01*
X0200318Y0175102D01*
X0200282Y0175071D01*
X0200248Y0175037D01*
X0200217Y0175001D01*
X0200189Y0174962D01*
X0200165Y0174921D01*
X0200144Y0174878D01*
X0200126Y0174834D01*
X0200113Y0174788D01*
X0200103Y0174741D01*
X0200097Y0174694D01*
X0200095Y0174646D01*
X0200095Y0173201D01*
X0200097Y0173156D01*
X0200102Y0173111D01*
X0200111Y0173066D01*
X0200123Y0173022D01*
X0200139Y0172980D01*
X0200158Y0172939D01*
X0200180Y0172899D01*
X0200205Y0172861D01*
X0200233Y0172826D01*
X0200264Y0172792D01*
X0200298Y0172761D01*
X0200333Y0172733D01*
X0200371Y0172708D01*
X0200411Y0172686D01*
X0200452Y0172667D01*
X0200494Y0172651D01*
X0200538Y0172639D01*
X0200583Y0172630D01*
X0200628Y0172625D01*
X0200673Y0172623D01*
X0200673Y0172624D02*
X0201539Y0172624D01*
X0201539Y0174068D01*
X0201106Y0174068D01*
X0203167Y0175224D02*
X0204611Y0172624D01*
X0204611Y0175224D01*
X0203167Y0175224D02*
X0203167Y0172624D01*
X0206239Y0172624D02*
X0206239Y0175224D01*
X0206961Y0175224D01*
X0206961Y0175223D02*
X0207013Y0175221D01*
X0207064Y0175216D01*
X0207114Y0175207D01*
X0207164Y0175194D01*
X0207213Y0175177D01*
X0207261Y0175158D01*
X0207307Y0175135D01*
X0207351Y0175108D01*
X0207394Y0175079D01*
X0207434Y0175047D01*
X0207472Y0175012D01*
X0207507Y0174974D01*
X0207539Y0174934D01*
X0207568Y0174891D01*
X0207595Y0174847D01*
X0207618Y0174801D01*
X0207637Y0174753D01*
X0207654Y0174704D01*
X0207667Y0174654D01*
X0207676Y0174604D01*
X0207681Y0174553D01*
X0207683Y0174501D01*
X0207683Y0173346D01*
X0207681Y0173294D01*
X0207676Y0173243D01*
X0207667Y0173193D01*
X0207654Y0173143D01*
X0207637Y0173094D01*
X0207618Y0173046D01*
X0207595Y0173000D01*
X0207568Y0172956D01*
X0207539Y0172913D01*
X0207507Y0172873D01*
X0207472Y0172835D01*
X0207434Y0172800D01*
X0207394Y0172768D01*
X0207351Y0172739D01*
X0207307Y0172712D01*
X0207261Y0172689D01*
X0207213Y0172670D01*
X0207164Y0172653D01*
X0207114Y0172640D01*
X0207064Y0172631D01*
X0207013Y0172626D01*
X0206961Y0172624D01*
X0206239Y0172624D01*
X0206239Y0168924D02*
X0206961Y0168924D01*
X0207013Y0168922D01*
X0207064Y0168917D01*
X0207114Y0168908D01*
X0207164Y0168895D01*
X0207213Y0168878D01*
X0207261Y0168859D01*
X0207307Y0168836D01*
X0207351Y0168809D01*
X0207394Y0168780D01*
X0207434Y0168748D01*
X0207472Y0168713D01*
X0207507Y0168675D01*
X0207539Y0168635D01*
X0207568Y0168592D01*
X0207595Y0168548D01*
X0207618Y0168502D01*
X0207637Y0168454D01*
X0207654Y0168405D01*
X0207667Y0168355D01*
X0207676Y0168305D01*
X0207681Y0168254D01*
X0207683Y0168202D01*
X0207683Y0167047D01*
X0207681Y0166995D01*
X0207676Y0166944D01*
X0207667Y0166894D01*
X0207654Y0166844D01*
X0207637Y0166795D01*
X0207618Y0166747D01*
X0207595Y0166701D01*
X0207568Y0166657D01*
X0207539Y0166614D01*
X0207507Y0166574D01*
X0207472Y0166536D01*
X0207434Y0166501D01*
X0207394Y0166469D01*
X0207351Y0166440D01*
X0207307Y0166413D01*
X0207261Y0166390D01*
X0207213Y0166371D01*
X0207164Y0166354D01*
X0207114Y0166341D01*
X0207064Y0166332D01*
X0207013Y0166327D01*
X0206961Y0166325D01*
X0206961Y0166324D02*
X0206239Y0166324D01*
X0206239Y0168924D01*
X0204611Y0168924D02*
X0204611Y0166324D01*
X0203167Y0168924D01*
X0203167Y0166324D01*
X0201539Y0166324D02*
X0201539Y0167769D01*
X0201106Y0167769D01*
X0200095Y0168347D02*
X0200097Y0168395D01*
X0200103Y0168442D01*
X0200113Y0168489D01*
X0200126Y0168535D01*
X0200144Y0168579D01*
X0200165Y0168622D01*
X0200189Y0168663D01*
X0200217Y0168702D01*
X0200248Y0168738D01*
X0200282Y0168772D01*
X0200318Y0168803D01*
X0200357Y0168831D01*
X0200398Y0168855D01*
X0200441Y0168876D01*
X0200485Y0168894D01*
X0200531Y0168907D01*
X0200578Y0168917D01*
X0200625Y0168923D01*
X0200673Y0168925D01*
X0200673Y0168924D02*
X0201539Y0168924D01*
X0200095Y0168347D02*
X0200095Y0166902D01*
X0200097Y0166857D01*
X0200102Y0166812D01*
X0200111Y0166767D01*
X0200123Y0166723D01*
X0200139Y0166681D01*
X0200158Y0166640D01*
X0200180Y0166600D01*
X0200205Y0166562D01*
X0200233Y0166527D01*
X0200264Y0166493D01*
X0200298Y0166462D01*
X0200333Y0166434D01*
X0200371Y0166409D01*
X0200411Y0166387D01*
X0200452Y0166368D01*
X0200494Y0166352D01*
X0200538Y0166340D01*
X0200583Y0166331D01*
X0200628Y0166326D01*
X0200673Y0166324D01*
X0201539Y0166324D01*
X0201828Y0162625D02*
X0200961Y0160025D01*
X0200095Y0162625D01*
X0203105Y0162047D02*
X0203105Y0160603D01*
X0203107Y0160558D01*
X0203112Y0160513D01*
X0203121Y0160468D01*
X0203133Y0160424D01*
X0203149Y0160382D01*
X0203168Y0160341D01*
X0203190Y0160301D01*
X0203215Y0160263D01*
X0203243Y0160228D01*
X0203274Y0160194D01*
X0203308Y0160163D01*
X0203343Y0160135D01*
X0203381Y0160110D01*
X0203421Y0160088D01*
X0203462Y0160069D01*
X0203504Y0160053D01*
X0203548Y0160041D01*
X0203593Y0160032D01*
X0203638Y0160027D01*
X0203683Y0160025D01*
X0204261Y0160025D01*
X0205505Y0160603D02*
X0205505Y0162047D01*
X0205507Y0162095D01*
X0205513Y0162142D01*
X0205523Y0162189D01*
X0205536Y0162235D01*
X0205554Y0162279D01*
X0205575Y0162322D01*
X0205599Y0162363D01*
X0205627Y0162402D01*
X0205658Y0162438D01*
X0205692Y0162472D01*
X0205728Y0162503D01*
X0205767Y0162531D01*
X0205808Y0162555D01*
X0205851Y0162576D01*
X0205895Y0162594D01*
X0205941Y0162607D01*
X0205988Y0162617D01*
X0206035Y0162623D01*
X0206083Y0162625D01*
X0206661Y0162625D01*
X0205505Y0160603D02*
X0205507Y0160558D01*
X0205512Y0160513D01*
X0205521Y0160468D01*
X0205533Y0160424D01*
X0205549Y0160382D01*
X0205568Y0160341D01*
X0205590Y0160301D01*
X0205615Y0160263D01*
X0205643Y0160228D01*
X0205674Y0160194D01*
X0205708Y0160163D01*
X0205743Y0160135D01*
X0205781Y0160110D01*
X0205821Y0160088D01*
X0205862Y0160069D01*
X0205904Y0160053D01*
X0205948Y0160041D01*
X0205993Y0160032D01*
X0206038Y0160027D01*
X0206083Y0160025D01*
X0206661Y0160025D01*
X0204261Y0162625D02*
X0203683Y0162625D01*
X0203635Y0162623D01*
X0203588Y0162617D01*
X0203541Y0162607D01*
X0203495Y0162594D01*
X0203451Y0162576D01*
X0203408Y0162555D01*
X0203367Y0162531D01*
X0203328Y0162503D01*
X0203292Y0162472D01*
X0203258Y0162438D01*
X0203227Y0162402D01*
X0203199Y0162363D01*
X0203175Y0162322D01*
X0203154Y0162279D01*
X0203136Y0162235D01*
X0203123Y0162189D01*
X0203113Y0162142D01*
X0203107Y0162095D01*
X0203105Y0162047D01*
X0203265Y0156326D02*
X0203842Y0156326D01*
X0203553Y0156326D02*
X0203553Y0153726D01*
X0203265Y0153726D02*
X0203842Y0153726D01*
X0201828Y0153726D02*
X0201828Y0156326D01*
X0200961Y0154882D01*
X0200095Y0156326D01*
X0200095Y0153726D01*
X0199795Y0151227D02*
X0204157Y0151227D01*
X0202485Y0149449D02*
X0202487Y0149402D01*
X0202492Y0149356D01*
X0202502Y0149310D01*
X0202515Y0149265D01*
X0202531Y0149221D01*
X0202551Y0149178D01*
X0202574Y0149138D01*
X0202601Y0149099D01*
X0202630Y0149062D01*
X0202662Y0149028D01*
X0202697Y0148997D01*
X0202735Y0148969D01*
X0202774Y0148943D01*
X0203568Y0148510D01*
X0203279Y0147426D02*
X0203210Y0147428D01*
X0203142Y0147434D01*
X0203073Y0147443D01*
X0203006Y0147457D01*
X0202939Y0147474D01*
X0202874Y0147495D01*
X0202809Y0147520D01*
X0202747Y0147548D01*
X0202686Y0147580D01*
X0202626Y0147615D01*
X0202569Y0147654D01*
X0202514Y0147695D01*
X0202462Y0147740D01*
X0202412Y0147787D01*
X0203568Y0148511D02*
X0203607Y0148485D01*
X0203645Y0148457D01*
X0203680Y0148426D01*
X0203712Y0148392D01*
X0203741Y0148355D01*
X0203768Y0148316D01*
X0203791Y0148276D01*
X0203811Y0148233D01*
X0203827Y0148189D01*
X0203840Y0148144D01*
X0203850Y0148098D01*
X0203855Y0148052D01*
X0203857Y0148005D01*
X0203855Y0147960D01*
X0203850Y0147915D01*
X0203841Y0147870D01*
X0203829Y0147826D01*
X0203813Y0147784D01*
X0203794Y0147743D01*
X0203772Y0147703D01*
X0203747Y0147665D01*
X0203719Y0147630D01*
X0203688Y0147596D01*
X0203654Y0147565D01*
X0203619Y0147537D01*
X0203581Y0147512D01*
X0203541Y0147490D01*
X0203500Y0147471D01*
X0203458Y0147455D01*
X0203414Y0147443D01*
X0203369Y0147434D01*
X0203324Y0147429D01*
X0203279Y0147427D01*
X0203713Y0149809D02*
X0203661Y0149846D01*
X0203607Y0149879D01*
X0203552Y0149910D01*
X0203494Y0149936D01*
X0203435Y0149960D01*
X0203375Y0149980D01*
X0203314Y0149996D01*
X0203252Y0150009D01*
X0203189Y0150019D01*
X0203126Y0150024D01*
X0203063Y0150026D01*
X0203063Y0150027D02*
X0203018Y0150025D01*
X0202973Y0150020D01*
X0202928Y0150011D01*
X0202884Y0149999D01*
X0202842Y0149983D01*
X0202801Y0149964D01*
X0202761Y0149942D01*
X0202723Y0149917D01*
X0202688Y0149889D01*
X0202654Y0149858D01*
X0202623Y0149824D01*
X0202595Y0149789D01*
X0202570Y0149751D01*
X0202548Y0149711D01*
X0202529Y0149670D01*
X0202513Y0149628D01*
X0202501Y0149584D01*
X0202492Y0149539D01*
X0202487Y0149494D01*
X0202485Y0149449D01*
X0201250Y0150027D02*
X0200673Y0150027D01*
X0200625Y0150025D01*
X0200578Y0150019D01*
X0200531Y0150009D01*
X0200485Y0149996D01*
X0200441Y0149978D01*
X0200398Y0149957D01*
X0200357Y0149933D01*
X0200318Y0149905D01*
X0200282Y0149874D01*
X0200248Y0149840D01*
X0200217Y0149804D01*
X0200189Y0149765D01*
X0200165Y0149724D01*
X0200144Y0149681D01*
X0200126Y0149637D01*
X0200113Y0149591D01*
X0200103Y0149544D01*
X0200097Y0149497D01*
X0200095Y0149449D01*
X0200095Y0148005D01*
X0200097Y0147960D01*
X0200102Y0147915D01*
X0200111Y0147870D01*
X0200123Y0147826D01*
X0200139Y0147784D01*
X0200158Y0147743D01*
X0200180Y0147703D01*
X0200205Y0147665D01*
X0200233Y0147630D01*
X0200264Y0147596D01*
X0200298Y0147565D01*
X0200333Y0147537D01*
X0200371Y0147512D01*
X0200411Y0147490D01*
X0200452Y0147471D01*
X0200494Y0147455D01*
X0200538Y0147443D01*
X0200583Y0147434D01*
X0200628Y0147429D01*
X0200673Y0147427D01*
X0201250Y0147427D01*
X0203443Y0143728D02*
X0204020Y0143728D01*
X0203443Y0143728D02*
X0203395Y0143726D01*
X0203348Y0143720D01*
X0203301Y0143710D01*
X0203255Y0143697D01*
X0203211Y0143679D01*
X0203168Y0143658D01*
X0203127Y0143634D01*
X0203088Y0143606D01*
X0203052Y0143575D01*
X0203018Y0143541D01*
X0202987Y0143505D01*
X0202959Y0143466D01*
X0202935Y0143425D01*
X0202914Y0143382D01*
X0202896Y0143338D01*
X0202883Y0143292D01*
X0202873Y0143245D01*
X0202867Y0143198D01*
X0202865Y0143150D01*
X0202865Y0141705D01*
X0202867Y0141660D01*
X0202872Y0141615D01*
X0202881Y0141570D01*
X0202893Y0141526D01*
X0202909Y0141484D01*
X0202928Y0141443D01*
X0202950Y0141403D01*
X0202975Y0141365D01*
X0203003Y0141330D01*
X0203034Y0141296D01*
X0203068Y0141265D01*
X0203103Y0141237D01*
X0203141Y0141212D01*
X0203181Y0141190D01*
X0203222Y0141171D01*
X0203264Y0141155D01*
X0203308Y0141143D01*
X0203353Y0141134D01*
X0203398Y0141129D01*
X0203443Y0141127D01*
X0203443Y0141128D02*
X0204020Y0141128D01*
X0205446Y0141128D02*
X0205446Y0143728D01*
X0206024Y0142716D02*
X0206891Y0141128D01*
X0205446Y0142139D02*
X0206891Y0143728D01*
X0201250Y0142211D02*
X0200456Y0142644D01*
X0200745Y0143727D02*
X0200808Y0143725D01*
X0200871Y0143720D01*
X0200934Y0143710D01*
X0200996Y0143697D01*
X0201057Y0143681D01*
X0201117Y0143661D01*
X0201176Y0143637D01*
X0201234Y0143611D01*
X0201289Y0143580D01*
X0201343Y0143547D01*
X0201395Y0143510D01*
X0200456Y0142644D02*
X0200417Y0142670D01*
X0200379Y0142698D01*
X0200344Y0142729D01*
X0200312Y0142763D01*
X0200283Y0142800D01*
X0200256Y0142839D01*
X0200233Y0142879D01*
X0200213Y0142922D01*
X0200197Y0142966D01*
X0200184Y0143011D01*
X0200174Y0143057D01*
X0200169Y0143103D01*
X0200167Y0143150D01*
X0200169Y0143195D01*
X0200174Y0143240D01*
X0200183Y0143285D01*
X0200195Y0143329D01*
X0200211Y0143371D01*
X0200230Y0143412D01*
X0200252Y0143452D01*
X0200277Y0143490D01*
X0200305Y0143525D01*
X0200336Y0143559D01*
X0200370Y0143590D01*
X0200405Y0143618D01*
X0200443Y0143643D01*
X0200483Y0143665D01*
X0200524Y0143684D01*
X0200566Y0143700D01*
X0200610Y0143712D01*
X0200655Y0143721D01*
X0200700Y0143726D01*
X0200745Y0143728D01*
X0200094Y0141488D02*
X0200144Y0141441D01*
X0200196Y0141396D01*
X0200251Y0141355D01*
X0200308Y0141316D01*
X0200368Y0141281D01*
X0200429Y0141249D01*
X0200491Y0141221D01*
X0200556Y0141196D01*
X0200621Y0141175D01*
X0200688Y0141158D01*
X0200755Y0141144D01*
X0200824Y0141135D01*
X0200892Y0141129D01*
X0200961Y0141127D01*
X0201006Y0141129D01*
X0201051Y0141134D01*
X0201096Y0141143D01*
X0201140Y0141155D01*
X0201182Y0141171D01*
X0201223Y0141190D01*
X0201263Y0141212D01*
X0201301Y0141237D01*
X0201336Y0141265D01*
X0201370Y0141296D01*
X0201401Y0141330D01*
X0201429Y0141365D01*
X0201454Y0141403D01*
X0201476Y0141443D01*
X0201495Y0141484D01*
X0201511Y0141526D01*
X0201523Y0141570D01*
X0201532Y0141615D01*
X0201537Y0141660D01*
X0201539Y0141705D01*
X0201537Y0141752D01*
X0201532Y0141798D01*
X0201522Y0141844D01*
X0201509Y0141889D01*
X0201493Y0141933D01*
X0201473Y0141976D01*
X0201450Y0142016D01*
X0201423Y0142055D01*
X0201394Y0142092D01*
X0201362Y0142126D01*
X0201327Y0142157D01*
X0201289Y0142185D01*
X0201250Y0142211D01*
X0201539Y0137428D02*
X0200673Y0137428D01*
X0200673Y0137429D02*
X0200625Y0137427D01*
X0200578Y0137421D01*
X0200531Y0137411D01*
X0200485Y0137398D01*
X0200441Y0137380D01*
X0200398Y0137359D01*
X0200357Y0137335D01*
X0200318Y0137307D01*
X0200282Y0137276D01*
X0200248Y0137242D01*
X0200217Y0137206D01*
X0200189Y0137167D01*
X0200165Y0137126D01*
X0200144Y0137083D01*
X0200126Y0137039D01*
X0200113Y0136993D01*
X0200103Y0136946D01*
X0200097Y0136899D01*
X0200095Y0136851D01*
X0200095Y0135406D01*
X0200097Y0135361D01*
X0200102Y0135316D01*
X0200111Y0135271D01*
X0200123Y0135227D01*
X0200139Y0135185D01*
X0200158Y0135144D01*
X0200180Y0135104D01*
X0200205Y0135066D01*
X0200233Y0135031D01*
X0200264Y0134997D01*
X0200298Y0134966D01*
X0200333Y0134938D01*
X0200371Y0134913D01*
X0200411Y0134891D01*
X0200452Y0134872D01*
X0200494Y0134856D01*
X0200538Y0134844D01*
X0200583Y0134835D01*
X0200628Y0134830D01*
X0200673Y0134828D01*
X0201539Y0134828D01*
X0201539Y0136273D01*
X0201106Y0136273D01*
X0203167Y0137428D02*
X0204611Y0134828D01*
X0204611Y0137428D01*
X0203167Y0137428D02*
X0203167Y0134828D01*
X0206239Y0134828D02*
X0206239Y0137428D01*
X0206961Y0137428D01*
X0207013Y0137426D01*
X0207064Y0137421D01*
X0207114Y0137412D01*
X0207164Y0137399D01*
X0207213Y0137382D01*
X0207261Y0137363D01*
X0207307Y0137340D01*
X0207351Y0137313D01*
X0207394Y0137284D01*
X0207434Y0137252D01*
X0207472Y0137217D01*
X0207507Y0137179D01*
X0207539Y0137139D01*
X0207568Y0137096D01*
X0207595Y0137052D01*
X0207618Y0137006D01*
X0207637Y0136958D01*
X0207654Y0136909D01*
X0207667Y0136859D01*
X0207676Y0136809D01*
X0207681Y0136758D01*
X0207683Y0136706D01*
X0207683Y0135551D01*
X0207681Y0135499D01*
X0207676Y0135448D01*
X0207667Y0135398D01*
X0207654Y0135348D01*
X0207637Y0135299D01*
X0207618Y0135251D01*
X0207595Y0135205D01*
X0207568Y0135161D01*
X0207539Y0135118D01*
X0207507Y0135078D01*
X0207472Y0135040D01*
X0207434Y0135005D01*
X0207394Y0134973D01*
X0207351Y0134944D01*
X0207307Y0134917D01*
X0207261Y0134894D01*
X0207213Y0134875D01*
X0207164Y0134858D01*
X0207114Y0134845D01*
X0207064Y0134836D01*
X0207013Y0134831D01*
X0206961Y0134829D01*
X0206961Y0134828D02*
X0206239Y0134828D01*
X0190046Y0140578D02*
X0188601Y0140578D01*
X0189324Y0140578D02*
X0189324Y0137978D01*
X0187559Y0137978D02*
X0186403Y0137978D01*
X0186403Y0140578D01*
X0187559Y0140578D01*
X0187270Y0139422D02*
X0186403Y0139422D01*
X0184669Y0139061D02*
X0183875Y0139495D01*
X0184164Y0140578D02*
X0184227Y0140576D01*
X0184290Y0140571D01*
X0184353Y0140561D01*
X0184415Y0140548D01*
X0184476Y0140532D01*
X0184536Y0140512D01*
X0184595Y0140488D01*
X0184653Y0140462D01*
X0184708Y0140431D01*
X0184762Y0140398D01*
X0184814Y0140361D01*
X0183875Y0139494D02*
X0183836Y0139520D01*
X0183798Y0139548D01*
X0183763Y0139579D01*
X0183731Y0139613D01*
X0183702Y0139650D01*
X0183675Y0139689D01*
X0183652Y0139729D01*
X0183632Y0139772D01*
X0183616Y0139816D01*
X0183603Y0139861D01*
X0183593Y0139907D01*
X0183588Y0139953D01*
X0183586Y0140000D01*
X0183588Y0140045D01*
X0183593Y0140090D01*
X0183602Y0140135D01*
X0183614Y0140179D01*
X0183630Y0140221D01*
X0183649Y0140262D01*
X0183671Y0140302D01*
X0183696Y0140340D01*
X0183724Y0140375D01*
X0183755Y0140409D01*
X0183789Y0140440D01*
X0183824Y0140468D01*
X0183862Y0140493D01*
X0183902Y0140515D01*
X0183943Y0140534D01*
X0183985Y0140550D01*
X0184029Y0140562D01*
X0184074Y0140571D01*
X0184119Y0140576D01*
X0184164Y0140578D01*
X0183513Y0138339D02*
X0183563Y0138292D01*
X0183615Y0138247D01*
X0183670Y0138206D01*
X0183727Y0138167D01*
X0183787Y0138132D01*
X0183848Y0138100D01*
X0183910Y0138072D01*
X0183975Y0138047D01*
X0184040Y0138026D01*
X0184107Y0138009D01*
X0184174Y0137995D01*
X0184243Y0137986D01*
X0184311Y0137980D01*
X0184380Y0137978D01*
X0184425Y0137980D01*
X0184470Y0137985D01*
X0184515Y0137994D01*
X0184559Y0138006D01*
X0184601Y0138022D01*
X0184642Y0138041D01*
X0184682Y0138063D01*
X0184720Y0138088D01*
X0184755Y0138116D01*
X0184789Y0138147D01*
X0184820Y0138181D01*
X0184848Y0138216D01*
X0184873Y0138254D01*
X0184895Y0138294D01*
X0184914Y0138335D01*
X0184930Y0138377D01*
X0184942Y0138421D01*
X0184951Y0138466D01*
X0184956Y0138511D01*
X0184958Y0138556D01*
X0184956Y0138603D01*
X0184951Y0138649D01*
X0184941Y0138695D01*
X0184928Y0138740D01*
X0184912Y0138784D01*
X0184892Y0138827D01*
X0184869Y0138867D01*
X0184842Y0138906D01*
X0184813Y0138943D01*
X0184781Y0138977D01*
X0184746Y0139008D01*
X0184708Y0139036D01*
X0184669Y0139062D01*
X0182375Y0137978D02*
X0181219Y0137978D01*
X0181219Y0140578D01*
X0182375Y0140578D01*
X0182086Y0139422D02*
X0181219Y0139422D01*
X0179709Y0137978D02*
X0179131Y0139134D01*
X0178987Y0139134D02*
X0178265Y0139134D01*
X0178987Y0139134D02*
X0179040Y0139136D01*
X0179092Y0139142D01*
X0179144Y0139151D01*
X0179195Y0139165D01*
X0179245Y0139182D01*
X0179293Y0139202D01*
X0179340Y0139226D01*
X0179385Y0139254D01*
X0179428Y0139285D01*
X0179469Y0139318D01*
X0179507Y0139355D01*
X0179542Y0139394D01*
X0179574Y0139436D01*
X0179603Y0139480D01*
X0179629Y0139526D01*
X0179651Y0139574D01*
X0179670Y0139623D01*
X0179686Y0139673D01*
X0179697Y0139725D01*
X0179705Y0139777D01*
X0179709Y0139830D01*
X0179709Y0139882D01*
X0179705Y0139935D01*
X0179697Y0139987D01*
X0179686Y0140039D01*
X0179670Y0140089D01*
X0179651Y0140138D01*
X0179629Y0140186D01*
X0179603Y0140232D01*
X0179574Y0140276D01*
X0179542Y0140318D01*
X0179507Y0140357D01*
X0179469Y0140394D01*
X0179428Y0140427D01*
X0179385Y0140458D01*
X0179340Y0140486D01*
X0179293Y0140510D01*
X0179245Y0140530D01*
X0179195Y0140547D01*
X0179144Y0140561D01*
X0179092Y0140570D01*
X0179040Y0140576D01*
X0178987Y0140578D01*
X0178265Y0140578D01*
X0178265Y0137978D01*
X0177965Y0141778D02*
X0190346Y0141778D01*
X0190046Y0144277D02*
X0189468Y0144277D01*
X0189423Y0144279D01*
X0189378Y0144284D01*
X0189333Y0144293D01*
X0189289Y0144305D01*
X0189247Y0144321D01*
X0189206Y0144340D01*
X0189166Y0144362D01*
X0189128Y0144387D01*
X0189093Y0144415D01*
X0189059Y0144446D01*
X0189028Y0144480D01*
X0189000Y0144515D01*
X0188975Y0144553D01*
X0188953Y0144593D01*
X0188934Y0144634D01*
X0188918Y0144676D01*
X0188906Y0144720D01*
X0188897Y0144765D01*
X0188892Y0144810D01*
X0188890Y0144855D01*
X0188890Y0146299D01*
X0188892Y0146347D01*
X0188898Y0146394D01*
X0188908Y0146441D01*
X0188921Y0146487D01*
X0188939Y0146531D01*
X0188960Y0146574D01*
X0188984Y0146615D01*
X0189012Y0146654D01*
X0189043Y0146690D01*
X0189077Y0146724D01*
X0189113Y0146755D01*
X0189152Y0146783D01*
X0189193Y0146807D01*
X0189236Y0146828D01*
X0189280Y0146846D01*
X0189326Y0146859D01*
X0189373Y0146869D01*
X0189420Y0146875D01*
X0189468Y0146877D01*
X0190046Y0146877D01*
X0187612Y0147166D02*
X0186457Y0143988D01*
X0185069Y0144999D02*
X0185069Y0146155D01*
X0185067Y0146207D01*
X0185062Y0146258D01*
X0185053Y0146308D01*
X0185040Y0146358D01*
X0185023Y0146407D01*
X0185004Y0146455D01*
X0184981Y0146501D01*
X0184954Y0146545D01*
X0184925Y0146588D01*
X0184893Y0146628D01*
X0184858Y0146666D01*
X0184820Y0146701D01*
X0184780Y0146733D01*
X0184737Y0146762D01*
X0184693Y0146789D01*
X0184647Y0146812D01*
X0184599Y0146831D01*
X0184550Y0146848D01*
X0184500Y0146861D01*
X0184450Y0146870D01*
X0184399Y0146875D01*
X0184347Y0146877D01*
X0183624Y0146877D01*
X0183624Y0144277D01*
X0184347Y0144277D01*
X0184399Y0144279D01*
X0184450Y0144284D01*
X0184500Y0144293D01*
X0184550Y0144306D01*
X0184599Y0144323D01*
X0184647Y0144342D01*
X0184693Y0144365D01*
X0184737Y0144392D01*
X0184780Y0144421D01*
X0184820Y0144453D01*
X0184858Y0144488D01*
X0184893Y0144526D01*
X0184925Y0144566D01*
X0184954Y0144609D01*
X0184981Y0144653D01*
X0185004Y0144699D01*
X0185023Y0144747D01*
X0185040Y0144796D01*
X0185053Y0144846D01*
X0185062Y0144896D01*
X0185067Y0144947D01*
X0185069Y0144999D01*
X0182464Y0150576D02*
X0182464Y0153176D01*
X0181597Y0151732D01*
X0180730Y0153176D01*
X0180730Y0150576D01*
X0184043Y0151299D02*
X0184043Y0152454D01*
X0184045Y0152507D01*
X0184051Y0152559D01*
X0184060Y0152611D01*
X0184074Y0152662D01*
X0184091Y0152712D01*
X0184111Y0152760D01*
X0184135Y0152807D01*
X0184163Y0152852D01*
X0184194Y0152895D01*
X0184227Y0152936D01*
X0184264Y0152974D01*
X0184303Y0153009D01*
X0184345Y0153041D01*
X0184389Y0153070D01*
X0184435Y0153096D01*
X0184483Y0153118D01*
X0184532Y0153137D01*
X0184582Y0153153D01*
X0184634Y0153164D01*
X0184686Y0153172D01*
X0184739Y0153176D01*
X0184791Y0153176D01*
X0184844Y0153172D01*
X0184896Y0153164D01*
X0184948Y0153153D01*
X0184998Y0153137D01*
X0185047Y0153118D01*
X0185095Y0153096D01*
X0185141Y0153070D01*
X0185185Y0153041D01*
X0185227Y0153009D01*
X0185266Y0152974D01*
X0185303Y0152936D01*
X0185336Y0152895D01*
X0185367Y0152852D01*
X0185395Y0152807D01*
X0185419Y0152760D01*
X0185439Y0152712D01*
X0185456Y0152662D01*
X0185470Y0152611D01*
X0185479Y0152559D01*
X0185485Y0152507D01*
X0185487Y0152454D01*
X0185487Y0151299D01*
X0185485Y0151246D01*
X0185479Y0151194D01*
X0185470Y0151142D01*
X0185456Y0151091D01*
X0185439Y0151041D01*
X0185419Y0150993D01*
X0185395Y0150946D01*
X0185367Y0150901D01*
X0185336Y0150858D01*
X0185303Y0150817D01*
X0185266Y0150779D01*
X0185227Y0150744D01*
X0185185Y0150712D01*
X0185141Y0150683D01*
X0185095Y0150657D01*
X0185047Y0150635D01*
X0184998Y0150616D01*
X0184948Y0150600D01*
X0184896Y0150589D01*
X0184844Y0150581D01*
X0184791Y0150577D01*
X0184739Y0150577D01*
X0184686Y0150581D01*
X0184634Y0150589D01*
X0184582Y0150600D01*
X0184532Y0150616D01*
X0184483Y0150635D01*
X0184435Y0150657D01*
X0184389Y0150683D01*
X0184345Y0150712D01*
X0184303Y0150744D01*
X0184264Y0150779D01*
X0184227Y0150817D01*
X0184194Y0150858D01*
X0184163Y0150901D01*
X0184135Y0150946D01*
X0184111Y0150993D01*
X0184091Y0151041D01*
X0184074Y0151091D01*
X0184060Y0151142D01*
X0184051Y0151194D01*
X0184045Y0151246D01*
X0184043Y0151299D01*
X0187188Y0152093D02*
X0187982Y0151660D01*
X0187694Y0150576D02*
X0187625Y0150578D01*
X0187557Y0150584D01*
X0187488Y0150593D01*
X0187421Y0150607D01*
X0187354Y0150624D01*
X0187289Y0150645D01*
X0187224Y0150670D01*
X0187162Y0150698D01*
X0187101Y0150730D01*
X0187041Y0150765D01*
X0186984Y0150804D01*
X0186929Y0150845D01*
X0186877Y0150890D01*
X0186827Y0150937D01*
X0187982Y0151660D02*
X0188021Y0151634D01*
X0188059Y0151606D01*
X0188094Y0151575D01*
X0188126Y0151541D01*
X0188155Y0151504D01*
X0188182Y0151465D01*
X0188205Y0151425D01*
X0188225Y0151382D01*
X0188241Y0151338D01*
X0188254Y0151293D01*
X0188264Y0151247D01*
X0188269Y0151201D01*
X0188271Y0151154D01*
X0188272Y0151154D02*
X0188270Y0151109D01*
X0188265Y0151064D01*
X0188256Y0151019D01*
X0188244Y0150975D01*
X0188228Y0150933D01*
X0188209Y0150892D01*
X0188187Y0150852D01*
X0188162Y0150814D01*
X0188134Y0150779D01*
X0188103Y0150745D01*
X0188069Y0150714D01*
X0188034Y0150686D01*
X0187996Y0150661D01*
X0187956Y0150639D01*
X0187915Y0150620D01*
X0187873Y0150604D01*
X0187829Y0150592D01*
X0187784Y0150583D01*
X0187739Y0150578D01*
X0187694Y0150576D01*
X0188127Y0152959D02*
X0188075Y0152996D01*
X0188021Y0153029D01*
X0187966Y0153060D01*
X0187908Y0153086D01*
X0187849Y0153110D01*
X0187789Y0153130D01*
X0187728Y0153146D01*
X0187666Y0153159D01*
X0187603Y0153169D01*
X0187540Y0153174D01*
X0187477Y0153176D01*
X0187477Y0153177D02*
X0187432Y0153175D01*
X0187387Y0153170D01*
X0187342Y0153161D01*
X0187298Y0153149D01*
X0187256Y0153133D01*
X0187215Y0153114D01*
X0187175Y0153092D01*
X0187137Y0153067D01*
X0187102Y0153039D01*
X0187068Y0153008D01*
X0187037Y0152974D01*
X0187009Y0152939D01*
X0186984Y0152901D01*
X0186962Y0152861D01*
X0186943Y0152820D01*
X0186927Y0152778D01*
X0186915Y0152734D01*
X0186906Y0152689D01*
X0186901Y0152644D01*
X0186899Y0152599D01*
X0186901Y0152552D01*
X0186906Y0152506D01*
X0186916Y0152460D01*
X0186929Y0152415D01*
X0186945Y0152371D01*
X0186965Y0152328D01*
X0186988Y0152288D01*
X0187015Y0152249D01*
X0187044Y0152212D01*
X0187076Y0152178D01*
X0187111Y0152147D01*
X0187149Y0152119D01*
X0187188Y0152093D01*
X0189468Y0153176D02*
X0190046Y0153176D01*
X0189757Y0153176D02*
X0189757Y0150576D01*
X0189468Y0150576D02*
X0190046Y0150576D01*
X0189324Y0156876D02*
X0188601Y0156876D01*
X0188601Y0159476D01*
X0189324Y0159476D01*
X0189324Y0159475D02*
X0189376Y0159473D01*
X0189427Y0159468D01*
X0189477Y0159459D01*
X0189527Y0159446D01*
X0189576Y0159429D01*
X0189624Y0159410D01*
X0189670Y0159387D01*
X0189714Y0159360D01*
X0189757Y0159331D01*
X0189797Y0159299D01*
X0189835Y0159264D01*
X0189870Y0159226D01*
X0189902Y0159186D01*
X0189931Y0159143D01*
X0189958Y0159099D01*
X0189981Y0159053D01*
X0190000Y0159005D01*
X0190017Y0158956D01*
X0190030Y0158906D01*
X0190039Y0158856D01*
X0190044Y0158805D01*
X0190046Y0158753D01*
X0190046Y0157598D01*
X0190044Y0157546D01*
X0190039Y0157495D01*
X0190030Y0157445D01*
X0190017Y0157395D01*
X0190000Y0157346D01*
X0189981Y0157298D01*
X0189958Y0157252D01*
X0189931Y0157208D01*
X0189902Y0157165D01*
X0189870Y0157125D01*
X0189835Y0157087D01*
X0189797Y0157052D01*
X0189757Y0157020D01*
X0189714Y0156991D01*
X0189670Y0156964D01*
X0189624Y0156941D01*
X0189576Y0156922D01*
X0189527Y0156905D01*
X0189477Y0156892D01*
X0189427Y0156883D01*
X0189376Y0156878D01*
X0189324Y0156876D01*
X0186974Y0156876D02*
X0186974Y0159476D01*
X0185529Y0159476D02*
X0185529Y0156876D01*
X0186974Y0156876D02*
X0185529Y0159476D01*
X0183902Y0159476D02*
X0183035Y0159476D01*
X0182987Y0159474D01*
X0182940Y0159468D01*
X0182893Y0159458D01*
X0182847Y0159445D01*
X0182803Y0159427D01*
X0182760Y0159406D01*
X0182719Y0159382D01*
X0182680Y0159354D01*
X0182644Y0159323D01*
X0182610Y0159289D01*
X0182579Y0159253D01*
X0182551Y0159214D01*
X0182527Y0159173D01*
X0182506Y0159130D01*
X0182488Y0159086D01*
X0182475Y0159040D01*
X0182465Y0158993D01*
X0182459Y0158946D01*
X0182457Y0158898D01*
X0182457Y0157453D01*
X0182459Y0157408D01*
X0182464Y0157363D01*
X0182473Y0157318D01*
X0182485Y0157274D01*
X0182501Y0157232D01*
X0182520Y0157191D01*
X0182542Y0157151D01*
X0182567Y0157113D01*
X0182595Y0157078D01*
X0182626Y0157044D01*
X0182660Y0157013D01*
X0182695Y0156985D01*
X0182733Y0156960D01*
X0182773Y0156938D01*
X0182814Y0156919D01*
X0182856Y0156903D01*
X0182900Y0156891D01*
X0182945Y0156882D01*
X0182990Y0156877D01*
X0183035Y0156875D01*
X0183035Y0156876D02*
X0183902Y0156876D01*
X0183902Y0158320D01*
X0183469Y0158320D01*
X0182332Y0162886D02*
X0181177Y0162886D01*
X0179789Y0163897D02*
X0179789Y0165053D01*
X0179787Y0165105D01*
X0179782Y0165156D01*
X0179773Y0165206D01*
X0179760Y0165256D01*
X0179743Y0165305D01*
X0179724Y0165353D01*
X0179701Y0165399D01*
X0179674Y0165443D01*
X0179645Y0165486D01*
X0179613Y0165526D01*
X0179578Y0165564D01*
X0179540Y0165599D01*
X0179500Y0165631D01*
X0179457Y0165660D01*
X0179413Y0165687D01*
X0179367Y0165710D01*
X0179319Y0165729D01*
X0179270Y0165746D01*
X0179220Y0165759D01*
X0179170Y0165768D01*
X0179119Y0165773D01*
X0179067Y0165775D01*
X0178344Y0165775D01*
X0178344Y0163175D01*
X0179067Y0163175D01*
X0179119Y0163177D01*
X0179170Y0163182D01*
X0179220Y0163191D01*
X0179270Y0163204D01*
X0179319Y0163221D01*
X0179367Y0163240D01*
X0179413Y0163263D01*
X0179457Y0163290D01*
X0179500Y0163319D01*
X0179540Y0163351D01*
X0179578Y0163386D01*
X0179613Y0163424D01*
X0179645Y0163464D01*
X0179674Y0163507D01*
X0179701Y0163551D01*
X0179724Y0163597D01*
X0179743Y0163645D01*
X0179760Y0163694D01*
X0179773Y0163744D01*
X0179782Y0163794D01*
X0179787Y0163845D01*
X0179789Y0163897D01*
X0177013Y0163175D02*
X0175858Y0163175D01*
X0175858Y0165775D01*
X0177013Y0165775D01*
X0176725Y0164619D02*
X0175858Y0164619D01*
X0174517Y0163175D02*
X0173362Y0163175D01*
X0173362Y0165775D01*
X0182457Y0170052D02*
X0182457Y0171496D01*
X0182459Y0171544D01*
X0182465Y0171591D01*
X0182475Y0171638D01*
X0182488Y0171684D01*
X0182506Y0171728D01*
X0182527Y0171771D01*
X0182551Y0171812D01*
X0182579Y0171851D01*
X0182610Y0171887D01*
X0182644Y0171921D01*
X0182680Y0171952D01*
X0182719Y0171980D01*
X0182760Y0172004D01*
X0182803Y0172025D01*
X0182847Y0172043D01*
X0182893Y0172056D01*
X0182940Y0172066D01*
X0182987Y0172072D01*
X0183035Y0172074D01*
X0183902Y0172074D01*
X0183902Y0170918D02*
X0183902Y0169474D01*
X0183035Y0169474D01*
X0182990Y0169476D01*
X0182945Y0169481D01*
X0182900Y0169490D01*
X0182856Y0169502D01*
X0182814Y0169518D01*
X0182773Y0169537D01*
X0182733Y0169559D01*
X0182695Y0169584D01*
X0182660Y0169612D01*
X0182626Y0169643D01*
X0182595Y0169677D01*
X0182567Y0169712D01*
X0182542Y0169750D01*
X0182520Y0169790D01*
X0182501Y0169831D01*
X0182485Y0169873D01*
X0182473Y0169917D01*
X0182464Y0169962D01*
X0182459Y0170007D01*
X0182457Y0170052D01*
X0183469Y0170918D02*
X0183902Y0170918D01*
X0185529Y0172074D02*
X0186974Y0169474D01*
X0186974Y0172074D01*
X0185529Y0172074D02*
X0185529Y0169474D01*
X0188601Y0169474D02*
X0188601Y0172074D01*
X0189324Y0172074D01*
X0189376Y0172072D01*
X0189427Y0172067D01*
X0189477Y0172058D01*
X0189527Y0172045D01*
X0189576Y0172028D01*
X0189624Y0172009D01*
X0189670Y0171986D01*
X0189714Y0171959D01*
X0189757Y0171930D01*
X0189797Y0171898D01*
X0189835Y0171863D01*
X0189870Y0171825D01*
X0189902Y0171785D01*
X0189931Y0171742D01*
X0189958Y0171698D01*
X0189981Y0171652D01*
X0190000Y0171604D01*
X0190017Y0171555D01*
X0190030Y0171505D01*
X0190039Y0171455D01*
X0190044Y0171404D01*
X0190046Y0171352D01*
X0190046Y0170196D01*
X0190044Y0170144D01*
X0190039Y0170093D01*
X0190030Y0170043D01*
X0190017Y0169993D01*
X0190000Y0169944D01*
X0189981Y0169896D01*
X0189958Y0169850D01*
X0189931Y0169806D01*
X0189902Y0169763D01*
X0189870Y0169723D01*
X0189835Y0169685D01*
X0189797Y0169650D01*
X0189757Y0169618D01*
X0189714Y0169589D01*
X0189670Y0169562D01*
X0189624Y0169539D01*
X0189576Y0169520D01*
X0189527Y0169503D01*
X0189477Y0169490D01*
X0189427Y0169481D01*
X0189376Y0169476D01*
X0189324Y0169474D01*
X0188601Y0169474D01*
X0189468Y0165775D02*
X0190046Y0165775D01*
X0189468Y0165775D02*
X0189420Y0165773D01*
X0189373Y0165767D01*
X0189326Y0165757D01*
X0189280Y0165744D01*
X0189236Y0165726D01*
X0189193Y0165705D01*
X0189152Y0165681D01*
X0189113Y0165653D01*
X0189077Y0165622D01*
X0189043Y0165588D01*
X0189012Y0165552D01*
X0188984Y0165513D01*
X0188960Y0165472D01*
X0188939Y0165429D01*
X0188921Y0165385D01*
X0188908Y0165339D01*
X0188898Y0165292D01*
X0188892Y0165245D01*
X0188890Y0165197D01*
X0188890Y0163753D01*
X0188892Y0163708D01*
X0188897Y0163663D01*
X0188906Y0163618D01*
X0188918Y0163574D01*
X0188934Y0163532D01*
X0188953Y0163491D01*
X0188975Y0163451D01*
X0189000Y0163413D01*
X0189028Y0163378D01*
X0189059Y0163344D01*
X0189093Y0163313D01*
X0189128Y0163285D01*
X0189166Y0163260D01*
X0189206Y0163238D01*
X0189247Y0163219D01*
X0189289Y0163203D01*
X0189333Y0163191D01*
X0189378Y0163182D01*
X0189423Y0163177D01*
X0189468Y0163175D01*
X0190046Y0163175D01*
X0187646Y0163175D02*
X0187068Y0163175D01*
X0187023Y0163177D01*
X0186978Y0163182D01*
X0186933Y0163191D01*
X0186889Y0163203D01*
X0186847Y0163219D01*
X0186806Y0163238D01*
X0186766Y0163260D01*
X0186728Y0163285D01*
X0186693Y0163313D01*
X0186659Y0163344D01*
X0186628Y0163378D01*
X0186600Y0163413D01*
X0186575Y0163451D01*
X0186553Y0163491D01*
X0186534Y0163532D01*
X0186518Y0163574D01*
X0186506Y0163618D01*
X0186497Y0163663D01*
X0186492Y0163708D01*
X0186490Y0163753D01*
X0186490Y0165197D01*
X0186492Y0165245D01*
X0186498Y0165292D01*
X0186508Y0165339D01*
X0186521Y0165385D01*
X0186539Y0165429D01*
X0186560Y0165472D01*
X0186584Y0165513D01*
X0186612Y0165552D01*
X0186643Y0165588D01*
X0186677Y0165622D01*
X0186713Y0165653D01*
X0186752Y0165681D01*
X0186793Y0165705D01*
X0186836Y0165726D01*
X0186880Y0165744D01*
X0186926Y0165757D01*
X0186973Y0165767D01*
X0187020Y0165773D01*
X0187068Y0165775D01*
X0187646Y0165775D01*
X0185213Y0165775D02*
X0184347Y0163175D01*
X0183480Y0165775D01*
X0183902Y0175773D02*
X0183035Y0175773D01*
X0182990Y0175775D01*
X0182945Y0175780D01*
X0182900Y0175789D01*
X0182856Y0175801D01*
X0182814Y0175817D01*
X0182773Y0175836D01*
X0182733Y0175858D01*
X0182695Y0175883D01*
X0182660Y0175911D01*
X0182626Y0175942D01*
X0182595Y0175976D01*
X0182567Y0176011D01*
X0182542Y0176049D01*
X0182520Y0176089D01*
X0182501Y0176130D01*
X0182485Y0176172D01*
X0182473Y0176216D01*
X0182464Y0176261D01*
X0182459Y0176306D01*
X0182457Y0176351D01*
X0182457Y0177795D01*
X0182459Y0177843D01*
X0182465Y0177890D01*
X0182475Y0177937D01*
X0182488Y0177983D01*
X0182506Y0178027D01*
X0182527Y0178070D01*
X0182551Y0178111D01*
X0182579Y0178150D01*
X0182610Y0178186D01*
X0182644Y0178220D01*
X0182680Y0178251D01*
X0182719Y0178279D01*
X0182760Y0178303D01*
X0182803Y0178324D01*
X0182847Y0178342D01*
X0182893Y0178355D01*
X0182940Y0178365D01*
X0182987Y0178371D01*
X0183035Y0178373D01*
X0183902Y0178373D01*
X0183902Y0177218D02*
X0183902Y0175773D01*
X0183902Y0177218D02*
X0183469Y0177218D01*
X0185529Y0178373D02*
X0186974Y0175773D01*
X0186974Y0178373D01*
X0185529Y0178373D02*
X0185529Y0175773D01*
X0188601Y0175773D02*
X0189324Y0175773D01*
X0189376Y0175775D01*
X0189427Y0175780D01*
X0189477Y0175789D01*
X0189527Y0175802D01*
X0189576Y0175819D01*
X0189624Y0175838D01*
X0189670Y0175861D01*
X0189714Y0175888D01*
X0189757Y0175917D01*
X0189797Y0175949D01*
X0189835Y0175984D01*
X0189870Y0176022D01*
X0189902Y0176062D01*
X0189931Y0176105D01*
X0189958Y0176149D01*
X0189981Y0176195D01*
X0190000Y0176243D01*
X0190017Y0176292D01*
X0190030Y0176342D01*
X0190039Y0176392D01*
X0190044Y0176443D01*
X0190046Y0176495D01*
X0190046Y0177651D01*
X0190044Y0177703D01*
X0190039Y0177754D01*
X0190030Y0177804D01*
X0190017Y0177854D01*
X0190000Y0177903D01*
X0189981Y0177951D01*
X0189958Y0177997D01*
X0189931Y0178041D01*
X0189902Y0178084D01*
X0189870Y0178124D01*
X0189835Y0178162D01*
X0189797Y0178197D01*
X0189757Y0178229D01*
X0189714Y0178258D01*
X0189670Y0178285D01*
X0189624Y0178308D01*
X0189576Y0178327D01*
X0189527Y0178344D01*
X0189477Y0178357D01*
X0189427Y0178366D01*
X0189376Y0178371D01*
X0189324Y0178373D01*
X0188601Y0178373D01*
X0188601Y0175773D01*
X0186348Y0182072D02*
X0186348Y0183445D01*
X0187214Y0184672D01*
X0188601Y0184672D02*
X0188601Y0182795D01*
X0188602Y0182795D02*
X0188604Y0182742D01*
X0188610Y0182690D01*
X0188619Y0182638D01*
X0188633Y0182587D01*
X0188650Y0182537D01*
X0188670Y0182489D01*
X0188694Y0182442D01*
X0188722Y0182397D01*
X0188753Y0182354D01*
X0188786Y0182313D01*
X0188823Y0182275D01*
X0188862Y0182240D01*
X0188904Y0182208D01*
X0188948Y0182179D01*
X0188994Y0182153D01*
X0189042Y0182131D01*
X0189091Y0182112D01*
X0189141Y0182096D01*
X0189193Y0182085D01*
X0189245Y0182077D01*
X0189298Y0182073D01*
X0189350Y0182073D01*
X0189403Y0182077D01*
X0189455Y0182085D01*
X0189507Y0182096D01*
X0189557Y0182112D01*
X0189606Y0182131D01*
X0189654Y0182153D01*
X0189700Y0182179D01*
X0189744Y0182208D01*
X0189786Y0182240D01*
X0189825Y0182275D01*
X0189862Y0182313D01*
X0189895Y0182354D01*
X0189926Y0182397D01*
X0189954Y0182442D01*
X0189978Y0182489D01*
X0189998Y0182537D01*
X0190015Y0182587D01*
X0190029Y0182638D01*
X0190038Y0182690D01*
X0190044Y0182742D01*
X0190046Y0182795D01*
X0190046Y0184672D01*
X0189324Y0188372D02*
X0188601Y0188372D01*
X0188601Y0190972D01*
X0189324Y0190972D01*
X0189324Y0190971D02*
X0189376Y0190969D01*
X0189427Y0190964D01*
X0189477Y0190955D01*
X0189527Y0190942D01*
X0189576Y0190925D01*
X0189624Y0190906D01*
X0189670Y0190883D01*
X0189714Y0190856D01*
X0189757Y0190827D01*
X0189797Y0190795D01*
X0189835Y0190760D01*
X0189870Y0190722D01*
X0189902Y0190682D01*
X0189931Y0190639D01*
X0189958Y0190595D01*
X0189981Y0190549D01*
X0190000Y0190501D01*
X0190017Y0190452D01*
X0190030Y0190402D01*
X0190039Y0190352D01*
X0190044Y0190301D01*
X0190046Y0190249D01*
X0190046Y0189094D01*
X0190044Y0189042D01*
X0190039Y0188991D01*
X0190030Y0188941D01*
X0190017Y0188891D01*
X0190000Y0188842D01*
X0189981Y0188794D01*
X0189958Y0188748D01*
X0189931Y0188704D01*
X0189902Y0188661D01*
X0189870Y0188621D01*
X0189835Y0188583D01*
X0189797Y0188548D01*
X0189757Y0188516D01*
X0189714Y0188487D01*
X0189670Y0188460D01*
X0189624Y0188437D01*
X0189576Y0188418D01*
X0189527Y0188401D01*
X0189477Y0188388D01*
X0189427Y0188379D01*
X0189376Y0188374D01*
X0189324Y0188372D01*
X0186348Y0188372D02*
X0186348Y0189744D01*
X0187214Y0190972D01*
X0186348Y0189744D02*
X0185481Y0190972D01*
X0185481Y0184672D02*
X0186348Y0183445D01*
X0205689Y0156326D02*
X0205644Y0156324D01*
X0205599Y0156319D01*
X0205554Y0156310D01*
X0205510Y0156298D01*
X0205468Y0156282D01*
X0205427Y0156263D01*
X0205387Y0156241D01*
X0205349Y0156216D01*
X0205314Y0156188D01*
X0205280Y0156157D01*
X0205249Y0156123D01*
X0205221Y0156088D01*
X0205196Y0156050D01*
X0205174Y0156010D01*
X0205155Y0155969D01*
X0205139Y0155927D01*
X0205127Y0155883D01*
X0205118Y0155838D01*
X0205113Y0155793D01*
X0205111Y0155748D01*
X0205400Y0155243D02*
X0206195Y0154809D01*
X0205906Y0153726D02*
X0205837Y0153728D01*
X0205769Y0153734D01*
X0205700Y0153743D01*
X0205633Y0153757D01*
X0205566Y0153774D01*
X0205501Y0153795D01*
X0205436Y0153820D01*
X0205374Y0153848D01*
X0205313Y0153880D01*
X0205253Y0153915D01*
X0205196Y0153954D01*
X0205141Y0153995D01*
X0205089Y0154040D01*
X0205039Y0154087D01*
X0206195Y0154810D02*
X0206234Y0154784D01*
X0206272Y0154756D01*
X0206307Y0154725D01*
X0206339Y0154691D01*
X0206368Y0154654D01*
X0206395Y0154615D01*
X0206418Y0154575D01*
X0206438Y0154532D01*
X0206454Y0154488D01*
X0206467Y0154443D01*
X0206477Y0154397D01*
X0206482Y0154351D01*
X0206484Y0154304D01*
X0206482Y0154259D01*
X0206477Y0154214D01*
X0206468Y0154169D01*
X0206456Y0154125D01*
X0206440Y0154083D01*
X0206421Y0154042D01*
X0206399Y0154002D01*
X0206374Y0153964D01*
X0206346Y0153929D01*
X0206315Y0153895D01*
X0206281Y0153864D01*
X0206246Y0153836D01*
X0206208Y0153811D01*
X0206168Y0153789D01*
X0206127Y0153770D01*
X0206085Y0153754D01*
X0206041Y0153742D01*
X0205996Y0153733D01*
X0205951Y0153728D01*
X0205906Y0153726D01*
X0206339Y0156109D02*
X0206287Y0156146D01*
X0206233Y0156179D01*
X0206178Y0156210D01*
X0206120Y0156236D01*
X0206061Y0156260D01*
X0206001Y0156280D01*
X0205940Y0156296D01*
X0205878Y0156309D01*
X0205815Y0156319D01*
X0205752Y0156324D01*
X0205689Y0156326D01*
X0205111Y0155748D02*
X0205113Y0155701D01*
X0205118Y0155655D01*
X0205128Y0155609D01*
X0205141Y0155564D01*
X0205157Y0155520D01*
X0205177Y0155477D01*
X0205200Y0155437D01*
X0205227Y0155398D01*
X0205256Y0155361D01*
X0205288Y0155327D01*
X0205323Y0155296D01*
X0205361Y0155268D01*
X0205400Y0155242D01*
X0207823Y0155604D02*
X0207823Y0154448D01*
X0207825Y0154395D01*
X0207831Y0154343D01*
X0207840Y0154291D01*
X0207854Y0154240D01*
X0207871Y0154190D01*
X0207891Y0154142D01*
X0207915Y0154095D01*
X0207943Y0154050D01*
X0207974Y0154007D01*
X0208007Y0153966D01*
X0208044Y0153928D01*
X0208083Y0153893D01*
X0208125Y0153861D01*
X0208169Y0153832D01*
X0208215Y0153806D01*
X0208263Y0153784D01*
X0208312Y0153765D01*
X0208362Y0153749D01*
X0208414Y0153738D01*
X0208466Y0153730D01*
X0208519Y0153726D01*
X0208571Y0153726D01*
X0208624Y0153730D01*
X0208676Y0153738D01*
X0208728Y0153749D01*
X0208778Y0153765D01*
X0208827Y0153784D01*
X0208875Y0153806D01*
X0208921Y0153832D01*
X0208965Y0153861D01*
X0209007Y0153893D01*
X0209046Y0153928D01*
X0209083Y0153966D01*
X0209116Y0154007D01*
X0209147Y0154050D01*
X0209175Y0154095D01*
X0209199Y0154142D01*
X0209219Y0154190D01*
X0209236Y0154240D01*
X0209250Y0154291D01*
X0209259Y0154343D01*
X0209265Y0154395D01*
X0209267Y0154448D01*
X0209268Y0154448D02*
X0209268Y0155604D01*
X0209267Y0155604D02*
X0209265Y0155657D01*
X0209259Y0155709D01*
X0209250Y0155761D01*
X0209236Y0155812D01*
X0209219Y0155862D01*
X0209199Y0155910D01*
X0209175Y0155957D01*
X0209147Y0156002D01*
X0209116Y0156045D01*
X0209083Y0156086D01*
X0209046Y0156124D01*
X0209007Y0156159D01*
X0208965Y0156191D01*
X0208921Y0156220D01*
X0208875Y0156246D01*
X0208827Y0156268D01*
X0208778Y0156287D01*
X0208728Y0156303D01*
X0208676Y0156314D01*
X0208624Y0156322D01*
X0208571Y0156326D01*
X0208519Y0156326D01*
X0208466Y0156322D01*
X0208414Y0156314D01*
X0208362Y0156303D01*
X0208312Y0156287D01*
X0208263Y0156268D01*
X0208215Y0156246D01*
X0208169Y0156220D01*
X0208125Y0156191D01*
X0208083Y0156159D01*
X0208044Y0156124D01*
X0208007Y0156086D01*
X0207974Y0156045D01*
X0207943Y0156002D01*
X0207915Y0155957D01*
X0207891Y0155910D01*
X0207871Y0155862D01*
X0207854Y0155812D01*
X0207840Y0155761D01*
X0207831Y0155709D01*
X0207825Y0155657D01*
X0207823Y0155604D01*
X0283041Y0234773D02*
X0283047Y0235256D01*
X0283065Y0235739D01*
X0283094Y0236221D01*
X0283136Y0236702D01*
X0283189Y0237183D01*
X0283254Y0237661D01*
X0283331Y0238138D01*
X0283419Y0238613D01*
X0283519Y0239086D01*
X0283631Y0239556D01*
X0283754Y0240023D01*
X0283889Y0240487D01*
X0284035Y0240948D01*
X0284192Y0241405D01*
X0284360Y0241858D01*
X0284539Y0242306D01*
X0284730Y0242750D01*
X0284931Y0243189D01*
X0285143Y0243624D01*
X0285365Y0244052D01*
X0285598Y0244476D01*
X0285842Y0244893D01*
X0286095Y0245304D01*
X0286359Y0245709D01*
X0286632Y0246108D01*
X0286915Y0246499D01*
X0287207Y0246884D01*
X0287509Y0247261D01*
X0287820Y0247631D01*
X0288140Y0247993D01*
X0288469Y0248347D01*
X0288807Y0248692D01*
X0289152Y0249030D01*
X0289506Y0249359D01*
X0289868Y0249679D01*
X0290238Y0249990D01*
X0290615Y0250292D01*
X0291000Y0250584D01*
X0291391Y0250867D01*
X0291790Y0251140D01*
X0292195Y0251404D01*
X0292606Y0251657D01*
X0293023Y0251901D01*
X0293447Y0252134D01*
X0293875Y0252356D01*
X0294310Y0252568D01*
X0294749Y0252769D01*
X0295193Y0252960D01*
X0295641Y0253139D01*
X0296094Y0253307D01*
X0296551Y0253464D01*
X0297012Y0253610D01*
X0297476Y0253745D01*
X0297943Y0253868D01*
X0298413Y0253980D01*
X0298886Y0254080D01*
X0299361Y0254168D01*
X0299838Y0254245D01*
X0300316Y0254310D01*
X0300797Y0254363D01*
X0301278Y0254405D01*
X0301760Y0254434D01*
X0302243Y0254452D01*
X0302726Y0254458D01*
X0303209Y0254452D01*
X0303692Y0254434D01*
X0304174Y0254405D01*
X0304655Y0254363D01*
X0305136Y0254310D01*
X0305614Y0254245D01*
X0306091Y0254168D01*
X0306566Y0254080D01*
X0307039Y0253980D01*
X0307509Y0253868D01*
X0307976Y0253745D01*
X0308440Y0253610D01*
X0308901Y0253464D01*
X0309358Y0253307D01*
X0309811Y0253139D01*
X0310259Y0252960D01*
X0310703Y0252769D01*
X0311142Y0252568D01*
X0311577Y0252356D01*
X0312005Y0252134D01*
X0312429Y0251901D01*
X0312846Y0251657D01*
X0313257Y0251404D01*
X0313662Y0251140D01*
X0314061Y0250867D01*
X0314452Y0250584D01*
X0314837Y0250292D01*
X0315214Y0249990D01*
X0315584Y0249679D01*
X0315946Y0249359D01*
X0316300Y0249030D01*
X0316645Y0248692D01*
X0316983Y0248347D01*
X0317312Y0247993D01*
X0317632Y0247631D01*
X0317943Y0247261D01*
X0318245Y0246884D01*
X0318537Y0246499D01*
X0318820Y0246108D01*
X0319093Y0245709D01*
X0319357Y0245304D01*
X0319610Y0244893D01*
X0319854Y0244476D01*
X0320087Y0244052D01*
X0320309Y0243624D01*
X0320521Y0243189D01*
X0320722Y0242750D01*
X0320913Y0242306D01*
X0321092Y0241858D01*
X0321260Y0241405D01*
X0321417Y0240948D01*
X0321563Y0240487D01*
X0321698Y0240023D01*
X0321821Y0239556D01*
X0321933Y0239086D01*
X0322033Y0238613D01*
X0322121Y0238138D01*
X0322198Y0237661D01*
X0322263Y0237183D01*
X0322316Y0236702D01*
X0322358Y0236221D01*
X0322387Y0235739D01*
X0322405Y0235256D01*
X0322411Y0234773D01*
X0322405Y0234290D01*
X0322387Y0233807D01*
X0322358Y0233325D01*
X0322316Y0232844D01*
X0322263Y0232363D01*
X0322198Y0231885D01*
X0322121Y0231408D01*
X0322033Y0230933D01*
X0321933Y0230460D01*
X0321821Y0229990D01*
X0321698Y0229523D01*
X0321563Y0229059D01*
X0321417Y0228598D01*
X0321260Y0228141D01*
X0321092Y0227688D01*
X0320913Y0227240D01*
X0320722Y0226796D01*
X0320521Y0226357D01*
X0320309Y0225922D01*
X0320087Y0225494D01*
X0319854Y0225070D01*
X0319610Y0224653D01*
X0319357Y0224242D01*
X0319093Y0223837D01*
X0318820Y0223438D01*
X0318537Y0223047D01*
X0318245Y0222662D01*
X0317943Y0222285D01*
X0317632Y0221915D01*
X0317312Y0221553D01*
X0316983Y0221199D01*
X0316645Y0220854D01*
X0316300Y0220516D01*
X0315946Y0220187D01*
X0315584Y0219867D01*
X0315214Y0219556D01*
X0314837Y0219254D01*
X0314452Y0218962D01*
X0314061Y0218679D01*
X0313662Y0218406D01*
X0313257Y0218142D01*
X0312846Y0217889D01*
X0312429Y0217645D01*
X0312005Y0217412D01*
X0311577Y0217190D01*
X0311142Y0216978D01*
X0310703Y0216777D01*
X0310259Y0216586D01*
X0309811Y0216407D01*
X0309358Y0216239D01*
X0308901Y0216082D01*
X0308440Y0215936D01*
X0307976Y0215801D01*
X0307509Y0215678D01*
X0307039Y0215566D01*
X0306566Y0215466D01*
X0306091Y0215378D01*
X0305614Y0215301D01*
X0305136Y0215236D01*
X0304655Y0215183D01*
X0304174Y0215141D01*
X0303692Y0215112D01*
X0303209Y0215094D01*
X0302726Y0215088D01*
X0302243Y0215094D01*
X0301760Y0215112D01*
X0301278Y0215141D01*
X0300797Y0215183D01*
X0300316Y0215236D01*
X0299838Y0215301D01*
X0299361Y0215378D01*
X0298886Y0215466D01*
X0298413Y0215566D01*
X0297943Y0215678D01*
X0297476Y0215801D01*
X0297012Y0215936D01*
X0296551Y0216082D01*
X0296094Y0216239D01*
X0295641Y0216407D01*
X0295193Y0216586D01*
X0294749Y0216777D01*
X0294310Y0216978D01*
X0293875Y0217190D01*
X0293447Y0217412D01*
X0293023Y0217645D01*
X0292606Y0217889D01*
X0292195Y0218142D01*
X0291790Y0218406D01*
X0291391Y0218679D01*
X0291000Y0218962D01*
X0290615Y0219254D01*
X0290238Y0219556D01*
X0289868Y0219867D01*
X0289506Y0220187D01*
X0289152Y0220516D01*
X0288807Y0220854D01*
X0288469Y0221199D01*
X0288140Y0221553D01*
X0287820Y0221915D01*
X0287509Y0222285D01*
X0287207Y0222662D01*
X0286915Y0223047D01*
X0286632Y0223438D01*
X0286359Y0223837D01*
X0286095Y0224242D01*
X0285842Y0224653D01*
X0285598Y0225070D01*
X0285365Y0225494D01*
X0285143Y0225922D01*
X0284931Y0226357D01*
X0284730Y0226796D01*
X0284539Y0227240D01*
X0284360Y0227688D01*
X0284192Y0228141D01*
X0284035Y0228598D01*
X0283889Y0229059D01*
X0283754Y0229523D01*
X0283631Y0229990D01*
X0283519Y0230460D01*
X0283419Y0230933D01*
X0283331Y0231408D01*
X0283254Y0231885D01*
X0283189Y0232363D01*
X0283136Y0232844D01*
X0283094Y0233325D01*
X0283065Y0233807D01*
X0283047Y0234290D01*
X0283041Y0234773D01*
X0024881Y0274725D02*
X0009875Y0274465D01*
X0010269Y0258717D01*
X0010662Y0241000D01*
X0011056Y0224858D01*
X0011450Y0211079D01*
X0011844Y0197693D01*
X0012237Y0185488D01*
X0012631Y0174465D01*
X0013025Y0161866D01*
X0013418Y0151630D01*
X0014206Y0129583D01*
X0014599Y0120134D01*
X0014993Y0113047D01*
X0015387Y0104780D01*
X0015781Y0096118D01*
X0016174Y0088638D01*
X0016568Y0080764D01*
X0016962Y0075252D01*
X0017355Y0068559D01*
X0017749Y0063047D01*
X0018143Y0058323D01*
X0018536Y0053992D01*
D11*
X0010269Y0266984D02*
X0360662Y0264622D01*
X0324836Y0141787D02*
X0316568Y0141787D01*
X0308694Y0141787D01*
X0300426Y0141787D01*
X0276804Y0141787D01*
X0276410Y0139819D02*
X0324836Y0139819D01*
X0324442Y0137063D02*
X0276804Y0137063D01*
X0276804Y0134307D02*
X0324048Y0134307D01*
X0324048Y0131551D02*
X0276410Y0131551D01*
X0276410Y0129189D02*
X0324048Y0128795D01*
X0323261Y0126039D02*
X0276410Y0126433D01*
X0276410Y0123677D02*
X0323261Y0123283D01*
X0323261Y0120528D02*
X0276410Y0120921D01*
X0276017Y0118165D02*
X0323261Y0117772D01*
X0323261Y0115409D02*
X0276017Y0115409D01*
X0276017Y0112654D02*
X0322867Y0112654D01*
X0322867Y0109898D02*
X0276017Y0109898D01*
X0276017Y0107142D02*
X0322867Y0107142D01*
X0322867Y0104386D02*
X0275623Y0104386D01*
X0275623Y0102024D02*
X0322473Y0102024D01*
X0322080Y0099268D02*
X0275623Y0099268D01*
X0275623Y0096512D02*
X0322080Y0096512D01*
X0322080Y0093756D02*
X0275623Y0093756D01*
X0275623Y0091394D02*
X0322080Y0091394D01*
X0322080Y0088638D02*
X0275623Y0088244D01*
X0275229Y0085882D02*
X0322080Y0086276D01*
X0321292Y0083126D02*
X0275623Y0083126D01*
X0275229Y0080370D02*
X0282710Y0080370D01*
X0290190Y0080370D01*
X0298064Y0080370D01*
X0305544Y0080370D01*
X0313418Y0080370D01*
X0320899Y0080370D01*
D12*
X0313418Y0080370D02*
X0316568Y0141787D01*
X0308694Y0141787D02*
X0305544Y0080370D01*
X0298064Y0080370D02*
X0300426Y0141787D01*
X0292946Y0141394D02*
X0290190Y0080370D01*
X0282710Y0080370D02*
X0284678Y0142181D01*
X0238661Y0274528D02*
X0263464Y0374135D01*
X0263464Y0374134D02*
X0263475Y0374250D01*
X0263482Y0374367D01*
X0263486Y0374484D01*
X0263485Y0374600D01*
X0263481Y0374717D01*
X0263473Y0374833D01*
X0263461Y0374949D01*
X0263445Y0375065D01*
X0263426Y0375180D01*
X0263403Y0375294D01*
X0263376Y0375408D01*
X0263345Y0375520D01*
X0263311Y0375632D01*
X0263273Y0375742D01*
X0263231Y0375851D01*
X0263186Y0375959D01*
X0263138Y0376065D01*
X0263086Y0376169D01*
X0263030Y0376272D01*
X0262972Y0376373D01*
X0262910Y0376471D01*
X0262844Y0376568D01*
X0262776Y0376663D01*
X0262705Y0376755D01*
X0262630Y0376845D01*
X0262553Y0376932D01*
X0262473Y0377017D01*
X0262390Y0377099D01*
X0262305Y0377179D01*
X0262217Y0377255D01*
X0262126Y0377329D01*
X0262034Y0377400D01*
X0261938Y0377467D01*
X0261841Y0377532D01*
X0261742Y0377593D01*
X0261641Y0377651D01*
X0261538Y0377705D01*
X0261433Y0377757D01*
X0261326Y0377804D01*
X0261218Y0377849D01*
X0261109Y0377889D01*
X0260998Y0377926D01*
X0260887Y0377960D01*
X0260774Y0377989D01*
X0260660Y0378016D01*
X0260546Y0378038D01*
X0260430Y0378056D01*
X0260315Y0378071D01*
X0260314Y0378072D02*
X0250472Y0380040D01*
X0250471Y0380040D02*
X0250373Y0380060D01*
X0250274Y0380077D01*
X0250174Y0380091D01*
X0250074Y0380100D01*
X0249974Y0380105D01*
X0249873Y0380107D01*
X0249772Y0380105D01*
X0249672Y0380099D01*
X0249572Y0380089D01*
X0249472Y0380075D01*
X0249373Y0380057D01*
X0249275Y0380036D01*
X0249177Y0380011D01*
X0249081Y0379982D01*
X0248986Y0379950D01*
X0248892Y0379914D01*
X0248799Y0379874D01*
X0248709Y0379831D01*
X0248619Y0379784D01*
X0248532Y0379734D01*
X0248447Y0379681D01*
X0248364Y0379624D01*
X0248283Y0379565D01*
X0248204Y0379502D01*
X0248128Y0379436D01*
X0248054Y0379367D01*
X0247983Y0379296D01*
X0247915Y0379222D01*
X0247850Y0379146D01*
X0247788Y0379067D01*
X0247728Y0378985D01*
X0247672Y0378902D01*
X0247620Y0378816D01*
X0247570Y0378728D01*
X0247524Y0378639D01*
X0247481Y0378548D01*
X0247442Y0378455D01*
X0247407Y0378361D01*
X0247375Y0378266D01*
X0247347Y0378169D01*
X0247322Y0378071D01*
X0247322Y0378072D02*
X0220157Y0274922D01*
X0161496Y0274922D01*
X0130787Y0373741D01*
X0130770Y0373843D01*
X0130750Y0373946D01*
X0130726Y0374047D01*
X0130698Y0374147D01*
X0130666Y0374246D01*
X0130630Y0374344D01*
X0130591Y0374441D01*
X0130549Y0374536D01*
X0130502Y0374629D01*
X0130453Y0374720D01*
X0130400Y0374810D01*
X0130343Y0374898D01*
X0130284Y0374983D01*
X0130221Y0375066D01*
X0130155Y0375147D01*
X0130086Y0375225D01*
X0130015Y0375300D01*
X0129940Y0375373D01*
X0129863Y0375443D01*
X0129784Y0375510D01*
X0129701Y0375574D01*
X0129617Y0375635D01*
X0129530Y0375693D01*
X0129442Y0375747D01*
X0129351Y0375798D01*
X0129258Y0375846D01*
X0129164Y0375890D01*
X0129068Y0375931D01*
X0128971Y0375968D01*
X0128872Y0376001D01*
X0128772Y0376031D01*
X0128671Y0376056D01*
X0128570Y0376078D01*
X0128467Y0376097D01*
X0128364Y0376111D01*
X0128260Y0376122D01*
X0128157Y0376128D01*
X0128052Y0376131D01*
X0127948Y0376130D01*
X0127844Y0376125D01*
X0127741Y0376116D01*
X0127637Y0376103D01*
X0117007Y0371772D01*
X0116922Y0371753D01*
X0116837Y0371730D01*
X0116754Y0371704D01*
X0116672Y0371674D01*
X0116591Y0371640D01*
X0116511Y0371603D01*
X0116434Y0371563D01*
X0116358Y0371519D01*
X0116284Y0371472D01*
X0116213Y0371421D01*
X0116143Y0371368D01*
X0116076Y0371312D01*
X0116012Y0371252D01*
X0115950Y0371190D01*
X0115891Y0371126D01*
X0115834Y0371059D01*
X0115781Y0370989D01*
X0115731Y0370917D01*
X0115684Y0370843D01*
X0115640Y0370768D01*
X0115600Y0370690D01*
X0115563Y0370610D01*
X0115530Y0370529D01*
X0115500Y0370447D01*
X0115474Y0370364D01*
X0115451Y0370279D01*
X0115432Y0370193D01*
X0115417Y0370107D01*
X0115406Y0370020D01*
X0115398Y0369933D01*
X0115394Y0369846D01*
X0115395Y0369758D01*
X0115398Y0369671D01*
X0115406Y0369583D01*
X0115418Y0369497D01*
X0115433Y0369410D01*
X0142992Y0274922D01*
X0024881Y0274725D01*
D13*
X0024442Y0261866D02*
X0029954Y0262654D01*
X0053182Y0262654D01*
X0078773Y0263047D01*
X0109481Y0263441D01*
X0159088Y0263441D01*
X0201214Y0263047D01*
X0217749Y0262654D01*
X0246096Y0262260D01*
X0263812Y0261866D01*
X0270899Y0261472D01*
X0272473Y0260685D01*
X0273261Y0259898D01*
X0273655Y0259110D01*
X0273655Y0255961D01*
X0273261Y0249661D01*
X0272867Y0233913D01*
X0272473Y0216197D01*
X0272080Y0197299D01*
X0271686Y0188638D01*
X0271223Y0173283D01*
X0270829Y0154773D01*
X0270505Y0138638D01*
X0270111Y0122496D01*
X0269718Y0111079D01*
X0269324Y0098874D01*
X0268930Y0075252D01*
X0268143Y0066984D01*
X0267749Y0063441D01*
X0267355Y0062260D01*
X0266962Y0061472D01*
X0265781Y0061079D01*
X0245308Y0060685D01*
X0225623Y0060291D01*
X0198064Y0059898D01*
X0175623Y0059504D01*
X0164599Y0059504D01*
X0144521Y0059898D01*
X0125229Y0060291D01*
X0100426Y0060685D01*
X0078773Y0061472D01*
X0072080Y0061866D01*
X0063812Y0062260D01*
X0035859Y0063835D01*
X0029560Y0064228D01*
X0027592Y0064622D01*
X0026804Y0065409D01*
X0026410Y0066984D01*
X0026017Y0075646D01*
X0025623Y0083126D01*
X0025229Y0091000D01*
X0024836Y0099661D01*
X0024442Y0106748D01*
X0023655Y0124071D01*
X0023261Y0133913D01*
X0022867Y0140606D01*
X0022080Y0161472D01*
X0021686Y0173677D01*
X0021292Y0188244D01*
X0020899Y0204386D01*
X0020505Y0222102D01*
X0020505Y0230370D01*
X0020111Y0248874D01*
X0020111Y0259504D01*
X0020505Y0260685D01*
X0021292Y0261079D01*
X0024442Y0261866D01*
X0163240Y0263798D02*
X0163242Y0263674D01*
X0163248Y0263551D01*
X0163257Y0263427D01*
X0163271Y0263305D01*
X0163288Y0263182D01*
X0163310Y0263060D01*
X0163335Y0262939D01*
X0163364Y0262819D01*
X0163396Y0262700D01*
X0163433Y0262581D01*
X0163473Y0262464D01*
X0163516Y0262349D01*
X0163564Y0262234D01*
X0163615Y0262122D01*
X0163669Y0262011D01*
X0163727Y0261901D01*
X0163788Y0261794D01*
X0163853Y0261688D01*
X0163921Y0261585D01*
X0163992Y0261484D01*
X0164066Y0261385D01*
X0164143Y0261288D01*
X0164224Y0261194D01*
X0164307Y0261103D01*
X0164393Y0261014D01*
X0164482Y0260928D01*
X0164573Y0260845D01*
X0164667Y0260764D01*
X0164764Y0260687D01*
X0164863Y0260613D01*
X0164964Y0260542D01*
X0165067Y0260474D01*
X0165173Y0260409D01*
X0165280Y0260348D01*
X0165390Y0260290D01*
X0165501Y0260236D01*
X0165613Y0260185D01*
X0165728Y0260137D01*
X0165843Y0260094D01*
X0165960Y0260054D01*
X0166079Y0260017D01*
X0166198Y0259985D01*
X0166318Y0259956D01*
X0166439Y0259931D01*
X0166561Y0259909D01*
X0166684Y0259892D01*
X0166806Y0259878D01*
X0166930Y0259869D01*
X0167053Y0259863D01*
X0167177Y0259861D01*
X0214421Y0259861D01*
X0218358Y0263798D02*
X0218356Y0263922D01*
X0218350Y0264045D01*
X0218341Y0264169D01*
X0218327Y0264291D01*
X0218310Y0264414D01*
X0218288Y0264536D01*
X0218263Y0264657D01*
X0218234Y0264777D01*
X0218202Y0264896D01*
X0218165Y0265015D01*
X0218125Y0265132D01*
X0218082Y0265247D01*
X0218034Y0265362D01*
X0217983Y0265474D01*
X0217929Y0265585D01*
X0217871Y0265695D01*
X0217810Y0265802D01*
X0217745Y0265908D01*
X0217677Y0266011D01*
X0217606Y0266112D01*
X0217532Y0266211D01*
X0217455Y0266308D01*
X0217374Y0266402D01*
X0217291Y0266493D01*
X0217205Y0266582D01*
X0217116Y0266668D01*
X0217025Y0266751D01*
X0216931Y0266832D01*
X0216834Y0266909D01*
X0216735Y0266983D01*
X0216634Y0267054D01*
X0216531Y0267122D01*
X0216425Y0267187D01*
X0216318Y0267248D01*
X0216208Y0267306D01*
X0216097Y0267360D01*
X0215985Y0267411D01*
X0215870Y0267459D01*
X0215755Y0267502D01*
X0215638Y0267542D01*
X0215519Y0267579D01*
X0215400Y0267611D01*
X0215280Y0267640D01*
X0215159Y0267665D01*
X0215037Y0267687D01*
X0214914Y0267704D01*
X0214792Y0267718D01*
X0214668Y0267727D01*
X0214545Y0267733D01*
X0214421Y0267735D01*
X0167177Y0267735D01*
X0167053Y0267733D01*
X0166930Y0267727D01*
X0166806Y0267718D01*
X0166684Y0267704D01*
X0166561Y0267687D01*
X0166439Y0267665D01*
X0166318Y0267640D01*
X0166198Y0267611D01*
X0166079Y0267579D01*
X0165960Y0267542D01*
X0165843Y0267502D01*
X0165728Y0267459D01*
X0165613Y0267411D01*
X0165501Y0267360D01*
X0165390Y0267306D01*
X0165280Y0267248D01*
X0165173Y0267187D01*
X0165067Y0267122D01*
X0164964Y0267054D01*
X0164863Y0266983D01*
X0164764Y0266909D01*
X0164667Y0266832D01*
X0164573Y0266751D01*
X0164482Y0266668D01*
X0164393Y0266582D01*
X0164307Y0266493D01*
X0164224Y0266402D01*
X0164143Y0266308D01*
X0164066Y0266211D01*
X0163992Y0266112D01*
X0163921Y0266011D01*
X0163853Y0265908D01*
X0163788Y0265802D01*
X0163727Y0265695D01*
X0163669Y0265585D01*
X0163615Y0265474D01*
X0163564Y0265362D01*
X0163516Y0265247D01*
X0163473Y0265132D01*
X0163433Y0265015D01*
X0163396Y0264896D01*
X0163364Y0264777D01*
X0163335Y0264657D01*
X0163310Y0264536D01*
X0163288Y0264414D01*
X0163271Y0264291D01*
X0163257Y0264169D01*
X0163248Y0264045D01*
X0163242Y0263922D01*
X0163240Y0263798D01*
X0214421Y0259861D02*
X0214545Y0259863D01*
X0214668Y0259869D01*
X0214792Y0259878D01*
X0214914Y0259892D01*
X0215037Y0259909D01*
X0215159Y0259931D01*
X0215280Y0259956D01*
X0215400Y0259985D01*
X0215519Y0260017D01*
X0215638Y0260054D01*
X0215755Y0260094D01*
X0215870Y0260137D01*
X0215985Y0260185D01*
X0216097Y0260236D01*
X0216208Y0260290D01*
X0216318Y0260348D01*
X0216425Y0260409D01*
X0216531Y0260474D01*
X0216634Y0260542D01*
X0216735Y0260613D01*
X0216834Y0260687D01*
X0216931Y0260764D01*
X0217025Y0260845D01*
X0217116Y0260928D01*
X0217205Y0261014D01*
X0217291Y0261103D01*
X0217374Y0261194D01*
X0217455Y0261288D01*
X0217532Y0261385D01*
X0217606Y0261484D01*
X0217677Y0261585D01*
X0217745Y0261688D01*
X0217810Y0261794D01*
X0217871Y0261901D01*
X0217929Y0262011D01*
X0217983Y0262122D01*
X0218034Y0262234D01*
X0218082Y0262349D01*
X0218125Y0262464D01*
X0218165Y0262581D01*
X0218202Y0262700D01*
X0218234Y0262819D01*
X0218263Y0262939D01*
X0218288Y0263060D01*
X0218310Y0263182D01*
X0218327Y0263305D01*
X0218341Y0263427D01*
X0218350Y0263551D01*
X0218356Y0263674D01*
X0218358Y0263798D01*
X0277573Y0259998D02*
X0275210Y0152124D01*
X0324517Y0152024D01*
X0329266Y0259204D01*
X0277573Y0259998D01*
X0333497Y0259217D02*
X0354014Y0258917D01*
X0345308Y0063835D01*
X0324442Y0063835D01*
X0333497Y0259217D01*
X0337613Y0255730D02*
X0337613Y0254230D01*
X0337615Y0254183D01*
X0337620Y0254136D01*
X0337630Y0254090D01*
X0337642Y0254045D01*
X0337659Y0254000D01*
X0337678Y0253958D01*
X0337701Y0253917D01*
X0337728Y0253877D01*
X0337757Y0253840D01*
X0337789Y0253806D01*
X0337823Y0253774D01*
X0337860Y0253745D01*
X0337900Y0253718D01*
X0337941Y0253695D01*
X0337983Y0253676D01*
X0338028Y0253659D01*
X0338073Y0253647D01*
X0338119Y0253637D01*
X0338166Y0253632D01*
X0338213Y0253630D01*
X0338813Y0253630D01*
X0340025Y0254380D02*
X0340025Y0255580D01*
X0340027Y0255634D01*
X0340033Y0255687D01*
X0340042Y0255739D01*
X0340055Y0255791D01*
X0340072Y0255842D01*
X0340093Y0255892D01*
X0340117Y0255939D01*
X0340144Y0255985D01*
X0340175Y0256029D01*
X0340208Y0256071D01*
X0340245Y0256110D01*
X0340284Y0256147D01*
X0340326Y0256180D01*
X0340370Y0256211D01*
X0340416Y0256238D01*
X0340463Y0256262D01*
X0340513Y0256283D01*
X0340564Y0256300D01*
X0340616Y0256313D01*
X0340668Y0256322D01*
X0340721Y0256328D01*
X0340775Y0256330D01*
X0340829Y0256328D01*
X0340882Y0256322D01*
X0340934Y0256313D01*
X0340986Y0256300D01*
X0341037Y0256283D01*
X0341087Y0256262D01*
X0341134Y0256238D01*
X0341180Y0256211D01*
X0341224Y0256180D01*
X0341266Y0256147D01*
X0341305Y0256110D01*
X0341342Y0256071D01*
X0341375Y0256029D01*
X0341406Y0255985D01*
X0341433Y0255939D01*
X0341457Y0255892D01*
X0341478Y0255842D01*
X0341495Y0255791D01*
X0341508Y0255739D01*
X0341517Y0255687D01*
X0341523Y0255634D01*
X0341525Y0255580D01*
X0341525Y0254380D01*
X0341523Y0254326D01*
X0341517Y0254273D01*
X0341508Y0254221D01*
X0341495Y0254169D01*
X0341478Y0254118D01*
X0341457Y0254068D01*
X0341433Y0254021D01*
X0341406Y0253975D01*
X0341375Y0253931D01*
X0341342Y0253889D01*
X0341305Y0253850D01*
X0341266Y0253813D01*
X0341224Y0253780D01*
X0341180Y0253749D01*
X0341134Y0253722D01*
X0341087Y0253698D01*
X0341037Y0253677D01*
X0340986Y0253660D01*
X0340934Y0253647D01*
X0340882Y0253638D01*
X0340829Y0253632D01*
X0340775Y0253630D01*
X0340721Y0253632D01*
X0340668Y0253638D01*
X0340616Y0253647D01*
X0340564Y0253660D01*
X0340513Y0253677D01*
X0340463Y0253698D01*
X0340416Y0253722D01*
X0340370Y0253749D01*
X0340326Y0253780D01*
X0340284Y0253813D01*
X0340245Y0253850D01*
X0340208Y0253889D01*
X0340175Y0253931D01*
X0340144Y0253975D01*
X0340117Y0254021D01*
X0340093Y0254068D01*
X0340072Y0254118D01*
X0340055Y0254169D01*
X0340042Y0254221D01*
X0340033Y0254273D01*
X0340027Y0254326D01*
X0340025Y0254380D01*
X0338213Y0256330D02*
X0338166Y0256328D01*
X0338119Y0256323D01*
X0338073Y0256313D01*
X0338028Y0256301D01*
X0337983Y0256284D01*
X0337941Y0256265D01*
X0337900Y0256242D01*
X0337860Y0256215D01*
X0337823Y0256186D01*
X0337789Y0256154D01*
X0337757Y0256120D01*
X0337728Y0256083D01*
X0337701Y0256043D01*
X0337678Y0256002D01*
X0337659Y0255960D01*
X0337642Y0255915D01*
X0337630Y0255870D01*
X0337620Y0255824D01*
X0337615Y0255777D01*
X0337613Y0255730D01*
X0338213Y0256330D02*
X0338813Y0256330D01*
X0343009Y0256330D02*
X0343009Y0253630D01*
X0344209Y0253630D01*
X0345401Y0254380D02*
X0345401Y0255580D01*
X0345403Y0255634D01*
X0345409Y0255687D01*
X0345418Y0255739D01*
X0345431Y0255791D01*
X0345448Y0255842D01*
X0345469Y0255892D01*
X0345493Y0255939D01*
X0345520Y0255985D01*
X0345551Y0256029D01*
X0345584Y0256071D01*
X0345621Y0256110D01*
X0345660Y0256147D01*
X0345702Y0256180D01*
X0345746Y0256211D01*
X0345792Y0256238D01*
X0345839Y0256262D01*
X0345889Y0256283D01*
X0345940Y0256300D01*
X0345992Y0256313D01*
X0346044Y0256322D01*
X0346097Y0256328D01*
X0346151Y0256330D01*
X0346205Y0256328D01*
X0346258Y0256322D01*
X0346310Y0256313D01*
X0346362Y0256300D01*
X0346413Y0256283D01*
X0346463Y0256262D01*
X0346510Y0256238D01*
X0346556Y0256211D01*
X0346600Y0256180D01*
X0346642Y0256147D01*
X0346681Y0256110D01*
X0346718Y0256071D01*
X0346751Y0256029D01*
X0346782Y0255985D01*
X0346809Y0255939D01*
X0346833Y0255892D01*
X0346854Y0255842D01*
X0346871Y0255791D01*
X0346884Y0255739D01*
X0346893Y0255687D01*
X0346899Y0255634D01*
X0346901Y0255580D01*
X0346901Y0254380D01*
X0346899Y0254326D01*
X0346893Y0254273D01*
X0346884Y0254221D01*
X0346871Y0254169D01*
X0346854Y0254118D01*
X0346833Y0254068D01*
X0346809Y0254021D01*
X0346782Y0253975D01*
X0346751Y0253931D01*
X0346718Y0253889D01*
X0346681Y0253850D01*
X0346642Y0253813D01*
X0346600Y0253780D01*
X0346556Y0253749D01*
X0346510Y0253722D01*
X0346463Y0253698D01*
X0346413Y0253677D01*
X0346362Y0253660D01*
X0346310Y0253647D01*
X0346258Y0253638D01*
X0346205Y0253632D01*
X0346151Y0253630D01*
X0346097Y0253632D01*
X0346044Y0253638D01*
X0345992Y0253647D01*
X0345940Y0253660D01*
X0345889Y0253677D01*
X0345839Y0253698D01*
X0345792Y0253722D01*
X0345746Y0253749D01*
X0345702Y0253780D01*
X0345660Y0253813D01*
X0345621Y0253850D01*
X0345584Y0253889D01*
X0345551Y0253931D01*
X0345520Y0253975D01*
X0345493Y0254021D01*
X0345469Y0254068D01*
X0345448Y0254118D01*
X0345431Y0254169D01*
X0345418Y0254221D01*
X0345409Y0254273D01*
X0345403Y0254326D01*
X0345401Y0254380D01*
X0348404Y0254830D02*
X0349154Y0254830D01*
X0349304Y0254830D02*
X0349904Y0253630D01*
X0348404Y0253630D02*
X0348404Y0256330D01*
X0349154Y0256330D01*
X0349208Y0256328D01*
X0349261Y0256322D01*
X0349313Y0256313D01*
X0349365Y0256300D01*
X0349416Y0256283D01*
X0349466Y0256262D01*
X0349513Y0256238D01*
X0349559Y0256211D01*
X0349603Y0256180D01*
X0349645Y0256147D01*
X0349684Y0256110D01*
X0349721Y0256071D01*
X0349754Y0256029D01*
X0349785Y0255985D01*
X0349812Y0255939D01*
X0349836Y0255892D01*
X0349857Y0255842D01*
X0349874Y0255791D01*
X0349887Y0255739D01*
X0349896Y0255687D01*
X0349902Y0255634D01*
X0349904Y0255580D01*
X0349902Y0255526D01*
X0349896Y0255473D01*
X0349887Y0255421D01*
X0349874Y0255369D01*
X0349857Y0255318D01*
X0349836Y0255268D01*
X0349812Y0255221D01*
X0349785Y0255175D01*
X0349754Y0255131D01*
X0349721Y0255089D01*
X0349684Y0255050D01*
X0349645Y0255013D01*
X0349603Y0254980D01*
X0349559Y0254949D01*
X0349513Y0254922D01*
X0349466Y0254898D01*
X0349416Y0254877D01*
X0349365Y0254860D01*
X0349313Y0254847D01*
X0349261Y0254838D01*
X0349208Y0254832D01*
X0349154Y0254830D01*
X0343654Y0232648D02*
X0344515Y0232417D01*
X0345324Y0232040D01*
X0346055Y0231529D01*
X0346686Y0230898D01*
X0347197Y0230167D01*
X0347574Y0229358D01*
X0347805Y0228497D01*
X0347883Y0227608D01*
X0347883Y0227214D01*
X0347805Y0226325D01*
X0347574Y0225464D01*
X0347197Y0224655D01*
X0346686Y0223924D01*
X0346055Y0223293D01*
X0345324Y0222782D01*
X0344515Y0222405D01*
X0343654Y0222174D01*
X0342765Y0222096D01*
X0342371Y0222096D01*
X0341482Y0222174D01*
X0340621Y0222405D01*
X0339812Y0222782D01*
X0339081Y0223293D01*
X0338450Y0223924D01*
X0337939Y0224655D01*
X0337562Y0225464D01*
X0337331Y0226325D01*
X0337253Y0227214D01*
X0337253Y0227608D01*
X0337331Y0228497D01*
X0337562Y0229358D01*
X0337939Y0230167D01*
X0338450Y0230898D01*
X0339081Y0231529D01*
X0339812Y0232040D01*
X0340621Y0232417D01*
X0341482Y0232648D01*
X0342371Y0232726D01*
X0342765Y0232726D01*
X0343654Y0232648D01*
X0344854Y0232260D02*
X0340282Y0232260D01*
X0339413Y0231761D02*
X0345723Y0231761D01*
X0346321Y0231263D02*
X0338815Y0231263D01*
X0338357Y0230764D02*
X0346779Y0230764D01*
X0347128Y0230266D02*
X0338008Y0230266D01*
X0337752Y0229767D02*
X0347384Y0229767D01*
X0347598Y0229269D02*
X0337538Y0229269D01*
X0337404Y0228770D02*
X0347732Y0228770D01*
X0347825Y0228272D02*
X0337311Y0228272D01*
X0337267Y0227773D02*
X0347868Y0227773D01*
X0347883Y0227274D02*
X0337253Y0227274D01*
X0337291Y0226776D02*
X0347845Y0226776D01*
X0347792Y0226277D02*
X0337344Y0226277D01*
X0337477Y0225779D02*
X0347659Y0225779D01*
X0347489Y0225280D02*
X0337647Y0225280D01*
X0337880Y0224782D02*
X0347256Y0224782D01*
X0346937Y0224283D02*
X0338199Y0224283D01*
X0338590Y0223785D02*
X0346546Y0223785D01*
X0346045Y0223286D02*
X0339091Y0223286D01*
X0339803Y0222788D02*
X0345333Y0222788D01*
X0344085Y0222289D02*
X0341051Y0222289D01*
X0341977Y0213435D02*
X0342371Y0213435D01*
X0343260Y0213357D01*
X0344122Y0213126D01*
X0344930Y0212749D01*
X0345661Y0212237D01*
X0346292Y0211606D01*
X0346804Y0210876D01*
X0347181Y0210067D01*
X0347411Y0209205D01*
X0347489Y0208317D01*
X0347489Y0207923D01*
X0347411Y0207034D01*
X0347181Y0206172D01*
X0346804Y0205364D01*
X0346292Y0204633D01*
X0345661Y0204002D01*
X0344930Y0203490D01*
X0344122Y0203113D01*
X0343260Y0202882D01*
X0342371Y0202805D01*
X0341977Y0202805D01*
X0341089Y0202882D01*
X0340227Y0203113D01*
X0339418Y0203490D01*
X0338688Y0204002D01*
X0338057Y0204633D01*
X0337545Y0205364D01*
X0337168Y0206172D01*
X0336937Y0207034D01*
X0336859Y0207923D01*
X0336859Y0208317D01*
X0336937Y0209205D01*
X0337168Y0210067D01*
X0337545Y0210876D01*
X0338057Y0211606D01*
X0338688Y0212237D01*
X0339418Y0212749D01*
X0340227Y0213126D01*
X0341089Y0213357D01*
X0341977Y0213435D01*
X0340937Y0213316D02*
X0343412Y0213316D01*
X0344783Y0212818D02*
X0339566Y0212818D01*
X0338805Y0212319D02*
X0345544Y0212319D01*
X0346078Y0211821D02*
X0338271Y0211821D01*
X0337858Y0211322D02*
X0346491Y0211322D01*
X0346828Y0210824D02*
X0337521Y0210824D01*
X0337288Y0210325D02*
X0347060Y0210325D01*
X0347245Y0209827D02*
X0337104Y0209827D01*
X0336970Y0209328D02*
X0347379Y0209328D01*
X0347444Y0208830D02*
X0336904Y0208830D01*
X0336861Y0208331D02*
X0347488Y0208331D01*
X0347481Y0207833D02*
X0336867Y0207833D01*
X0336911Y0207334D02*
X0347438Y0207334D01*
X0347358Y0206836D02*
X0336990Y0206836D01*
X0337124Y0206337D02*
X0347225Y0206337D01*
X0347025Y0205839D02*
X0337324Y0205839D01*
X0337562Y0205340D02*
X0346787Y0205340D01*
X0346438Y0204841D02*
X0337911Y0204841D01*
X0338347Y0204343D02*
X0346002Y0204343D01*
X0345436Y0203844D02*
X0338913Y0203844D01*
X0339728Y0203346D02*
X0344620Y0203346D01*
X0342859Y0202847D02*
X0341489Y0202847D01*
X0341559Y0194147D02*
X0341165Y0194147D01*
X0340276Y0194069D01*
X0339414Y0193839D01*
X0338606Y0193462D01*
X0337875Y0192950D01*
X0337244Y0192319D01*
X0336732Y0191588D01*
X0336355Y0190780D01*
X0336124Y0189918D01*
X0336047Y0189029D01*
X0336047Y0188635D01*
X0336124Y0187747D01*
X0336355Y0186885D01*
X0336732Y0186076D01*
X0337244Y0185346D01*
X0337875Y0184715D01*
X0338606Y0184203D01*
X0339414Y0183826D01*
X0340276Y0183595D01*
X0341165Y0183517D01*
X0341559Y0183517D01*
X0342447Y0183595D01*
X0343309Y0183826D01*
X0344118Y0184203D01*
X0344848Y0184715D01*
X0345479Y0185346D01*
X0345991Y0186076D01*
X0346368Y0186885D01*
X0346599Y0187747D01*
X0346677Y0188635D01*
X0346677Y0189029D01*
X0346599Y0189918D01*
X0346368Y0190780D01*
X0345991Y0191588D01*
X0345479Y0192319D01*
X0344848Y0192950D01*
X0344118Y0193462D01*
X0343309Y0193839D01*
X0342447Y0194069D01*
X0341559Y0194147D01*
X0343176Y0193874D02*
X0339547Y0193874D01*
X0338483Y0193376D02*
X0344240Y0193376D01*
X0344921Y0192877D02*
X0337802Y0192877D01*
X0337304Y0192379D02*
X0345420Y0192379D01*
X0345786Y0191880D02*
X0336937Y0191880D01*
X0336636Y0191382D02*
X0346087Y0191382D01*
X0346320Y0190883D02*
X0336404Y0190883D01*
X0336250Y0190385D02*
X0346474Y0190385D01*
X0346602Y0189886D02*
X0336122Y0189886D01*
X0336078Y0189388D02*
X0346645Y0189388D01*
X0346677Y0188889D02*
X0336047Y0188889D01*
X0336068Y0188391D02*
X0346655Y0188391D01*
X0346612Y0187892D02*
X0336112Y0187892D01*
X0336219Y0187394D02*
X0346504Y0187394D01*
X0346371Y0186895D02*
X0336353Y0186895D01*
X0336583Y0186397D02*
X0346140Y0186397D01*
X0345866Y0185898D02*
X0336857Y0185898D01*
X0337206Y0185400D02*
X0345517Y0185400D01*
X0345035Y0184901D02*
X0337689Y0184901D01*
X0338321Y0184403D02*
X0344403Y0184403D01*
X0343476Y0183904D02*
X0339247Y0183904D01*
X0337515Y0124365D02*
X0337122Y0124365D01*
X0336233Y0124287D01*
X0335371Y0124056D01*
X0334562Y0123679D01*
X0333832Y0123167D01*
X0333201Y0122536D01*
X0332689Y0121806D01*
X0332312Y0120997D01*
X0332081Y0120135D01*
X0332003Y0119246D01*
X0332003Y0118853D01*
X0332081Y0117964D01*
X0332312Y0117102D01*
X0332689Y0116294D01*
X0333201Y0115563D01*
X0333832Y0114932D01*
X0334562Y0114420D01*
X0335371Y0114043D01*
X0336233Y0113812D01*
X0337122Y0113735D01*
X0337515Y0113735D01*
X0338404Y0113812D01*
X0339266Y0114043D01*
X0340074Y0114420D01*
X0340805Y0114932D01*
X0341436Y0115563D01*
X0341948Y0116294D01*
X0342325Y0117102D01*
X0342556Y0117964D01*
X0342633Y0118853D01*
X0342633Y0119246D01*
X0342556Y0120135D01*
X0342325Y0120997D01*
X0341948Y0121806D01*
X0341436Y0122536D01*
X0340805Y0123167D01*
X0340074Y0123679D01*
X0339266Y0124056D01*
X0338404Y0124287D01*
X0337515Y0124365D01*
X0339166Y0124083D02*
X0335471Y0124083D01*
X0334427Y0123584D02*
X0340210Y0123584D01*
X0340887Y0123086D02*
X0333750Y0123086D01*
X0333252Y0122587D02*
X0341385Y0122587D01*
X0341749Y0122089D02*
X0332887Y0122089D01*
X0332589Y0121590D02*
X0342048Y0121590D01*
X0342281Y0121092D02*
X0332356Y0121092D01*
X0332204Y0120593D02*
X0342433Y0120593D01*
X0342559Y0120095D02*
X0332078Y0120095D01*
X0332034Y0119596D02*
X0342603Y0119596D01*
X0342633Y0119098D02*
X0332003Y0119098D01*
X0332026Y0118599D02*
X0342611Y0118599D01*
X0342568Y0118101D02*
X0332069Y0118101D01*
X0332178Y0117602D02*
X0342459Y0117602D01*
X0342325Y0117103D02*
X0332312Y0117103D01*
X0332544Y0116605D02*
X0342093Y0116605D01*
X0341817Y0116106D02*
X0332820Y0116106D01*
X0333169Y0115608D02*
X0341467Y0115608D01*
X0340982Y0115109D02*
X0333654Y0115109D01*
X0334290Y0114611D02*
X0340346Y0114611D01*
X0339414Y0114112D02*
X0335223Y0114112D01*
X0330722Y0105168D02*
X0341745Y0105168D01*
X0341745Y0088632D01*
X0330722Y0088632D01*
X0330722Y0105168D01*
X0333181Y0101444D02*
X0332451Y0100933D01*
X0331820Y0100302D01*
X0331308Y0099571D01*
X0330931Y0098762D01*
X0330700Y0097901D01*
X0330622Y0097012D01*
X0330622Y0096618D01*
X0330700Y0095729D01*
X0330931Y0094868D01*
X0331308Y0094059D01*
X0331820Y0093328D01*
X0332451Y0092697D01*
X0333181Y0092186D01*
X0333990Y0091809D01*
X0334852Y0091578D01*
X0335740Y0091500D01*
X0336134Y0091500D01*
X0337023Y0091578D01*
X0337885Y0091809D01*
X0338693Y0092186D01*
X0339424Y0092697D01*
X0340055Y0093328D01*
X0340567Y0094059D01*
X0340944Y0094868D01*
X0341174Y0095729D01*
X0341252Y0096618D01*
X0341252Y0097012D01*
X0341174Y0097901D01*
X0340944Y0098762D01*
X0340567Y0099571D01*
X0340055Y0100302D01*
X0339424Y0100933D01*
X0338693Y0101444D01*
X0337885Y0101821D01*
X0337023Y0102052D01*
X0336134Y0102130D01*
X0335740Y0102130D01*
X0334852Y0102052D01*
X0333990Y0101821D01*
X0333181Y0101444D01*
X0333622Y0101650D02*
X0338253Y0101650D01*
X0339112Y0101151D02*
X0332763Y0101151D01*
X0332171Y0100653D02*
X0339704Y0100653D01*
X0340158Y0100154D02*
X0331716Y0100154D01*
X0331367Y0099656D02*
X0340507Y0099656D01*
X0340759Y0099157D02*
X0331115Y0099157D01*
X0330903Y0098659D02*
X0340971Y0098659D01*
X0341105Y0098160D02*
X0330770Y0098160D01*
X0330679Y0097662D02*
X0341195Y0097662D01*
X0341239Y0097163D02*
X0330636Y0097163D01*
X0330622Y0096665D02*
X0341252Y0096665D01*
X0341213Y0096166D02*
X0330662Y0096166D01*
X0330717Y0095668D02*
X0341158Y0095668D01*
X0341024Y0095169D02*
X0330850Y0095169D01*
X0331023Y0094670D02*
X0340852Y0094670D01*
X0340619Y0094172D02*
X0331255Y0094172D01*
X0331578Y0093673D02*
X0340297Y0093673D01*
X0339902Y0093175D02*
X0331973Y0093175D01*
X0332481Y0092676D02*
X0339394Y0092676D01*
X0338677Y0092178D02*
X0333198Y0092178D01*
X0334472Y0091679D02*
X0337402Y0091679D01*
X0337021Y0092569D02*
X0335446Y0092569D01*
X0335351Y0092571D01*
X0335256Y0092577D01*
X0335161Y0092586D01*
X0335067Y0092600D01*
X0334974Y0092617D01*
X0334881Y0092638D01*
X0334789Y0092662D01*
X0334698Y0092691D01*
X0334608Y0092722D01*
X0334520Y0092758D01*
X0334433Y0092797D01*
X0334348Y0092840D01*
X0334265Y0092885D01*
X0334184Y0092935D01*
X0334104Y0092987D01*
X0334027Y0093043D01*
X0333952Y0093101D01*
X0333880Y0093163D01*
X0333810Y0093228D01*
X0333743Y0093295D01*
X0333678Y0093365D01*
X0333616Y0093437D01*
X0333558Y0093512D01*
X0333502Y0093589D01*
X0333450Y0093669D01*
X0333400Y0093750D01*
X0333355Y0093833D01*
X0333312Y0093918D01*
X0333273Y0094005D01*
X0333237Y0094093D01*
X0333206Y0094183D01*
X0333177Y0094274D01*
X0333153Y0094366D01*
X0333132Y0094459D01*
X0333115Y0094552D01*
X0333101Y0094646D01*
X0333092Y0094741D01*
X0333086Y0094836D01*
X0333084Y0094931D01*
X0333084Y0098869D01*
X0333086Y0098964D01*
X0333092Y0099059D01*
X0333101Y0099154D01*
X0333115Y0099248D01*
X0333132Y0099341D01*
X0333153Y0099434D01*
X0333177Y0099526D01*
X0333206Y0099617D01*
X0333237Y0099707D01*
X0333273Y0099795D01*
X0333312Y0099882D01*
X0333355Y0099967D01*
X0333400Y0100050D01*
X0333450Y0100131D01*
X0333502Y0100211D01*
X0333558Y0100288D01*
X0333616Y0100363D01*
X0333678Y0100435D01*
X0333743Y0100505D01*
X0333810Y0100572D01*
X0333880Y0100637D01*
X0333952Y0100699D01*
X0334027Y0100757D01*
X0334104Y0100813D01*
X0334184Y0100865D01*
X0334265Y0100915D01*
X0334348Y0100960D01*
X0334433Y0101003D01*
X0334520Y0101042D01*
X0334608Y0101078D01*
X0334698Y0101109D01*
X0334789Y0101138D01*
X0334881Y0101162D01*
X0334974Y0101183D01*
X0335067Y0101200D01*
X0335161Y0101214D01*
X0335256Y0101223D01*
X0335351Y0101229D01*
X0335446Y0101231D01*
X0337021Y0101231D01*
X0337116Y0101229D01*
X0337211Y0101223D01*
X0337306Y0101214D01*
X0337400Y0101200D01*
X0337493Y0101183D01*
X0337586Y0101162D01*
X0337678Y0101138D01*
X0337769Y0101109D01*
X0337859Y0101078D01*
X0337947Y0101042D01*
X0338034Y0101003D01*
X0338119Y0100960D01*
X0338202Y0100915D01*
X0338283Y0100865D01*
X0338363Y0100813D01*
X0338440Y0100757D01*
X0338515Y0100699D01*
X0338587Y0100637D01*
X0338657Y0100572D01*
X0338724Y0100505D01*
X0338789Y0100435D01*
X0338851Y0100363D01*
X0338909Y0100288D01*
X0338965Y0100211D01*
X0339017Y0100131D01*
X0339067Y0100050D01*
X0339112Y0099967D01*
X0339155Y0099882D01*
X0339194Y0099795D01*
X0339230Y0099707D01*
X0339261Y0099617D01*
X0339290Y0099526D01*
X0339314Y0099434D01*
X0339335Y0099341D01*
X0339352Y0099248D01*
X0339366Y0099154D01*
X0339375Y0099059D01*
X0339381Y0098964D01*
X0339383Y0098869D01*
X0339383Y0094931D01*
X0339381Y0094836D01*
X0339375Y0094741D01*
X0339366Y0094646D01*
X0339352Y0094552D01*
X0339335Y0094459D01*
X0339314Y0094366D01*
X0339290Y0094274D01*
X0339261Y0094183D01*
X0339230Y0094093D01*
X0339194Y0094005D01*
X0339155Y0093918D01*
X0339112Y0093833D01*
X0339067Y0093750D01*
X0339017Y0093669D01*
X0338965Y0093589D01*
X0338909Y0093512D01*
X0338851Y0093437D01*
X0338789Y0093365D01*
X0338724Y0093295D01*
X0338657Y0093228D01*
X0338587Y0093163D01*
X0338515Y0093101D01*
X0338440Y0093043D01*
X0338363Y0092987D01*
X0338283Y0092935D01*
X0338202Y0092885D01*
X0338119Y0092840D01*
X0338034Y0092797D01*
X0337947Y0092758D01*
X0337859Y0092722D01*
X0337769Y0092691D01*
X0337678Y0092662D01*
X0337586Y0092638D01*
X0337493Y0092617D01*
X0337400Y0092600D01*
X0337306Y0092586D01*
X0337211Y0092577D01*
X0337116Y0092571D01*
X0337021Y0092569D01*
X0281426Y0112400D02*
X0281432Y0112849D01*
X0281448Y0113298D01*
X0281476Y0113747D01*
X0281514Y0114194D01*
X0281564Y0114641D01*
X0281624Y0115086D01*
X0281696Y0115530D01*
X0281778Y0115972D01*
X0281871Y0116411D01*
X0281975Y0116848D01*
X0282089Y0117283D01*
X0282214Y0117714D01*
X0282350Y0118143D01*
X0282496Y0118567D01*
X0282653Y0118989D01*
X0282820Y0119406D01*
X0282997Y0119819D01*
X0283184Y0120227D01*
X0283381Y0120631D01*
X0283588Y0121030D01*
X0283804Y0121423D01*
X0284031Y0121812D01*
X0284266Y0122194D01*
X0284511Y0122571D01*
X0284765Y0122941D01*
X0285029Y0123305D01*
X0285301Y0123663D01*
X0285581Y0124014D01*
X0285871Y0124358D01*
X0286168Y0124694D01*
X0286474Y0125023D01*
X0286788Y0125345D01*
X0287110Y0125659D01*
X0287439Y0125965D01*
X0287775Y0126262D01*
X0288119Y0126552D01*
X0288470Y0126832D01*
X0288828Y0127104D01*
X0289192Y0127368D01*
X0289562Y0127622D01*
X0289939Y0127867D01*
X0290321Y0128102D01*
X0290710Y0128329D01*
X0291103Y0128545D01*
X0291502Y0128752D01*
X0291906Y0128949D01*
X0292314Y0129136D01*
X0292727Y0129313D01*
X0293144Y0129480D01*
X0293566Y0129637D01*
X0293990Y0129783D01*
X0294419Y0129919D01*
X0294850Y0130044D01*
X0295285Y0130158D01*
X0295722Y0130262D01*
X0296161Y0130355D01*
X0296603Y0130437D01*
X0297047Y0130509D01*
X0297492Y0130569D01*
X0297939Y0130619D01*
X0298386Y0130657D01*
X0298835Y0130685D01*
X0299284Y0130701D01*
X0299733Y0130707D01*
X0300182Y0130701D01*
X0300631Y0130685D01*
X0301080Y0130657D01*
X0301527Y0130619D01*
X0301974Y0130569D01*
X0302419Y0130509D01*
X0302863Y0130437D01*
X0303305Y0130355D01*
X0303744Y0130262D01*
X0304181Y0130158D01*
X0304616Y0130044D01*
X0305047Y0129919D01*
X0305476Y0129783D01*
X0305900Y0129637D01*
X0306322Y0129480D01*
X0306739Y0129313D01*
X0307152Y0129136D01*
X0307560Y0128949D01*
X0307964Y0128752D01*
X0308363Y0128545D01*
X0308756Y0128329D01*
X0309145Y0128102D01*
X0309527Y0127867D01*
X0309904Y0127622D01*
X0310274Y0127368D01*
X0310638Y0127104D01*
X0310996Y0126832D01*
X0311347Y0126552D01*
X0311691Y0126262D01*
X0312027Y0125965D01*
X0312356Y0125659D01*
X0312678Y0125345D01*
X0312992Y0125023D01*
X0313298Y0124694D01*
X0313595Y0124358D01*
X0313885Y0124014D01*
X0314165Y0123663D01*
X0314437Y0123305D01*
X0314701Y0122941D01*
X0314955Y0122571D01*
X0315200Y0122194D01*
X0315435Y0121812D01*
X0315662Y0121423D01*
X0315878Y0121030D01*
X0316085Y0120631D01*
X0316282Y0120227D01*
X0316469Y0119819D01*
X0316646Y0119406D01*
X0316813Y0118989D01*
X0316970Y0118567D01*
X0317116Y0118143D01*
X0317252Y0117714D01*
X0317377Y0117283D01*
X0317491Y0116848D01*
X0317595Y0116411D01*
X0317688Y0115972D01*
X0317770Y0115530D01*
X0317842Y0115086D01*
X0317902Y0114641D01*
X0317952Y0114194D01*
X0317990Y0113747D01*
X0318018Y0113298D01*
X0318034Y0112849D01*
X0318040Y0112400D01*
X0318034Y0111951D01*
X0318018Y0111502D01*
X0317990Y0111053D01*
X0317952Y0110606D01*
X0317902Y0110159D01*
X0317842Y0109714D01*
X0317770Y0109270D01*
X0317688Y0108828D01*
X0317595Y0108389D01*
X0317491Y0107952D01*
X0317377Y0107517D01*
X0317252Y0107086D01*
X0317116Y0106657D01*
X0316970Y0106233D01*
X0316813Y0105811D01*
X0316646Y0105394D01*
X0316469Y0104981D01*
X0316282Y0104573D01*
X0316085Y0104169D01*
X0315878Y0103770D01*
X0315662Y0103377D01*
X0315435Y0102988D01*
X0315200Y0102606D01*
X0314955Y0102229D01*
X0314701Y0101859D01*
X0314437Y0101495D01*
X0314165Y0101137D01*
X0313885Y0100786D01*
X0313595Y0100442D01*
X0313298Y0100106D01*
X0312992Y0099777D01*
X0312678Y0099455D01*
X0312356Y0099141D01*
X0312027Y0098835D01*
X0311691Y0098538D01*
X0311347Y0098248D01*
X0310996Y0097968D01*
X0310638Y0097696D01*
X0310274Y0097432D01*
X0309904Y0097178D01*
X0309527Y0096933D01*
X0309145Y0096698D01*
X0308756Y0096471D01*
X0308363Y0096255D01*
X0307964Y0096048D01*
X0307560Y0095851D01*
X0307152Y0095664D01*
X0306739Y0095487D01*
X0306322Y0095320D01*
X0305900Y0095163D01*
X0305476Y0095017D01*
X0305047Y0094881D01*
X0304616Y0094756D01*
X0304181Y0094642D01*
X0303744Y0094538D01*
X0303305Y0094445D01*
X0302863Y0094363D01*
X0302419Y0094291D01*
X0301974Y0094231D01*
X0301527Y0094181D01*
X0301080Y0094143D01*
X0300631Y0094115D01*
X0300182Y0094099D01*
X0299733Y0094093D01*
X0299284Y0094099D01*
X0298835Y0094115D01*
X0298386Y0094143D01*
X0297939Y0094181D01*
X0297492Y0094231D01*
X0297047Y0094291D01*
X0296603Y0094363D01*
X0296161Y0094445D01*
X0295722Y0094538D01*
X0295285Y0094642D01*
X0294850Y0094756D01*
X0294419Y0094881D01*
X0293990Y0095017D01*
X0293566Y0095163D01*
X0293144Y0095320D01*
X0292727Y0095487D01*
X0292314Y0095664D01*
X0291906Y0095851D01*
X0291502Y0096048D01*
X0291103Y0096255D01*
X0290710Y0096471D01*
X0290321Y0096698D01*
X0289939Y0096933D01*
X0289562Y0097178D01*
X0289192Y0097432D01*
X0288828Y0097696D01*
X0288470Y0097968D01*
X0288119Y0098248D01*
X0287775Y0098538D01*
X0287439Y0098835D01*
X0287110Y0099141D01*
X0286788Y0099455D01*
X0286474Y0099777D01*
X0286168Y0100106D01*
X0285871Y0100442D01*
X0285581Y0100786D01*
X0285301Y0101137D01*
X0285029Y0101495D01*
X0284765Y0101859D01*
X0284511Y0102229D01*
X0284266Y0102606D01*
X0284031Y0102988D01*
X0283804Y0103377D01*
X0283588Y0103770D01*
X0283381Y0104169D01*
X0283184Y0104573D01*
X0282997Y0104981D01*
X0282820Y0105394D01*
X0282653Y0105811D01*
X0282496Y0106233D01*
X0282350Y0106657D01*
X0282214Y0107086D01*
X0282089Y0107517D01*
X0281975Y0107952D01*
X0281871Y0108389D01*
X0281778Y0108828D01*
X0281696Y0109270D01*
X0281624Y0109714D01*
X0281564Y0110159D01*
X0281514Y0110606D01*
X0281476Y0111053D01*
X0281448Y0111502D01*
X0281432Y0111951D01*
X0281426Y0112400D01*
D14*
X0280866Y0069428D02*
X0280866Y0065328D01*
X0283010Y0065328D02*
X0284377Y0069428D01*
X0285743Y0065328D01*
X0285402Y0066353D02*
X0283352Y0066353D01*
X0280866Y0067606D02*
X0278588Y0067606D01*
X0278588Y0069428D02*
X0278588Y0065328D01*
X0287717Y0066239D02*
X0287717Y0068517D01*
X0287719Y0068577D01*
X0287725Y0068636D01*
X0287735Y0068695D01*
X0287748Y0068753D01*
X0287765Y0068810D01*
X0287786Y0068866D01*
X0287811Y0068920D01*
X0287839Y0068972D01*
X0287871Y0069023D01*
X0287905Y0069072D01*
X0287943Y0069118D01*
X0287984Y0069161D01*
X0288027Y0069202D01*
X0288073Y0069240D01*
X0288122Y0069274D01*
X0288172Y0069306D01*
X0288225Y0069334D01*
X0288279Y0069359D01*
X0288335Y0069380D01*
X0288392Y0069397D01*
X0288450Y0069410D01*
X0288509Y0069420D01*
X0288568Y0069426D01*
X0288628Y0069428D01*
X0289539Y0069428D01*
X0291746Y0069428D02*
X0291746Y0065328D01*
X0291746Y0066922D02*
X0294024Y0069428D01*
X0292657Y0067834D02*
X0294024Y0065328D01*
X0295760Y0065328D02*
X0297127Y0069428D01*
X0298493Y0065328D01*
X0298152Y0066353D02*
X0296102Y0066353D01*
X0300188Y0069428D02*
X0302466Y0069428D01*
X0301327Y0069428D02*
X0301327Y0065328D01*
X0304585Y0065328D02*
X0304585Y0069428D01*
X0305724Y0069428D01*
X0305790Y0069426D01*
X0305856Y0069420D01*
X0305922Y0069411D01*
X0305987Y0069397D01*
X0306051Y0069380D01*
X0306114Y0069359D01*
X0306175Y0069335D01*
X0306235Y0069307D01*
X0306294Y0069275D01*
X0306350Y0069241D01*
X0306404Y0069203D01*
X0306456Y0069162D01*
X0306506Y0069117D01*
X0306552Y0069071D01*
X0306597Y0069021D01*
X0306638Y0068969D01*
X0306676Y0068915D01*
X0306710Y0068859D01*
X0306742Y0068800D01*
X0306770Y0068740D01*
X0306794Y0068679D01*
X0306815Y0068616D01*
X0306832Y0068552D01*
X0306846Y0068487D01*
X0306855Y0068421D01*
X0306861Y0068355D01*
X0306863Y0068289D01*
X0306861Y0068223D01*
X0306855Y0068157D01*
X0306846Y0068091D01*
X0306832Y0068026D01*
X0306815Y0067962D01*
X0306794Y0067899D01*
X0306770Y0067838D01*
X0306742Y0067778D01*
X0306710Y0067720D01*
X0306676Y0067663D01*
X0306638Y0067609D01*
X0306597Y0067557D01*
X0306552Y0067507D01*
X0306506Y0067461D01*
X0306456Y0067416D01*
X0306404Y0067375D01*
X0306350Y0067337D01*
X0306294Y0067303D01*
X0306235Y0067271D01*
X0306175Y0067243D01*
X0306114Y0067219D01*
X0306051Y0067198D01*
X0305987Y0067181D01*
X0305922Y0067167D01*
X0305856Y0067158D01*
X0305790Y0067152D01*
X0305724Y0067150D01*
X0304585Y0067150D01*
X0305951Y0067150D02*
X0306863Y0065328D01*
X0309038Y0066467D02*
X0309038Y0068289D01*
X0309040Y0068355D01*
X0309046Y0068421D01*
X0309055Y0068487D01*
X0309069Y0068552D01*
X0309086Y0068616D01*
X0309107Y0068679D01*
X0309131Y0068740D01*
X0309159Y0068800D01*
X0309191Y0068859D01*
X0309225Y0068915D01*
X0309263Y0068969D01*
X0309304Y0069021D01*
X0309349Y0069071D01*
X0309395Y0069117D01*
X0309445Y0069162D01*
X0309497Y0069203D01*
X0309551Y0069241D01*
X0309608Y0069275D01*
X0309666Y0069307D01*
X0309726Y0069335D01*
X0309787Y0069359D01*
X0309850Y0069380D01*
X0309914Y0069397D01*
X0309979Y0069411D01*
X0310045Y0069420D01*
X0310111Y0069426D01*
X0310177Y0069428D01*
X0310243Y0069426D01*
X0310309Y0069420D01*
X0310375Y0069411D01*
X0310440Y0069397D01*
X0310504Y0069380D01*
X0310567Y0069359D01*
X0310628Y0069335D01*
X0310688Y0069307D01*
X0310747Y0069275D01*
X0310803Y0069241D01*
X0310857Y0069203D01*
X0310909Y0069162D01*
X0310959Y0069117D01*
X0311005Y0069071D01*
X0311050Y0069021D01*
X0311091Y0068969D01*
X0311129Y0068915D01*
X0311163Y0068859D01*
X0311195Y0068800D01*
X0311223Y0068740D01*
X0311247Y0068679D01*
X0311268Y0068616D01*
X0311285Y0068552D01*
X0311299Y0068487D01*
X0311308Y0068421D01*
X0311314Y0068355D01*
X0311316Y0068289D01*
X0311315Y0068289D02*
X0311315Y0066467D01*
X0311316Y0066467D02*
X0311314Y0066401D01*
X0311308Y0066335D01*
X0311299Y0066269D01*
X0311285Y0066204D01*
X0311268Y0066140D01*
X0311247Y0066077D01*
X0311223Y0066016D01*
X0311195Y0065956D01*
X0311163Y0065898D01*
X0311129Y0065841D01*
X0311091Y0065787D01*
X0311050Y0065735D01*
X0311005Y0065685D01*
X0310959Y0065639D01*
X0310909Y0065594D01*
X0310857Y0065553D01*
X0310803Y0065515D01*
X0310747Y0065481D01*
X0310688Y0065449D01*
X0310628Y0065421D01*
X0310567Y0065397D01*
X0310504Y0065376D01*
X0310440Y0065359D01*
X0310375Y0065345D01*
X0310309Y0065336D01*
X0310243Y0065330D01*
X0310177Y0065328D01*
X0310111Y0065330D01*
X0310045Y0065336D01*
X0309979Y0065345D01*
X0309914Y0065359D01*
X0309850Y0065376D01*
X0309787Y0065397D01*
X0309726Y0065421D01*
X0309666Y0065449D01*
X0309608Y0065481D01*
X0309551Y0065515D01*
X0309497Y0065553D01*
X0309445Y0065594D01*
X0309395Y0065639D01*
X0309349Y0065685D01*
X0309304Y0065735D01*
X0309263Y0065787D01*
X0309225Y0065841D01*
X0309191Y0065898D01*
X0309159Y0065956D01*
X0309131Y0066016D01*
X0309107Y0066077D01*
X0309086Y0066140D01*
X0309069Y0066204D01*
X0309055Y0066269D01*
X0309046Y0066335D01*
X0309040Y0066401D01*
X0309038Y0066467D01*
X0313688Y0065328D02*
X0313688Y0069428D01*
X0315965Y0065328D01*
X0315965Y0069428D01*
X0289539Y0065328D02*
X0288628Y0065328D01*
X0288568Y0065330D01*
X0288509Y0065336D01*
X0288450Y0065346D01*
X0288392Y0065359D01*
X0288335Y0065376D01*
X0288279Y0065397D01*
X0288225Y0065422D01*
X0288173Y0065450D01*
X0288122Y0065482D01*
X0288073Y0065516D01*
X0288027Y0065554D01*
X0287984Y0065595D01*
X0287943Y0065638D01*
X0287905Y0065684D01*
X0287871Y0065733D01*
X0287839Y0065784D01*
X0287811Y0065836D01*
X0287786Y0065890D01*
X0287765Y0065946D01*
X0287748Y0066003D01*
X0287735Y0066061D01*
X0287725Y0066120D01*
X0287719Y0066179D01*
X0287717Y0066239D01*
D15*
X0160933Y0075859D02*
X0158166Y0071939D01*
X0158166Y0067559D01*
X0158166Y0071939D02*
X0155400Y0075859D01*
X0151978Y0075859D02*
X0151978Y0067559D01*
X0147367Y0075859D01*
X0147367Y0067559D01*
X0143484Y0069864D02*
X0143484Y0073553D01*
X0143482Y0073648D01*
X0143476Y0073743D01*
X0143466Y0073838D01*
X0143453Y0073933D01*
X0143435Y0074026D01*
X0143413Y0074119D01*
X0143388Y0074211D01*
X0143359Y0074302D01*
X0143326Y0074391D01*
X0143290Y0074479D01*
X0143250Y0074566D01*
X0143206Y0074651D01*
X0143159Y0074733D01*
X0143109Y0074814D01*
X0143055Y0074893D01*
X0142998Y0074969D01*
X0142938Y0075043D01*
X0142875Y0075115D01*
X0142809Y0075184D01*
X0142740Y0075250D01*
X0142668Y0075313D01*
X0142594Y0075373D01*
X0142518Y0075430D01*
X0142439Y0075484D01*
X0142358Y0075534D01*
X0142276Y0075581D01*
X0142191Y0075625D01*
X0142104Y0075665D01*
X0142016Y0075701D01*
X0141927Y0075734D01*
X0141836Y0075763D01*
X0141744Y0075788D01*
X0141651Y0075810D01*
X0141558Y0075828D01*
X0141463Y0075841D01*
X0141368Y0075851D01*
X0141273Y0075857D01*
X0141178Y0075859D01*
X0141083Y0075857D01*
X0140988Y0075851D01*
X0140893Y0075841D01*
X0140798Y0075828D01*
X0140705Y0075810D01*
X0140612Y0075788D01*
X0140520Y0075763D01*
X0140429Y0075734D01*
X0140340Y0075701D01*
X0140252Y0075665D01*
X0140165Y0075625D01*
X0140080Y0075581D01*
X0139998Y0075534D01*
X0139917Y0075484D01*
X0139838Y0075430D01*
X0139762Y0075373D01*
X0139688Y0075313D01*
X0139616Y0075250D01*
X0139547Y0075184D01*
X0139481Y0075115D01*
X0139418Y0075043D01*
X0139358Y0074969D01*
X0139301Y0074893D01*
X0139247Y0074814D01*
X0139197Y0074733D01*
X0139150Y0074651D01*
X0139106Y0074566D01*
X0139066Y0074479D01*
X0139030Y0074391D01*
X0138997Y0074302D01*
X0138968Y0074211D01*
X0138943Y0074119D01*
X0138921Y0074026D01*
X0138903Y0073933D01*
X0138890Y0073838D01*
X0138880Y0073743D01*
X0138874Y0073648D01*
X0138872Y0073553D01*
X0138873Y0073553D02*
X0138873Y0069864D01*
X0138872Y0069864D02*
X0138874Y0069769D01*
X0138880Y0069674D01*
X0138890Y0069579D01*
X0138903Y0069484D01*
X0138921Y0069391D01*
X0138943Y0069298D01*
X0138968Y0069206D01*
X0138997Y0069115D01*
X0139030Y0069026D01*
X0139066Y0068938D01*
X0139106Y0068851D01*
X0139150Y0068766D01*
X0139197Y0068684D01*
X0139247Y0068603D01*
X0139301Y0068524D01*
X0139358Y0068448D01*
X0139418Y0068374D01*
X0139481Y0068302D01*
X0139547Y0068233D01*
X0139616Y0068167D01*
X0139688Y0068104D01*
X0139762Y0068044D01*
X0139838Y0067987D01*
X0139917Y0067933D01*
X0139998Y0067883D01*
X0140080Y0067836D01*
X0140165Y0067792D01*
X0140252Y0067752D01*
X0140340Y0067716D01*
X0140429Y0067683D01*
X0140520Y0067654D01*
X0140612Y0067629D01*
X0140705Y0067607D01*
X0140798Y0067589D01*
X0140893Y0067576D01*
X0140988Y0067566D01*
X0141083Y0067560D01*
X0141178Y0067558D01*
X0141273Y0067560D01*
X0141368Y0067566D01*
X0141463Y0067576D01*
X0141558Y0067589D01*
X0141651Y0067607D01*
X0141744Y0067629D01*
X0141836Y0067654D01*
X0141927Y0067683D01*
X0142016Y0067716D01*
X0142104Y0067752D01*
X0142191Y0067792D01*
X0142276Y0067836D01*
X0142358Y0067883D01*
X0142439Y0067933D01*
X0142518Y0067987D01*
X0142594Y0068044D01*
X0142668Y0068104D01*
X0142740Y0068167D01*
X0142809Y0068233D01*
X0142875Y0068302D01*
X0142938Y0068374D01*
X0142998Y0068448D01*
X0143055Y0068524D01*
X0143109Y0068603D01*
X0143159Y0068684D01*
X0143206Y0068766D01*
X0143250Y0068851D01*
X0143290Y0068938D01*
X0143326Y0069026D01*
X0143359Y0069115D01*
X0143388Y0069206D01*
X0143413Y0069298D01*
X0143435Y0069391D01*
X0143453Y0069484D01*
X0143466Y0069579D01*
X0143476Y0069674D01*
X0143482Y0069769D01*
X0143484Y0069864D01*
X0135734Y0072170D02*
X0132045Y0072170D01*
X0132045Y0075859D02*
X0132045Y0067559D01*
X0132045Y0075859D02*
X0135734Y0075859D01*
D16*
X0284827Y0147566D02*
X0285805Y0147033D01*
X0285449Y0145699D02*
X0285375Y0145701D01*
X0285301Y0145706D01*
X0285227Y0145715D01*
X0285154Y0145728D01*
X0285082Y0145744D01*
X0285011Y0145764D01*
X0284940Y0145788D01*
X0284871Y0145815D01*
X0284804Y0145845D01*
X0284737Y0145878D01*
X0284673Y0145915D01*
X0284611Y0145955D01*
X0284550Y0145998D01*
X0284492Y0146043D01*
X0284436Y0146092D01*
X0284382Y0146143D01*
X0285805Y0147032D02*
X0285847Y0147005D01*
X0285887Y0146975D01*
X0285925Y0146943D01*
X0285961Y0146908D01*
X0285994Y0146871D01*
X0286024Y0146831D01*
X0286052Y0146790D01*
X0286077Y0146746D01*
X0286099Y0146701D01*
X0286117Y0146655D01*
X0286133Y0146607D01*
X0286144Y0146559D01*
X0286153Y0146510D01*
X0286158Y0146460D01*
X0286160Y0146410D01*
X0286158Y0146357D01*
X0286152Y0146304D01*
X0286142Y0146252D01*
X0286128Y0146200D01*
X0286111Y0146150D01*
X0286090Y0146102D01*
X0286065Y0146055D01*
X0286036Y0146009D01*
X0286005Y0145967D01*
X0285970Y0145926D01*
X0285933Y0145889D01*
X0285892Y0145854D01*
X0285850Y0145823D01*
X0285805Y0145794D01*
X0285757Y0145769D01*
X0285709Y0145748D01*
X0285659Y0145731D01*
X0285607Y0145717D01*
X0285555Y0145707D01*
X0285502Y0145701D01*
X0285449Y0145699D01*
X0285983Y0148632D02*
X0285924Y0148674D01*
X0285864Y0148712D01*
X0285802Y0148747D01*
X0285737Y0148778D01*
X0285672Y0148806D01*
X0285605Y0148831D01*
X0285536Y0148851D01*
X0285467Y0148868D01*
X0285397Y0148882D01*
X0285326Y0148891D01*
X0285254Y0148897D01*
X0285183Y0148899D01*
X0285132Y0148897D01*
X0285082Y0148892D01*
X0285032Y0148883D01*
X0284983Y0148870D01*
X0284935Y0148854D01*
X0284888Y0148835D01*
X0284842Y0148812D01*
X0284799Y0148786D01*
X0284757Y0148757D01*
X0284717Y0148725D01*
X0284680Y0148691D01*
X0284646Y0148654D01*
X0284614Y0148614D01*
X0284585Y0148572D01*
X0284559Y0148529D01*
X0284536Y0148483D01*
X0284517Y0148436D01*
X0284501Y0148388D01*
X0284488Y0148339D01*
X0284479Y0148289D01*
X0284474Y0148239D01*
X0284472Y0148188D01*
X0284474Y0148138D01*
X0284479Y0148088D01*
X0284488Y0148039D01*
X0284499Y0147991D01*
X0284515Y0147943D01*
X0284533Y0147897D01*
X0284555Y0147852D01*
X0284580Y0147808D01*
X0284608Y0147767D01*
X0284638Y0147727D01*
X0284671Y0147690D01*
X0284707Y0147655D01*
X0284745Y0147622D01*
X0284785Y0147593D01*
X0284827Y0147566D01*
X0287863Y0148010D02*
X0287863Y0146588D01*
X0287865Y0146530D01*
X0287871Y0146472D01*
X0287880Y0146415D01*
X0287893Y0146358D01*
X0287910Y0146302D01*
X0287931Y0146248D01*
X0287955Y0146195D01*
X0287982Y0146144D01*
X0288013Y0146094D01*
X0288047Y0146047D01*
X0288084Y0146002D01*
X0288123Y0145959D01*
X0288166Y0145920D01*
X0288211Y0145883D01*
X0288258Y0145849D01*
X0288308Y0145818D01*
X0288359Y0145791D01*
X0288412Y0145767D01*
X0288466Y0145746D01*
X0288522Y0145729D01*
X0288579Y0145716D01*
X0288636Y0145707D01*
X0288694Y0145701D01*
X0288752Y0145699D01*
X0288810Y0145701D01*
X0288868Y0145707D01*
X0288925Y0145716D01*
X0288982Y0145729D01*
X0289038Y0145746D01*
X0289092Y0145767D01*
X0289145Y0145791D01*
X0289197Y0145818D01*
X0289246Y0145849D01*
X0289293Y0145883D01*
X0289338Y0145920D01*
X0289381Y0145959D01*
X0289420Y0146002D01*
X0289457Y0146047D01*
X0289491Y0146094D01*
X0289522Y0146144D01*
X0289549Y0146195D01*
X0289573Y0146248D01*
X0289594Y0146302D01*
X0289611Y0146358D01*
X0289624Y0146415D01*
X0289633Y0146472D01*
X0289639Y0146530D01*
X0289641Y0146588D01*
X0289640Y0146588D02*
X0289640Y0148010D01*
X0289641Y0148010D02*
X0289639Y0148068D01*
X0289633Y0148126D01*
X0289624Y0148183D01*
X0289611Y0148240D01*
X0289594Y0148296D01*
X0289573Y0148350D01*
X0289549Y0148403D01*
X0289522Y0148455D01*
X0289491Y0148504D01*
X0289457Y0148551D01*
X0289420Y0148596D01*
X0289381Y0148639D01*
X0289338Y0148678D01*
X0289293Y0148715D01*
X0289246Y0148749D01*
X0289197Y0148780D01*
X0289145Y0148807D01*
X0289092Y0148831D01*
X0289038Y0148852D01*
X0288982Y0148869D01*
X0288925Y0148882D01*
X0288868Y0148891D01*
X0288810Y0148897D01*
X0288752Y0148899D01*
X0288694Y0148897D01*
X0288636Y0148891D01*
X0288579Y0148882D01*
X0288522Y0148869D01*
X0288466Y0148852D01*
X0288412Y0148831D01*
X0288359Y0148807D01*
X0288308Y0148780D01*
X0288258Y0148749D01*
X0288211Y0148715D01*
X0288166Y0148678D01*
X0288123Y0148639D01*
X0288084Y0148596D01*
X0288047Y0148551D01*
X0288013Y0148504D01*
X0287982Y0148455D01*
X0287955Y0148403D01*
X0287931Y0148350D01*
X0287910Y0148296D01*
X0287893Y0148240D01*
X0287880Y0148183D01*
X0287871Y0148126D01*
X0287865Y0148068D01*
X0287863Y0148010D01*
X0291595Y0148899D02*
X0291595Y0145699D01*
X0293017Y0145699D01*
X0294396Y0145699D02*
X0295107Y0145699D01*
X0294752Y0145699D02*
X0294752Y0148899D01*
X0295107Y0148899D02*
X0294396Y0148899D01*
X0296863Y0148899D02*
X0296863Y0145699D01*
X0297752Y0145699D01*
X0297810Y0145701D01*
X0297868Y0145707D01*
X0297925Y0145716D01*
X0297982Y0145729D01*
X0298038Y0145746D01*
X0298092Y0145767D01*
X0298145Y0145791D01*
X0298197Y0145818D01*
X0298246Y0145849D01*
X0298293Y0145883D01*
X0298338Y0145920D01*
X0298381Y0145959D01*
X0298420Y0146002D01*
X0298457Y0146047D01*
X0298491Y0146094D01*
X0298522Y0146144D01*
X0298549Y0146195D01*
X0298573Y0146248D01*
X0298594Y0146302D01*
X0298611Y0146358D01*
X0298624Y0146415D01*
X0298633Y0146472D01*
X0298639Y0146530D01*
X0298641Y0146588D01*
X0298640Y0146588D02*
X0298640Y0148010D01*
X0298641Y0148010D02*
X0298639Y0148068D01*
X0298633Y0148126D01*
X0298624Y0148183D01*
X0298611Y0148240D01*
X0298594Y0148296D01*
X0298573Y0148350D01*
X0298549Y0148403D01*
X0298522Y0148455D01*
X0298491Y0148504D01*
X0298457Y0148551D01*
X0298420Y0148596D01*
X0298381Y0148639D01*
X0298338Y0148678D01*
X0298293Y0148715D01*
X0298246Y0148749D01*
X0298197Y0148780D01*
X0298145Y0148807D01*
X0298092Y0148831D01*
X0298038Y0148852D01*
X0297982Y0148869D01*
X0297925Y0148882D01*
X0297868Y0148891D01*
X0297810Y0148897D01*
X0297752Y0148899D01*
X0296863Y0148899D01*
X0302827Y0147566D02*
X0303805Y0147033D01*
X0303449Y0145699D02*
X0303375Y0145701D01*
X0303301Y0145706D01*
X0303227Y0145715D01*
X0303154Y0145728D01*
X0303082Y0145744D01*
X0303011Y0145764D01*
X0302940Y0145788D01*
X0302871Y0145815D01*
X0302804Y0145845D01*
X0302737Y0145878D01*
X0302673Y0145915D01*
X0302611Y0145955D01*
X0302550Y0145998D01*
X0302492Y0146043D01*
X0302436Y0146092D01*
X0302382Y0146143D01*
X0303805Y0147032D02*
X0303847Y0147005D01*
X0303887Y0146975D01*
X0303925Y0146943D01*
X0303961Y0146908D01*
X0303994Y0146871D01*
X0304024Y0146831D01*
X0304052Y0146790D01*
X0304077Y0146746D01*
X0304099Y0146701D01*
X0304117Y0146655D01*
X0304133Y0146607D01*
X0304144Y0146559D01*
X0304153Y0146510D01*
X0304158Y0146460D01*
X0304160Y0146410D01*
X0304158Y0146357D01*
X0304152Y0146304D01*
X0304142Y0146252D01*
X0304128Y0146200D01*
X0304111Y0146150D01*
X0304090Y0146102D01*
X0304065Y0146055D01*
X0304036Y0146009D01*
X0304005Y0145967D01*
X0303970Y0145926D01*
X0303933Y0145889D01*
X0303892Y0145854D01*
X0303850Y0145823D01*
X0303805Y0145794D01*
X0303757Y0145769D01*
X0303709Y0145748D01*
X0303659Y0145731D01*
X0303607Y0145717D01*
X0303555Y0145707D01*
X0303502Y0145701D01*
X0303449Y0145699D01*
X0303983Y0148632D02*
X0303924Y0148674D01*
X0303864Y0148712D01*
X0303802Y0148747D01*
X0303737Y0148778D01*
X0303672Y0148806D01*
X0303605Y0148831D01*
X0303536Y0148851D01*
X0303467Y0148868D01*
X0303397Y0148882D01*
X0303326Y0148891D01*
X0303254Y0148897D01*
X0303183Y0148899D01*
X0303132Y0148897D01*
X0303082Y0148892D01*
X0303032Y0148883D01*
X0302983Y0148870D01*
X0302935Y0148854D01*
X0302888Y0148835D01*
X0302842Y0148812D01*
X0302799Y0148786D01*
X0302757Y0148757D01*
X0302717Y0148725D01*
X0302680Y0148691D01*
X0302646Y0148654D01*
X0302614Y0148614D01*
X0302585Y0148572D01*
X0302559Y0148529D01*
X0302536Y0148483D01*
X0302517Y0148436D01*
X0302501Y0148388D01*
X0302488Y0148339D01*
X0302479Y0148289D01*
X0302474Y0148239D01*
X0302472Y0148188D01*
X0302474Y0148138D01*
X0302479Y0148088D01*
X0302488Y0148039D01*
X0302499Y0147991D01*
X0302515Y0147943D01*
X0302533Y0147897D01*
X0302555Y0147852D01*
X0302580Y0147808D01*
X0302608Y0147767D01*
X0302638Y0147727D01*
X0302671Y0147690D01*
X0302707Y0147655D01*
X0302745Y0147622D01*
X0302785Y0147593D01*
X0302827Y0147566D01*
X0305623Y0148899D02*
X0307400Y0148899D01*
X0306511Y0148899D02*
X0306511Y0145699D01*
X0308805Y0145699D02*
X0309871Y0148899D01*
X0310938Y0145699D01*
X0310671Y0146499D02*
X0309071Y0146499D01*
X0312343Y0148899D02*
X0314120Y0148899D01*
X0313231Y0148899D02*
X0313231Y0145699D01*
X0315835Y0145699D02*
X0315835Y0148899D01*
X0317257Y0148899D01*
X0316902Y0147477D02*
X0315835Y0147477D01*
X0315835Y0145699D02*
X0317257Y0145699D01*
X0239104Y0308813D02*
X0236516Y0309454D01*
X0236516Y0309455D02*
X0236474Y0309467D01*
X0236433Y0309483D01*
X0236393Y0309502D01*
X0236355Y0309524D01*
X0236319Y0309550D01*
X0236285Y0309578D01*
X0236254Y0309609D01*
X0236225Y0309642D01*
X0236199Y0309678D01*
X0236177Y0309716D01*
X0236157Y0309755D01*
X0236141Y0309796D01*
X0236128Y0309838D01*
X0236119Y0309881D01*
X0236113Y0309925D01*
X0236111Y0309969D01*
X0236113Y0310013D01*
X0236118Y0310057D01*
X0236127Y0310100D01*
X0236126Y0310100D02*
X0236169Y0310272D01*
X0237204Y0310016D02*
X0236948Y0308981D01*
X0237521Y0311298D02*
X0237777Y0312333D01*
X0238123Y0312248D01*
X0237521Y0311298D02*
X0239592Y0310785D01*
X0240207Y0313268D02*
X0237100Y0314037D01*
X0238477Y0315161D02*
X0239171Y0313525D01*
X0238889Y0314235D02*
X0240548Y0314649D01*
X0240946Y0316256D02*
X0241159Y0317119D01*
X0241168Y0317162D01*
X0241173Y0317206D01*
X0241175Y0317250D01*
X0241173Y0317294D01*
X0241167Y0317338D01*
X0241158Y0317381D01*
X0241145Y0317423D01*
X0241129Y0317464D01*
X0241109Y0317503D01*
X0241087Y0317541D01*
X0241061Y0317577D01*
X0241032Y0317610D01*
X0241001Y0317641D01*
X0240967Y0317669D01*
X0240931Y0317695D01*
X0240893Y0317717D01*
X0240853Y0317736D01*
X0240812Y0317752D01*
X0240770Y0317764D01*
X0240770Y0317765D02*
X0239734Y0318021D01*
X0239734Y0318020D02*
X0239691Y0318029D01*
X0239647Y0318034D01*
X0239603Y0318036D01*
X0239559Y0318034D01*
X0239515Y0318028D01*
X0239472Y0318019D01*
X0239430Y0318006D01*
X0239389Y0317990D01*
X0239350Y0317970D01*
X0239312Y0317948D01*
X0239276Y0317922D01*
X0239243Y0317893D01*
X0239212Y0317862D01*
X0239184Y0317828D01*
X0239158Y0317792D01*
X0239136Y0317754D01*
X0239117Y0317714D01*
X0239101Y0317673D01*
X0239089Y0317631D01*
X0238875Y0316768D01*
X0237840Y0317025D02*
X0240946Y0316256D01*
X0241746Y0319490D02*
X0239675Y0320003D01*
X0240060Y0321556D01*
X0240061Y0321556D02*
X0240073Y0321598D01*
X0240089Y0321639D01*
X0240108Y0321679D01*
X0240130Y0321717D01*
X0240156Y0321753D01*
X0240184Y0321787D01*
X0240215Y0321818D01*
X0240248Y0321847D01*
X0240284Y0321873D01*
X0240322Y0321895D01*
X0240361Y0321915D01*
X0240402Y0321931D01*
X0240444Y0321944D01*
X0240487Y0321953D01*
X0240531Y0321959D01*
X0240575Y0321961D01*
X0240619Y0321959D01*
X0240663Y0321954D01*
X0240706Y0321945D01*
X0240706Y0321946D02*
X0242259Y0321561D01*
X0242003Y0320526D02*
X0239932Y0321038D01*
X0240691Y0324107D02*
X0240905Y0324970D01*
X0240917Y0325012D01*
X0240933Y0325053D01*
X0240952Y0325093D01*
X0240974Y0325131D01*
X0241000Y0325167D01*
X0241028Y0325201D01*
X0241059Y0325232D01*
X0241092Y0325261D01*
X0241128Y0325287D01*
X0241166Y0325309D01*
X0241205Y0325329D01*
X0241246Y0325345D01*
X0241288Y0325358D01*
X0241331Y0325367D01*
X0241375Y0325373D01*
X0241419Y0325375D01*
X0241463Y0325373D01*
X0241507Y0325368D01*
X0241550Y0325359D01*
X0241551Y0325359D02*
X0242586Y0325103D01*
X0242586Y0325102D02*
X0242628Y0325090D01*
X0242669Y0325074D01*
X0242709Y0325055D01*
X0242747Y0325033D01*
X0242783Y0325007D01*
X0242817Y0324979D01*
X0242848Y0324948D01*
X0242877Y0324915D01*
X0242903Y0324879D01*
X0242925Y0324841D01*
X0242945Y0324802D01*
X0242961Y0324761D01*
X0242974Y0324719D01*
X0242983Y0324676D01*
X0242989Y0324632D01*
X0242991Y0324588D01*
X0242989Y0324544D01*
X0242984Y0324500D01*
X0242975Y0324457D01*
X0242976Y0324457D02*
X0242762Y0323595D01*
X0239656Y0324363D01*
X0243279Y0326423D02*
X0243322Y0326595D01*
X0243494Y0326553D01*
X0243451Y0326380D01*
X0243279Y0326423D01*
X0243324Y0328086D02*
X0242289Y0328342D01*
X0242289Y0328343D02*
X0242247Y0328355D01*
X0242206Y0328371D01*
X0242166Y0328390D01*
X0242128Y0328412D01*
X0242092Y0328438D01*
X0242058Y0328466D01*
X0242027Y0328497D01*
X0241998Y0328530D01*
X0241972Y0328566D01*
X0241950Y0328604D01*
X0241930Y0328643D01*
X0241914Y0328684D01*
X0241901Y0328726D01*
X0241892Y0328769D01*
X0241886Y0328813D01*
X0241884Y0328857D01*
X0241886Y0328901D01*
X0241891Y0328945D01*
X0241900Y0328988D01*
X0241899Y0328988D02*
X0242113Y0329851D01*
X0241077Y0330107D02*
X0244183Y0329338D01*
X0243970Y0328476D01*
X0243969Y0328476D02*
X0243957Y0328434D01*
X0243941Y0328393D01*
X0243922Y0328353D01*
X0243900Y0328315D01*
X0243874Y0328279D01*
X0243846Y0328245D01*
X0243815Y0328214D01*
X0243782Y0328185D01*
X0243746Y0328159D01*
X0243708Y0328137D01*
X0243669Y0328117D01*
X0243628Y0328101D01*
X0243586Y0328088D01*
X0243543Y0328079D01*
X0243499Y0328073D01*
X0243455Y0328071D01*
X0243411Y0328073D01*
X0243367Y0328078D01*
X0243324Y0328087D01*
X0244110Y0331263D02*
X0243247Y0331476D01*
X0243593Y0331391D02*
X0243934Y0332771D01*
X0243589Y0332857D01*
X0243589Y0332856D02*
X0243537Y0332867D01*
X0243484Y0332874D01*
X0243431Y0332877D01*
X0243378Y0332876D01*
X0243325Y0332871D01*
X0243272Y0332862D01*
X0243221Y0332849D01*
X0243170Y0332832D01*
X0243121Y0332812D01*
X0243074Y0332788D01*
X0243028Y0332761D01*
X0242985Y0332730D01*
X0242944Y0332696D01*
X0242906Y0332659D01*
X0242870Y0332619D01*
X0242838Y0332577D01*
X0242809Y0332533D01*
X0242783Y0332486D01*
X0242761Y0332438D01*
X0242743Y0332388D01*
X0242728Y0332337D01*
X0242717Y0332285D01*
X0242710Y0332232D01*
X0242707Y0332179D01*
X0242708Y0332126D01*
X0242713Y0332073D01*
X0242722Y0332020D01*
X0242735Y0331969D01*
X0242752Y0331918D01*
X0242772Y0331869D01*
X0242796Y0331822D01*
X0242823Y0331776D01*
X0242854Y0331733D01*
X0242888Y0331692D01*
X0242925Y0331654D01*
X0242965Y0331618D01*
X0243007Y0331586D01*
X0243051Y0331557D01*
X0243098Y0331531D01*
X0243146Y0331509D01*
X0243196Y0331491D01*
X0243247Y0331476D01*
X0244110Y0331263D02*
X0244153Y0331254D01*
X0244197Y0331249D01*
X0244241Y0331247D01*
X0244285Y0331249D01*
X0244329Y0331255D01*
X0244372Y0331264D01*
X0244414Y0331277D01*
X0244455Y0331293D01*
X0244494Y0331313D01*
X0244532Y0331335D01*
X0244568Y0331361D01*
X0244601Y0331390D01*
X0244632Y0331421D01*
X0244660Y0331455D01*
X0244686Y0331491D01*
X0244708Y0331529D01*
X0244727Y0331569D01*
X0244743Y0331610D01*
X0244755Y0331652D01*
X0244756Y0331652D02*
X0244970Y0332515D01*
X0245519Y0334737D02*
X0243619Y0335940D01*
X0243278Y0334559D02*
X0245519Y0334737D01*
X0150349Y0289504D02*
X0147306Y0288515D01*
X0148320Y0288845D02*
X0149774Y0287822D01*
X0148935Y0288390D02*
X0147745Y0287163D01*
X0146780Y0290135D02*
X0146560Y0290811D01*
X0146548Y0290854D01*
X0146540Y0290897D01*
X0146535Y0290941D01*
X0146534Y0290985D01*
X0146537Y0291029D01*
X0146543Y0291072D01*
X0146553Y0291115D01*
X0146566Y0291157D01*
X0146583Y0291198D01*
X0146603Y0291237D01*
X0146626Y0291275D01*
X0146652Y0291310D01*
X0146681Y0291343D01*
X0146713Y0291374D01*
X0146747Y0291402D01*
X0146783Y0291427D01*
X0146821Y0291449D01*
X0146861Y0291468D01*
X0146902Y0291483D01*
X0147917Y0291813D01*
X0147960Y0291825D01*
X0148003Y0291833D01*
X0148047Y0291838D01*
X0148091Y0291839D01*
X0148135Y0291836D01*
X0148178Y0291830D01*
X0148221Y0291820D01*
X0148263Y0291807D01*
X0148304Y0291790D01*
X0148343Y0291770D01*
X0148381Y0291747D01*
X0148416Y0291721D01*
X0148449Y0291692D01*
X0148480Y0291660D01*
X0148508Y0291626D01*
X0148533Y0291590D01*
X0148555Y0291552D01*
X0148574Y0291512D01*
X0148589Y0291471D01*
X0148589Y0291470D02*
X0148809Y0290794D01*
X0147343Y0293579D02*
X0145821Y0293085D01*
X0145574Y0293846D01*
X0145561Y0293893D01*
X0145552Y0293941D01*
X0145546Y0293989D01*
X0145544Y0294038D01*
X0145546Y0294087D01*
X0145552Y0294135D01*
X0145561Y0294183D01*
X0145574Y0294230D01*
X0145591Y0294276D01*
X0145612Y0294320D01*
X0145636Y0294363D01*
X0145663Y0294404D01*
X0145693Y0294442D01*
X0145726Y0294478D01*
X0145762Y0294511D01*
X0145800Y0294541D01*
X0145841Y0294568D01*
X0145884Y0294592D01*
X0145928Y0294613D01*
X0145974Y0294630D01*
X0146021Y0294643D01*
X0146069Y0294652D01*
X0146117Y0294658D01*
X0146166Y0294660D01*
X0146215Y0294658D01*
X0146263Y0294652D01*
X0146311Y0294643D01*
X0146358Y0294630D01*
X0146404Y0294613D01*
X0146448Y0294592D01*
X0146491Y0294568D01*
X0146532Y0294541D01*
X0146570Y0294511D01*
X0146606Y0294478D01*
X0146639Y0294442D01*
X0146669Y0294404D01*
X0146696Y0294363D01*
X0146720Y0294320D01*
X0146741Y0294276D01*
X0146758Y0294230D01*
X0146757Y0294230D02*
X0147005Y0293470D01*
X0147343Y0293580D02*
X0147384Y0293595D01*
X0147424Y0293614D01*
X0147462Y0293636D01*
X0147498Y0293661D01*
X0147532Y0293689D01*
X0147564Y0293720D01*
X0147593Y0293753D01*
X0147619Y0293788D01*
X0147643Y0293826D01*
X0147663Y0293865D01*
X0147679Y0293906D01*
X0147692Y0293948D01*
X0147702Y0293991D01*
X0147708Y0294034D01*
X0147711Y0294078D01*
X0147710Y0294122D01*
X0147705Y0294166D01*
X0147697Y0294209D01*
X0147685Y0294252D01*
X0147685Y0294251D02*
X0147465Y0294928D01*
X0146342Y0296661D02*
X0144820Y0296166D01*
X0144573Y0296927D01*
X0144572Y0296927D02*
X0144559Y0296974D01*
X0144550Y0297022D01*
X0144544Y0297070D01*
X0144542Y0297119D01*
X0144544Y0297168D01*
X0144550Y0297216D01*
X0144559Y0297264D01*
X0144572Y0297311D01*
X0144589Y0297357D01*
X0144610Y0297401D01*
X0144634Y0297444D01*
X0144661Y0297485D01*
X0144691Y0297523D01*
X0144724Y0297559D01*
X0144760Y0297592D01*
X0144798Y0297622D01*
X0144839Y0297649D01*
X0144882Y0297673D01*
X0144926Y0297694D01*
X0144972Y0297711D01*
X0145019Y0297724D01*
X0145067Y0297733D01*
X0145115Y0297739D01*
X0145164Y0297741D01*
X0145213Y0297739D01*
X0145261Y0297733D01*
X0145309Y0297724D01*
X0145356Y0297711D01*
X0145402Y0297694D01*
X0145446Y0297673D01*
X0145489Y0297649D01*
X0145530Y0297622D01*
X0145568Y0297592D01*
X0145604Y0297559D01*
X0145637Y0297523D01*
X0145667Y0297485D01*
X0145694Y0297444D01*
X0145718Y0297401D01*
X0145739Y0297357D01*
X0145756Y0297311D01*
X0145756Y0297312D02*
X0146003Y0296551D01*
X0146342Y0296661D02*
X0146383Y0296676D01*
X0146423Y0296695D01*
X0146461Y0296717D01*
X0146497Y0296742D01*
X0146531Y0296770D01*
X0146563Y0296801D01*
X0146592Y0296834D01*
X0146618Y0296869D01*
X0146642Y0296907D01*
X0146662Y0296946D01*
X0146678Y0296987D01*
X0146691Y0297029D01*
X0146701Y0297072D01*
X0146707Y0297115D01*
X0146710Y0297159D01*
X0146709Y0297203D01*
X0146704Y0297247D01*
X0146696Y0297290D01*
X0146684Y0297333D01*
X0146464Y0298009D01*
X0145350Y0299711D02*
X0143829Y0299217D01*
X0143389Y0300570D02*
X0146433Y0301558D01*
X0145418Y0301229D02*
X0145693Y0300383D01*
X0145693Y0300384D02*
X0145705Y0300341D01*
X0145713Y0300298D01*
X0145718Y0300254D01*
X0145719Y0300210D01*
X0145716Y0300166D01*
X0145710Y0300123D01*
X0145700Y0300080D01*
X0145687Y0300038D01*
X0145671Y0299997D01*
X0145651Y0299958D01*
X0145627Y0299920D01*
X0145601Y0299885D01*
X0145572Y0299852D01*
X0145540Y0299821D01*
X0145506Y0299793D01*
X0145470Y0299768D01*
X0145432Y0299746D01*
X0145392Y0299727D01*
X0145351Y0299712D01*
X0144809Y0303103D02*
X0142273Y0302279D01*
X0142230Y0302267D01*
X0142187Y0302259D01*
X0142143Y0302254D01*
X0142099Y0302253D01*
X0142055Y0302256D01*
X0142012Y0302262D01*
X0141969Y0302272D01*
X0141927Y0302285D01*
X0141886Y0302301D01*
X0141847Y0302321D01*
X0141809Y0302345D01*
X0141774Y0302371D01*
X0141741Y0302400D01*
X0141710Y0302432D01*
X0141682Y0302466D01*
X0141657Y0302502D01*
X0141635Y0302540D01*
X0141616Y0302580D01*
X0141601Y0302621D01*
X0141381Y0303297D01*
X0142506Y0303289D02*
X0142780Y0302443D01*
X0142506Y0303289D02*
X0142494Y0303332D01*
X0142486Y0303375D01*
X0142481Y0303419D01*
X0142480Y0303463D01*
X0142483Y0303507D01*
X0142489Y0303550D01*
X0142499Y0303593D01*
X0142512Y0303635D01*
X0142529Y0303676D01*
X0142549Y0303715D01*
X0142572Y0303753D01*
X0142598Y0303788D01*
X0142627Y0303821D01*
X0142659Y0303852D01*
X0142693Y0303880D01*
X0142729Y0303905D01*
X0142767Y0303927D01*
X0142807Y0303946D01*
X0142848Y0303961D01*
X0143863Y0304290D01*
X0143862Y0304290D02*
X0143905Y0304302D01*
X0143948Y0304310D01*
X0143992Y0304315D01*
X0144036Y0304316D01*
X0144080Y0304313D01*
X0144123Y0304307D01*
X0144166Y0304297D01*
X0144208Y0304284D01*
X0144249Y0304267D01*
X0144288Y0304247D01*
X0144326Y0304224D01*
X0144361Y0304198D01*
X0144394Y0304169D01*
X0144425Y0304137D01*
X0144453Y0304103D01*
X0144478Y0304067D01*
X0144500Y0304029D01*
X0144519Y0303989D01*
X0144534Y0303948D01*
X0144535Y0303948D02*
X0144809Y0303103D01*
X0141327Y0306917D02*
X0141315Y0306960D01*
X0141307Y0307003D01*
X0141302Y0307047D01*
X0141301Y0307091D01*
X0141304Y0307135D01*
X0141310Y0307178D01*
X0141320Y0307221D01*
X0141333Y0307263D01*
X0141350Y0307304D01*
X0141370Y0307343D01*
X0141393Y0307381D01*
X0141419Y0307416D01*
X0141448Y0307449D01*
X0141480Y0307480D01*
X0141514Y0307508D01*
X0141550Y0307533D01*
X0141588Y0307555D01*
X0141628Y0307574D01*
X0141669Y0307589D01*
X0144205Y0308413D01*
X0142706Y0309577D02*
X0140237Y0310270D01*
X0140677Y0308918D02*
X0142266Y0310930D01*
X0141224Y0312410D02*
X0139703Y0311916D01*
X0139455Y0312677D01*
X0139442Y0312724D01*
X0139433Y0312772D01*
X0139427Y0312820D01*
X0139425Y0312869D01*
X0139427Y0312918D01*
X0139433Y0312966D01*
X0139442Y0313014D01*
X0139455Y0313061D01*
X0139472Y0313107D01*
X0139493Y0313151D01*
X0139517Y0313194D01*
X0139544Y0313235D01*
X0139574Y0313273D01*
X0139607Y0313309D01*
X0139643Y0313342D01*
X0139681Y0313372D01*
X0139722Y0313399D01*
X0139765Y0313423D01*
X0139809Y0313444D01*
X0139855Y0313461D01*
X0139902Y0313474D01*
X0139950Y0313483D01*
X0139998Y0313489D01*
X0140047Y0313491D01*
X0140096Y0313489D01*
X0140144Y0313483D01*
X0140192Y0313474D01*
X0140239Y0313461D01*
X0140285Y0313444D01*
X0140329Y0313423D01*
X0140372Y0313399D01*
X0140413Y0313372D01*
X0140451Y0313342D01*
X0140487Y0313309D01*
X0140520Y0313273D01*
X0140550Y0313235D01*
X0140577Y0313194D01*
X0140601Y0313151D01*
X0140622Y0313107D01*
X0140639Y0313061D01*
X0140886Y0312300D01*
X0141225Y0312410D02*
X0141266Y0312425D01*
X0141306Y0312444D01*
X0141344Y0312466D01*
X0141380Y0312491D01*
X0141414Y0312519D01*
X0141446Y0312550D01*
X0141475Y0312583D01*
X0141501Y0312618D01*
X0141525Y0312656D01*
X0141545Y0312695D01*
X0141561Y0312736D01*
X0141574Y0312778D01*
X0141584Y0312821D01*
X0141590Y0312864D01*
X0141593Y0312908D01*
X0141592Y0312952D01*
X0141587Y0312996D01*
X0141579Y0313039D01*
X0141567Y0313082D01*
X0141347Y0313759D01*
X0140195Y0315579D02*
X0138673Y0315085D01*
X0138343Y0316099D02*
X0140372Y0316758D01*
X0140537Y0316251D02*
X0140043Y0317773D01*
X0138014Y0317114D01*
X0140537Y0316251D02*
X0140549Y0316208D01*
X0140557Y0316165D01*
X0140562Y0316121D01*
X0140563Y0316077D01*
X0140560Y0316033D01*
X0140554Y0315990D01*
X0140544Y0315947D01*
X0140531Y0315905D01*
X0140515Y0315864D01*
X0140495Y0315825D01*
X0140471Y0315787D01*
X0140445Y0315752D01*
X0140416Y0315719D01*
X0140384Y0315688D01*
X0140350Y0315660D01*
X0140314Y0315635D01*
X0140276Y0315613D01*
X0140236Y0315594D01*
X0140195Y0315579D01*
X0138305Y0321395D02*
X0136783Y0320901D01*
X0136344Y0322254D02*
X0138373Y0322913D01*
X0138647Y0322067D01*
X0138647Y0322068D02*
X0138659Y0322025D01*
X0138667Y0321982D01*
X0138672Y0321938D01*
X0138673Y0321894D01*
X0138670Y0321850D01*
X0138664Y0321807D01*
X0138654Y0321764D01*
X0138641Y0321722D01*
X0138625Y0321681D01*
X0138605Y0321642D01*
X0138581Y0321604D01*
X0138555Y0321569D01*
X0138526Y0321536D01*
X0138494Y0321505D01*
X0138460Y0321477D01*
X0138424Y0321452D01*
X0138386Y0321430D01*
X0138346Y0321411D01*
X0138305Y0321396D01*
X0137257Y0324622D02*
X0135735Y0324127D01*
X0135488Y0324888D01*
X0135487Y0324888D02*
X0135474Y0324935D01*
X0135465Y0324983D01*
X0135459Y0325031D01*
X0135457Y0325080D01*
X0135459Y0325129D01*
X0135465Y0325177D01*
X0135474Y0325225D01*
X0135487Y0325272D01*
X0135504Y0325318D01*
X0135525Y0325362D01*
X0135549Y0325405D01*
X0135576Y0325446D01*
X0135606Y0325484D01*
X0135639Y0325520D01*
X0135675Y0325553D01*
X0135713Y0325583D01*
X0135754Y0325610D01*
X0135797Y0325634D01*
X0135841Y0325655D01*
X0135887Y0325672D01*
X0135934Y0325685D01*
X0135982Y0325694D01*
X0136030Y0325700D01*
X0136079Y0325702D01*
X0136128Y0325700D01*
X0136176Y0325694D01*
X0136224Y0325685D01*
X0136271Y0325672D01*
X0136317Y0325655D01*
X0136361Y0325634D01*
X0136404Y0325610D01*
X0136445Y0325583D01*
X0136483Y0325553D01*
X0136519Y0325520D01*
X0136552Y0325484D01*
X0136582Y0325446D01*
X0136609Y0325405D01*
X0136633Y0325362D01*
X0136654Y0325318D01*
X0136671Y0325272D01*
X0136671Y0325273D02*
X0136918Y0324512D01*
X0137257Y0324622D02*
X0137298Y0324637D01*
X0137338Y0324656D01*
X0137376Y0324678D01*
X0137412Y0324703D01*
X0137446Y0324731D01*
X0137478Y0324762D01*
X0137507Y0324795D01*
X0137533Y0324830D01*
X0137557Y0324868D01*
X0137577Y0324907D01*
X0137593Y0324948D01*
X0137606Y0324990D01*
X0137616Y0325033D01*
X0137622Y0325076D01*
X0137625Y0325120D01*
X0137624Y0325164D01*
X0137619Y0325208D01*
X0137611Y0325251D01*
X0137599Y0325294D01*
X0137379Y0325970D01*
X0136850Y0327598D02*
X0136521Y0328613D01*
X0137645Y0328604D02*
X0135109Y0327780D01*
X0135068Y0327765D01*
X0135028Y0327746D01*
X0134990Y0327724D01*
X0134954Y0327699D01*
X0134920Y0327671D01*
X0134888Y0327640D01*
X0134859Y0327607D01*
X0134833Y0327572D01*
X0134809Y0327534D01*
X0134790Y0327495D01*
X0134773Y0327454D01*
X0134760Y0327412D01*
X0134750Y0327369D01*
X0134744Y0327326D01*
X0134741Y0327282D01*
X0134742Y0327238D01*
X0134747Y0327194D01*
X0134755Y0327151D01*
X0134767Y0327108D01*
X0134766Y0327108D02*
X0134821Y0326939D01*
X0134135Y0329052D02*
X0133915Y0329728D01*
X0133903Y0329771D01*
X0133895Y0329814D01*
X0133890Y0329858D01*
X0133889Y0329902D01*
X0133892Y0329946D01*
X0133898Y0329989D01*
X0133908Y0330032D01*
X0133921Y0330074D01*
X0133938Y0330115D01*
X0133958Y0330154D01*
X0133981Y0330192D01*
X0134007Y0330227D01*
X0134036Y0330260D01*
X0134068Y0330291D01*
X0134102Y0330319D01*
X0134138Y0330344D01*
X0134176Y0330366D01*
X0134216Y0330385D01*
X0134257Y0330400D01*
X0134258Y0330400D02*
X0135272Y0330730D01*
X0135315Y0330742D01*
X0135358Y0330750D01*
X0135402Y0330755D01*
X0135446Y0330756D01*
X0135490Y0330753D01*
X0135533Y0330747D01*
X0135576Y0330737D01*
X0135618Y0330724D01*
X0135659Y0330707D01*
X0135698Y0330687D01*
X0135736Y0330664D01*
X0135771Y0330638D01*
X0135804Y0330609D01*
X0135835Y0330577D01*
X0135863Y0330543D01*
X0135888Y0330507D01*
X0135910Y0330469D01*
X0135929Y0330429D01*
X0135944Y0330388D01*
X0136164Y0329711D01*
X0134783Y0333961D02*
X0134445Y0333851D01*
X0134783Y0333961D02*
X0134453Y0334975D01*
X0132424Y0334316D01*
X0133666Y0336248D02*
X0134004Y0336358D01*
X0133675Y0337372D01*
X0131646Y0336713D01*
X0131749Y0338696D02*
X0132425Y0338916D01*
X0132426Y0338916D02*
X0132474Y0338934D01*
X0132522Y0338955D01*
X0132567Y0338980D01*
X0132611Y0339008D01*
X0132653Y0339039D01*
X0132692Y0339073D01*
X0132729Y0339110D01*
X0132762Y0339149D01*
X0132793Y0339191D01*
X0132821Y0339235D01*
X0132845Y0339281D01*
X0132866Y0339328D01*
X0132884Y0339377D01*
X0132898Y0339427D01*
X0132908Y0339478D01*
X0132914Y0339530D01*
X0132917Y0339582D01*
X0132916Y0339634D01*
X0132911Y0339685D01*
X0132902Y0339736D01*
X0132890Y0339787D01*
X0132874Y0339836D01*
X0132854Y0339884D01*
X0132831Y0339931D01*
X0132805Y0339976D01*
X0132775Y0340018D01*
X0132742Y0340059D01*
X0132707Y0340097D01*
X0132669Y0340132D01*
X0132628Y0340164D01*
X0132585Y0340193D01*
X0132540Y0340220D01*
X0132494Y0340242D01*
X0132445Y0340261D01*
X0132396Y0340277D01*
X0132345Y0340289D01*
X0132294Y0340298D01*
X0132242Y0340302D01*
X0132190Y0340303D01*
X0132139Y0340300D01*
X0132087Y0340293D01*
X0132036Y0340282D01*
X0131986Y0340268D01*
X0131986Y0340269D02*
X0131310Y0340049D01*
X0131309Y0340049D02*
X0131261Y0340031D01*
X0131213Y0340010D01*
X0131168Y0339985D01*
X0131124Y0339957D01*
X0131082Y0339926D01*
X0131043Y0339892D01*
X0131006Y0339855D01*
X0130973Y0339816D01*
X0130942Y0339774D01*
X0130914Y0339730D01*
X0130890Y0339684D01*
X0130869Y0339637D01*
X0130851Y0339588D01*
X0130837Y0339538D01*
X0130827Y0339487D01*
X0130821Y0339435D01*
X0130818Y0339383D01*
X0130819Y0339331D01*
X0130824Y0339280D01*
X0130833Y0339229D01*
X0130845Y0339178D01*
X0130861Y0339129D01*
X0130881Y0339081D01*
X0130904Y0339034D01*
X0130930Y0338989D01*
X0130960Y0338947D01*
X0130993Y0338906D01*
X0131028Y0338868D01*
X0131066Y0338833D01*
X0131107Y0338801D01*
X0131150Y0338772D01*
X0131195Y0338745D01*
X0131241Y0338723D01*
X0131290Y0338704D01*
X0131339Y0338688D01*
X0131390Y0338676D01*
X0131441Y0338667D01*
X0131493Y0338663D01*
X0131545Y0338662D01*
X0131596Y0338665D01*
X0131648Y0338672D01*
X0131699Y0338683D01*
X0131749Y0338697D01*
X0130072Y0341558D02*
X0131593Y0342052D01*
X0131593Y0342053D02*
X0131634Y0342068D01*
X0131674Y0342087D01*
X0131712Y0342109D01*
X0131748Y0342134D01*
X0131782Y0342162D01*
X0131814Y0342193D01*
X0131843Y0342226D01*
X0131869Y0342261D01*
X0131893Y0342299D01*
X0131913Y0342338D01*
X0131929Y0342379D01*
X0131942Y0342421D01*
X0131952Y0342464D01*
X0131958Y0342507D01*
X0131961Y0342551D01*
X0131960Y0342595D01*
X0131955Y0342639D01*
X0131947Y0342682D01*
X0131935Y0342725D01*
X0131936Y0342724D02*
X0131661Y0343570D01*
X0129632Y0342911D01*
X0129130Y0344454D02*
X0130320Y0345682D01*
X0129705Y0346136D02*
X0131159Y0345113D01*
X0131734Y0346796D02*
X0128691Y0345807D01*
X0128200Y0347318D02*
X0128188Y0347361D01*
X0128180Y0347404D01*
X0128175Y0347448D01*
X0128174Y0347492D01*
X0128177Y0347536D01*
X0128183Y0347579D01*
X0128193Y0347622D01*
X0128206Y0347664D01*
X0128223Y0347705D01*
X0128243Y0347744D01*
X0128266Y0347782D01*
X0128292Y0347817D01*
X0128321Y0347850D01*
X0128353Y0347881D01*
X0128387Y0347909D01*
X0128423Y0347934D01*
X0128461Y0347956D01*
X0128501Y0347975D01*
X0128542Y0347990D01*
X0131079Y0348814D01*
D17*
X0051318Y0266828D02*
X0051326Y0264466D01*
X0051315Y0264389D01*
X0051300Y0264312D01*
X0051281Y0264237D01*
X0051259Y0264162D01*
X0051233Y0264089D01*
X0051203Y0264017D01*
X0051170Y0263946D01*
X0051133Y0263877D01*
X0051093Y0263810D01*
X0051050Y0263746D01*
X0051004Y0263683D01*
X0050955Y0263623D01*
X0050902Y0263565D01*
X0050847Y0263510D01*
X0050790Y0263457D01*
X0050730Y0263408D01*
X0050667Y0263361D01*
X0050603Y0263318D01*
X0050536Y0263278D01*
X0050467Y0263241D01*
X0050397Y0263207D01*
X0050325Y0263177D01*
X0050252Y0263151D01*
X0050177Y0263128D01*
X0050102Y0263109D01*
X0050025Y0263094D01*
X0049948Y0263082D01*
X0049871Y0263075D01*
X0049793Y0263071D01*
X0049715Y0263070D01*
X0049637Y0263074D01*
X0049560Y0263082D01*
X0049559Y0263082D02*
X0049482Y0263074D01*
X0049404Y0263070D01*
X0049326Y0263069D01*
X0049248Y0263073D01*
X0049171Y0263080D01*
X0049094Y0263091D01*
X0049017Y0263106D01*
X0048942Y0263124D01*
X0048867Y0263147D01*
X0048793Y0263172D01*
X0048721Y0263202D01*
X0048651Y0263235D01*
X0048582Y0263271D01*
X0048515Y0263311D01*
X0048450Y0263354D01*
X0048387Y0263400D01*
X0048327Y0263449D01*
X0048269Y0263501D01*
X0048213Y0263556D01*
X0048161Y0263613D01*
X0048111Y0263673D01*
X0048064Y0263736D01*
X0048021Y0263800D01*
X0047980Y0263867D01*
X0047943Y0263935D01*
X0047909Y0264005D01*
X0047879Y0264077D01*
X0047853Y0264150D01*
X0047830Y0264225D01*
X0047810Y0264300D01*
X0047795Y0264377D01*
X0047783Y0264454D01*
X0047783Y0264453D02*
X0047775Y0266816D01*
X0047775Y0266815D02*
X0047786Y0266892D01*
X0047801Y0266969D01*
X0047820Y0267044D01*
X0047842Y0267119D01*
X0047868Y0267192D01*
X0047898Y0267264D01*
X0047931Y0267335D01*
X0047968Y0267404D01*
X0048008Y0267471D01*
X0048051Y0267535D01*
X0048097Y0267598D01*
X0048146Y0267658D01*
X0048199Y0267716D01*
X0048254Y0267771D01*
X0048311Y0267824D01*
X0048371Y0267873D01*
X0048434Y0267920D01*
X0048498Y0267963D01*
X0048565Y0268003D01*
X0048634Y0268040D01*
X0048704Y0268074D01*
X0048776Y0268104D01*
X0048849Y0268130D01*
X0048924Y0268153D01*
X0048999Y0268172D01*
X0049076Y0268187D01*
X0049153Y0268199D01*
X0049230Y0268206D01*
X0049308Y0268210D01*
X0049386Y0268211D01*
X0049464Y0268207D01*
X0049541Y0268199D01*
X0049542Y0268200D02*
X0049619Y0268208D01*
X0049697Y0268212D01*
X0049775Y0268213D01*
X0049853Y0268209D01*
X0049930Y0268202D01*
X0050007Y0268191D01*
X0050084Y0268176D01*
X0050159Y0268158D01*
X0050234Y0268135D01*
X0050308Y0268110D01*
X0050380Y0268080D01*
X0050450Y0268047D01*
X0050519Y0268011D01*
X0050586Y0267971D01*
X0050651Y0267928D01*
X0050714Y0267882D01*
X0050774Y0267833D01*
X0050832Y0267781D01*
X0050888Y0267726D01*
X0050940Y0267669D01*
X0050990Y0267609D01*
X0051037Y0267546D01*
X0051080Y0267482D01*
X0051121Y0267415D01*
X0051158Y0267347D01*
X0051192Y0267277D01*
X0051222Y0267205D01*
X0051248Y0267132D01*
X0051271Y0267057D01*
X0051291Y0266982D01*
X0051306Y0266905D01*
X0051318Y0266828D01*
X0041703Y0258138D02*
X0041705Y0258212D01*
X0041711Y0258286D01*
X0041721Y0258359D01*
X0041735Y0258432D01*
X0041752Y0258504D01*
X0041774Y0258574D01*
X0041799Y0258644D01*
X0041828Y0258712D01*
X0041861Y0258778D01*
X0041897Y0258843D01*
X0041937Y0258905D01*
X0041979Y0258966D01*
X0042025Y0259024D01*
X0042074Y0259079D01*
X0042126Y0259132D01*
X0042181Y0259182D01*
X0042238Y0259228D01*
X0042298Y0259272D01*
X0042360Y0259312D01*
X0042424Y0259349D01*
X0042490Y0259383D01*
X0042558Y0259413D01*
X0042627Y0259439D01*
X0042698Y0259462D01*
X0042769Y0259480D01*
X0042842Y0259495D01*
X0042915Y0259506D01*
X0042989Y0259513D01*
X0043063Y0259516D01*
X0043136Y0259515D01*
X0043210Y0259510D01*
X0043284Y0259501D01*
X0043357Y0259488D01*
X0043429Y0259471D01*
X0043500Y0259451D01*
X0043570Y0259426D01*
X0043638Y0259398D01*
X0043705Y0259367D01*
X0043770Y0259331D01*
X0043833Y0259293D01*
X0043894Y0259251D01*
X0043953Y0259205D01*
X0044009Y0259157D01*
X0044062Y0259106D01*
X0044112Y0259052D01*
X0044160Y0258995D01*
X0044204Y0258936D01*
X0044246Y0258874D01*
X0044284Y0258811D01*
X0044318Y0258745D01*
X0044349Y0258678D01*
X0044376Y0258609D01*
X0044399Y0258539D01*
X0044419Y0258468D01*
X0044435Y0258395D01*
X0044447Y0258322D01*
X0044455Y0258249D01*
X0044459Y0258175D01*
X0044459Y0258101D01*
X0044455Y0258027D01*
X0044447Y0257954D01*
X0044435Y0257881D01*
X0044419Y0257808D01*
X0044399Y0257737D01*
X0044376Y0257667D01*
X0044349Y0257598D01*
X0044318Y0257531D01*
X0044284Y0257465D01*
X0044246Y0257402D01*
X0044204Y0257340D01*
X0044160Y0257281D01*
X0044112Y0257224D01*
X0044062Y0257170D01*
X0044009Y0257119D01*
X0043953Y0257071D01*
X0043894Y0257025D01*
X0043833Y0256983D01*
X0043770Y0256945D01*
X0043705Y0256909D01*
X0043638Y0256878D01*
X0043570Y0256850D01*
X0043500Y0256825D01*
X0043429Y0256805D01*
X0043357Y0256788D01*
X0043284Y0256775D01*
X0043210Y0256766D01*
X0043136Y0256761D01*
X0043063Y0256760D01*
X0042989Y0256763D01*
X0042915Y0256770D01*
X0042842Y0256781D01*
X0042769Y0256796D01*
X0042698Y0256814D01*
X0042627Y0256837D01*
X0042558Y0256863D01*
X0042490Y0256893D01*
X0042424Y0256927D01*
X0042360Y0256964D01*
X0042298Y0257004D01*
X0042238Y0257048D01*
X0042181Y0257094D01*
X0042126Y0257144D01*
X0042074Y0257197D01*
X0042025Y0257252D01*
X0041979Y0257310D01*
X0041937Y0257371D01*
X0041897Y0257433D01*
X0041861Y0257498D01*
X0041828Y0257564D01*
X0041799Y0257632D01*
X0041774Y0257702D01*
X0041752Y0257772D01*
X0041735Y0257844D01*
X0041721Y0257917D01*
X0041711Y0257990D01*
X0041705Y0258064D01*
X0041703Y0258138D01*
X0026348Y0258084D02*
X0026350Y0258158D01*
X0026356Y0258232D01*
X0026366Y0258305D01*
X0026380Y0258378D01*
X0026397Y0258450D01*
X0026419Y0258520D01*
X0026444Y0258590D01*
X0026473Y0258658D01*
X0026506Y0258724D01*
X0026542Y0258789D01*
X0026582Y0258851D01*
X0026624Y0258912D01*
X0026670Y0258970D01*
X0026719Y0259025D01*
X0026771Y0259078D01*
X0026826Y0259128D01*
X0026883Y0259174D01*
X0026943Y0259218D01*
X0027005Y0259258D01*
X0027069Y0259295D01*
X0027135Y0259329D01*
X0027203Y0259359D01*
X0027272Y0259385D01*
X0027343Y0259408D01*
X0027414Y0259426D01*
X0027487Y0259441D01*
X0027560Y0259452D01*
X0027634Y0259459D01*
X0027708Y0259462D01*
X0027781Y0259461D01*
X0027855Y0259456D01*
X0027929Y0259447D01*
X0028002Y0259434D01*
X0028074Y0259417D01*
X0028145Y0259397D01*
X0028215Y0259372D01*
X0028283Y0259344D01*
X0028350Y0259313D01*
X0028415Y0259277D01*
X0028478Y0259239D01*
X0028539Y0259197D01*
X0028598Y0259151D01*
X0028654Y0259103D01*
X0028707Y0259052D01*
X0028757Y0258998D01*
X0028805Y0258941D01*
X0028849Y0258882D01*
X0028891Y0258820D01*
X0028929Y0258757D01*
X0028963Y0258691D01*
X0028994Y0258624D01*
X0029021Y0258555D01*
X0029044Y0258485D01*
X0029064Y0258414D01*
X0029080Y0258341D01*
X0029092Y0258268D01*
X0029100Y0258195D01*
X0029104Y0258121D01*
X0029104Y0258047D01*
X0029100Y0257973D01*
X0029092Y0257900D01*
X0029080Y0257827D01*
X0029064Y0257754D01*
X0029044Y0257683D01*
X0029021Y0257613D01*
X0028994Y0257544D01*
X0028963Y0257477D01*
X0028929Y0257411D01*
X0028891Y0257348D01*
X0028849Y0257286D01*
X0028805Y0257227D01*
X0028757Y0257170D01*
X0028707Y0257116D01*
X0028654Y0257065D01*
X0028598Y0257017D01*
X0028539Y0256971D01*
X0028478Y0256929D01*
X0028415Y0256891D01*
X0028350Y0256855D01*
X0028283Y0256824D01*
X0028215Y0256796D01*
X0028145Y0256771D01*
X0028074Y0256751D01*
X0028002Y0256734D01*
X0027929Y0256721D01*
X0027855Y0256712D01*
X0027781Y0256707D01*
X0027708Y0256706D01*
X0027634Y0256709D01*
X0027560Y0256716D01*
X0027487Y0256727D01*
X0027414Y0256742D01*
X0027343Y0256760D01*
X0027272Y0256783D01*
X0027203Y0256809D01*
X0027135Y0256839D01*
X0027069Y0256873D01*
X0027005Y0256910D01*
X0026943Y0256950D01*
X0026883Y0256994D01*
X0026826Y0257040D01*
X0026771Y0257090D01*
X0026719Y0257143D01*
X0026670Y0257198D01*
X0026624Y0257256D01*
X0026582Y0257317D01*
X0026542Y0257379D01*
X0026506Y0257444D01*
X0026473Y0257510D01*
X0026444Y0257578D01*
X0026419Y0257648D01*
X0026397Y0257718D01*
X0026380Y0257790D01*
X0026366Y0257863D01*
X0026356Y0257936D01*
X0026350Y0258010D01*
X0026348Y0258084D01*
X0022980Y0264367D02*
X0022972Y0266532D01*
X0022973Y0266533D02*
X0022976Y0266608D01*
X0022975Y0266683D01*
X0022970Y0266757D01*
X0022962Y0266832D01*
X0022949Y0266906D01*
X0022933Y0266979D01*
X0022914Y0267052D01*
X0022890Y0267123D01*
X0022863Y0267193D01*
X0022833Y0267261D01*
X0022799Y0267328D01*
X0022762Y0267393D01*
X0022721Y0267456D01*
X0022677Y0267517D01*
X0022631Y0267576D01*
X0022581Y0267632D01*
X0022529Y0267686D01*
X0022474Y0267737D01*
X0022416Y0267785D01*
X0022356Y0267830D01*
X0022294Y0267872D01*
X0022230Y0267911D01*
X0022164Y0267947D01*
X0022096Y0267979D01*
X0022027Y0268007D01*
X0021957Y0268033D01*
X0021885Y0268054D01*
X0021812Y0268072D01*
X0021738Y0268086D01*
X0021664Y0268096D01*
X0021589Y0268103D01*
X0021589Y0268102D02*
X0020802Y0268099D01*
X0020801Y0268099D02*
X0020727Y0268092D01*
X0020653Y0268081D01*
X0020579Y0268067D01*
X0020506Y0268048D01*
X0020435Y0268026D01*
X0020364Y0268001D01*
X0020295Y0267971D01*
X0020228Y0267939D01*
X0020162Y0267903D01*
X0020098Y0267864D01*
X0020036Y0267821D01*
X0019977Y0267776D01*
X0019919Y0267727D01*
X0019865Y0267676D01*
X0019813Y0267622D01*
X0019764Y0267565D01*
X0019717Y0267506D01*
X0019674Y0267445D01*
X0019634Y0267381D01*
X0019597Y0267316D01*
X0019564Y0267249D01*
X0019534Y0267180D01*
X0019507Y0267110D01*
X0019485Y0267039D01*
X0019465Y0266966D01*
X0019450Y0266893D01*
X0019438Y0266819D01*
X0019430Y0266744D01*
X0019426Y0266669D01*
X0019425Y0266594D01*
X0019429Y0266519D01*
X0019429Y0266520D02*
X0019437Y0264355D01*
X0019437Y0264354D02*
X0019439Y0264282D01*
X0019445Y0264210D01*
X0019455Y0264139D01*
X0019468Y0264068D01*
X0019485Y0263998D01*
X0019506Y0263929D01*
X0019530Y0263861D01*
X0019558Y0263794D01*
X0019589Y0263729D01*
X0019624Y0263666D01*
X0019662Y0263604D01*
X0019703Y0263545D01*
X0019747Y0263488D01*
X0019794Y0263433D01*
X0019844Y0263381D01*
X0019897Y0263332D01*
X0019952Y0263285D01*
X0020009Y0263241D01*
X0020069Y0263201D01*
X0020130Y0263163D01*
X0020194Y0263129D01*
X0020259Y0263098D01*
X0020326Y0263071D01*
X0020394Y0263047D01*
X0020463Y0263027D01*
X0020533Y0263010D01*
X0020604Y0262997D01*
X0020676Y0262988D01*
X0020748Y0262983D01*
X0020820Y0262981D01*
X0020819Y0262981D02*
X0021607Y0262984D01*
X0021679Y0262986D01*
X0021751Y0262992D01*
X0021822Y0263002D01*
X0021893Y0263015D01*
X0021963Y0263032D01*
X0022032Y0263053D01*
X0022100Y0263077D01*
X0022167Y0263105D01*
X0022232Y0263136D01*
X0022295Y0263171D01*
X0022357Y0263209D01*
X0022416Y0263250D01*
X0022473Y0263294D01*
X0022528Y0263341D01*
X0022580Y0263391D01*
X0022629Y0263444D01*
X0022676Y0263499D01*
X0022720Y0263556D01*
X0022760Y0263616D01*
X0022798Y0263677D01*
X0022832Y0263741D01*
X0022863Y0263806D01*
X0022890Y0263873D01*
X0022914Y0263941D01*
X0022934Y0264010D01*
X0022951Y0264080D01*
X0022964Y0264151D01*
X0022973Y0264223D01*
X0022978Y0264295D01*
X0022980Y0264367D01*
X0026093Y0099141D02*
X0026095Y0099225D01*
X0026101Y0099308D01*
X0026111Y0099391D01*
X0026125Y0099474D01*
X0026142Y0099556D01*
X0026164Y0099637D01*
X0026189Y0099716D01*
X0026218Y0099795D01*
X0026251Y0099872D01*
X0026287Y0099947D01*
X0026327Y0100021D01*
X0026370Y0100093D01*
X0026417Y0100162D01*
X0026467Y0100229D01*
X0026520Y0100294D01*
X0026576Y0100356D01*
X0026634Y0100416D01*
X0026696Y0100473D01*
X0026760Y0100526D01*
X0026827Y0100577D01*
X0026896Y0100624D01*
X0026967Y0100669D01*
X0027040Y0100709D01*
X0027115Y0100746D01*
X0027192Y0100780D01*
X0027270Y0100810D01*
X0027349Y0100836D01*
X0027430Y0100859D01*
X0027512Y0100877D01*
X0027594Y0100892D01*
X0027677Y0100903D01*
X0027760Y0100910D01*
X0027844Y0100913D01*
X0027928Y0100912D01*
X0028011Y0100907D01*
X0028095Y0100898D01*
X0028177Y0100885D01*
X0028259Y0100869D01*
X0028340Y0100848D01*
X0028421Y0100824D01*
X0028499Y0100796D01*
X0028577Y0100764D01*
X0028653Y0100728D01*
X0028727Y0100689D01*
X0028799Y0100647D01*
X0028869Y0100601D01*
X0028937Y0100552D01*
X0029002Y0100500D01*
X0029065Y0100445D01*
X0029125Y0100387D01*
X0029183Y0100326D01*
X0029237Y0100262D01*
X0029289Y0100196D01*
X0029337Y0100128D01*
X0029382Y0100057D01*
X0029423Y0099984D01*
X0029462Y0099910D01*
X0029496Y0099834D01*
X0029527Y0099756D01*
X0029554Y0099677D01*
X0029578Y0099596D01*
X0029597Y0099515D01*
X0029613Y0099433D01*
X0029625Y0099350D01*
X0029633Y0099266D01*
X0029637Y0099183D01*
X0029637Y0099099D01*
X0029633Y0099016D01*
X0029625Y0098932D01*
X0029613Y0098849D01*
X0029597Y0098767D01*
X0029578Y0098686D01*
X0029554Y0098605D01*
X0029527Y0098526D01*
X0029496Y0098448D01*
X0029462Y0098372D01*
X0029423Y0098298D01*
X0029382Y0098225D01*
X0029337Y0098154D01*
X0029289Y0098086D01*
X0029237Y0098020D01*
X0029183Y0097956D01*
X0029125Y0097895D01*
X0029065Y0097837D01*
X0029002Y0097782D01*
X0028937Y0097730D01*
X0028869Y0097681D01*
X0028799Y0097635D01*
X0028727Y0097593D01*
X0028653Y0097554D01*
X0028577Y0097518D01*
X0028499Y0097486D01*
X0028421Y0097458D01*
X0028340Y0097434D01*
X0028259Y0097413D01*
X0028177Y0097397D01*
X0028095Y0097384D01*
X0028011Y0097375D01*
X0027928Y0097370D01*
X0027844Y0097369D01*
X0027760Y0097372D01*
X0027677Y0097379D01*
X0027594Y0097390D01*
X0027512Y0097405D01*
X0027430Y0097423D01*
X0027349Y0097446D01*
X0027270Y0097472D01*
X0027192Y0097502D01*
X0027115Y0097536D01*
X0027040Y0097573D01*
X0026967Y0097613D01*
X0026896Y0097658D01*
X0026827Y0097705D01*
X0026760Y0097756D01*
X0026696Y0097809D01*
X0026634Y0097866D01*
X0026576Y0097926D01*
X0026520Y0097988D01*
X0026467Y0098053D01*
X0026417Y0098120D01*
X0026370Y0098189D01*
X0026327Y0098261D01*
X0026287Y0098335D01*
X0026251Y0098410D01*
X0026218Y0098487D01*
X0026189Y0098566D01*
X0026164Y0098645D01*
X0026142Y0098726D01*
X0026125Y0098808D01*
X0026111Y0098891D01*
X0026101Y0098974D01*
X0026095Y0099057D01*
X0026093Y0099141D01*
X0027354Y0072399D02*
X0027356Y0072483D01*
X0027362Y0072566D01*
X0027372Y0072649D01*
X0027386Y0072732D01*
X0027403Y0072814D01*
X0027425Y0072895D01*
X0027450Y0072974D01*
X0027479Y0073053D01*
X0027512Y0073130D01*
X0027548Y0073205D01*
X0027588Y0073279D01*
X0027631Y0073351D01*
X0027678Y0073420D01*
X0027728Y0073487D01*
X0027781Y0073552D01*
X0027837Y0073614D01*
X0027895Y0073674D01*
X0027957Y0073731D01*
X0028021Y0073784D01*
X0028088Y0073835D01*
X0028157Y0073882D01*
X0028228Y0073927D01*
X0028301Y0073967D01*
X0028376Y0074004D01*
X0028453Y0074038D01*
X0028531Y0074068D01*
X0028610Y0074094D01*
X0028691Y0074117D01*
X0028773Y0074135D01*
X0028855Y0074150D01*
X0028938Y0074161D01*
X0029021Y0074168D01*
X0029105Y0074171D01*
X0029189Y0074170D01*
X0029272Y0074165D01*
X0029356Y0074156D01*
X0029438Y0074143D01*
X0029520Y0074127D01*
X0029601Y0074106D01*
X0029682Y0074082D01*
X0029760Y0074054D01*
X0029838Y0074022D01*
X0029914Y0073986D01*
X0029988Y0073947D01*
X0030060Y0073905D01*
X0030130Y0073859D01*
X0030198Y0073810D01*
X0030263Y0073758D01*
X0030326Y0073703D01*
X0030386Y0073645D01*
X0030444Y0073584D01*
X0030498Y0073520D01*
X0030550Y0073454D01*
X0030598Y0073386D01*
X0030643Y0073315D01*
X0030684Y0073242D01*
X0030723Y0073168D01*
X0030757Y0073092D01*
X0030788Y0073014D01*
X0030815Y0072935D01*
X0030839Y0072854D01*
X0030858Y0072773D01*
X0030874Y0072691D01*
X0030886Y0072608D01*
X0030894Y0072524D01*
X0030898Y0072441D01*
X0030898Y0072357D01*
X0030894Y0072274D01*
X0030886Y0072190D01*
X0030874Y0072107D01*
X0030858Y0072025D01*
X0030839Y0071944D01*
X0030815Y0071863D01*
X0030788Y0071784D01*
X0030757Y0071706D01*
X0030723Y0071630D01*
X0030684Y0071556D01*
X0030643Y0071483D01*
X0030598Y0071412D01*
X0030550Y0071344D01*
X0030498Y0071278D01*
X0030444Y0071214D01*
X0030386Y0071153D01*
X0030326Y0071095D01*
X0030263Y0071040D01*
X0030198Y0070988D01*
X0030130Y0070939D01*
X0030060Y0070893D01*
X0029988Y0070851D01*
X0029914Y0070812D01*
X0029838Y0070776D01*
X0029760Y0070744D01*
X0029682Y0070716D01*
X0029601Y0070692D01*
X0029520Y0070671D01*
X0029438Y0070655D01*
X0029356Y0070642D01*
X0029272Y0070633D01*
X0029189Y0070628D01*
X0029105Y0070627D01*
X0029021Y0070630D01*
X0028938Y0070637D01*
X0028855Y0070648D01*
X0028773Y0070663D01*
X0028691Y0070681D01*
X0028610Y0070704D01*
X0028531Y0070730D01*
X0028453Y0070760D01*
X0028376Y0070794D01*
X0028301Y0070831D01*
X0028228Y0070871D01*
X0028157Y0070916D01*
X0028088Y0070963D01*
X0028021Y0071014D01*
X0027957Y0071067D01*
X0027895Y0071124D01*
X0027837Y0071184D01*
X0027781Y0071246D01*
X0027728Y0071311D01*
X0027678Y0071378D01*
X0027631Y0071447D01*
X0027588Y0071519D01*
X0027548Y0071593D01*
X0027512Y0071668D01*
X0027479Y0071745D01*
X0027450Y0071824D01*
X0027425Y0071903D01*
X0027403Y0071984D01*
X0027386Y0072066D01*
X0027372Y0072149D01*
X0027362Y0072232D01*
X0027356Y0072315D01*
X0027354Y0072399D01*
D18*
X0125753Y0152422D02*
X0125815Y0152420D01*
X0125877Y0152415D01*
X0125938Y0152406D01*
X0125999Y0152393D01*
X0126059Y0152377D01*
X0126118Y0152358D01*
X0126176Y0152335D01*
X0126232Y0152309D01*
X0126287Y0152280D01*
X0126340Y0152247D01*
X0126391Y0152212D01*
X0126440Y0152174D01*
X0126487Y0152132D01*
X0126531Y0152089D01*
X0128753Y0150200D01*
X0128753Y0152422D01*
X0128753Y0154350D02*
X0128753Y0154572D01*
X0128531Y0154572D01*
X0128531Y0154350D01*
X0128753Y0154350D01*
X0127865Y0156500D02*
X0124753Y0157389D01*
X0126976Y0158056D02*
X0128753Y0158056D01*
X0127865Y0158722D02*
X0127865Y0156500D01*
X0132253Y0156792D02*
X0132253Y0155681D01*
X0136253Y0155681D01*
X0134476Y0155681D02*
X0134476Y0156792D01*
X0134474Y0156858D01*
X0134468Y0156923D01*
X0134458Y0156989D01*
X0134445Y0157053D01*
X0134428Y0157116D01*
X0134406Y0157179D01*
X0134382Y0157240D01*
X0134353Y0157299D01*
X0134322Y0157357D01*
X0134286Y0157413D01*
X0134248Y0157466D01*
X0134207Y0157517D01*
X0134162Y0157566D01*
X0134115Y0157612D01*
X0134065Y0157655D01*
X0134013Y0157695D01*
X0133958Y0157731D01*
X0133901Y0157765D01*
X0133843Y0157795D01*
X0133783Y0157822D01*
X0133721Y0157844D01*
X0133658Y0157864D01*
X0133594Y0157879D01*
X0133529Y0157891D01*
X0133464Y0157899D01*
X0133398Y0157903D01*
X0133332Y0157903D01*
X0133266Y0157899D01*
X0133201Y0157891D01*
X0133136Y0157879D01*
X0133072Y0157864D01*
X0133009Y0157844D01*
X0132947Y0157822D01*
X0132887Y0157795D01*
X0132829Y0157765D01*
X0132772Y0157731D01*
X0132717Y0157695D01*
X0132665Y0157655D01*
X0132615Y0157612D01*
X0132568Y0157566D01*
X0132523Y0157517D01*
X0132482Y0157466D01*
X0132444Y0157413D01*
X0132408Y0157357D01*
X0132377Y0157299D01*
X0132348Y0157240D01*
X0132324Y0157179D01*
X0132302Y0157116D01*
X0132285Y0157053D01*
X0132272Y0156989D01*
X0132262Y0156923D01*
X0132256Y0156858D01*
X0132254Y0156792D01*
X0132253Y0159681D02*
X0132253Y0160569D01*
X0132253Y0160125D02*
X0136253Y0160125D01*
X0136253Y0159681D02*
X0136253Y0160569D01*
X0136253Y0165825D02*
X0132253Y0165825D01*
X0132253Y0164714D02*
X0132253Y0166936D01*
X0132253Y0169079D02*
X0132253Y0170857D01*
X0132253Y0172514D02*
X0132253Y0174736D01*
X0132253Y0173625D02*
X0136253Y0173625D01*
X0134031Y0170857D02*
X0134031Y0169079D01*
X0132253Y0169079D02*
X0136253Y0169079D01*
X0128753Y0167950D02*
X0126753Y0167950D01*
X0126703Y0167948D01*
X0126654Y0167943D01*
X0126605Y0167933D01*
X0126556Y0167920D01*
X0126509Y0167904D01*
X0126464Y0167884D01*
X0126420Y0167861D01*
X0126377Y0167834D01*
X0126337Y0167804D01*
X0126299Y0167772D01*
X0126264Y0167737D01*
X0126232Y0167699D01*
X0126202Y0167659D01*
X0126175Y0167617D01*
X0126152Y0167572D01*
X0126132Y0167527D01*
X0126116Y0167480D01*
X0126103Y0167431D01*
X0126093Y0167382D01*
X0126088Y0167333D01*
X0126086Y0167283D01*
X0126087Y0167283D02*
X0126087Y0166172D01*
X0128753Y0166172D01*
X0128753Y0164056D02*
X0128753Y0163167D01*
X0128753Y0163611D02*
X0124753Y0163611D01*
X0124753Y0163167D02*
X0124753Y0164056D01*
X0126753Y0170231D02*
X0128087Y0170231D01*
X0128137Y0170233D01*
X0128186Y0170238D01*
X0128235Y0170248D01*
X0128284Y0170261D01*
X0128331Y0170277D01*
X0128376Y0170297D01*
X0128421Y0170320D01*
X0128463Y0170347D01*
X0128503Y0170377D01*
X0128541Y0170409D01*
X0128576Y0170444D01*
X0128608Y0170482D01*
X0128638Y0170522D01*
X0128665Y0170565D01*
X0128688Y0170609D01*
X0128708Y0170654D01*
X0128724Y0170701D01*
X0128737Y0170750D01*
X0128747Y0170799D01*
X0128752Y0170848D01*
X0128754Y0170898D01*
X0128753Y0170898D02*
X0128753Y0171787D01*
X0128753Y0173822D02*
X0124753Y0173822D01*
X0126087Y0173822D02*
X0126087Y0174933D01*
X0126086Y0174933D02*
X0126088Y0174983D01*
X0126093Y0175032D01*
X0126103Y0175081D01*
X0126116Y0175130D01*
X0126132Y0175177D01*
X0126152Y0175222D01*
X0126175Y0175267D01*
X0126202Y0175309D01*
X0126232Y0175349D01*
X0126264Y0175387D01*
X0126299Y0175422D01*
X0126337Y0175454D01*
X0126377Y0175484D01*
X0126420Y0175511D01*
X0126464Y0175534D01*
X0126509Y0175554D01*
X0126556Y0175570D01*
X0126605Y0175583D01*
X0126654Y0175593D01*
X0126703Y0175598D01*
X0126753Y0175600D01*
X0128753Y0175600D01*
X0126087Y0171787D02*
X0126087Y0170898D01*
X0126086Y0170898D02*
X0126088Y0170848D01*
X0126093Y0170799D01*
X0126103Y0170750D01*
X0126116Y0170701D01*
X0126132Y0170654D01*
X0126152Y0170609D01*
X0126175Y0170565D01*
X0126202Y0170522D01*
X0126232Y0170482D01*
X0126264Y0170444D01*
X0126299Y0170409D01*
X0126337Y0170377D01*
X0126377Y0170347D01*
X0126420Y0170320D01*
X0126464Y0170297D01*
X0126509Y0170277D01*
X0126556Y0170261D01*
X0126605Y0170248D01*
X0126654Y0170238D01*
X0126703Y0170233D01*
X0126753Y0170231D01*
X0124753Y0151422D02*
X0124755Y0151352D01*
X0124761Y0151282D01*
X0124770Y0151212D01*
X0124784Y0151143D01*
X0124801Y0151075D01*
X0124822Y0151008D01*
X0124846Y0150942D01*
X0124874Y0150878D01*
X0124905Y0150815D01*
X0124940Y0150754D01*
X0124979Y0150695D01*
X0125020Y0150638D01*
X0125064Y0150584D01*
X0125111Y0150532D01*
X0125162Y0150482D01*
X0125214Y0150436D01*
X0125269Y0150392D01*
X0125327Y0150352D01*
X0125386Y0150315D01*
X0125448Y0150281D01*
X0125511Y0150250D01*
X0125576Y0150223D01*
X0125642Y0150200D01*
X0124753Y0151422D02*
X0124755Y0151482D01*
X0124760Y0151543D01*
X0124769Y0151602D01*
X0124782Y0151661D01*
X0124798Y0151720D01*
X0124818Y0151777D01*
X0124841Y0151832D01*
X0124868Y0151887D01*
X0124897Y0151939D01*
X0124930Y0151990D01*
X0124966Y0152039D01*
X0125004Y0152085D01*
X0125046Y0152129D01*
X0125090Y0152171D01*
X0125136Y0152209D01*
X0125185Y0152245D01*
X0125236Y0152278D01*
X0125288Y0152307D01*
X0125343Y0152334D01*
X0125398Y0152357D01*
X0125455Y0152377D01*
X0125514Y0152393D01*
X0125573Y0152406D01*
X0125632Y0152415D01*
X0125693Y0152420D01*
X0125753Y0152422D01*
X0133142Y0151175D02*
X0133201Y0151177D01*
X0133259Y0151183D01*
X0133317Y0151192D01*
X0133374Y0151205D01*
X0133430Y0151222D01*
X0133485Y0151243D01*
X0133538Y0151267D01*
X0133590Y0151294D01*
X0133640Y0151325D01*
X0133688Y0151359D01*
X0133733Y0151395D01*
X0133776Y0151435D01*
X0133817Y0151478D01*
X0133854Y0151523D01*
X0133889Y0151570D01*
X0133920Y0151620D01*
X0133920Y0151619D02*
X0134587Y0152842D01*
X0136254Y0152397D02*
X0136252Y0152315D01*
X0136247Y0152232D01*
X0136238Y0152151D01*
X0136225Y0152069D01*
X0136209Y0151988D01*
X0136189Y0151908D01*
X0136166Y0151829D01*
X0136140Y0151751D01*
X0136110Y0151675D01*
X0136076Y0151599D01*
X0136040Y0151526D01*
X0136000Y0151453D01*
X0135957Y0151383D01*
X0135911Y0151315D01*
X0135862Y0151249D01*
X0135810Y0151185D01*
X0135756Y0151123D01*
X0135698Y0151064D01*
X0134587Y0152841D02*
X0134618Y0152891D01*
X0134653Y0152938D01*
X0134690Y0152983D01*
X0134731Y0153026D01*
X0134774Y0153066D01*
X0134819Y0153102D01*
X0134867Y0153136D01*
X0134917Y0153167D01*
X0134969Y0153194D01*
X0135022Y0153218D01*
X0135077Y0153239D01*
X0135133Y0153256D01*
X0135190Y0153269D01*
X0135248Y0153278D01*
X0135306Y0153284D01*
X0135365Y0153286D01*
X0135423Y0153284D01*
X0135481Y0153278D01*
X0135538Y0153269D01*
X0135595Y0153256D01*
X0135651Y0153239D01*
X0135705Y0153218D01*
X0135758Y0153194D01*
X0135810Y0153167D01*
X0135859Y0153136D01*
X0135906Y0153102D01*
X0135951Y0153065D01*
X0135994Y0153026D01*
X0136033Y0152983D01*
X0136070Y0152938D01*
X0136104Y0152891D01*
X0136135Y0152842D01*
X0136162Y0152790D01*
X0136186Y0152737D01*
X0136207Y0152683D01*
X0136224Y0152627D01*
X0136237Y0152570D01*
X0136246Y0152513D01*
X0136252Y0152455D01*
X0136254Y0152397D01*
X0132586Y0153064D02*
X0132542Y0153002D01*
X0132500Y0152938D01*
X0132462Y0152871D01*
X0132426Y0152804D01*
X0132394Y0152734D01*
X0132364Y0152663D01*
X0132339Y0152591D01*
X0132316Y0152518D01*
X0132297Y0152444D01*
X0132281Y0152369D01*
X0132269Y0152293D01*
X0132260Y0152217D01*
X0132255Y0152141D01*
X0132253Y0152064D01*
X0132255Y0152006D01*
X0132261Y0151948D01*
X0132270Y0151891D01*
X0132283Y0151834D01*
X0132300Y0151778D01*
X0132321Y0151724D01*
X0132345Y0151671D01*
X0132372Y0151620D01*
X0132403Y0151570D01*
X0132437Y0151523D01*
X0132474Y0151478D01*
X0132513Y0151435D01*
X0132556Y0151396D01*
X0132601Y0151359D01*
X0132648Y0151325D01*
X0132698Y0151294D01*
X0132749Y0151267D01*
X0132802Y0151243D01*
X0132856Y0151222D01*
X0132912Y0151205D01*
X0132969Y0151192D01*
X0133026Y0151183D01*
X0133084Y0151177D01*
X0133142Y0151175D01*
X0144251Y0152616D02*
X0144251Y0153949D01*
X0144253Y0154007D01*
X0144259Y0154065D01*
X0144268Y0154122D01*
X0144281Y0154179D01*
X0144298Y0154235D01*
X0144319Y0154289D01*
X0144343Y0154342D01*
X0144370Y0154394D01*
X0144401Y0154443D01*
X0144435Y0154490D01*
X0144472Y0154535D01*
X0144511Y0154578D01*
X0144554Y0154617D01*
X0144599Y0154654D01*
X0144646Y0154688D01*
X0144696Y0154719D01*
X0144747Y0154746D01*
X0144800Y0154770D01*
X0144854Y0154791D01*
X0144910Y0154808D01*
X0144967Y0154821D01*
X0145024Y0154830D01*
X0145082Y0154836D01*
X0145140Y0154838D01*
X0145198Y0154836D01*
X0145256Y0154830D01*
X0145313Y0154821D01*
X0145370Y0154808D01*
X0145426Y0154791D01*
X0145480Y0154770D01*
X0145533Y0154746D01*
X0145585Y0154719D01*
X0145634Y0154688D01*
X0145681Y0154654D01*
X0145726Y0154617D01*
X0145769Y0154578D01*
X0145808Y0154535D01*
X0145845Y0154490D01*
X0145879Y0154443D01*
X0145910Y0154394D01*
X0145937Y0154342D01*
X0145961Y0154289D01*
X0145982Y0154235D01*
X0145999Y0154179D01*
X0146012Y0154122D01*
X0146021Y0154065D01*
X0146027Y0154007D01*
X0146029Y0153949D01*
X0146029Y0153060D01*
X0146029Y0153727D02*
X0146031Y0153793D01*
X0146037Y0153858D01*
X0146047Y0153924D01*
X0146060Y0153988D01*
X0146077Y0154051D01*
X0146099Y0154114D01*
X0146123Y0154175D01*
X0146152Y0154234D01*
X0146183Y0154292D01*
X0146219Y0154348D01*
X0146257Y0154401D01*
X0146298Y0154452D01*
X0146343Y0154501D01*
X0146390Y0154547D01*
X0146440Y0154590D01*
X0146492Y0154630D01*
X0146547Y0154666D01*
X0146604Y0154700D01*
X0146662Y0154730D01*
X0146722Y0154757D01*
X0146784Y0154779D01*
X0146847Y0154799D01*
X0146911Y0154814D01*
X0146976Y0154826D01*
X0147041Y0154834D01*
X0147107Y0154838D01*
X0147173Y0154838D01*
X0147239Y0154834D01*
X0147304Y0154826D01*
X0147369Y0154814D01*
X0147433Y0154799D01*
X0147496Y0154779D01*
X0147558Y0154757D01*
X0147618Y0154730D01*
X0147676Y0154700D01*
X0147733Y0154666D01*
X0147788Y0154630D01*
X0147840Y0154590D01*
X0147890Y0154547D01*
X0147937Y0154501D01*
X0147982Y0154452D01*
X0148023Y0154401D01*
X0148061Y0154348D01*
X0148097Y0154292D01*
X0148128Y0154234D01*
X0148157Y0154175D01*
X0148181Y0154114D01*
X0148203Y0154051D01*
X0148220Y0153988D01*
X0148233Y0153924D01*
X0148243Y0153858D01*
X0148249Y0153793D01*
X0148251Y0153727D01*
X0148251Y0152616D01*
X0146474Y0150338D02*
X0145363Y0150338D01*
X0146474Y0150338D02*
X0146474Y0149005D01*
X0146474Y0150338D02*
X0146556Y0150336D01*
X0146638Y0150330D01*
X0146720Y0150321D01*
X0146801Y0150308D01*
X0146881Y0150291D01*
X0146961Y0150270D01*
X0147039Y0150246D01*
X0147116Y0150218D01*
X0147192Y0150187D01*
X0147267Y0150152D01*
X0147339Y0150113D01*
X0147410Y0150072D01*
X0147479Y0150027D01*
X0147545Y0149979D01*
X0147610Y0149928D01*
X0147672Y0149874D01*
X0147731Y0149817D01*
X0147788Y0149758D01*
X0147842Y0149696D01*
X0147893Y0149631D01*
X0147941Y0149565D01*
X0147986Y0149496D01*
X0148027Y0149425D01*
X0148066Y0149353D01*
X0148101Y0149278D01*
X0148132Y0149202D01*
X0148160Y0149125D01*
X0148184Y0149047D01*
X0148205Y0148967D01*
X0148222Y0148887D01*
X0148235Y0148806D01*
X0148244Y0148724D01*
X0148250Y0148642D01*
X0148252Y0148560D01*
X0148251Y0146072D02*
X0148251Y0145183D01*
X0148251Y0145627D02*
X0144251Y0145627D01*
X0144251Y0145183D02*
X0144251Y0146072D01*
X0145363Y0148116D02*
X0145585Y0148116D01*
X0145643Y0148118D01*
X0145701Y0148124D01*
X0145758Y0148133D01*
X0145815Y0148146D01*
X0145871Y0148163D01*
X0145925Y0148184D01*
X0145978Y0148208D01*
X0146030Y0148235D01*
X0146079Y0148266D01*
X0146126Y0148300D01*
X0146171Y0148337D01*
X0146214Y0148376D01*
X0146253Y0148419D01*
X0146290Y0148464D01*
X0146324Y0148511D01*
X0146355Y0148561D01*
X0146382Y0148612D01*
X0146406Y0148665D01*
X0146427Y0148719D01*
X0146444Y0148775D01*
X0146457Y0148832D01*
X0146466Y0148889D01*
X0146472Y0148947D01*
X0146474Y0149005D01*
X0145363Y0148116D02*
X0145297Y0148118D01*
X0145232Y0148124D01*
X0145166Y0148134D01*
X0145102Y0148147D01*
X0145039Y0148164D01*
X0144976Y0148186D01*
X0144915Y0148210D01*
X0144856Y0148239D01*
X0144798Y0148270D01*
X0144742Y0148306D01*
X0144689Y0148344D01*
X0144638Y0148385D01*
X0144589Y0148430D01*
X0144543Y0148477D01*
X0144500Y0148527D01*
X0144460Y0148579D01*
X0144424Y0148634D01*
X0144390Y0148691D01*
X0144360Y0148749D01*
X0144333Y0148809D01*
X0144311Y0148871D01*
X0144291Y0148934D01*
X0144276Y0148998D01*
X0144264Y0149063D01*
X0144256Y0149128D01*
X0144252Y0149194D01*
X0144252Y0149260D01*
X0144256Y0149326D01*
X0144264Y0149391D01*
X0144276Y0149456D01*
X0144291Y0149520D01*
X0144311Y0149583D01*
X0144333Y0149645D01*
X0144360Y0149705D01*
X0144390Y0149763D01*
X0144424Y0149820D01*
X0144460Y0149875D01*
X0144500Y0149927D01*
X0144543Y0149977D01*
X0144589Y0150024D01*
X0144638Y0150069D01*
X0144689Y0150110D01*
X0144742Y0150148D01*
X0144798Y0150184D01*
X0144856Y0150215D01*
X0144915Y0150244D01*
X0144976Y0150268D01*
X0145039Y0150290D01*
X0145102Y0150307D01*
X0145166Y0150320D01*
X0145232Y0150330D01*
X0145297Y0150336D01*
X0145363Y0150338D01*
X0148251Y0143459D02*
X0148251Y0141682D01*
X0144251Y0141682D01*
X0144251Y0139472D02*
X0144251Y0138583D01*
X0144251Y0139027D02*
X0148251Y0139027D01*
X0148251Y0138583D02*
X0148251Y0139472D01*
X0147363Y0157116D02*
X0144251Y0158005D01*
X0146474Y0158672D02*
X0148251Y0158672D01*
X0147363Y0159338D02*
X0147363Y0157116D01*
X0148251Y0161616D02*
X0148251Y0163838D01*
X0148251Y0162727D02*
X0144251Y0162727D01*
X0145140Y0161616D01*
X0144251Y0168666D02*
X0144251Y0169777D01*
X0144251Y0168666D02*
X0148251Y0168666D01*
X0148251Y0169777D01*
X0148249Y0169842D01*
X0148243Y0169906D01*
X0148234Y0169970D01*
X0148221Y0170033D01*
X0148204Y0170096D01*
X0148184Y0170157D01*
X0148160Y0170217D01*
X0148133Y0170276D01*
X0148102Y0170333D01*
X0148068Y0170388D01*
X0148031Y0170440D01*
X0147991Y0170491D01*
X0147948Y0170539D01*
X0147902Y0170585D01*
X0147854Y0170628D01*
X0147803Y0170668D01*
X0147751Y0170705D01*
X0147696Y0170739D01*
X0147639Y0170770D01*
X0147580Y0170797D01*
X0147520Y0170821D01*
X0147459Y0170841D01*
X0147396Y0170858D01*
X0147333Y0170871D01*
X0147269Y0170880D01*
X0147205Y0170886D01*
X0147140Y0170888D01*
X0145363Y0170888D01*
X0145298Y0170886D01*
X0145234Y0170880D01*
X0145170Y0170871D01*
X0145107Y0170858D01*
X0145044Y0170841D01*
X0144983Y0170821D01*
X0144923Y0170797D01*
X0144864Y0170770D01*
X0144808Y0170739D01*
X0144753Y0170705D01*
X0144700Y0170668D01*
X0144649Y0170628D01*
X0144601Y0170585D01*
X0144555Y0170539D01*
X0144512Y0170491D01*
X0144472Y0170440D01*
X0144435Y0170388D01*
X0144401Y0170333D01*
X0144370Y0170276D01*
X0144343Y0170217D01*
X0144319Y0170157D01*
X0144299Y0170096D01*
X0144282Y0170033D01*
X0144269Y0169970D01*
X0144260Y0169906D01*
X0144254Y0169842D01*
X0144252Y0169777D01*
X0145585Y0173434D02*
X0145585Y0174767D01*
X0146029Y0174767D01*
X0145585Y0173434D02*
X0148251Y0173434D01*
X0148251Y0176227D02*
X0145585Y0176227D01*
X0144474Y0176338D02*
X0144474Y0176116D01*
X0144251Y0176116D01*
X0144251Y0176338D01*
X0144474Y0176338D01*
X0145585Y0178038D02*
X0148251Y0178927D01*
X0145585Y0179816D01*
X0146474Y0181788D02*
X0147585Y0181788D01*
X0147635Y0181790D01*
X0147684Y0181795D01*
X0147733Y0181805D01*
X0147782Y0181818D01*
X0147829Y0181834D01*
X0147874Y0181854D01*
X0147919Y0181877D01*
X0147961Y0181904D01*
X0148001Y0181934D01*
X0148039Y0181966D01*
X0148074Y0182001D01*
X0148106Y0182039D01*
X0148136Y0182079D01*
X0148163Y0182122D01*
X0148186Y0182166D01*
X0148206Y0182211D01*
X0148222Y0182258D01*
X0148235Y0182307D01*
X0148245Y0182356D01*
X0148250Y0182405D01*
X0148252Y0182455D01*
X0148251Y0182455D02*
X0148251Y0183566D01*
X0146918Y0183566D02*
X0146918Y0181788D01*
X0146474Y0181788D02*
X0146416Y0181790D01*
X0146358Y0181796D01*
X0146301Y0181805D01*
X0146244Y0181818D01*
X0146188Y0181835D01*
X0146134Y0181856D01*
X0146081Y0181880D01*
X0146030Y0181907D01*
X0145980Y0181938D01*
X0145933Y0181972D01*
X0145888Y0182009D01*
X0145845Y0182048D01*
X0145806Y0182091D01*
X0145769Y0182136D01*
X0145735Y0182183D01*
X0145704Y0182233D01*
X0145677Y0182284D01*
X0145653Y0182337D01*
X0145632Y0182391D01*
X0145615Y0182447D01*
X0145602Y0182504D01*
X0145593Y0182561D01*
X0145587Y0182619D01*
X0145585Y0182677D01*
X0145587Y0182735D01*
X0145593Y0182793D01*
X0145602Y0182850D01*
X0145615Y0182907D01*
X0145632Y0182963D01*
X0145653Y0183017D01*
X0145677Y0183070D01*
X0145704Y0183122D01*
X0145735Y0183171D01*
X0145769Y0183218D01*
X0145806Y0183263D01*
X0145845Y0183306D01*
X0145888Y0183345D01*
X0145933Y0183382D01*
X0145980Y0183416D01*
X0146030Y0183447D01*
X0146081Y0183474D01*
X0146134Y0183498D01*
X0146188Y0183519D01*
X0146244Y0183536D01*
X0146301Y0183549D01*
X0146358Y0183558D01*
X0146416Y0183564D01*
X0146474Y0183566D01*
X0146918Y0183566D01*
X0148251Y0185884D02*
X0145585Y0185884D01*
X0145585Y0187217D01*
X0146029Y0187217D01*
D19*
X0299733Y0112400D02*
X0299776Y0089235D01*
M02*
